<svg width="571" height="970" viewBox="0 0 571 970" fill="none" xmlns="http://www.w3.org/2000/svg">
<path d="M249.014 659.738L249.351 659.624C250.336 659.069 251.105 658.196 251.531 657.148C251.957 656.1 252.016 654.939 251.698 653.853C251.698 653.853 252.95 658.004 256.653 656.979L256.45 656.912C255.424 657.43 254.616 658.296 254.171 659.356C253.727 660.416 253.674 661.6 254.024 662.695C254.024 662.695 252.806 658.555 249.182 659.569L248.912 659.48L249.014 659.738Z" fill="white"/>
<path d="M38.6922 403.843C38.5626 403.849 38.436 403.884 38.322 403.946L39.0398 403.696C46.1265 400.568 43.7902 391.984 43.7902 391.984C43.7902 391.984 46.2619 400.725 53.8569 398.325L54.2831 398.166C54.2831 398.166 54.2831 398.166 54.4856 398.233L54.0145 398.414C46.5793 401.465 49.0511 410.205 49.0511 410.205C49.0511 410.205 46.5576 401.645 39.1637 403.774L38.5581 404.024L38.6922 403.843Z" fill="white"/>
<path d="M99.6883 335.738C99.6883 335.738 99.4859 335.671 99.3407 335.885L100.025 335.624C107.145 332.507 104.82 323.89 104.82 323.89C104.82 323.89 107.258 332.619 114.887 330.231L115.268 330.094L115.471 330.161L115 330.342C107.564 333.393 110.036 342.134 110.036 342.134C110.036 342.134 107.543 333.573 100.182 335.714L99.5431 335.952L99.6883 335.738Z" fill="white"/>
<path d="M78.5909 369.406L78.9723 369.269C79.958 368.714 80.7265 367.841 81.1527 366.793C81.579 365.745 81.6379 364.583 81.3197 363.498C81.3197 363.498 82.5716 367.649 86.2295 366.646L85.9715 366.748C84.9408 367.271 84.1296 368.143 83.6831 369.208C83.2366 370.274 83.1839 371.464 83.5344 372.565C83.5344 372.565 82.2826 368.414 78.6695 369.394L78.3667 369.519L78.5909 369.406Z" fill="white"/>
<path d="M107.532 413.851L107.868 413.738C108.872 413.203 109.658 412.336 110.092 411.285C110.527 410.234 110.582 409.065 110.249 407.977C110.249 407.977 111.501 412.128 115.17 411.092L114.867 410.992C113.84 411.51 113.032 412.376 112.588 413.436C112.143 414.496 112.091 415.68 112.441 416.775C112.441 416.775 111.189 412.624 107.576 413.604L107.273 413.729L107.532 413.851Z" fill="white"/>
<path d="M157.237 319.82L157.574 319.707C158.569 319.161 159.345 318.289 159.773 317.238C160.2 316.187 160.253 315.02 159.921 313.935C159.921 313.935 161.173 318.086 164.876 317.061L165.044 317.116L164.842 317.05C163.811 317.572 163 318.444 162.553 319.51C162.107 320.576 162.054 321.765 162.405 322.866C162.405 322.866 161.187 318.726 157.574 319.707L157.237 319.82Z" fill="white"/>
<path d="M265.29 607.881L265.637 607.733C266.628 607.192 267.401 606.326 267.827 605.28C268.252 604.235 268.304 603.075 267.974 601.995C267.974 601.995 269.225 606.147 272.928 605.121L272.726 605.055C271.7 605.582 270.893 606.455 270.447 607.519C270.002 608.583 269.945 609.77 270.289 610.871C270.289 610.871 269.07 606.731 265.457 607.711L265.121 607.825C265.17 607.861 265.229 607.881 265.29 607.881Z" fill="white"/>
<path d="M152.187 555.79L152.524 555.676C153.523 555.135 154.304 554.264 154.732 553.211C155.16 552.159 155.209 550.99 154.871 549.905C154.871 549.905 156.123 554.056 159.826 553.03L159.623 552.964C158.594 553.486 157.781 554.354 157.329 555.416C156.877 556.478 156.815 557.666 157.152 558.769C157.152 558.769 155.934 554.629 152.321 555.61L152.018 555.734L152.187 555.79Z" fill="white"/>
<path d="M71.2183 299.86L71.5548 299.746C72.5497 299.201 73.3263 298.329 73.7539 297.278C74.1814 296.227 74.2338 295.06 73.9022 293.975C73.9022 293.975 75.1541 298.126 78.8568 297.101C77.8224 297.617 77.0057 298.485 76.5529 299.549C76.1002 300.613 76.041 301.803 76.3859 302.906C76.3859 302.906 75.1678 298.766 71.5548 299.746L71.252 299.871L71.2183 299.86Z" fill="white"/>
<path d="M124.818 368.011L125.166 367.864C126.103 367.273 126.815 366.383 127.186 365.339C127.557 364.294 127.565 363.155 127.21 362.105C127.21 362.105 128.462 366.256 132.153 365.264C131.152 365.806 130.373 366.68 129.95 367.737C129.527 368.793 129.488 369.965 129.84 371.047C129.84 371.047 128.621 366.907 124.997 367.921L124.695 368.045L124.818 368.011Z" fill="white"/>
<path d="M64.38 346.221L64.7276 346.074C65.7133 345.518 66.4818 344.645 66.9081 343.597C67.3343 342.549 67.3932 341.388 67.0751 340.302C67.0751 340.302 68.3269 344.453 72.0296 343.428L71.9741 343.596C70.9478 344.114 70.1398 344.981 69.6951 346.041C69.2505 347.101 69.1984 348.285 69.5481 349.379C69.5481 349.379 68.2963 345.228 64.6721 346.242L64.436 346.165L64.38 346.221Z" fill="white"/>
<path d="M25.0571 355.272L25.3937 355.158C26.3886 354.612 27.1652 353.741 27.5927 352.689C28.0203 351.638 28.0727 350.472 27.7411 349.387C27.7411 349.387 28.9929 353.538 32.6956 352.512L32.4932 352.446C31.4669 352.963 30.6589 353.83 30.2142 354.89C29.7695 355.95 29.7174 357.134 30.0672 358.229C30.0672 358.229 28.8491 354.089 25.2361 355.069L24.9333 355.194L25.0571 355.272Z" fill="white"/>
<path d="M95.6252 296.709L95.2549 296.812L95.9617 296.595C103.082 293.479 100.712 284.884 100.712 284.884C100.712 284.884 103.15 293.613 110.779 291.224L111.205 291.065L111.407 291.132L110.936 291.314C103.501 294.364 105.939 303.094 105.939 303.094C105.939 303.094 103.479 294.544 96.0856 296.674L95.4574 296.878C95.522 296.831 95.5787 296.774 95.6252 296.709Z" fill="white"/>
<path d="M226.937 535.323L227.274 535.209C228.277 534.675 229.063 533.807 229.498 532.757C229.932 531.706 229.988 530.536 229.655 529.449C229.655 529.449 230.873 533.589 234.576 532.564L234.744 532.619L234.576 532.564C233.549 533.081 232.741 533.948 232.297 535.008C231.852 536.068 231.8 537.252 232.15 538.347C232.15 538.347 230.898 534.196 227.285 535.176L226.982 535.3L226.937 535.323Z" fill="white"/>
<path d="M189.373 548.916L189.103 548.827L189.776 548.6C196.896 545.483 194.56 536.899 194.56 536.899C194.56 536.899 197.009 545.595 204.627 543.24L205.053 543.081L204.884 543.025L205.053 543.081L204.582 543.262C197.18 546.324 199.585 555.042 199.585 555.042C199.585 555.042 197.159 546.504 189.765 548.633L189.126 548.872L189.373 548.916Z" fill="white"/>
<path d="M194.004 492.668L193.657 492.815L194.341 492.554C201.461 489.437 199.136 480.82 199.136 480.82C199.136 480.82 201.574 489.549 209.203 487.16L209.516 487.002L209.001 487.206C201.599 490.268 204.048 498.963 204.048 498.963C204.048 498.963 201.577 490.448 194.184 492.577L193.555 492.782L194.004 492.668Z" fill="white"/>
<path d="M144.357 515.597L144.727 515.495C145.714 514.939 146.481 514.062 146.901 513.011C147.322 511.959 147.371 510.796 147.041 509.712C147.041 509.712 148.293 513.863 151.995 512.838L151.793 512.771C150.762 513.294 149.951 514.166 149.505 515.231C149.058 516.297 149.005 517.487 149.356 518.588C149.356 518.588 148.104 514.437 144.525 515.428L144.188 515.542L144.357 515.597Z" fill="white"/>
<path d="M231.016 484.165L231.364 484.018C232.354 483.477 233.128 482.61 233.554 481.565C233.979 480.52 234.031 479.359 233.7 478.28C233.7 478.28 234.952 482.431 238.666 481.372L238.835 481.428L238.632 481.361C237.611 481.894 236.809 482.767 236.364 483.83C235.919 484.892 235.859 486.076 236.195 487.178C236.195 487.178 234.977 483.038 231.364 484.018L231.061 484.143L231.016 484.165Z" fill="white"/>
<path d="M170.493 497.759L170.829 497.645C171.833 497.11 172.619 496.243 173.053 495.192C173.488 494.141 173.543 492.972 173.21 491.884C173.21 491.884 174.428 496.025 178.131 494.999L177.929 494.932C176.898 495.455 176.087 496.327 175.64 497.393C175.194 498.458 175.141 499.648 175.492 500.749C175.492 500.749 174.24 496.598 170.627 497.578L170.324 497.703L170.493 497.759Z" fill="white"/>
<path d="M251.086 500.677L251.221 500.722C252.216 500.176 252.993 499.304 253.42 498.253C253.848 497.202 253.9 496.035 253.568 494.95C253.568 494.95 254.82 499.101 258.523 498.076L258.692 498.131L258.523 498.076C257.489 498.592 256.672 499.46 256.219 500.524C255.766 501.588 255.707 502.778 256.052 503.882C256.052 503.882 254.834 499.742 251.221 500.722L250.918 500.846L251.086 500.677Z" fill="white"/>
<path d="M152.303 467.693L152.336 467.592C153.336 467.051 154.117 466.18 154.545 465.127C154.973 464.074 155.022 462.905 154.683 461.82C154.683 461.82 155.935 465.971 159.638 464.946L159.436 464.879C158.401 465.385 157.582 466.247 157.131 467.307C156.679 468.367 156.624 469.554 156.976 470.651C156.976 470.651 155.758 466.511 152.134 467.525L151.842 467.616L152.303 467.693Z" fill="white"/>
<path d="M228.077 570.847L227.706 570.95L228.424 570.7C235.511 567.572 233.175 558.988 233.175 558.988C233.175 558.988 235.646 567.729 243.275 565.34L243.634 565.159L243.836 565.225L243.365 565.407C235.93 568.458 238.368 577.187 238.368 577.187C238.368 577.187 235.942 568.649 228.514 570.767L227.875 571.005L228.077 570.847Z" fill="white"/>
<path d="M203.685 448.924L204.033 448.777C205.027 448.231 205.804 447.359 206.232 446.308C206.659 445.257 206.712 444.091 206.38 443.005C206.38 443.005 207.632 447.157 211.335 446.131L211.503 446.187L211.335 446.131C210.31 446.648 209.5 447.511 209.05 448.568C208.6 449.624 208.538 450.805 208.875 451.903C208.875 451.903 207.657 447.763 204.044 448.743L203.73 448.902L203.685 448.924Z" fill="white"/>
<path d="M257.965 530.349L258.313 530.202C259.303 529.661 260.077 528.794 260.502 527.749C260.928 526.704 260.98 525.543 260.649 524.464C260.649 524.464 261.901 528.615 265.604 527.59L265.401 527.523C264.366 528.029 263.548 528.891 263.097 529.951C262.645 531.011 262.59 532.198 262.942 533.295C262.942 533.295 261.69 529.144 258.099 530.169L257.797 530.294L257.965 530.349Z" fill="white"/>
<path d="M258.215 557.205L258.551 557.091C259.546 556.545 260.323 555.673 260.75 554.622C261.178 553.571 261.23 552.405 260.899 551.32C260.899 551.32 262.151 555.471 265.82 554.434L265.562 554.536C264.535 555.054 263.727 555.921 263.283 556.981C262.838 558.041 262.786 559.224 263.136 560.319C263.136 560.319 261.884 556.168 258.293 557.193L257.957 557.307C257.957 557.307 258.204 557.238 258.215 557.205Z" fill="white"/>
<path d="M181.956 522.021C181.956 522.021 182.739 521.231 179.701 519.895C176.091 518.424 172.332 517.35 168.489 516.693L164.971 516.022C164.477 513.317 164.129 510.285 164.129 510.285L165.482 514.47C170.016 515.585 174.478 516.978 178.842 518.641C181.25 519.62 182.817 521.22 181.956 522.021Z" fill="#FFF6E6"/>
<path d="M176.312 526.67C173.64 528.08 170.843 529.238 167.957 530.129C167.957 530.129 172.747 545.578 171.165 548.909C171.165 548.909 172.609 547.813 171.668 542.717C170.727 537.622 169.6 530.819 169.6 530.819C169.6 530.819 174.195 528.105 176.312 526.67Z" fill="#FFF6E6"/>
<g style="mix-blend-mode:multiply" opacity="0.6">
<path d="M-43.2107 141.324C-40.438 140.337 -37.5949 139.56 -34.7056 138.999C-32.7538 135.097 -30.508 131.348 -27.9876 127.785C-26.5686 125.859 -23.2038 124.61 -21.4444 126.423C-19.7516 128.807 -18.5672 131.513 -17.9648 134.373C-17.5004 136.003 -17.1597 137.665 -16.9456 139.345L-16.6082 139.456C-13.4683 140.284 -10.381 141.299 -7.36318 142.498C-5.10121 143.578 -2.42456 144.422 -2.89658 147.22C-4.87547 151.558 -8.11871 155.196 -12.2011 157.658C-11.5657 160.146 -11.1498 162.686 -10.9582 165.246C-10.8169 166.181 -10.9389 167.136 -11.3105 168.004C-11.6822 168.873 -12.2887 169.621 -13.0619 170.163C-14.4733 171.157 -18.1399 169.914 -20.0321 168.618C-24.2448 165.624 -25.9896 164.676 -27.2855 163.614C-30.3876 165.065 -33.5748 166.327 -36.8295 167.392C-40.914 168.442 -42.2184 168.087 -43.0761 167.057C-44.7347 165.166 -43.0061 156.274 -41.7713 153.203C-43.988 152.212 -49.2902 149.233 -48.3604 145.725C-47.835 144.688 -47.1093 143.765 -46.2255 143.01C-45.3417 142.255 -44.317 141.682 -43.2107 141.324Z" fill="#5DC1EE"/>
</g>
<path d="M-40.8895 140.405C-37.5643 139.24 -34.1738 138.27 -30.7354 137.501C-29.366 134.024 -27.7111 130.666 -25.7875 127.462C-25.5119 127.037 -25.1484 126.675 -24.7213 126.401C-24.2942 126.128 -23.8134 125.949 -23.3114 125.877C-22.8094 125.805 -22.2977 125.841 -21.8109 125.983C-21.324 126.125 -20.8732 126.369 -20.4888 126.7C-18.825 128.898 -17.6681 131.437 -17.1011 134.134C-16.63 135.631 -16.2969 137.167 -16.1059 138.724L-15.7685 138.835C-12.7799 139.631 -9.8396 140.599 -6.96207 141.732C-4.79022 142.746 -2.25961 143.579 -2.65393 146.141C-3.23205 147.806 -4.43515 149.18 -6.00864 149.973C-8.1597 151.397 -9.91919 152.426 -12.2163 153.839C-11.5338 156.708 -11.068 159.623 -10.823 162.561C-10.7498 164.044 -10.8036 167.504 -12.6434 168.095C-14.4832 168.686 -15.9034 167.434 -17.5705 166.25C-20.2211 164.144 -22.6981 161.829 -24.9774 159.326C-27.8859 160.99 -30.8794 162.502 -33.9456 163.854C-35.5825 164.624 -39.204 166.312 -40.4693 164.475C-41.7345 162.638 -40.7089 160.657 -40.2094 159.138C-39.2659 156.27 -38.289 153.301 -37.0419 150.533C-39.1125 149.553 -41.2506 148.55 -43.3106 147.424C-44.7402 146.654 -46.3184 145.2 -45.719 143.378C-45.1196 141.556 -42.5046 140.996 -40.8895 140.405Z" fill="url(#paint0_linear_25_6541)"/>
<path style="mix-blend-mode:multiply" d="M-40.8888 140.405L-39.464 139.939C-41.6835 141.116 -42.5648 142.659 -42.2665 144.252C-41.9682 145.846 -38.4778 147.967 -36.3064 148.868C-33.6063 149.981 -36.1262 151.844 -35.879 154.73C-35.3962 160.423 -28.4796 159.744 -25.5458 157.419C-23.6198 155.884 -19.9249 161.474 -15.756 159.031C-15.1108 158.595 -14.5791 158.011 -14.2047 157.327C-13.8304 156.644 -13.6243 155.882 -13.6035 155.103C-13.6607 151.981 -11.9199 151.918 -9.90336 150.562C-6.72228 148.28 -3.89499 144.574 -7.49462 143.24C-10.2717 142.24 -13.1025 141.396 -15.9739 140.712C-17.4585 140.224 -17.1103 137.347 -18.1371 133.307C-18.3768 132.331 -19.1865 129.223 -19.3032 128.1C-18.2758 130.029 -17.4798 132.074 -16.9318 134.19C-16.4607 135.686 -16.1275 137.223 -15.9365 138.78L-15.5991 138.891C-12.6105 139.687 -9.67021 140.654 -6.79268 141.788C-4.62083 142.802 -2.09022 143.634 -2.48454 146.197C-3.06266 147.861 -4.26582 149.236 -5.8393 150.029C-7.99036 151.453 -9.7498 152.482 -12.0469 153.895C-11.3644 156.763 -10.8986 159.679 -10.6536 162.617C-10.5804 164.1 -10.6342 167.559 -12.474 168.151C-14.3138 168.742 -15.734 167.49 -17.4011 166.305C-20.0517 164.2 -22.5287 161.884 -24.808 159.382C-27.7166 161.046 -30.7101 162.557 -33.7763 163.91C-35.4132 164.68 -39.0346 166.368 -40.2999 164.531C-41.5651 162.693 -40.5395 160.712 -40.04 159.194C-39.0965 156.326 -38.1197 153.357 -36.8725 150.589C-38.9432 149.609 -41.0813 148.606 -43.1412 147.48C-44.5708 146.71 -46.149 145.256 -45.5496 143.434C-44.9502 141.612 -42.5039 140.996 -40.8888 140.405Z" fill="url(#paint1_radial_25_6541)"/>
<g style="mix-blend-mode:multiply">
<path d="M-40.8895 140.405C-37.5643 139.24 -34.1738 138.27 -30.7354 137.501C-29.366 134.024 -27.7111 130.666 -25.7875 127.462C-25.5119 127.037 -25.1484 126.675 -24.7213 126.401C-24.2942 126.128 -23.8134 125.949 -23.3114 125.877C-22.8094 125.805 -22.2977 125.841 -21.8109 125.983C-21.324 126.125 -20.8732 126.369 -20.4888 126.7C-18.825 128.898 -17.6681 131.437 -17.1011 134.134C-16.63 135.631 -16.2969 137.167 -16.1059 138.724L-15.7685 138.835C-12.7799 139.631 -9.8396 140.599 -6.96207 141.732C-4.79022 142.746 -2.25961 143.579 -2.65393 146.141C-3.23205 147.806 -4.43515 149.18 -6.00864 149.973C-8.1597 151.397 -9.91919 152.426 -12.2163 153.839C-11.5338 156.708 -11.068 159.623 -10.823 162.561C-10.7498 164.044 -10.8036 167.504 -12.6434 168.095C-14.4832 168.686 -15.9034 167.434 -17.5705 166.25C-20.2211 164.144 -22.6981 161.829 -24.9774 159.326C-27.8859 160.99 -30.8794 162.502 -33.9456 163.854C-35.5825 164.624 -39.204 166.312 -40.4693 164.475C-41.7345 162.638 -40.7089 160.657 -40.2094 159.138C-39.2659 156.27 -38.289 153.301 -37.0419 150.533C-39.1125 149.553 -41.2506 148.55 -43.3106 147.424C-44.7402 146.654 -46.3184 145.2 -45.719 143.378C-45.1196 141.556 -42.5046 140.996 -40.8895 140.405ZM-43.3753 145.234C-42.6233 145.962 -41.7198 146.514 -40.7294 146.852C-38.9287 147.744 -37.1169 148.601 -35.2829 149.392C-35.1341 149.463 -35.0048 149.57 -34.9058 149.702C-34.8068 149.834 -34.741 149.988 -34.7139 150.151C-34.6869 150.314 -34.6994 150.481 -34.7503 150.638C-34.8013 150.795 -34.8892 150.937 -35.0068 151.053C-35.9081 153.225 -36.472 155.507 -37.4967 157.713C-38.2269 159.196 -38.7462 160.775 -39.0396 162.403C-39.3532 165.515 -34.501 162.587 -33.3129 161.931C-30.5327 160.527 -28.3799 159.553 -25.7019 157.891C-25.1527 157.585 -24.715 157.505 -24.5684 157.628C-23.1589 159.027 -19.5966 162.293 -18.694 163.3C-17.4335 164.519 -16.0474 165.602 -14.559 166.53C-11.6542 168.271 -12.5087 162.343 -12.7497 161.03C-13.0285 158.695 -13.5989 156.451 -13.9225 154.138C-14.0268 153.318 -14.2865 152.971 -13.6703 152.576C-10.942 151.008 -8.31183 149.276 -5.79417 147.389C-4.97681 146.723 -4.19579 145.372 -5.14274 144.5C-8.38527 142.852 -11.7847 141.533 -15.2899 140.563C-16.5264 140.343 -17.2567 140.29 -17.2798 140.133C-17.7548 137.828 -18.3676 135.554 -19.1149 133.322C-19.49 132.189 -20.7463 126.915 -23.0811 127.306C-24.4956 127.513 -25.6757 130.191 -26.1996 131.216C-27.3802 133.781 -28.3481 136.155 -29.4497 138.822C-29.5385 139.092 -30.6724 139.242 -32.1313 139.585C-35.5169 140.21 -38.8345 141.16 -42.0385 142.42C-42.5539 142.737 -44.324 143.912 -43.3753 145.234Z" fill="#D47F02"/>
</g>
<path d="M286.183 648.37C286.025 642.293 287.855 636.331 291.395 631.389C297.316 623.146 304.857 616.199 313.555 610.971L315.774 609.682L285.824 591.266L285.006 591.819C281.177 594.345 277.834 597.539 275.136 601.248C273.941 602.767 273.161 604.571 272.874 606.482C272.586 608.393 272.799 610.347 273.494 612.15L276.274 610.859C275.81 609.53 275.696 608.104 275.942 606.718C276.189 605.332 276.788 604.033 277.681 602.946C279.949 599.814 282.73 597.088 285.905 594.882L309.878 609.761C301.645 614.963 294.506 621.722 288.861 629.658C284.877 635.19 282.855 641.895 283.117 648.708L286.149 648.472L286.183 648.37Z" fill="#89A83D"/>
<path d="M283.061 645.81C281.546 648.464 281.142 651.61 281.936 654.561C282.73 657.512 284.659 660.029 287.302 661.564C288.464 662.609 289.839 663.391 291.331 663.857C292.823 664.322 294.399 664.46 295.949 664.262C297.5 664.063 298.99 663.532 300.316 662.705C301.643 661.878 302.776 660.775 303.638 659.47C304.499 658.166 305.069 656.691 305.309 655.146C305.548 653.601 305.452 652.023 305.025 650.518C304.599 649.014 303.854 647.62 302.84 646.43C301.825 645.24 300.567 644.283 299.149 643.624C296.72 641.797 293.668 641.002 290.656 641.411C287.644 641.821 284.915 643.401 283.061 645.81Z" fill="#A5CD3A"/>
<path d="M304.74 660.047C306.471 657.053 306.952 653.498 306.079 650.152C305.205 646.806 303.049 643.939 300.076 642.172C297.287 640.127 293.805 639.264 290.384 639.769C286.962 640.274 283.878 642.108 281.8 644.872C280.064 647.839 279.568 651.371 280.418 654.702C281.267 658.033 283.395 660.896 286.34 662.669C289.118 664.732 292.6 665.61 296.024 665.111C299.448 664.611 302.534 662.774 304.605 660.003L304.74 660.047ZM302.195 658.35C300.563 660.43 298.178 661.787 295.556 662.127C292.933 662.467 290.282 661.764 288.173 660.168C285.83 658.88 284.095 656.715 283.348 654.149C282.601 651.582 282.903 648.824 284.188 646.48C285.825 644.407 288.209 643.057 290.829 642.717C293.449 642.377 296.097 643.075 298.21 644.662C300.501 645.984 302.184 648.152 302.897 650.7C303.611 653.248 303.298 655.974 302.026 658.294L302.195 658.35Z" fill="#89A83D"/>
<path d="M288.864 647.72C287.805 648.944 287.145 650.462 286.971 652.071C286.797 653.68 287.118 655.304 287.891 656.726C288.664 658.148 289.852 659.3 291.297 660.029C292.742 660.758 294.375 661.029 295.978 660.806C297.581 660.583 299.078 659.877 300.269 658.781C301.46 657.685 302.288 656.252 302.644 654.673C302.999 653.094 302.865 651.444 302.258 649.944C301.651 648.443 300.602 647.163 299.249 646.275C297.676 645.101 295.704 644.595 293.76 644.865C291.816 645.136 290.057 646.161 288.864 647.72Z" fill="#D2D926"/>
<path d="M274.677 609.922C273.401 611.406 272.608 613.243 272.402 615.189C272.197 617.135 272.59 619.097 273.528 620.814C274.466 622.531 275.905 623.921 277.654 624.8C279.402 625.678 281.377 626.003 283.314 625.731C285.252 625.459 287.061 624.602 288.499 623.276C289.938 621.95 290.938 620.217 291.367 618.308C291.796 616.399 291.633 614.404 290.899 612.59C290.166 610.776 288.897 609.229 287.262 608.154C285.355 606.729 282.962 606.115 280.605 606.446C278.248 606.778 276.117 608.027 274.677 609.922Z" fill="#A5CD3A"/>
<path d="M291.85 621.256C293.214 618.848 293.587 616.004 292.891 613.325C292.195 610.646 290.485 608.344 288.121 606.904C285.882 605.28 283.1 604.591 280.362 604.981C277.624 605.371 275.145 606.81 273.448 608.995C272.084 611.408 271.714 614.258 272.417 616.939C273.119 619.621 274.839 621.923 277.211 623.358C279.464 624.969 282.255 625.64 284.994 625.229C287.733 624.818 290.204 623.357 291.884 621.155L291.85 621.256ZM289.294 619.592C288.074 621.142 286.294 622.151 284.337 622.403C282.38 622.654 280.403 622.128 278.831 620.936C277.12 619.949 275.863 618.332 275.329 616.43C274.795 614.529 275.025 612.493 275.971 610.76C277.205 609.235 278.986 608.252 280.934 608.019C282.882 607.787 284.844 608.325 286.401 609.517C288.105 610.485 289.362 612.082 289.902 613.965C290.443 615.848 290.225 617.868 289.294 619.592Z" fill="#89A83D"/>
<path d="M280.221 611.933C279.497 612.777 279.046 613.822 278.931 614.929C278.815 616.035 279.039 617.151 279.574 618.126C280.109 619.102 280.928 619.891 281.923 620.389C282.918 620.887 284.041 621.07 285.142 620.913C286.243 620.756 287.271 620.267 288.087 619.512C288.904 618.756 289.47 617.769 289.711 616.683C289.952 615.597 289.857 614.463 289.437 613.433C289.017 612.403 288.293 611.525 287.361 610.917C286.275 610.118 284.919 609.777 283.584 609.967C282.249 610.157 281.042 610.863 280.221 611.933Z" fill="#D2D926"/>
<path d="M294.284 649.091C294.006 649.572 293.824 650.102 293.751 650.653C293.678 651.203 293.713 651.763 293.856 652.3C293.999 652.836 294.247 653.34 294.584 653.781C294.922 654.222 295.343 654.592 295.823 654.87C296.729 655.538 297.862 655.824 298.976 655.666C300.091 655.509 301.099 654.92 301.784 654.027C302.305 653.035 302.438 651.886 302.158 650.802C301.878 649.718 301.205 648.777 300.27 648.161C299.335 647.546 298.204 647.3 297.098 647.472C295.992 647.644 294.989 648.221 294.284 649.091Z" fill="#E6E01C"/>
<path d="M283.583 612.516C283.383 612.855 283.253 613.231 283.2 613.621C283.146 614.011 283.171 614.408 283.271 614.789C283.372 615.17 283.547 615.527 283.786 615.84C284.026 616.152 284.325 616.415 284.666 616.611C284.967 616.838 285.311 617 285.676 617.09C286.042 617.179 286.422 617.192 286.794 617.13C287.165 617.067 287.519 616.929 287.836 616.725C288.152 616.52 288.423 616.254 288.633 615.941C288.843 615.628 288.987 615.276 289.056 614.906C289.125 614.536 289.118 614.156 289.035 613.788C288.952 613.421 288.795 613.074 288.574 612.77C288.353 612.465 288.072 612.209 287.748 612.016C287.128 611.535 286.343 611.317 285.563 611.41C284.783 611.504 284.072 611.901 283.583 612.516Z" fill="#E6E01C"/>
<path d="M45.2149 219.437C41.8368 214.725 40.1087 209.03 40.2989 203.236C40.6615 193.705 42.9398 184.344 46.9978 175.713L48.0452 173.552L14.8921 174.873L14.6035 175.75C12.9413 179.747 11.9961 184.005 11.811 188.33C11.6865 190.137 12.0247 191.946 12.7937 193.586C13.5627 195.226 14.7371 196.643 16.2059 197.703L17.7239 195.249C16.6517 194.453 15.8034 193.394 15.2613 192.174C14.7192 190.954 14.5018 189.614 14.6302 188.285C14.7848 184.69 15.522 181.144 16.813 177.786L43.34 176.716C39.648 185.125 37.6126 194.168 37.3452 203.349C37.0986 209.742 38.9714 216.037 42.6722 221.255L44.9454 219.46L45.2149 219.437Z" fill="#89A83D"/>
<path d="M41.394 219.002C41.7306 221.856 43.1128 224.483 45.2736 226.377C47.4344 228.271 50.2203 229.296 53.0932 229.256C55.9661 229.215 58.722 228.111 60.8284 226.157C62.9348 224.203 64.2422 221.538 64.498 218.676C64.1322 215.862 62.7488 213.279 60.609 211.415C58.4692 209.551 55.7211 208.535 52.8834 208.559C50.0457 208.582 47.3148 209.644 45.2063 211.543C43.0977 213.442 41.7574 216.048 41.4384 218.868L41.394 219.002Z" fill="#A5CD3A"/>
<path d="M65.9017 218.839C65.6997 215.582 64.2146 212.539 61.772 210.375C59.3295 208.212 56.1288 207.105 52.8716 207.298C49.6083 207.15 46.419 208.3 44.0008 210.496C41.5827 212.692 40.1322 215.757 39.9665 219.019C40.1838 222.277 41.6777 225.318 44.1237 227.481C46.5697 229.644 49.7703 230.754 53.0303 230.571C56.2922 230.719 59.4797 229.567 61.8929 227.367C64.3061 225.168 65.7479 222.1 65.9017 218.839ZM63.0487 218.872C62.8587 221.357 61.7018 223.669 59.8265 225.31C57.9511 226.951 55.507 227.792 53.0188 227.651C50.5241 227.843 48.0541 227.045 46.1432 225.429C44.2324 223.814 43.0343 221.511 42.8083 219.019C42.9988 216.53 44.1563 214.214 46.0329 212.567C47.9095 210.92 50.3562 210.073 52.8493 210.207C55.3416 210.041 57.8001 210.857 59.6981 212.481C61.5961 214.104 62.7828 216.407 63.0039 218.895L63.0487 218.872Z" fill="#89A83D"/>
<path d="M46.9817 217.587C46.8024 219.098 47.0872 220.628 47.7981 221.973C48.509 223.318 49.6125 224.415 50.9619 225.118C52.3112 225.82 53.8425 226.096 55.3522 225.908C56.8619 225.719 58.2786 225.076 59.4138 224.063C60.5491 223.05 61.3492 221.716 61.7078 220.237C62.0664 218.759 61.9665 217.206 61.4214 215.785C60.8764 214.365 59.9119 213.144 58.6562 212.285C57.4005 211.426 55.9131 210.969 54.3917 210.976C52.5378 210.892 50.7244 211.536 49.3396 212.772C47.9548 214.007 47.1085 215.736 46.9817 217.587Z" fill="#D2D926"/>
<path d="M16.0052 195.244C15.7857 197.07 16.1275 198.92 16.9853 200.548C17.843 202.175 19.1761 203.503 20.807 204.354C22.4379 205.206 24.2893 205.54 26.115 205.313C27.9406 205.086 29.654 204.309 31.0269 203.084C32.3999 201.86 33.3674 200.246 33.8008 198.458C34.2342 196.67 34.1128 194.793 33.4529 193.076C32.793 191.358 31.6258 189.883 30.1067 188.845C28.5875 187.808 26.7884 187.257 24.9487 187.267C22.706 187.143 20.5056 187.913 18.8293 189.408C17.153 190.903 16.1375 193.001 16.0052 195.244Z" fill="#A5CD3A"/>
<path d="M35.4267 195.202C35.2407 192.584 34.0347 190.143 32.068 188.406C30.1014 186.668 27.5312 185.771 24.9103 185.909C22.2866 185.804 19.7274 186.738 17.7874 188.508C15.8474 190.277 14.6828 192.74 14.5461 195.362C14.7141 197.987 15.9149 200.438 17.8857 202.18C19.8566 203.921 22.4371 204.811 25.0625 204.655C27.6887 204.769 30.2531 203.838 32.1952 202.067C34.1373 200.295 35.2991 197.827 35.4267 195.202ZM32.5401 195.224C32.4903 196.163 32.2547 197.083 31.8469 197.93C31.4391 198.777 30.8672 199.534 30.1644 200.159C29.4616 200.783 28.6419 201.262 27.7527 201.567C26.8635 201.873 25.9226 201.998 24.9845 201.937C23.1313 202.033 21.3142 201.4 19.9219 200.173C18.5296 198.946 17.6725 197.223 17.534 195.373C17.6775 193.517 18.5437 191.791 19.9463 190.568C21.3489 189.344 23.1758 188.719 25.0341 188.829C26.8918 188.689 28.7301 189.284 30.153 190.487C31.5759 191.689 32.4695 193.403 32.6413 195.258L32.5401 195.224Z" fill="#89A83D"/>
<path d="M21.3807 194.021C21.2546 195.054 21.4442 196.1 21.9246 197.023C22.4049 197.946 23.1535 198.702 24.0717 199.191C24.99 199.68 26.0348 199.88 27.0687 199.763C28.1026 199.647 29.0771 199.22 29.8637 198.54C30.6504 197.859 31.2124 196.956 31.4758 195.949C31.7392 194.943 31.6915 193.88 31.3392 192.901C30.9868 191.922 30.3462 191.073 29.5018 190.465C28.6574 189.857 27.6487 189.519 26.6086 189.496C25.9666 189.442 25.3203 189.517 24.7077 189.716C24.0951 189.916 23.5285 190.236 23.0414 190.657C22.5543 191.079 22.1564 191.594 21.8712 192.171C21.586 192.749 21.4193 193.378 21.3807 194.021Z" fill="#D2D926"/>
<path d="M51.9625 215.748C52.0886 216.787 52.5923 217.743 53.3778 218.434C54.1633 219.126 55.1756 219.504 56.2219 219.497C57.2682 219.49 58.2755 219.099 59.0518 218.397C59.8281 217.696 60.3192 216.733 60.4316 215.693C60.3056 214.654 59.8018 213.698 59.0164 213.007C58.2309 212.315 57.2186 211.937 56.1722 211.944C55.1259 211.951 54.1187 212.342 53.3424 213.044C52.5661 213.745 52.0749 214.708 51.9625 215.748Z" fill="#E6E01C"/>
<path d="M24.3294 192.673C24.4254 193.392 24.7804 194.052 25.328 194.529C25.8756 195.005 26.5783 195.266 27.3043 195.262C28.0303 195.258 28.7298 194.989 29.2718 194.506C29.8139 194.023 30.1612 193.359 30.2488 192.638C30.1528 191.918 29.7978 191.259 29.2502 190.782C28.7025 190.305 27.9999 190.045 27.2739 190.049C26.5479 190.053 25.8484 190.322 25.3064 190.805C24.7643 191.288 24.417 191.952 24.3294 192.673Z" fill="#E6E01C"/>
<path d="M193.326 350.457L181.56 323.253L190.199 320.748L196.291 336.101L197.233 335.738L190.801 319.488L180.175 322.573L192.395 350.899L193.326 350.457Z" fill="#BC2B28"/>
<path d="M192.392 324.424L192.074 323.459L182.932 326.696L183.25 327.661L192.392 324.424Z" fill="#BC2B28"/>
<path d="M196.575 337.279C197.147 338.575 198.201 339.597 199.515 340.127C200.828 340.656 202.296 340.653 203.607 340.116C204.985 339.775 206.175 338.907 206.922 337.699C207.669 336.491 207.913 335.039 207.603 333.653C207.027 332.378 205.982 331.373 204.685 330.849C203.388 330.325 201.939 330.321 200.639 330.839C199.248 331.157 198.039 332.014 197.278 333.221C196.517 334.427 196.264 335.887 196.575 337.279Z" fill="#E6352E"/>
<path d="M208.075 333.472C207.445 332.054 206.282 330.941 204.837 330.374C203.393 329.808 201.783 329.834 200.357 330.447C198.845 330.82 197.542 331.777 196.732 333.108C195.923 334.439 195.674 336.037 196.038 337.551C196.642 338.99 197.788 340.134 199.228 340.734C200.669 341.333 202.287 341.342 203.734 340.756C205.242 340.362 206.536 339.393 207.339 338.057C208.142 336.721 208.39 335.124 208.03 333.607L208.075 333.472ZM207.099 333.824C207.374 335.076 207.144 336.387 206.459 337.471C205.773 338.555 204.687 339.324 203.437 339.612C202.255 340.113 200.924 340.131 199.729 339.661C198.534 339.191 197.571 338.271 197.047 337.098C196.791 335.841 197.029 334.534 197.714 333.449C198.398 332.364 199.475 331.586 200.72 331.277C201.905 330.781 203.237 330.77 204.43 331.246C205.623 331.722 206.581 332.648 207.099 333.824Z" fill="#BC2B28"/>
<path d="M192.214 350.877C192.772 352.182 193.822 353.215 195.136 353.752C196.45 354.29 197.922 354.288 199.235 353.747C200.618 353.414 201.814 352.548 202.562 351.338C203.31 350.127 203.551 348.671 203.231 347.284C202.661 345.978 201.602 344.948 200.281 344.415C198.959 343.882 197.481 343.89 196.166 344.436C194.795 344.78 193.614 345.646 192.876 346.85C192.137 348.054 191.9 349.5 192.214 350.877Z" fill="#E6352E"/>
<path d="M203.736 347.114C203.12 345.682 201.965 344.549 200.52 343.962C199.076 343.375 197.459 343.38 196.018 343.977C194.506 344.35 193.202 345.307 192.393 346.638C191.584 347.969 191.334 349.567 191.699 351.081C192.31 352.514 193.456 353.651 194.894 354.25C196.332 354.849 197.947 354.862 199.395 354.286C200.902 353.891 202.196 352.925 203.004 351.593C203.812 350.261 204.07 348.667 203.725 347.148L203.736 347.114ZM202.737 347.421C203.013 348.679 202.782 349.996 202.095 351.085C201.408 352.174 200.319 352.95 199.065 353.243C197.889 353.744 196.563 353.762 195.374 353.294C194.184 352.826 193.227 351.909 192.709 350.74C192.438 349.486 192.667 348.175 193.346 347.087C194.025 345.998 195.102 345.216 196.347 344.908C197.531 344.416 198.859 344.403 200.051 344.872C201.243 345.341 202.207 346.255 202.737 347.421Z" fill="#BC2B28"/>
<path d="M198.29 336.161C198.73 337.151 199.519 337.944 200.506 338.388C201.494 338.833 202.61 338.898 203.643 338.572C204.675 338.246 205.552 337.55 206.104 336.619C206.656 335.687 206.846 334.585 206.637 333.522C206.197 332.533 205.408 331.74 204.421 331.295C203.434 330.85 202.317 330.785 201.284 331.111C200.252 331.438 199.376 332.133 198.823 333.065C198.271 333.996 198.081 335.098 198.29 336.161Z" fill="#E77978"/>
<path d="M193.952 349.803C194.125 350.351 194.404 350.86 194.774 351.3C195.144 351.74 195.597 352.103 196.107 352.368C196.617 352.633 197.174 352.795 197.747 352.844C198.319 352.894 198.896 352.83 199.444 352.657C199.992 352.484 200.501 352.204 200.941 351.835C201.381 351.465 201.744 351.012 202.009 350.502C202.274 349.992 202.436 349.435 202.485 348.862C202.535 348.289 202.471 347.712 202.298 347.164C201.948 346.058 201.173 345.135 200.143 344.6C199.113 344.065 197.912 343.961 196.806 344.31C195.699 344.66 194.776 345.436 194.241 346.466C193.706 347.496 193.602 348.696 193.952 349.803Z" fill="#E77978"/>
<path d="M199.689 334.864C199.993 335.551 200.555 336.091 201.253 336.37C201.951 336.648 202.73 336.643 203.424 336.354C204.156 336.178 204.788 335.719 205.181 335.077C205.574 334.435 205.697 333.663 205.522 332.931C205.161 332.328 204.607 331.864 203.949 331.614C203.292 331.364 202.569 331.343 201.899 331.555C201.228 331.767 200.648 332.199 200.253 332.781C199.858 333.363 199.671 334.061 199.722 334.763L199.689 334.864Z" fill="#E7A8A8"/>
<path d="M195.238 348.506C195.543 349.193 196.104 349.734 196.802 350.013C197.5 350.291 198.279 350.286 198.973 349.997C199.352 349.94 199.714 349.801 200.034 349.589C200.354 349.378 200.623 349.099 200.824 348.772C201.024 348.445 201.151 348.078 201.194 347.697C201.238 347.316 201.198 346.931 201.077 346.567C200.956 346.203 200.756 345.87 200.493 345.592C200.23 345.313 199.908 345.096 199.552 344.954C199.196 344.813 198.813 344.751 198.43 344.774C198.047 344.796 197.674 344.902 197.336 345.084C196.61 345.268 195.984 345.729 195.592 346.369C195.2 347.008 195.073 347.775 195.238 348.506Z" fill="#E7A8A8"/>
<path d="M31.1144 583.752C31.1144 583.752 32.6026 556.496 36.3256 543.474C36.3805 543.285 36.3954 543.087 36.3695 542.892C36.3436 542.697 36.2774 542.509 36.1751 542.341C35.9212 542.032 35.5586 541.832 35.162 541.783L6.98179 539.467C6.80905 539.454 6.63543 539.475 6.4709 539.53C6.30637 539.584 6.15419 539.67 6.02311 539.783C5.89202 539.896 5.78462 540.035 5.70708 540.189C5.62954 540.344 5.58339 540.513 5.57128 540.686C5.54718 541.029 5.6553 541.369 5.87351 541.636C6.09172 541.902 6.40351 542.075 6.74507 542.119L33.3745 544.261C30.7441 557.29 29.0987 570.498 28.4524 583.774C28.4391 583.946 28.4607 584.119 28.5159 584.282C28.5711 584.445 28.6588 584.596 28.7736 584.725C28.8885 584.853 29.0282 584.957 29.1843 585.03C29.3405 585.104 29.5098 585.145 29.6822 585.151C30.0084 585.125 30.3143 584.982 30.5427 584.747C30.7711 584.513 30.9067 584.203 30.924 583.877L31.1144 583.752Z" fill="#EBAD20"/>
<path d="M33.6305 560.985C33.6637 560.64 33.5695 560.295 33.3656 560.014C33.1618 559.733 32.8623 559.537 32.5237 559.462L11.2357 555.974C11.0638 555.944 10.8876 555.949 10.718 555.99C10.5484 556.031 10.3889 556.106 10.2494 556.211C10.1099 556.315 9.99322 556.448 9.90668 556.599C9.82012 556.75 9.76548 556.918 9.74611 557.091C9.68873 557.434 9.76941 557.786 9.97049 558.069C10.1716 558.352 10.4767 558.545 10.8191 558.604L32.1738 561.89C32.2406 561.943 32.3244 561.971 32.41 561.967C32.7135 561.965 33.0063 561.855 33.236 561.656C33.4657 561.458 33.6174 561.184 33.6638 560.884L33.6305 560.985Z" fill="#EBAD20"/>
<path d="M28.3533 587.144C28.6444 589.345 29.5694 591.413 31.0156 593.097C32.4618 594.78 34.3667 596.007 36.498 596.627C38.6293 597.247 40.8949 597.233 43.0185 596.587C45.1422 595.942 47.0321 594.692 48.4578 592.991C49.8836 591.29 50.7835 589.211 51.048 587.007C51.3124 584.803 50.9299 582.57 49.9471 580.58C48.9643 578.59 47.4236 576.929 45.513 575.799C43.6024 574.669 41.4043 574.12 39.1869 574.218C36.0371 574.498 33.127 576.016 31.0958 578.44C29.0646 580.863 28.0782 583.994 28.3533 587.144Z" fill="#F4C621"/>
<path d="M52.4425 586.095C52.4351 584.359 52.0856 582.641 51.4139 581.039C50.7422 579.438 49.7615 577.985 48.5278 576.763C47.2941 575.541 45.8317 574.574 44.2241 573.918C42.6166 573.261 40.8954 572.928 39.159 572.938C35.657 573.214 32.4082 574.87 30.1269 577.542C27.8457 580.213 26.7187 583.681 26.9939 587.183C27.001 588.919 27.3509 590.636 28.0237 592.237C28.6964 593.837 29.6787 595.288 30.914 596.508C32.1494 597.727 33.6135 598.691 35.2222 599.343C36.831 599.995 38.5527 600.322 40.2885 600.307C42.0202 600.173 43.7084 599.699 45.2567 598.912C46.8051 598.125 48.1831 597.041 49.3119 595.721C50.4407 594.401 51.2983 592.871 51.8354 591.219C52.3726 589.568 52.5789 587.826 52.4425 586.095ZM49.792 586.195C50.0416 588.991 49.1776 591.773 47.3878 593.936C45.598 596.099 43.0271 597.468 40.2335 597.746C37.4217 597.717 34.7354 596.577 32.7603 594.575C30.7851 592.574 29.6812 589.872 29.6892 587.06C29.4524 584.268 30.3252 581.495 32.1184 579.341C33.9117 577.187 36.4812 575.827 39.2704 575.554C42.0705 575.59 44.7443 576.726 46.7133 578.717C48.6823 580.708 49.7883 583.395 49.792 586.195Z" fill="#EBAD20"/>
<path d="M32.5482 585.645C32.7554 587.225 33.4181 588.71 34.4553 589.92C35.4926 591.129 36.8595 592.01 38.3892 592.456C39.919 592.902 41.5453 592.892 43.0698 592.429C44.5942 591.965 45.9508 591.068 46.9738 589.847C47.9969 588.625 48.6422 587.132 48.831 585.55C49.0198 583.968 48.7438 582.365 48.0369 580.938C47.3299 579.51 46.2226 578.319 44.85 577.51C43.4773 576.7 41.8989 576.309 40.3072 576.382C39.1886 576.478 38.0999 576.794 37.1038 577.313C36.1078 577.831 35.2239 578.541 34.5029 579.401C33.7819 580.262 33.2381 581.257 32.9027 582.328C32.5672 583.4 32.4468 584.527 32.5482 585.645Z" fill="#F4DB08"/>
<path d="M35.653 583.937C35.8039 585.094 36.2884 586.181 37.0473 587.066C37.8061 587.952 38.8065 588.597 39.9261 588.923C41.0457 589.25 42.2362 589.243 43.3519 588.903C44.4677 588.564 45.4604 587.907 46.2089 587.013C46.9573 586.119 47.4291 585.026 47.5665 583.868C47.7039 582.71 47.501 581.536 46.9826 580.492C46.4642 579.447 45.6527 578.576 44.6473 577.985C43.642 577.394 42.4862 577.109 41.3213 577.164C39.6722 577.312 38.1492 578.109 37.0865 579.378C36.0238 580.648 35.5083 582.288 35.653 583.937Z" fill="#F4E400"/>
<path d="M249.006 218.942C254.91 211.405 261.407 204.352 268.434 197.85C268.526 197.743 268.595 197.62 268.639 197.487C268.683 197.354 268.7 197.213 268.689 197.074C268.689 196.939 268.66 196.806 268.603 196.684C268.547 196.562 268.464 196.454 268.361 196.367L253.023 183.544C252.931 183.466 252.824 183.408 252.709 183.372C252.594 183.337 252.473 183.326 252.353 183.339C252.233 183.352 252.118 183.389 252.013 183.449C251.908 183.508 251.816 183.588 251.743 183.684C251.583 183.869 251.503 184.11 251.521 184.354C251.539 184.599 251.653 184.826 251.838 184.986L266.252 197.207C259.448 203.622 253.144 210.549 247.396 217.926C247.313 218.016 247.25 218.122 247.212 218.238C247.173 218.354 247.16 218.477 247.174 218.598C247.187 218.719 247.226 218.836 247.289 218.941C247.351 219.046 247.435 219.136 247.536 219.206C247.739 219.326 247.978 219.37 248.21 219.33C248.442 219.29 248.653 219.168 248.804 218.988L249.006 218.942Z" fill="#EBAD20"/>
<path d="M259.718 206.836C259.884 206.656 259.974 206.42 259.971 206.176C259.968 205.932 259.872 205.698 259.702 205.522L248.922 194.871C248.738 194.703 248.497 194.61 248.247 194.611C247.997 194.612 247.757 194.706 247.574 194.876C247.488 194.963 247.42 195.067 247.375 195.18C247.329 195.293 247.306 195.415 247.308 195.537C247.309 195.659 247.335 195.78 247.384 195.892C247.432 196.004 247.502 196.106 247.59 196.191L258.404 206.853L258.573 206.908C258.755 207.018 258.969 207.064 259.181 207.038C259.392 207.013 259.589 206.918 259.741 206.769L259.718 206.836Z" fill="#EBAD20"/>
<path d="M246.043 219.762C245.387 220.666 244.916 221.69 244.658 222.777C244.399 223.863 244.359 224.99 244.539 226.092C244.719 227.194 245.115 228.25 245.705 229.198C246.295 230.146 247.067 230.968 247.977 231.616C249.932 232.712 252.232 233.022 254.407 232.481C256.582 231.941 258.47 230.592 259.686 228.709C260.901 226.825 261.353 224.549 260.949 222.344C260.545 220.14 259.315 218.172 257.511 216.842C255.6 215.722 253.324 215.4 251.177 215.947C249.031 216.493 247.186 217.864 246.043 219.762Z" fill="#F4C621"/>
<path d="M260.322 228.984C261.746 226.958 262.307 224.45 261.883 222.011C261.458 219.571 260.082 217.4 258.058 215.975C255.928 214.717 253.387 214.356 250.991 214.97C248.595 215.583 246.54 217.122 245.277 219.249C244.569 220.248 244.065 221.378 243.796 222.573C243.527 223.768 243.497 225.004 243.709 226.211C243.92 227.417 244.369 228.57 245.029 229.602C245.688 230.634 246.546 231.526 247.552 232.224C249.682 233.482 252.223 233.843 254.619 233.229C257.015 232.616 259.07 231.077 260.333 228.951L260.322 228.984ZM258.756 227.946C257.767 229.667 256.135 230.926 254.218 231.445C252.302 231.964 250.258 231.702 248.534 230.715C246.932 229.552 245.852 227.804 245.529 225.85C245.206 223.896 245.666 221.893 246.809 220.276C247.805 218.561 249.437 217.309 251.351 216.791C253.264 216.272 255.305 216.529 257.031 217.506C258.641 218.664 259.727 220.413 260.05 222.369C260.374 224.326 259.909 226.331 258.756 227.946Z" fill="#EBAD20"/>
<path d="M249.056 220.604C248.595 221.253 248.266 221.986 248.089 222.762C247.912 223.538 247.891 224.342 248.025 225.126C248.16 225.911 248.448 226.661 248.874 227.333C249.299 228.006 249.854 228.588 250.505 229.045C251.926 229.954 253.651 230.261 255.299 229.899C256.947 229.536 258.383 228.534 259.292 227.113C260.201 225.691 260.508 223.967 260.146 222.319C259.783 220.671 258.781 219.234 257.36 218.325C256.666 217.923 255.9 217.663 255.105 217.56C254.311 217.457 253.503 217.513 252.73 217.725C251.958 217.937 251.235 218.301 250.604 218.795C249.973 219.29 249.447 219.904 249.056 220.604Z" fill="#F4DB08"/>
<path d="M251.732 220.998C251.349 221.722 251.184 222.542 251.259 223.358C251.333 224.174 251.643 224.951 252.151 225.594C252.659 226.237 253.343 226.719 254.12 226.98C254.896 227.241 255.732 227.272 256.525 227.067C257.319 226.862 258.035 226.43 258.588 225.826C259.141 225.221 259.506 224.468 259.639 223.66C259.772 222.851 259.667 222.021 259.337 221.271C259.007 220.521 258.466 219.883 257.78 219.435C257.281 219.139 256.728 218.945 256.153 218.863C255.578 218.781 254.993 218.814 254.431 218.959C253.869 219.104 253.341 219.359 252.878 219.709C252.414 220.059 252.025 220.497 251.732 220.998Z" fill="#F4E400"/>
<path d="M90.6469 321.62L89.354 321.345L84.0061 346.807L85.299 347.083L90.6469 321.62Z" fill="#C91E7C"/>
<path d="M82.7472 349.497C82.7931 350.747 83.197 351.958 83.9108 352.985C84.6246 354.013 85.6184 354.814 86.7741 355.294C87.9298 355.773 89.1989 355.911 90.4305 355.69C91.6621 355.47 92.8045 354.9 93.722 354.049C94.6396 353.199 95.2936 352.103 95.6065 350.891C95.9194 349.68 95.878 348.404 95.4872 347.215C95.0963 346.027 94.3726 344.975 93.4018 344.186C92.431 343.396 91.254 342.902 90.0107 342.762C88.1615 342.718 86.3682 343.397 85.0118 344.655C83.6554 345.912 82.843 347.649 82.7472 349.497Z" fill="#E32888"/>
<path d="M96.4348 350.971C96.7671 348.978 96.3 346.934 95.1347 345.284C93.9695 343.633 92.2003 342.509 90.2111 342.155C88.1831 342.072 86.2046 342.795 84.7089 344.167C83.2133 345.54 82.3223 347.448 82.2311 349.476C81.9059 351.474 82.38 353.52 83.5508 355.172C84.7217 356.824 86.4953 357.948 88.4885 358.303C90.5127 358.377 92.4841 357.648 93.9727 356.274C95.4614 354.901 96.3464 352.994 96.4348 350.971ZM95.0976 350.83C95.0392 352.501 94.3281 354.083 93.1168 355.237C91.9055 356.39 90.2906 357.023 88.6182 356.999C86.9784 356.673 85.5314 355.718 84.5874 354.338C83.6435 352.958 83.2777 351.263 83.5683 349.617C83.6263 347.95 84.3369 346.373 85.5468 345.225C86.7568 344.078 88.3692 343.451 90.0366 343.481C91.6761 343.796 93.1258 344.744 94.0727 346.119C95.0196 347.494 95.3877 349.186 95.0976 350.83Z" fill="#C91E7C"/>
<path d="M85.1276 349.307C84.9539 349.993 84.9297 350.709 85.0566 351.405C85.1836 352.101 85.4586 352.762 85.8633 353.342C86.2679 353.923 86.7925 354.41 87.4017 354.77C88.0109 355.13 88.6904 355.355 89.3941 355.429C90.0978 355.504 90.8093 355.426 91.4803 355.201C92.1514 354.977 92.7664 354.611 93.2836 354.128C93.8008 353.645 94.2081 353.056 94.478 352.402C94.7478 351.748 94.8739 351.044 94.8477 350.336C95.0214 349.65 95.0456 348.935 94.9187 348.239C94.7917 347.543 94.5167 346.882 94.1121 346.301C93.7074 345.721 93.1828 345.234 92.5736 344.874C91.9644 344.514 91.2849 344.289 90.5812 344.215C89.8775 344.14 89.166 344.218 88.495 344.442C87.8239 344.667 87.2089 345.033 86.6917 345.516C86.1745 345.999 85.7672 346.587 85.4974 347.242C85.2275 347.896 85.1014 348.6 85.1276 349.307Z" fill="#E56FA1"/>
<path d="M87.6869 348.915C87.6965 349.602 87.9049 350.271 88.287 350.842C88.669 351.412 89.2083 351.86 89.8396 352.131C90.4708 352.401 91.1669 352.483 91.8436 352.366C92.5203 352.249 93.1486 351.938 93.6524 351.471C94.1562 351.005 94.5139 350.402 94.6822 349.736C94.8505 349.07 94.8222 348.37 94.6008 347.72C94.3793 347.07 93.9741 346.498 93.4343 346.074C92.8945 345.649 92.2432 345.39 91.5593 345.328C91.0694 345.309 90.5805 345.387 90.1207 345.557C89.6608 345.727 89.239 345.986 88.8793 346.319C88.5197 346.652 88.2292 347.053 88.0246 347.498C87.82 347.944 87.7052 348.425 87.6869 348.915Z" fill="#EB9FBF"/>
<path d="M90.9689 320.866C86.6748 321.256 82.3514 320.567 78.3918 318.86C75.3889 317.872 74.3932 327.491 78.5691 329.687C82.5963 331.199 87.1482 331.911 88.208 330.054L90.9689 320.866Z" fill="#E32888"/>
<path d="M88.7819 330.467L91.5312 321.201L91.8309 320.29L90.899 320.395L89.1582 320.458C87.804 320.489 86.4491 320.431 85.1026 320.282C82.8713 320.11 80.6965 319.496 78.7042 318.477C78.5821 318.4 78.4431 318.354 78.2993 318.343C76.3335 318.295 75.5667 320.399 75.3166 322.522C75.0344 324.013 75.1786 325.553 75.7325 326.966C76.2865 328.379 77.2277 329.606 78.4481 330.508C80.2939 331.219 82.2195 331.701 84.1823 331.945C86.1713 332.151 87.9228 331.942 88.9284 330.59L88.7819 330.467ZM84.1318 330.508C82.3109 330.281 80.5248 329.832 78.8136 329.17C76.9565 328.222 76.1579 325.08 76.4736 322.529C76.563 321.708 76.824 320.915 77.2395 320.201C77.4393 319.594 77.8771 319.513 78.0906 319.546C80.2097 320.664 82.538 321.328 84.9277 321.496C86.6108 321.666 88.3034 321.723 89.9942 321.667L87.5441 329.91C87.3554 330.484 85.9187 330.759 84.087 330.531L84.1318 330.508Z" fill="#C91E7C"/>
<path d="M37.4374 378.789L37.0672 378.891L37.7851 378.641C44.9614 375.468 42.5798 366.795 42.5798 366.795C42.5798 366.795 45.0631 375.614 52.7704 373.214L53.1966 373.055C53.1966 373.055 53.1966 373.055 52.9942 372.988L53.2303 373.066L52.7593 373.247C45.2344 376.343 47.7177 385.162 47.7177 385.162C47.7177 385.162 45.2127 376.523 37.7402 378.664L37.1346 378.914L37.4374 378.789Z" fill="white"/>
<path d="M110.418 264.819L110.037 264.955L110.755 264.705C117.931 261.532 115.594 252.836 115.594 252.836C115.594 252.836 118.033 261.677 125.751 259.243L126.166 259.118L126.369 259.185L125.864 259.355C118.384 262.429 120.867 271.248 120.867 271.248C120.867 271.248 118.362 262.608 110.912 264.794L110.273 265.033L110.418 264.819Z" fill="white"/>
<path d="M-5.03306 160.876L-5.36959 160.99L-4.68542 160.729C2.52468 157.567 0.143067 148.893 0.143067 148.893C0.143067 148.893 2.5926 157.701 10.2999 155.301L10.7262 155.142L10.9286 155.209L10.4238 155.379C2.93263 158.486 5.41593 167.305 5.41593 167.305C5.41593 167.305 2.91091 158.666 -4.5278 160.818L-5.16715 161.057L-5.03306 160.876Z" fill="white"/>
<path d="M12.6943 469.59C12.5673 469.61 12.4431 469.644 12.324 469.693L13.0419 469.443C20.2183 466.269 17.8367 457.596 17.8367 457.596C17.8367 457.596 20.3648 466.392 28.0272 464.015L28.4535 463.856L28.2847 463.8L28.4872 463.867L27.9824 464.037C20.5024 467.111 22.9857 475.93 22.9857 475.93C22.9857 475.93 20.4806 467.291 12.9971 469.465L12.3915 469.715L12.6943 469.59Z" fill="white"/>
<path d="M91.653 406.31L92.0233 406.207C93.0319 405.657 93.819 404.775 94.251 403.711C94.683 402.646 94.7331 401.465 94.3929 400.368C94.3929 400.368 95.6119 404.733 99.3701 403.539L99.3146 403.707C98.2758 404.228 97.4559 405.102 97.0013 406.171C96.5467 407.241 96.487 408.437 96.8327 409.547C96.8327 409.547 95.5808 405.396 91.934 406.365L91.6312 406.489L91.653 406.31Z" fill="white"/>
<path d="M266.256 584.94L266.603 584.793C267.606 584.248 268.392 583.375 268.827 582.32C269.263 581.265 269.322 580.092 268.995 578.999C268.995 578.999 270.247 583.15 273.984 582.135C272.94 582.651 272.116 583.523 271.66 584.595C271.205 585.666 271.149 586.865 271.502 587.975C271.502 587.975 270.25 583.824 266.603 584.793L266.3 584.917L266.256 584.94Z" fill="white"/>
<path d="M65.7928 262.477L66.1631 262.375C67.1367 261.812 67.8911 260.937 68.3031 259.891C68.7152 258.845 68.7606 257.69 68.4319 256.615C68.4319 256.615 69.6283 260.935 73.4092 259.785L73.2067 259.719C72.1679 260.24 71.3481 261.113 70.8935 262.183C70.4389 263.252 70.3791 264.448 70.7248 265.558C70.7248 265.558 69.5066 261.418 65.8488 262.421L65.5233 262.501L65.7928 262.477Z" fill="white"/>
<path d="M124.302 342.527L124.683 342.39C125.684 341.83 126.461 340.943 126.886 339.878C127.311 338.814 127.358 337.635 127.019 336.54C127.019 336.54 128.238 340.905 132.03 339.722C130.986 340.237 130.162 341.11 129.707 342.181C129.251 343.253 129.195 344.452 129.548 345.561C129.548 345.561 128.296 341.41 124.65 342.379L124.347 342.504C124.347 342.504 124.268 342.515 124.302 342.527Z" fill="white"/>
<path d="M63.2008 320.481L63.5711 320.378C64.5703 319.819 65.3493 318.936 65.78 317.875C66.2106 316.813 66.2673 315.637 65.9407 314.54C65.9407 314.54 67.1371 318.859 70.929 317.676L70.8735 317.845C69.8298 318.361 69.0054 319.233 68.55 320.305C68.0946 321.376 68.0384 322.575 68.3916 323.684C68.3916 323.684 67.1397 319.533 63.493 320.502L63.1902 320.627L63.2008 320.481Z" fill="white"/>
<path d="M23.4748 329.735L23.8224 329.588C24.8266 329.043 25.6105 328.166 26.0406 327.107C26.4707 326.049 26.5203 324.874 26.181 323.783C26.181 323.783 27.4111 328.114 31.1693 326.919L30.9113 327.022C29.8781 327.538 29.0603 328.402 28.6021 329.462C28.1439 330.522 28.0747 331.71 28.4067 332.816C28.4067 332.816 27.1886 328.676 23.5419 329.645L23.2053 329.759L23.4748 329.735Z" fill="white"/>
<path d="M110.377 220.046L110.007 220.149L110.725 219.899C117.924 216.77 115.509 208.086 115.509 208.086C115.509 208.086 117.992 216.905 125.699 214.505L126.125 214.346L125.957 214.29L126.159 214.357L125.699 214.505C118.174 217.601 120.646 226.453 120.646 226.453C120.646 226.453 118.152 217.78 110.703 219.966L110.074 220.171L110.377 220.046Z" fill="white"/>
<path d="M12.2246 545.679L12.5612 545.566C13.5653 545.02 14.3493 544.144 14.7794 543.085C15.2095 542.026 15.259 540.851 14.9197 539.76C14.9197 539.76 16.2053 543.923 19.9417 542.908L19.7393 542.842C18.7129 543.38 17.9085 544.262 17.4671 545.334C17.0256 546.405 16.9753 547.598 17.3248 548.703C17.3248 548.703 16.0392 544.541 12.3925 545.51L12.0897 545.635C12.0897 545.635 12.1909 545.668 12.2246 545.679Z" fill="white"/>
<path d="M189.449 525.271L189.113 525.385L189.797 525.124C196.996 521.995 194.625 513.288 194.625 513.288C194.625 513.288 197.109 522.107 204.816 519.707L205.242 519.548L204.771 519.73C197.28 522.837 199.729 531.645 199.729 531.645C199.729 531.645 197.258 523.017 189.786 525.158L189.146 525.396L189.449 525.271Z" fill="white"/>
<path d="M7.48311 478.383L7.3144 478.327L7.66202 478.18C8.67473 477.646 9.46841 476.774 9.90539 475.715C10.3424 474.657 10.3951 473.479 10.0543 472.386C10.0543 472.386 11.3062 476.537 15.0426 475.523L15.2113 475.578L15.0088 475.512C13.97 476.033 13.1502 476.906 12.6956 477.975C12.241 479.045 12.1812 480.241 12.5269 481.351C12.5269 481.351 11.2751 477.2 7.6283 478.169L7.33658 478.26L7.48311 478.383Z" fill="white"/>
<path d="M175.573 203.727L175.192 203.864L175.91 203.614C183.086 200.441 180.716 191.733 180.716 191.733C180.716 191.733 183.188 200.586 190.906 198.152L191.321 198.027L191.579 197.925L191.075 198.095C183.584 201.202 186.056 210.055 186.056 210.055C186.056 210.055 183.562 201.382 176.078 203.557L175.439 203.795L175.573 203.727Z" fill="white"/>
<path d="M144.049 491.639L143.881 491.584L144.184 491.683C145.189 491.138 145.973 490.262 146.403 489.203C146.833 488.144 146.882 486.969 146.543 485.878C146.543 485.878 147.829 490.04 151.531 489.015L151.734 489.082L151.476 489.184C150.436 489.715 149.619 490.598 149.169 491.675C148.718 492.753 148.664 493.955 149.016 495.068C149.016 495.068 147.731 490.906 144.118 491.886L143.792 491.966L144.049 491.639Z" fill="white"/>
<path d="M224.84 398.823L225.053 398.631C226.057 398.076 226.84 397.194 227.271 396.131C227.702 395.068 227.756 393.89 227.423 392.792C227.423 392.792 228.708 396.954 232.445 395.94L232.242 395.873C231.188 396.442 230.378 397.378 229.966 398.504C229.555 399.629 229.57 400.866 230.008 401.981C230.008 401.981 228.757 397.83 225.11 398.799L224.807 398.924L224.84 398.823Z" fill="white"/>
<path d="M205.534 462.171L205.87 462.058C206.879 461.508 207.666 460.626 208.098 459.562C208.53 458.497 208.58 457.316 208.24 456.219C208.24 456.219 209.459 460.584 213.251 459.4L213.049 459.334C212.013 459.861 211.199 460.738 210.751 461.81C210.302 462.881 210.249 464.077 210.6 465.184C210.6 465.184 209.348 461.033 205.702 462.002L205.365 462.116L205.534 462.171Z" fill="white"/>
<path d="M288.389 403.426L288.221 403.37L288.591 403.268C289.59 402.708 290.369 401.825 290.8 400.764C291.23 399.703 291.287 398.527 290.961 397.429C290.961 397.429 292.191 401.76 295.938 400.599L296.106 400.655L295.904 400.588C294.865 401.109 294.045 401.983 293.591 403.052C293.136 404.122 293.076 405.318 293.422 406.428C293.422 406.428 292.204 402.288 288.557 403.257L288.221 403.37L288.389 403.426Z" fill="white"/>
<path d="M38.7649 596.852L39.0677 596.727C40.0753 596.178 40.8638 595.299 41.3013 594.238C41.7388 593.178 41.7987 591.999 41.471 590.899C41.471 590.899 42.6563 595.252 46.4482 594.069L46.1903 594.172C45.1471 594.697 44.3241 595.576 43.8676 596.651C43.4112 597.727 43.3508 598.929 43.6972 600.045C43.6972 600.045 42.4791 595.905 38.8323 596.874L38.4958 596.987L38.7649 596.852Z" fill="white"/>
<path d="M236.61 664.482L236.923 664.323C237.927 663.779 238.712 662.906 239.148 661.851C239.583 660.796 239.643 659.623 239.316 658.529C239.316 658.529 240.568 662.68 244.304 661.666L244.102 661.599C243.067 662.126 242.252 663.004 241.804 664.075C241.355 665.147 241.302 666.343 241.653 667.45C241.653 667.45 240.402 663.299 236.721 664.257L236.418 664.382L236.61 664.482Z" fill="white"/>
<path d="M240.482 600.879L240.83 600.732C241.834 600.187 242.618 599.31 243.048 598.251C243.478 597.193 243.528 596.018 243.188 594.927C243.188 594.927 244.474 599.089 248.211 598.074L248.379 598.13L248.177 598.063C247.133 598.579 246.309 599.451 245.853 600.523C245.398 601.594 245.342 602.793 245.695 603.903C245.695 603.903 244.443 599.752 240.796 600.721L240.493 600.845L240.482 600.879Z" fill="white"/>
<path d="M320.352 444.939C320.222 444.974 320.094 445.02 319.971 445.076L320.555 445.006C327.765 441.844 325.383 433.17 325.383 433.17C325.383 433.17 327.878 441.956 335.585 439.555L335.966 439.419C335.966 439.419 335.966 439.419 336.169 439.486L335.687 439.701C328.207 442.774 330.656 451.582 330.656 451.582C330.656 451.582 328.094 442.775 320.555 445.006L319.916 445.244L320.352 444.939Z" fill="white"/>
<path d="M203.97 424.301L204.003 424.2C205.012 423.65 205.799 422.768 206.231 421.704C206.663 420.639 206.713 419.458 206.373 418.361C206.373 418.361 207.658 422.523 211.395 421.509C210.356 422.03 209.536 422.903 209.082 423.973C208.627 425.042 208.567 426.239 208.913 427.348C208.913 427.348 207.661 423.197 204.014 424.166L203.678 424.28L203.97 424.301Z" fill="white"/>
<path d="M406.619 287.739L406.283 287.853L406.967 287.592C414.166 284.463 411.761 275.745 411.761 275.745C411.761 275.745 414.267 284.609 421.952 282.164L422.378 282.005L422.21 281.949L422.412 282.016L421.941 282.197C414.45 285.305 416.899 294.112 416.899 294.112C416.899 294.112 414.428 285.484 406.922 287.614L406.283 287.853L406.619 287.739Z" fill="white"/>
<path d="M259.124 533.759L259.471 533.612C260.479 533.063 261.267 532.184 261.705 531.123C262.142 530.062 262.202 528.884 261.875 527.784C261.875 527.784 263.06 532.137 266.852 530.954L267.02 531.01L266.784 530.932C265.697 531.431 264.829 532.311 264.345 533.405C263.861 534.499 263.794 535.733 264.157 536.873C264.157 536.873 262.905 532.722 259.258 533.691L258.955 533.816C258.955 533.816 259.09 533.748 259.124 533.759Z" fill="white"/>
<path d="M159.528 342.523L159.831 342.511C160.792 341.943 161.534 341.068 161.937 340.027C162.34 338.987 162.382 337.841 162.055 336.773C162.055 336.773 163.307 340.925 167.043 339.91C166.005 340.441 165.186 341.321 164.731 342.394C164.275 343.468 164.211 344.667 164.55 345.783C164.55 345.783 163.298 341.632 159.696 342.579L159.36 342.692C159.36 342.692 159.517 342.557 159.528 342.523Z" fill="white"/>
<path d="M82.1191 527.354L82.4556 527.241C83.4642 526.691 84.2513 525.809 84.6833 524.744C85.1153 523.68 85.1654 522.499 84.8252 521.402C84.8252 521.402 86.0442 525.766 89.8024 524.572L90.0048 524.639C88.9567 525.159 88.1292 526.037 87.6719 527.114C87.2147 528.191 87.1579 529.397 87.5118 530.512C87.5118 530.512 86.26 526.361 82.6243 527.296L82.3215 527.421L82.1191 527.354Z" fill="white"/>
<path d="M42.1295 499.915L42.4324 499.79C43.4447 499.246 44.2373 498.368 44.6755 497.305C45.1136 496.243 45.1702 495.062 44.8357 493.962C44.8357 493.962 46.0876 498.113 49.8467 497.144L49.5887 497.246C48.5536 497.773 47.7393 498.65 47.2909 499.722C46.8426 500.793 46.7892 501.989 47.1405 503.096C47.1405 503.096 45.8886 498.945 42.2081 499.903L41.9391 500.039L42.1295 499.915Z" fill="white"/>
<path d="M485.224 963.121L485.349 962.788C485.543 961.673 485.353 960.526 484.811 959.533C484.269 958.54 483.407 957.759 482.365 957.319C482.365 957.319 486.372 958.976 487.92 955.459L487.741 955.574C487.492 956.696 487.652 957.87 488.192 958.885C488.731 959.9 489.615 960.69 490.684 961.112C490.684 961.112 486.707 959.436 485.2 962.884L484.96 963.036L485.224 963.121Z" fill="white"/>
<path d="M153.99 964.086C153.913 964.19 153.86 964.31 153.835 964.437L154.096 963.723C156.158 956.256 148.032 952.635 148.032 952.635C148.032 952.635 156.365 956.251 159.312 948.851L159.458 948.42C159.458 948.42 159.458 948.42 159.638 948.306L159.48 948.785C157.139 956.473 165.471 960.089 165.471 960.089C165.471 960.089 157.264 956.604 154.235 963.677L154.045 964.304L153.99 964.086Z" fill="white"/>
<path d="M139.842 873.76C139.842 873.76 139.662 873.875 139.736 874.123L139.967 873.428C142.058 865.942 133.914 862.29 133.914 862.29C133.914 862.29 142.216 865.925 145.193 858.506L145.329 858.124L145.509 858.01L145.351 858.489C143.009 866.177 151.342 869.793 151.342 869.793C151.342 869.793 143.135 866.308 140.136 873.362L139.916 874.008L139.842 873.76Z" fill="white"/>
<path d="M152.566 911.4L152.702 911.018C152.895 909.903 152.705 908.756 152.164 907.763C151.622 906.77 150.759 905.989 149.717 905.549C149.717 905.549 153.724 907.206 155.262 903.738L155.178 904.003C154.93 905.131 155.092 906.311 155.635 907.331C156.178 908.352 157.066 909.145 158.14 909.57C158.14 909.57 154.134 907.913 152.607 911.331L152.512 911.645L152.566 911.4Z" fill="white"/>
<path d="M205.296 917.109L205.421 916.777C205.641 915.661 205.467 914.504 204.928 913.503C204.389 912.501 203.519 911.718 202.466 911.288C202.466 911.288 206.473 912.945 207.992 909.448L207.722 909.62C207.474 910.742 207.634 911.917 208.173 912.932C208.713 913.947 209.596 914.736 210.666 915.158C210.666 915.158 206.659 913.501 205.132 916.919L205.037 917.232L205.296 917.109Z" fill="white"/>
<path d="M163.928 819.123L164.053 818.791C164.26 817.675 164.076 816.522 163.533 815.526C162.989 814.53 162.119 813.751 161.069 813.321C161.069 813.321 165.076 814.978 166.624 811.462L166.774 811.367L166.594 811.481C166.347 812.61 166.509 813.79 167.052 814.81C167.594 815.83 168.482 816.624 169.557 817.049C169.557 817.049 165.58 815.373 164.053 818.791L163.928 819.123Z" fill="white"/>
<path d="M455.365 917.707L455.471 917.345C455.678 916.235 455.497 915.088 454.957 914.097C454.416 913.106 453.551 912.332 452.506 911.905C452.506 911.905 456.512 913.562 458.061 910.046L457.881 910.161C457.641 911.289 457.807 912.466 458.348 913.484C458.89 914.502 459.774 915.297 460.844 915.728C460.844 915.728 456.867 914.052 455.34 917.47L455.215 917.803C455.274 917.788 455.327 917.754 455.365 917.707Z" fill="white"/>
<path d="M343.465 972.334L343.59 972.002C343.803 970.886 343.623 969.73 343.078 968.732C342.534 967.734 341.66 966.957 340.605 966.532C340.605 966.532 344.612 968.19 346.161 964.673L345.981 964.788C345.734 965.915 345.893 967.094 346.429 968.116C346.965 969.138 347.845 969.938 348.914 970.375C348.914 970.375 344.937 968.699 343.41 972.117L343.315 972.43L343.465 972.334Z" fill="white"/>
<path d="M94.0467 873.106L94.1716 872.774C94.3785 871.658 94.1947 870.505 93.6512 869.509C93.1077 868.513 92.2377 867.734 91.1875 867.304C91.1875 867.304 95.1941 868.961 96.7427 865.445C96.4882 866.573 96.6435 867.755 97.1809 868.778C97.7182 869.802 98.6025 870.601 99.6753 871.032C99.6753 871.032 95.6986 869.356 94.1716 872.774L94.0766 873.087L94.0467 873.106Z" fill="white"/>
<path d="M180.734 874.719L180.84 874.357C180.976 873.257 180.737 872.143 180.163 871.195C179.588 870.247 178.712 869.519 177.674 869.13C177.674 869.13 181.68 870.787 183.248 867.301C183.034 868.419 183.218 869.576 183.769 870.571C184.32 871.567 185.202 872.339 186.262 872.751C186.262 872.751 182.286 871.075 180.778 874.523L180.683 874.837L180.734 874.719Z" fill="white"/>
<path d="M125.621 907.735L125.727 907.373C125.921 906.258 125.731 905.11 125.189 904.117C124.647 903.124 123.785 902.344 122.743 901.903C122.743 901.903 126.75 903.56 128.298 900.044L128.394 900.194C128.145 901.316 128.305 902.49 128.845 903.505C129.384 904.52 130.268 905.309 131.337 905.731C131.337 905.731 127.331 904.074 125.823 907.522L125.613 907.656L125.621 907.735Z" fill="white"/>
<path d="M107.75 943.913L107.875 943.581C108.082 942.465 107.898 941.312 107.354 940.316C106.811 939.32 105.941 938.541 104.891 938.111C104.891 938.111 108.897 939.768 110.446 936.252L110.266 936.367C110.018 937.489 110.178 938.663 110.717 939.678C111.257 940.693 112.14 941.482 113.21 941.904C113.21 941.904 109.233 940.228 107.706 943.646L107.611 943.96L107.75 943.913Z" fill="white"/>
<path d="M107.049 852.213L106.894 852.564L107.174 851.88C109.266 844.394 101.11 840.791 101.11 840.791C101.11 840.791 109.413 844.427 112.39 837.008L112.536 836.577L112.716 836.462L112.559 836.942C110.217 844.63 118.519 848.265 118.519 848.265C118.519 848.265 110.342 844.761 107.313 851.834L107.074 852.45C107.079 852.37 107.07 852.29 107.049 852.213Z" fill="white"/>
<path d="M374.911 901.499L375.036 901.166C375.256 900.051 375.082 898.893 374.543 897.892C374.004 896.891 373.134 896.108 372.081 895.678C372.081 895.678 376.058 897.354 377.607 893.838L377.756 893.742L377.607 893.838C377.358 894.96 377.518 896.134 378.058 897.149C378.597 898.164 379.481 898.953 380.55 899.375C380.55 899.375 376.543 897.718 375.016 901.136L374.921 901.45L374.911 901.499Z" fill="white"/>
<path d="M361.67 939.188L361.431 939.341L361.68 938.676C363.772 931.19 355.646 927.568 355.646 927.568C355.646 927.568 363.93 931.174 366.926 923.784L367.072 923.354L366.923 923.449L367.072 923.354L366.915 923.834C364.603 931.502 372.876 935.157 372.876 935.157C372.876 935.157 364.729 931.633 361.699 938.706L361.48 939.352L361.67 939.188Z" fill="white"/>
<path d="M321.042 900.013L320.936 900.375L321.167 899.68C323.259 892.194 315.114 888.543 315.114 888.543C315.114 888.543 323.417 892.178 326.394 884.759L326.469 884.416L326.301 884.944C323.989 892.613 332.273 896.218 332.273 896.218C332.273 896.218 324.115 892.744 321.086 899.817L320.847 900.433L321.042 900.013Z" fill="white"/>
<path d="M307.387 952.967L307.541 952.615C307.735 951.499 307.541 950.351 306.993 949.36C306.445 948.369 305.575 947.594 304.527 947.165C304.527 947.165 308.534 948.822 310.083 945.306L309.903 945.42C309.655 946.549 309.817 947.729 310.36 948.749C310.903 949.769 311.791 950.563 312.865 950.988C312.865 950.988 308.859 949.331 307.362 952.73L307.237 953.062L307.387 952.967Z" fill="white"/>
<path d="M337.875 865.972L337.981 865.61C338.189 864.5 338.007 863.353 337.467 862.362C336.927 861.371 336.061 860.597 335.016 860.17C335.016 860.17 339.023 861.827 340.552 858.281L340.702 858.185L340.522 858.3C340.289 859.428 340.458 860.602 340.999 861.618C341.54 862.635 342.419 863.431 343.485 863.868C343.485 863.868 339.508 862.191 337.981 865.61L337.886 865.923L337.875 865.972Z" fill="white"/>
<path d="M310.108 921.441L310.233 921.108C310.454 919.993 310.28 918.835 309.741 917.834C309.202 916.833 308.332 916.05 307.279 915.62C307.279 915.62 311.256 917.296 312.804 913.78L312.625 913.894C312.377 915.023 312.539 916.203 313.082 917.223C313.625 918.243 314.513 919.037 315.587 919.462C315.587 919.462 311.58 917.805 310.053 921.223L309.958 921.536L310.108 921.441Z" fill="white"/>
<path d="M363.361 860.877L363.481 860.801C363.688 859.685 363.504 858.532 362.96 857.536C362.417 856.54 361.547 855.761 360.497 855.331C360.497 855.331 364.503 856.988 366.052 853.472L366.202 853.376L366.052 853.472C365.797 854.6 365.953 855.781 366.49 856.805C367.027 857.829 367.912 858.628 368.985 859.059C368.985 859.059 365.008 857.383 363.481 860.801L363.386 861.114L363.361 860.877Z" fill="white"/>
<path d="M275.317 916.505L275.259 916.416C275.473 915.299 275.293 914.143 274.748 913.146C274.204 912.148 273.33 911.37 272.275 910.946C272.275 910.946 276.282 912.603 277.831 909.087L277.651 909.202C277.388 910.323 277.538 911.502 278.073 912.523C278.608 913.543 279.492 914.337 280.564 914.758C280.564 914.758 276.588 913.082 275.08 916.53L274.966 916.814L275.317 916.505Z" fill="white"/>
<path d="M403.141 923.093L402.986 923.445L403.247 922.731C405.309 915.264 397.183 911.642 397.183 911.642C397.183 911.642 405.516 915.258 408.493 907.839L408.579 907.447L408.759 907.332L408.602 907.812C406.26 915.5 414.562 919.135 414.562 919.135C414.562 919.135 406.415 915.611 403.356 922.703L403.136 923.349L403.141 923.093Z" fill="white"/>
<path d="M293.292 864.84L293.398 864.478C293.605 863.362 293.421 862.209 292.877 861.213C292.334 860.217 291.464 859.438 290.414 859.008C290.414 859.008 294.42 860.665 295.969 857.149L296.119 857.054L295.969 857.149C295.721 858.27 295.877 859.443 296.411 860.46C296.944 861.477 297.819 862.272 298.882 862.706C298.882 862.706 294.906 861.03 293.379 864.448L293.303 864.791L293.292 864.84Z" fill="white"/>
<path d="M390.69 874.324L390.796 873.962C391.004 872.852 390.822 871.705 390.282 870.714C389.742 869.723 388.876 868.949 387.831 868.522C387.831 868.522 391.838 870.179 393.386 866.663L393.207 866.778C392.944 867.899 393.093 869.078 393.628 870.099C394.163 871.119 395.048 871.913 396.12 872.334C396.12 872.334 392.113 870.677 390.636 874.106L390.541 874.42L390.69 874.324Z" fill="white"/>
<path d="M411.646 891.122L411.771 890.79C411.978 889.674 411.794 888.521 411.251 887.525C410.707 886.528 409.837 885.75 408.787 885.32C408.787 885.32 412.793 886.977 414.312 883.48L414.228 883.744C413.979 884.867 414.139 886.041 414.679 887.056C415.218 888.071 416.102 888.86 417.171 889.282C417.171 889.282 413.165 887.625 411.687 891.054L411.562 891.386C411.562 891.386 411.665 891.152 411.646 891.122Z" fill="white"/>
<path d="M336.15 927.916C336.15 927.916 336.034 926.81 333.077 928.317C329.654 930.182 326.444 932.413 323.504 934.973L320.758 937.273C318.351 935.944 315.783 934.296 315.783 934.296L319.879 935.896C323.612 933.09 327.514 930.516 331.562 928.188C333.844 926.943 336.075 926.742 336.15 927.916Z" fill="#FFF6E6"/>
<path d="M336.18 935.228C335.581 938.189 334.708 941.087 333.572 943.886C333.572 943.886 348.565 949.952 350.144 953.284C350.144 953.284 350.21 951.473 345.668 948.977C341.127 946.482 335.146 943.051 335.146 943.051C335.146 943.051 335.951 937.776 336.18 935.228Z" fill="#FFF6E6"/>
<path d="M499.938 927.145C495.133 923.423 491.673 918.233 490.086 912.364C487.449 902.564 486.84 892.329 488.296 882.285L488.701 879.751L455.49 891.293L455.401 892.276C454.935 896.839 455.293 901.449 456.458 905.885C456.879 907.772 457.782 909.517 459.08 910.949C460.378 912.381 462.026 913.451 463.862 914.055L464.621 911.085C463.298 910.603 462.122 909.789 461.204 908.722C460.287 907.654 459.66 906.368 459.383 904.988C458.393 901.251 458.041 897.373 458.342 893.518L485.032 884.368C483.852 894.035 484.568 903.839 487.142 913.232C488.905 919.818 492.819 925.625 498.261 929.733L499.996 927.235L499.938 927.145Z" fill="#89A83D"/>
<path d="M495.982 927.943C497.078 930.795 499.258 933.099 502.046 934.351C504.834 935.603 508.003 935.702 510.864 934.627C512.409 934.388 513.884 933.818 515.189 932.957C516.494 932.096 517.597 930.963 518.425 929.637C519.252 928.31 519.783 926.821 519.982 925.27C520.182 923.719 520.044 922.144 519.579 920.651C519.114 919.159 518.332 917.784 517.287 916.621C516.242 915.458 514.959 914.534 513.524 913.913C512.09 913.291 510.538 912.986 508.975 913.019C507.412 913.051 505.875 913.421 504.467 914.101C501.516 914.827 498.969 916.687 497.38 919.278C495.791 921.87 495.289 924.983 495.982 927.943Z" fill="#A5CD3A"/>
<path d="M520.723 920.163C519.499 916.929 517.05 914.307 513.907 912.866C510.763 911.425 507.178 911.281 503.929 912.465C500.581 913.331 497.709 915.482 495.936 918.451C494.163 921.42 493.631 924.968 494.457 928.326C495.657 931.548 498.077 934.167 501.195 935.617C504.312 937.066 507.875 937.229 511.111 936.071C514.466 935.225 517.35 933.084 519.129 930.117C520.908 927.149 521.438 923.597 520.603 920.239L520.723 920.163ZM517.798 921.06C518.376 923.641 517.918 926.345 516.522 928.591C515.126 930.837 512.904 932.446 510.334 933.069C507.855 934.068 505.08 934.042 502.62 932.997C500.16 931.952 498.215 929.973 497.213 927.495C496.644 924.915 497.106 922.215 498.5 919.971C499.895 917.727 502.111 916.118 504.676 915.486C507.151 914.548 509.894 914.616 512.318 915.676C514.743 916.736 516.656 918.703 517.648 921.156L517.798 921.06Z" fill="#89A83D"/>
<path d="M501.132 924.657C501.41 926.251 502.167 927.723 503.303 928.876C504.439 930.029 505.9 930.808 507.49 931.109C509.08 931.41 510.724 931.219 512.203 930.561C513.682 929.904 514.925 928.811 515.767 927.428C516.608 926.046 517.008 924.44 516.913 922.824C516.818 921.208 516.233 919.66 515.235 918.386C514.237 917.111 512.874 916.172 511.328 915.692C509.783 915.213 508.127 915.216 506.583 915.701C504.679 916.177 503.039 917.383 502.019 919.06C500.998 920.736 500.68 922.747 501.132 924.657Z" fill="#D2D926"/>
<path d="M462.885 911.729C463.227 913.656 464.147 915.433 465.524 916.823C466.901 918.213 468.669 919.15 470.592 919.51C472.516 919.87 474.503 919.636 476.29 918.837C478.076 918.039 479.577 916.716 480.592 915.043C481.607 913.37 482.089 911.428 481.972 909.475C481.855 907.521 481.146 905.65 479.939 904.11C478.732 902.57 477.084 901.435 475.215 900.855C473.346 900.275 471.345 900.279 469.478 900.865C467.168 901.44 465.179 902.904 463.944 904.939C462.709 906.974 462.329 909.415 462.885 911.729Z" fill="#A5CD3A"/>
<path d="M482.528 905.601C481.526 903.021 479.559 900.932 477.045 899.777C474.53 898.621 471.665 898.489 469.054 899.408C466.38 900.115 464.086 901.833 462.656 904.2C461.225 906.567 460.771 909.398 461.39 912.093C462.395 914.677 464.368 916.766 466.889 917.919C469.41 919.072 472.282 919.196 474.893 918.267C477.566 917.542 479.852 915.805 481.266 913.424C482.681 911.043 483.113 908.205 482.47 905.511L482.528 905.601ZM479.622 906.528C480.05 908.454 479.705 910.47 478.662 912.145C477.619 913.819 475.96 915.017 474.043 915.481C472.196 916.181 470.148 916.131 468.337 915.341C466.527 914.552 465.097 913.086 464.353 911.256C463.953 909.336 464.318 907.335 465.371 905.679C466.423 904.024 468.081 902.845 469.99 902.393C471.817 901.686 473.848 901.723 475.649 902.496C477.449 903.269 478.876 904.716 479.622 906.528Z" fill="#89A83D"/>
<path d="M467.95 908.708C468.145 909.803 468.67 910.813 469.453 911.602C470.237 912.392 471.243 912.924 472.336 913.127C473.43 913.33 474.56 913.195 475.575 912.74C476.59 912.285 477.442 911.531 478.017 910.579C478.593 909.627 478.864 908.522 478.795 907.411C478.727 906.301 478.321 905.238 477.633 904.364C476.944 903.49 476.006 902.847 474.942 902.52C473.879 902.194 472.741 902.199 471.681 902.536C470.375 902.871 469.252 903.706 468.555 904.86C467.857 906.014 467.64 907.395 467.95 908.708Z" fill="#D2D926"/>
<path d="M505.623 921.328C505.819 921.848 506.115 922.324 506.495 922.729C506.875 923.134 507.331 923.46 507.837 923.689C508.343 923.918 508.889 924.045 509.444 924.063C509.999 924.08 510.552 923.989 511.072 923.792C512.163 923.513 513.1 922.818 513.684 921.855C514.267 920.892 514.449 919.738 514.19 918.642C513.752 917.612 512.946 916.782 511.93 916.313C510.913 915.844 509.759 915.769 508.69 916.104C507.622 916.439 506.716 917.159 506.149 918.125C505.583 919.09 505.395 920.232 505.623 921.328Z" fill="#E6E01C"/>
<path d="M470.528 906.473C470.665 906.843 470.873 907.181 471.142 907.469C471.41 907.758 471.733 907.99 472.091 908.153C472.45 908.316 472.837 908.406 473.231 908.419C473.625 908.431 474.017 908.366 474.385 908.226C474.751 908.136 475.094 907.973 475.395 907.746C475.695 907.519 475.946 907.233 476.133 906.906C476.319 906.579 476.437 906.217 476.478 905.843C476.52 905.469 476.485 905.09 476.376 904.73C476.267 904.369 476.085 904.035 475.842 903.748C475.599 903.46 475.3 903.225 474.963 903.057C474.626 902.888 474.259 902.79 473.883 902.769C473.507 902.748 473.131 902.803 472.777 902.932C472.011 903.107 471.346 903.578 470.925 904.241C470.504 904.904 470.361 905.706 470.528 906.473Z" fill="#E6E01C"/>
<path d="M15.3138 842.359C9.52796 841.994 4.0245 839.729 -0.342115 835.916C-7.49351 829.605 -13.3008 821.918 -17.4176 813.314L-18.4281 811.136L-38.3817 837.645L-37.8849 838.423C-35.8413 842.239 -33.1418 845.666 -29.9098 848.545C-28.5892 849.785 -26.9743 850.668 -25.2177 851.11C-23.4611 851.552 -21.6208 851.539 -19.8706 851.072L-20.811 848.344C-22.1055 848.671 -23.4624 848.658 -24.7502 848.306C-26.038 847.953 -27.2129 847.274 -28.1607 846.334C-30.8468 843.94 -33.1264 841.125 -34.9106 838L-18.9554 816.781C-14.7788 824.961 -9.06386 832.259 -2.12369 838.275C2.67077 842.51 8.73053 845.043 15.1132 845.479L15.1615 842.583L15.3138 842.359Z" fill="#89A83D"/>
<path d="M12.5611 845.043C14.9837 846.587 17.8928 847.179 20.7264 846.704C23.56 846.229 26.117 844.721 27.9032 842.47C29.6895 840.22 30.5782 837.387 30.3978 834.52C30.2174 831.652 28.9806 828.953 26.9263 826.945C24.5156 825.447 21.6402 824.884 18.8429 825.362C16.0456 825.84 13.52 827.325 11.7428 829.537C9.96559 831.75 9.05987 834.536 9.19655 837.371C9.33323 840.205 10.5029 842.892 12.4847 844.923L12.5611 845.043Z" fill="#A5CD3A"/>
<path d="M27.94 825.961C25.2903 824.057 21.9937 823.281 18.773 823.804C15.5523 824.326 12.6702 826.105 10.7586 828.749C8.57927 831.183 7.45178 834.38 7.62261 837.642C7.79343 840.904 9.24867 843.966 11.6703 846.159C14.3307 848.052 17.6305 848.819 20.853 848.293C24.0756 847.767 26.9606 845.992 28.8815 843.351C31.0602 840.919 32.1847 837.722 32.0081 834.461C31.8316 831.201 30.3685 828.144 27.94 825.961ZM26.161 828.191C27.965 829.911 29.0228 832.269 29.1073 834.76C29.1917 837.25 28.2961 839.675 26.6128 841.512C25.1829 843.566 23.0021 844.974 20.5422 845.431C18.0823 845.889 15.5411 845.36 13.4684 843.958C11.6611 842.236 10.5999 839.874 10.5119 837.379C10.4238 834.883 11.316 832.453 12.9975 830.607C14.4454 828.572 16.6328 827.184 19.0912 826.742C21.5496 826.299 24.0835 826.837 26.1501 828.24L26.161 828.191Z" fill="#89A83D"/>
<path d="M14.9998 839.821C16.0563 840.915 17.421 841.663 18.9124 841.963C20.4039 842.264 21.9515 842.103 23.3495 841.503C24.7475 840.903 25.9298 839.891 26.7391 838.603C27.5484 837.315 27.9465 835.811 27.8804 834.291C27.8143 832.771 27.2872 831.307 26.3691 830.093C25.451 828.88 24.1854 827.975 22.7406 827.499C21.2957 827.022 19.74 826.996 18.2803 827.425C16.8206 827.854 15.5259 828.717 14.5684 829.899C13.3301 831.282 12.682 833.094 12.7626 834.948C12.8432 836.802 13.6462 838.551 14.9998 839.821Z" fill="#D2D926"/>
<path d="M16.7273 834.8C17.6115 835.36 18.6705 835.575 19.7028 835.404C20.7352 835.233 21.6686 834.688 22.3252 833.874C22.9819 833.059 23.3161 832.031 23.2639 830.986C23.2118 829.941 22.7771 828.952 22.0427 828.207C21.1585 827.647 20.0994 827.432 19.0671 827.603C18.0348 827.774 17.1014 828.319 16.4447 829.133C15.788 829.948 15.4539 830.976 15.506 832.021C15.5581 833.066 15.9928 834.055 16.7273 834.8Z" fill="#E6E01C"/>
<path d="M210.486 810.561L181.975 802.461L185.501 794.186L201.245 799.182L201.56 798.223L184.906 792.922L180.573 803.102L210.239 811.561L210.486 810.561Z" fill="#BC2B28"/>
<path d="M189.735 794.813L188.787 794.449L185.51 803.576L186.458 803.94L189.735 794.813Z" fill="#BC2B28"/>
<path d="M202.338 799.707C203.703 800.084 205.161 799.914 206.403 799.232C207.644 798.55 208.57 797.411 208.984 796.056C209.591 794.773 209.672 793.302 209.21 791.96C208.747 790.617 207.777 789.509 206.507 788.873C205.155 788.511 203.716 788.685 202.49 789.358C201.263 790.031 200.343 791.151 199.921 792.485C199.288 793.764 199.187 795.241 199.64 796.595C200.092 797.948 201.063 799.067 202.338 799.707Z" fill="#E6352E"/>
<path d="M206.665 788.393C205.169 787.983 203.571 788.18 202.218 788.941C200.866 789.701 199.867 790.964 199.44 792.456C198.772 793.863 198.688 795.478 199.207 796.947C199.726 798.416 200.805 799.62 202.209 800.295C203.705 800.739 205.315 800.574 206.691 799.839C208.067 799.103 209.098 797.854 209.56 796.364C210.208 794.946 210.277 793.331 209.75 791.864C209.223 790.397 208.144 789.194 206.742 788.513L206.665 788.393ZM206.32 789.372C207.465 789.951 208.334 790.958 208.74 792.175C209.145 793.392 209.054 794.719 208.486 795.869C208.126 797.102 207.297 798.144 206.177 798.772C205.057 799.4 203.736 799.563 202.496 799.227C201.361 798.631 200.499 797.619 200.092 796.402C199.685 795.186 199.764 793.859 200.312 792.7C200.678 791.468 201.512 790.43 202.636 789.807C203.759 789.185 205.083 789.028 206.32 789.372Z" fill="#BC2B28"/>
<path d="M210.108 811.687C211.472 812.081 212.936 811.922 214.183 811.244C215.431 810.566 216.361 809.425 216.773 808.067C217.39 806.784 217.476 805.31 217.012 803.965C216.548 802.62 215.572 801.512 214.296 800.883C212.924 800.497 211.456 800.666 210.208 801.352C208.959 802.039 208.03 803.188 207.621 804.552C207.019 805.831 206.943 807.293 207.408 808.627C207.873 809.961 208.843 811.059 210.108 811.687Z" fill="#E6352E"/>
<path d="M214.484 800.384C212.985 799.955 211.377 800.133 210.009 800.88C208.64 801.627 207.621 802.883 207.171 804.376C206.504 805.783 206.42 807.398 206.939 808.867C207.458 810.336 208.537 811.54 209.94 812.216C211.436 812.649 213.043 812.481 214.416 811.746C215.79 811.012 216.821 809.769 217.291 808.284C217.939 806.867 218.01 805.254 217.489 803.785C216.969 802.316 215.898 801.108 214.503 800.414L214.484 800.384ZM214.09 801.352C215.239 801.935 216.112 802.946 216.521 804.168C216.93 805.389 216.841 806.722 216.275 807.879C215.919 809.107 215.094 810.145 213.979 810.77C212.864 811.395 211.548 811.556 210.315 811.218C209.173 810.634 208.302 809.628 207.889 808.413C207.476 807.198 207.552 805.87 208.101 804.71C208.468 803.482 209.298 802.446 210.416 801.819C211.534 801.193 212.851 801.025 214.09 801.352Z" fill="#BC2B28"/>
<path d="M202.557 797.671C203.602 797.957 204.715 797.848 205.684 797.365C206.653 796.881 207.41 796.058 207.811 795.052C208.211 794.046 208.227 792.927 207.855 791.91C207.483 790.893 206.75 790.049 205.795 789.538C204.75 789.253 203.637 789.362 202.668 789.845C201.699 790.329 200.941 791.152 200.541 792.158C200.14 793.164 200.125 794.283 200.496 795.3C200.868 796.317 201.602 797.161 202.557 797.671Z" fill="#E77978"/>
<path d="M210.376 809.663C210.91 809.875 211.48 809.981 212.055 809.973C212.63 809.965 213.197 809.844 213.725 809.616C214.253 809.389 214.731 809.06 215.132 808.648C215.533 808.236 215.848 807.749 216.061 807.215C216.274 806.681 216.379 806.11 216.371 805.536C216.363 804.961 216.242 804.393 216.015 803.866C215.787 803.338 215.458 802.86 215.046 802.459C214.634 802.058 214.147 801.742 213.613 801.53C212.535 801.1 211.33 801.117 210.264 801.576C209.198 802.035 208.357 802.899 207.928 803.978C207.499 805.056 207.515 806.261 207.974 807.327C208.433 808.393 209.297 809.234 210.376 809.663Z" fill="#E77978"/>
<path d="M202.437 795.767C203.162 795.966 203.936 795.874 204.593 795.509C205.25 795.145 205.739 794.538 205.955 793.818C206.281 793.14 206.325 792.36 206.077 791.649C205.829 790.938 205.309 790.355 204.631 790.027C203.936 789.925 203.225 790.061 202.616 790.412C202.007 790.763 201.534 791.309 201.273 791.963C201.013 792.616 200.98 793.338 201.181 794.012C201.382 794.687 201.804 795.273 202.38 795.678L202.437 795.767Z" fill="#E7A8A8"/>
<path d="M210.185 807.845C210.91 808.044 211.684 807.952 212.341 807.587C212.999 807.223 213.487 806.616 213.703 805.896C213.899 805.566 214.02 805.198 214.058 804.817C214.097 804.435 214.051 804.05 213.925 803.688C213.799 803.326 213.595 802.996 213.327 802.721C213.06 802.446 212.736 802.233 212.378 802.097C212.019 801.96 211.635 801.904 211.253 801.932C210.871 801.96 210.499 802.071 210.164 802.257C209.829 802.444 209.539 802.701 209.314 803.012C209.089 803.322 208.935 803.678 208.862 804.055C208.545 804.734 208.506 805.511 208.753 806.219C209.001 806.927 209.514 807.511 210.185 807.845Z" fill="#E7A8A8"/>
<path d="M143.871 684.232C141.771 674.892 140.419 665.398 139.83 655.842C139.806 655.704 139.754 655.572 139.679 655.454C139.603 655.336 139.505 655.234 139.39 655.154C139.286 655.068 139.165 655.007 139.034 654.974C138.904 654.941 138.768 654.936 138.636 654.961L119.001 658.725C118.882 658.747 118.77 658.793 118.67 658.86C118.569 658.927 118.484 659.013 118.418 659.114C118.353 659.215 118.308 659.328 118.288 659.447C118.267 659.566 118.271 659.687 118.299 659.805C118.341 660.046 118.478 660.26 118.678 660.401C118.879 660.542 119.127 660.597 119.368 660.555L137.952 657.125C138.614 666.454 139.989 675.718 142.066 684.837C142.083 684.958 142.125 685.073 142.191 685.176C142.256 685.279 142.343 685.367 142.445 685.434C142.548 685.5 142.663 685.544 142.784 685.562C142.905 685.58 143.028 685.572 143.145 685.538C143.367 685.457 143.552 685.299 143.668 685.094C143.784 684.889 143.823 684.649 143.779 684.418L143.871 684.232Z" fill="#EBAD20"/>
<path d="M141.275 668.277C141.24 668.035 141.114 667.816 140.923 667.664C140.732 667.512 140.49 667.438 140.247 667.458L125.178 669.067C124.931 669.103 124.707 669.231 124.55 669.425C124.392 669.619 124.314 669.865 124.33 670.114C124.343 670.236 124.38 670.354 124.438 670.461C124.497 670.568 124.577 670.662 124.673 670.738C124.768 670.815 124.878 670.871 124.996 670.904C125.113 670.938 125.236 670.948 125.358 670.933L140.456 669.305L140.606 669.209C140.806 669.138 140.977 669.001 141.091 668.821C141.206 668.642 141.257 668.429 141.237 668.217L141.275 668.277Z" fill="#EBAD20"/>
<path d="M142.632 687.046C142.916 688.126 143.412 689.138 144.09 690.026C144.768 690.913 145.615 691.657 146.582 692.216C147.549 692.774 148.618 693.135 149.725 693.278C150.833 693.421 151.958 693.343 153.035 693.048C155.121 692.228 156.815 690.643 157.773 688.616C158.732 686.59 158.881 684.274 158.192 682.141C157.502 680.009 156.026 678.219 154.063 677.137C152.1 676.054 149.798 675.761 147.626 676.317C145.55 677.088 143.861 678.647 142.926 680.656C141.991 682.664 141.885 684.96 142.632 687.046Z" fill="#F4C621"/>
<path d="M158.808 681.823C158.14 679.438 156.553 677.417 154.395 676.202C152.237 674.987 149.686 674.679 147.301 675.344C144.98 676.198 143.092 677.938 142.051 680.181C141.01 682.425 140.902 684.99 141.749 687.313C142.075 688.494 142.632 689.599 143.387 690.563C144.142 691.528 145.081 692.333 146.149 692.933C147.217 693.532 148.393 693.914 149.61 694.057C150.827 694.199 152.06 694.099 153.237 693.762C155.558 692.908 157.446 691.168 158.487 688.925C159.528 686.681 159.636 684.116 158.789 681.793L158.808 681.823ZM157.013 682.378C157.72 684.233 157.662 686.293 156.852 688.106C156.041 689.919 154.545 691.336 152.69 692.046C150.775 692.551 148.738 692.281 147.021 691.295C145.303 690.309 144.044 688.686 143.514 686.777C142.817 684.921 142.879 682.865 143.689 681.055C144.498 679.245 145.989 677.827 147.837 677.109C149.752 676.595 151.794 676.86 153.514 677.848C155.234 678.835 156.492 680.464 157.013 682.378Z" fill="#EBAD20"/>
<path d="M145.19 685.244C145.4 686.012 145.76 686.731 146.249 687.359C146.738 687.987 147.347 688.512 148.039 688.904C148.732 689.296 149.495 689.547 150.285 689.643C151.076 689.739 151.877 689.678 152.643 689.464C154.247 688.938 155.576 687.797 156.338 686.291C157.1 684.786 157.232 683.039 156.706 681.436C156.181 679.832 155.04 678.504 153.534 677.742C152.029 676.98 150.282 676.847 148.679 677.373C147.929 677.655 147.242 678.084 146.66 678.634C146.077 679.184 145.61 679.845 145.285 680.577C144.96 681.31 144.785 682.1 144.768 682.901C144.752 683.703 144.895 684.499 145.19 685.244Z" fill="#F4DB08"/>
<path d="M147.188 683.422C147.507 684.177 148.038 684.823 148.717 685.282C149.396 685.741 150.194 685.992 151.013 686.005C151.832 686.019 152.638 685.794 153.332 685.358C154.026 684.922 154.578 684.294 154.921 683.55C155.264 682.806 155.384 681.978 155.265 681.167C155.146 680.356 154.795 679.597 154.253 678.983C153.711 678.368 153.002 677.925 152.212 677.706C151.422 677.487 150.586 677.502 149.805 677.75C149.26 677.949 148.759 678.254 148.332 678.648C147.905 679.041 147.56 679.515 147.317 680.042C147.074 680.569 146.937 681.139 146.915 681.719C146.893 682.299 146.986 682.878 147.188 683.422Z" fill="#F4E400"/>
<path d="M123.19 871.829L122.158 872.656L138.493 892.908L139.524 892.081L123.19 871.829Z" fill="#C91E7C"/>
<path d="M139.779 895.584C140.776 896.34 141.969 896.793 143.217 896.891C144.464 896.988 145.713 896.725 146.816 896.134C147.918 895.542 148.828 894.646 149.436 893.553C150.045 892.46 150.327 891.215 150.248 889.966C150.17 888.717 149.735 887.517 148.995 886.508C148.255 885.5 147.241 884.725 146.073 884.275C144.905 883.826 143.633 883.721 142.407 883.973C141.182 884.226 140.055 884.824 139.159 885.699C137.955 887.103 137.346 888.921 137.462 890.767C137.578 892.613 138.409 894.341 139.779 895.584Z" fill="#E32888"/>
<path d="M149.58 885.918C148.247 884.399 146.369 883.468 144.354 883.326C142.338 883.184 140.348 883.843 138.816 885.16C137.468 886.677 136.776 888.667 136.893 890.694C137.009 892.72 137.924 894.618 139.436 895.971C140.778 897.488 142.662 898.415 144.682 898.553C146.702 898.692 148.695 898.03 150.231 896.71C151.569 895.19 152.251 893.202 152.13 891.18C152.008 889.158 151.091 887.267 149.58 885.918ZM148.625 886.864C149.883 887.967 150.658 889.519 150.785 891.186C150.911 892.854 150.38 894.505 149.303 895.785C148.013 896.849 146.358 897.365 144.692 897.223C143.026 897.081 141.482 896.292 140.391 895.025C139.137 893.926 138.365 892.377 138.242 890.714C138.119 889.051 138.654 887.406 139.732 886.134C141.014 885.064 142.664 884.54 144.328 884.677C145.992 884.814 147.536 885.599 148.625 886.864Z" fill="#C91E7C"/>
<path d="M141.138 893.621C141.56 894.19 142.098 894.661 142.718 895.003C143.337 895.346 144.023 895.551 144.728 895.605C145.434 895.659 146.143 895.56 146.807 895.316C147.471 895.072 148.075 894.688 148.578 894.191C149.081 893.693 149.471 893.093 149.722 892.431C149.973 891.769 150.078 891.061 150.031 890.355C149.985 889.649 149.787 888.961 149.451 888.339C149.115 887.716 148.649 887.172 148.085 886.745C147.664 886.177 147.125 885.705 146.506 885.363C145.886 885.021 145.201 884.816 144.495 884.762C143.789 884.708 143.08 884.806 142.416 885.05C141.752 885.294 141.148 885.678 140.645 886.176C140.142 886.674 139.752 887.274 139.501 887.936C139.251 888.597 139.145 889.305 139.192 890.011C139.239 890.717 139.437 891.405 139.772 892.028C140.108 892.651 140.574 893.194 141.138 893.621Z" fill="#E56FA1"/>
<path d="M142.454 891.391C142.991 891.818 143.641 892.08 144.325 892.146C145.009 892.211 145.697 892.076 146.305 891.759C146.914 891.441 147.418 890.954 147.756 890.356C148.093 889.757 148.25 889.074 148.207 888.389C148.165 887.704 147.924 887.045 147.515 886.494C147.106 885.942 146.546 885.521 145.902 885.281C145.259 885.041 144.56 884.993 143.889 885.143C143.219 885.292 142.607 885.633 142.126 886.123C141.801 886.49 141.552 886.918 141.393 887.382C141.233 887.845 141.167 888.336 141.197 888.825C141.228 889.314 141.354 889.793 141.57 890.233C141.785 890.674 142.086 891.067 142.454 891.391Z" fill="#EB9FBF"/>
<path d="M122.809 871.103C120.394 874.675 117.125 877.587 113.298 879.573C110.633 881.274 117.452 888.131 121.795 886.287C125.513 884.124 128.945 881.05 128.177 879.054L122.809 871.103Z" fill="#E32888"/>
<path d="M128.861 878.871L123.424 870.879L122.909 870.07L122.4 870.858L121.347 872.246C120.515 873.315 119.613 874.327 118.646 875.276C117.101 876.895 115.249 878.19 113.199 879.088C113.063 879.134 112.939 879.213 112.84 879.317C111.558 880.809 112.702 882.734 114.189 884.271C115.165 885.433 116.449 886.296 117.893 886.761C119.337 887.225 120.884 887.273 122.354 886.899C124.072 885.919 125.664 884.733 127.095 883.368C128.513 881.958 129.459 880.469 129.049 878.835L128.861 878.871ZM125.95 882.497C124.622 883.764 123.144 884.863 121.549 885.769C119.64 886.608 116.702 885.238 114.926 883.38C114.347 882.791 113.898 882.087 113.608 881.313C113.264 880.774 113.479 880.385 113.639 880.24C115.845 879.306 117.833 877.923 119.475 876.179C120.671 874.983 121.787 873.709 122.813 872.364L127.646 879.477C127.971 879.986 127.275 881.273 125.939 882.546L125.95 882.497Z" fill="#C91E7C"/>
<path d="M133.795 949.205L133.64 949.557L133.901 948.843C135.984 941.277 127.76 937.634 127.76 937.634C127.76 937.634 136.161 941.291 139.179 933.804L139.325 933.373C139.325 933.373 139.325 933.373 139.146 933.488L139.355 933.354L139.198 933.834C136.834 941.62 145.235 945.277 145.235 945.277C145.235 945.277 136.96 941.75 133.89 948.892L133.7 949.518L133.795 949.205Z" fill="white"/>
<path d="M91.7125 820.58L91.5768 820.961L91.8374 820.247C93.9206 812.682 85.708 808.99 85.708 808.99C85.708 808.99 94.0977 812.696 97.0963 805.179L97.2621 804.778L97.4417 804.663L97.2543 805.162C94.9016 812.899 103.302 816.556 103.302 816.556C103.302 816.556 95.0271 813.03 92.0063 820.182L91.7864 820.828L91.7125 820.58Z" fill="white"/>
<path d="M-11.9747 901.484L-12.1295 901.835L-11.8689 901.121C-9.78566 893.556 -18.0091 889.913 -18.0091 889.913C-18.0091 889.913 -9.60855 893.57 -6.62078 886.102L-6.44423 885.652L-6.59396 885.747L-6.41431 885.633L-6.60167 886.132C-8.93526 893.899 -0.534746 897.555 -0.534746 897.555C-0.534746 897.555 -8.80979 894.029 -11.8797 901.17L-12.1187 901.786L-11.9747 901.484Z" fill="white"/>
<path d="M189.409 924.634L189.564 924.282C189.776 923.153 189.591 921.986 189.04 920.978C188.489 919.97 187.606 919.184 186.541 918.753C186.541 918.753 190.693 920.57 192.146 916.904L192.241 917.054C191.987 918.188 192.145 919.376 192.686 920.405C193.226 921.433 194.115 922.236 195.193 922.671C195.193 922.671 191.186 921.014 189.629 924.451L189.534 924.764L189.409 924.634Z" fill="white"/>
<path d="M438.211 902.445L438.316 902.082C438.529 900.961 438.35 899.8 437.809 898.796C437.267 897.791 436.397 897.003 435.343 896.564C435.343 896.564 439.35 898.221 440.928 894.686C440.667 895.82 440.821 897.011 441.363 898.041C441.904 899.072 442.797 899.874 443.88 900.302C443.88 900.302 439.873 898.645 438.316 902.082L438.221 902.396L438.211 902.445Z" fill="white"/>
<path d="M61.6643 853.656L61.8192 853.304C61.9998 852.194 61.799 851.056 61.2497 850.075C60.7003 849.094 59.8348 848.328 58.7942 847.903C58.7942 847.903 62.8964 849.709 64.3986 846.054L64.2189 846.169C63.9652 847.303 64.1227 848.491 64.6634 849.519C65.204 850.548 66.0926 851.351 67.1705 851.786C67.1705 851.786 63.1938 850.11 61.656 853.577L61.512 853.879L61.6643 853.656Z" fill="white"/>
<path d="M160.673 858.995L160.809 858.613C161.008 857.484 160.813 856.321 160.257 855.318C159.702 854.315 158.819 853.533 157.756 853.103C157.756 853.103 161.908 854.92 163.391 851.236C163.13 852.37 163.284 853.561 163.825 854.591C164.367 855.622 165.26 856.424 166.342 856.852C166.342 856.852 162.336 855.195 160.779 858.632L160.684 858.946C160.684 858.946 160.643 859.014 160.673 858.995Z" fill="white"/>
<path d="M104.942 892.362L105.097 892.011C105.296 890.883 105.105 889.721 104.555 888.716C104.006 887.711 103.131 886.923 102.075 886.481C102.075 886.481 106.177 888.288 107.66 884.603L107.755 884.753C107.494 885.887 107.648 887.078 108.19 888.108C108.731 889.139 109.624 889.941 110.707 890.369C110.707 890.369 106.7 888.712 105.143 892.15L105.048 892.463L104.942 892.362Z" fill="white"/>
<path d="M86.9739 928.981L87.0797 928.619C87.2928 927.496 87.1099 926.335 86.5623 925.332C86.0146 924.329 85.1361 923.547 84.0765 923.119C84.0765 923.119 88.2086 924.907 89.6617 921.241L89.5776 921.506C89.3235 922.632 89.4753 923.812 90.0063 924.838C90.5374 925.863 91.4135 926.669 92.4801 927.111C92.4801 927.111 88.5034 925.435 86.9465 928.872L86.8216 929.205L86.9739 928.981Z" fill="white"/>
<path d="M57.015 792.283L56.8601 792.635L57.1208 791.921C59.2531 784.367 50.9997 780.742 50.9997 780.742C50.9997 780.742 59.4002 784.399 62.4179 776.912L62.5645 776.482L62.4148 776.577L62.5945 776.462L62.4179 776.912C60.0544 784.698 68.474 788.385 68.474 788.385C68.474 788.385 60.1799 784.829 57.159 791.981L56.92 792.597L57.015 792.283Z" fill="white"/>
<path d="M343.408 924.169L343.283 924.501L343.514 923.806C345.646 916.252 337.404 912.579 337.404 912.579C337.404 912.579 345.804 916.236 348.822 908.749L348.969 908.318L348.811 908.798C346.477 916.565 354.848 920.24 354.848 920.24C354.848 920.24 346.603 916.695 343.533 923.836L343.313 924.482L343.408 924.169Z" fill="white"/>
<path d="M85.6285 731.471L85.4928 731.853L85.7535 731.139C87.8367 723.574 79.5941 719.901 79.5941 719.901C79.5941 719.901 88.0138 723.587 91.0124 716.07L91.1781 715.67L91.2622 715.405L91.0748 715.904C88.7412 723.671 97.1609 727.358 97.1609 727.358C97.1609 727.358 88.8667 723.801 85.8159 730.973L85.596 731.619L85.6285 731.471Z" fill="white"/>
<path d="M288.639 938.047L288.489 938.142L288.758 937.97C288.972 936.848 288.789 935.686 288.241 934.683C287.693 933.68 286.815 932.898 285.755 932.471C285.755 932.471 289.792 934.109 291.34 930.593L291.52 930.478L291.436 930.742C291.19 931.884 291.356 933.075 291.906 934.106C292.455 935.136 293.352 935.938 294.437 936.37C294.437 936.37 290.4 934.732 288.873 938.15L288.729 938.453L288.639 938.047Z" fill="white"/>
<path d="M267.88 816.757L267.866 816.471C268.071 815.343 267.883 814.178 267.333 813.172C266.783 812.165 265.904 811.378 264.843 810.942C264.843 810.942 268.88 812.58 270.459 809.044L270.279 809.159C270.052 810.336 270.265 811.555 270.876 812.586C271.487 813.616 272.454 814.388 273.596 814.753C273.596 814.753 269.589 813.096 268.032 816.534L267.937 816.847L267.88 816.757Z" fill="white"/>
<path d="M304.72 871.79L304.845 871.457C305.058 870.329 304.873 869.161 304.322 868.153C303.771 867.145 302.888 866.359 301.823 865.928C301.823 865.928 305.974 867.746 307.457 864.061L307.278 864.175C307.031 865.31 307.195 866.496 307.741 867.521C308.287 868.546 309.179 869.344 310.259 869.773C310.259 869.773 306.252 868.116 304.696 871.553L304.571 871.886L304.72 871.79Z" fill="white"/>
<path d="M311.652 770.458L311.502 770.554L311.657 770.202C311.856 769.075 311.665 767.913 311.116 766.908C310.566 765.903 309.691 765.115 308.635 764.673C308.635 764.673 312.767 766.461 314.239 762.825L314.389 762.729L314.209 762.844C313.955 763.978 314.113 765.165 314.654 766.194C315.194 767.223 316.083 768.026 317.161 768.46C317.161 768.46 313.184 766.784 311.627 770.221L311.502 770.554L311.652 770.458Z" fill="white"/>
<path d="M481.05 975.728L481.126 975.385C481.339 974.263 481.16 973.103 480.618 972.098C480.077 971.093 479.206 970.305 478.153 969.866C478.153 969.866 482.159 971.523 483.738 967.988L483.558 968.102C483.311 969.237 483.476 970.423 484.022 971.448C484.568 972.474 485.46 973.271 486.54 973.7C486.54 973.7 482.533 972.043 480.946 975.499L480.851 975.813L481.05 975.728Z" fill="white"/>
<path d="M434.247 932.487L434.353 932.125C434.566 931.002 434.383 929.84 433.836 928.837C433.288 927.835 432.41 927.053 431.35 926.625C431.35 926.625 435.387 928.263 436.965 924.728L437.115 924.632L436.935 924.747C436.674 925.881 436.828 927.072 437.37 928.102C437.911 929.133 438.804 929.935 439.887 930.364C439.887 930.364 435.88 928.707 434.323 932.144L434.228 932.457L434.247 932.487Z" fill="white"/>
<path d="M364.023 771.973C363.968 772.096 363.923 772.224 363.888 772.354L364.203 771.858C366.316 764.274 358.093 760.63 358.093 760.63C358.093 760.63 366.474 764.257 369.492 756.77L369.628 756.389C369.628 756.389 369.628 756.389 369.807 756.274L369.669 756.784C367.316 764.521 375.687 768.196 375.687 768.196C375.687 768.196 367.246 764.608 364.203 771.858L363.983 772.504L364.023 771.973Z" fill="white"/>
<path d="M274.405 849.04L274.347 848.951C274.56 847.822 274.375 846.654 273.824 845.646C273.273 844.638 272.39 843.852 271.325 843.421C271.325 843.421 275.361 845.059 276.94 841.524C276.686 842.658 276.844 843.845 277.384 844.874C277.925 845.903 278.814 846.706 279.892 847.141C279.892 847.141 275.885 845.484 274.328 848.921L274.203 849.253L274.405 849.04Z" fill="white"/>
<path d="M296.87 605.707L296.745 606.039L296.976 605.345C299.108 597.79 290.836 594.136 290.836 594.136C290.836 594.136 299.285 597.804 302.254 590.306L302.4 589.875L302.251 589.971L302.43 589.856L302.273 590.336C299.939 598.103 308.31 601.779 308.31 601.779C308.31 601.779 300.065 598.233 296.965 605.394L296.745 606.039L296.87 605.707Z" fill="white"/>
<path d="M394.064 875.584L394.17 875.222C394.382 874.094 394.201 872.928 393.656 871.918C393.112 870.908 392.237 870.116 391.178 869.673C391.178 869.673 395.299 871.51 396.782 867.825L396.932 867.73L396.722 867.863C396.42 869.021 396.552 870.25 397.094 871.317C397.635 872.384 398.548 873.216 399.66 873.657C399.66 873.657 395.654 872 394.097 875.437L394.002 875.751C394.002 875.751 394.034 875.604 394.064 875.584Z" fill="white"/>
<path d="M182.958 831.714L183.141 831.471C183.309 830.368 183.101 829.24 182.55 828.269C181.999 827.298 181.138 826.541 180.105 826.119C180.105 826.119 184.111 827.776 185.69 824.241C185.444 825.381 185.607 826.571 186.15 827.603C186.693 828.635 187.582 829.444 188.661 829.887C188.661 829.887 184.654 828.23 183.108 831.618L182.983 831.951C182.983 831.951 182.977 831.744 182.958 831.714Z" fill="white"/>
<defs>
<linearGradient id="paint0_linear_25_6541" x1="-26.3904" y1="168.508" x2="-23.4278" y2="139.157" gradientUnits="userSpaceOnUse">
<stop offset="0.11" stop-color="#FFFB74"/>
<stop offset="0.49" stop-color="#FFFA00"/>
<stop offset="0.93" stop-color="#FFC921"/>
</linearGradient>
<radialGradient id="paint1_radial_25_6541" cx="0" cy="0" r="1" gradientUnits="userSpaceOnUse" gradientTransform="translate(-24.7324 137.741) rotate(-161.79) scale(30.9245 31.2306)">
<stop offset="0.41" stop-color="#FFFB62"/>
<stop offset="0.85" stop-color="#F39F46"/>
</radialGradient>
</defs>
</svg>
