<svg width="393" height="529" viewBox="0 0 393 529" fill="none" xmlns="http://www.w3.org/2000/svg">
<path d="M73.9052 275.245L74.1894 275.458L73.621 274.996C67.8313 269.81 72.733 262.387 72.733 262.387C72.733 262.387 67.6892 269.917 61.189 265.264L60.8694 264.98C60.8694 264.98 60.8694 264.98 60.6562 264.98L61.047 265.299C67.1564 270.521 62.077 278.051 62.077 278.051C62.077 278.051 67.0853 270.698 73.4434 275.067L73.9763 275.458L73.9052 275.245Z" fill="white"/>
<path d="M119.868 228.039L120.187 228.252L119.619 227.826C113.829 222.604 118.731 215.181 118.731 215.181C118.731 215.181 113.687 222.675 107.187 218.058L106.867 217.773V217.951L106.654 217.773L107.081 218.093C113.154 223.315 108.111 230.845 108.111 230.845C108.111 230.845 113.119 223.492 119.477 227.826L120.01 228.252L119.868 228.039Z" fill="white"/>
<path d="M35.2941 255.851H35.4717L35.1876 255.638C34.413 254.809 33.9477 253.738 33.8701 252.606C33.7925 251.473 34.1072 250.349 34.7613 249.422C34.7613 249.422 32.2749 252.974 29.0781 250.843H29.2912C30.1003 251.699 30.5685 252.822 30.6077 253.999C30.647 255.177 30.2546 256.328 29.5043 257.236C29.5043 257.236 31.9908 253.684 35.1165 255.744L35.3651 255.958L35.2941 255.851Z" fill="white"/>
<path d="M42.3632 322.593L42.079 322.38C41.3044 321.551 40.8392 320.48 40.7616 319.348C40.6839 318.216 40.9987 317.091 41.6528 316.164C41.6528 316.164 39.1664 319.716 35.9696 317.585H35.792H35.9696C36.7908 318.399 37.2954 319.478 37.393 320.63C37.4906 321.782 37.1749 322.931 36.5024 323.872C36.5024 323.872 38.9532 320.32 42.079 322.38L42.3277 322.593H42.3632Z" fill="white"/>
<path d="M88.5751 332.503L88.291 332.254C87.5192 331.431 87.0553 330.366 86.9777 329.24C86.9 328.114 87.2133 326.996 87.8647 326.074C87.8647 326.074 85.3783 329.626 82.1815 327.495H82.0039H82.217C83.0328 328.313 83.5309 329.395 83.622 330.547C83.7131 331.699 83.3913 332.845 82.7143 333.782C82.7143 333.782 85.1652 330.23 88.291 332.325H88.5396L88.5751 332.503Z" fill="white"/>
<path d="M148.071 232.479L147.787 232.266C147.024 231.429 146.569 230.357 146.498 229.226C146.427 228.096 146.744 226.975 147.396 226.05C147.396 226.05 144.874 229.602 141.713 227.47H141.926C142.739 228.283 143.236 229.359 143.327 230.505C143.418 231.65 143.098 232.791 142.423 233.722C142.423 233.722 144.874 230.17 148 232.266L148.284 232.479H148.071Z" fill="white"/>
<path d="M90.8476 291.229L90.5634 290.98C89.7917 290.157 89.3278 289.092 89.2501 287.966C89.1725 286.84 89.4858 285.721 90.1372 284.8C90.1372 284.8 87.6508 288.352 84.4895 286.221H84.2764H84.4895C85.3026 287.033 85.7993 288.109 85.8905 289.255C85.9816 290.4 85.6612 291.541 84.9868 292.472C84.9868 292.472 87.4732 288.92 90.5634 291.016L90.8476 291.229C90.8831 291.3 90.8476 291.229 90.8476 291.229Z" fill="white"/>
<path d="M129.885 268.851L129.601 268.603C128.829 267.779 128.365 266.714 128.287 265.588C128.21 264.462 128.523 263.344 129.174 262.422C129.174 262.422 126.688 265.974 123.491 263.843H123.669C124.494 264.647 125.002 265.722 125.1 266.869C125.197 268.017 124.879 269.162 124.202 270.094C124.202 270.094 126.688 266.542 129.814 268.638L130.062 268.851H129.885Z" fill="white"/>
<path d="M151.304 295.598L151.623 295.846L151.055 295.385C145.265 290.199 150.167 282.775 150.167 282.775C150.167 282.775 145.123 290.27 138.623 285.652L138.268 285.368H138.055L138.445 285.688C144.555 290.909 139.511 298.439 139.511 298.439C139.511 298.439 144.519 291.087 150.877 295.42L151.41 295.846L151.304 295.598Z" fill="white"/>
<path d="M112.728 313.145L112.443 312.896C111.672 312.073 111.208 311.008 111.13 309.882C111.052 308.756 111.366 307.637 112.017 306.716C112.017 306.716 109.531 310.268 106.334 308.101C107.159 308.905 107.667 309.98 107.765 311.128C107.863 312.275 107.544 313.42 106.867 314.353C106.867 314.353 109.318 310.8 112.443 312.896L112.692 313.109L112.728 313.145Z" fill="white"/>
<path d="M141.961 332.503H142.139L141.819 332.29C141.053 331.463 140.593 330.399 140.516 329.275C140.438 328.151 140.748 327.034 141.393 326.109C141.393 326.109 138.906 329.661 135.745 327.495H135.958C136.768 328.317 137.261 329.398 137.352 330.548C137.443 331.698 137.126 332.843 136.456 333.782C136.456 333.782 138.906 330.23 142.032 332.29L142.316 332.503H141.961Z" fill="white"/>
<path d="M117.737 341.952L117.453 341.738C116.683 340.905 116.225 339.832 116.154 338.7C116.082 337.568 116.403 336.446 117.062 335.522C117.062 335.522 114.54 339.074 111.379 336.943H111.201H111.414C112.229 337.761 112.729 338.84 112.827 339.99C112.924 341.14 112.613 342.287 111.947 343.23C111.947 343.23 114.398 339.678 117.488 341.738L117.772 341.952H117.737Z" fill="white"/>
<path d="M184.692 399.636L184.408 399.423C183.634 398.594 183.168 397.523 183.091 396.391C183.013 395.259 183.328 394.134 183.982 393.207C183.982 393.207 181.496 396.936 178.299 394.628H178.121H178.299C179.111 395.439 179.61 396.512 179.707 397.656C179.805 398.8 179.494 399.942 178.831 400.879C178.831 400.879 181.282 397.327 184.408 399.387L184.657 399.6L184.692 399.636Z" fill="white"/>
<path d="M95.1814 267.466L94.8972 267.253C94.128 266.419 93.6692 265.346 93.598 264.214C93.5269 263.082 93.8477 261.96 94.5065 261.037C94.5065 261.037 92.02 264.589 88.8232 262.458H89.0364C89.8484 263.269 90.3473 264.342 90.4448 265.486C90.5423 266.63 90.2322 267.772 89.5692 268.709C89.5692 268.709 91.9845 265.157 95.1103 267.217L95.3945 267.43L95.1814 267.466Z" fill="white"/>
<g style="mix-blend-mode:multiply" opacity="0.6">
<path d="M118.767 300.713C115.416 298.056 111.852 295.68 108.111 293.609C107.203 287.269 105.801 281.011 103.919 274.89C102.818 271.338 98.6269 268.212 95.4301 269.952C91.9427 272.471 89.0458 275.72 86.9408 279.472C85.5947 281.521 84.4072 283.67 83.3888 285.901C83.2237 285.881 83.0567 285.881 82.8916 285.901C78.1592 285.638 73.4159 285.638 68.6835 285.901C65.1315 286.363 60.9401 286.327 60.3363 290.376C59.9101 293.076 62.7872 302.276 68.4704 309.237C66.5086 312.428 64.8212 315.778 63.4266 319.254C62.8181 320.495 62.5593 321.878 62.6783 323.255C62.7972 324.632 63.2892 325.95 64.1015 327.069C65.6288 329.093 71.2055 329.058 74.3668 328.099C81.4708 325.861 84.4189 325.328 86.7632 324.547C90.4391 327.993 94.305 331.23 98.3428 334.244C103.671 337.547 105.447 337.796 107.223 336.659C110.42 334.741 112.089 321.527 111.769 316.732C115.321 316.342 124.024 314.637 124.343 309.309C124.067 307.565 123.428 305.899 122.468 304.419C121.507 302.938 120.246 301.675 118.767 300.713Z" fill="#5DC1EE"/>
</g>
<path d="M116.068 298.333C111.887 295.168 107.51 292.273 102.961 289.666C102.686 284.189 101.938 278.746 100.723 273.398C100.577 272.644 100.259 271.934 99.7953 271.323C99.3312 270.712 98.7327 270.215 98.0461 269.872C97.3595 269.528 96.6032 269.348 95.8356 269.343C95.0679 269.339 94.3096 269.511 93.619 269.846C90.3286 272.164 87.5682 275.154 85.5205 278.619C84.1813 280.512 82.9936 282.507 81.9685 284.587C81.8052 284.546 81.6345 284.546 81.4712 284.587C76.9285 284.32 72.3741 284.32 67.8315 284.587C64.2794 284.977 60.4433 284.977 59.875 288.742C59.9195 291.329 60.9632 293.799 62.7876 295.633C65.1319 298.617 67.1211 301.068 69.643 303.838C67.3894 307.544 65.3955 311.401 63.6756 315.383C62.9297 317.443 61.4023 322.273 63.6756 323.943C64.9075 324.448 66.2341 324.682 67.5645 324.626C68.8949 324.571 70.1977 324.229 71.3835 323.623C76.0434 321.906 80.5573 319.815 84.8811 317.372C88.0743 321.114 91.478 324.672 95.0754 328.028C96.9579 329.875 101.256 333.853 103.813 331.899C106.371 329.946 105.944 326.749 105.944 324.369C105.944 319.929 105.731 315.311 105.447 310.871C108.822 310.516 112.232 310.09 115.606 309.451C117.986 308.989 120.792 307.71 120.792 304.869C120.792 302.027 118.057 299.86 116.068 298.333Z" fill="url(#paint0_linear_15_2722)"/>
<path style="mix-blend-mode:multiply" d="M116.067 298.333L114.327 297.019C115.411 297.855 116.185 299.028 116.526 300.354C116.867 301.679 116.755 303.081 116.209 304.336C114.611 307.177 109.105 307.888 106.015 307.888C101.753 308.208 104.417 311.937 102.712 315.88C99.444 323.552 90.1022 319.432 87.1185 314.885C85.1294 311.866 77.4216 317.94 72.6974 312.648C71.9902 311.74 71.5141 310.674 71.3099 309.542C71.1058 308.41 71.1796 307.245 71.5252 306.147C73.0171 301.849 70.6017 301.139 68.435 298.155C64.883 293.502 62.8228 287.038 68.2218 286.86C72.5461 286.741 76.8736 286.848 81.1867 287.18C83.4955 287.357 84.3124 283.024 87.6158 277.838C88.3972 276.63 90.9547 272.474 91.6296 271.16C89.3224 273.363 87.2836 275.831 85.5556 278.513C84.2164 280.405 83.0287 282.401 82.0036 284.48C81.8404 284.44 81.6696 284.44 81.5063 284.48C76.9637 284.214 72.4093 284.214 67.8667 284.48C64.3147 284.871 60.4785 284.871 59.9102 288.636C59.9546 291.223 60.9984 293.692 62.8228 295.527C65.1671 298.511 67.1562 300.961 69.6782 303.732C67.4246 307.437 65.4307 311.295 63.7108 315.276C62.9649 317.336 61.4375 322.167 63.7108 323.836C64.9427 324.342 66.2693 324.575 67.5997 324.52C68.9302 324.465 70.2329 324.122 71.4187 323.517C76.0786 321.799 80.5925 319.709 84.9163 317.265C88.1096 321.008 91.5131 324.565 95.1105 327.921C96.9931 329.768 101.291 333.746 103.848 331.793C106.406 329.839 105.98 326.642 105.98 324.263C105.98 319.823 105.767 315.205 105.482 310.765C108.857 310.41 112.267 309.984 115.641 309.344C118.021 308.882 120.827 307.604 120.827 304.762C120.827 301.921 118.056 299.86 116.067 298.333Z" fill="url(#paint1_radial_15_2722)"/>
<g style="mix-blend-mode:multiply">
<path d="M116.068 298.333C111.887 295.168 107.51 292.273 102.961 289.666C102.686 284.189 101.938 278.746 100.723 273.398C100.577 272.644 100.259 271.934 99.7953 271.323C99.3312 270.712 98.7327 270.215 98.0461 269.872C97.3595 269.528 96.6032 269.348 95.8356 269.343C95.0679 269.339 94.3096 269.511 93.619 269.846C90.3286 272.164 87.5682 275.154 85.5205 278.619C84.1813 280.512 82.9936 282.507 81.9685 284.587C81.8052 284.546 81.6345 284.546 81.4712 284.587C76.9285 284.32 72.3741 284.32 67.8315 284.587C64.2794 284.977 60.4433 284.977 59.875 288.742C59.9195 291.329 60.9632 293.799 62.7876 295.633C65.1319 298.617 67.1211 301.068 69.643 303.838C67.3894 307.544 65.3955 311.401 63.6756 315.383C62.9297 317.443 61.4023 322.273 63.6756 323.943C64.9075 324.448 66.2341 324.682 67.5645 324.626C68.8949 324.571 70.1977 324.229 71.3835 323.623C76.0434 321.906 80.5573 319.815 84.8811 317.372C88.0743 321.114 91.478 324.672 95.0754 328.028C96.9579 329.875 101.256 333.853 103.813 331.899C106.371 329.946 105.944 326.749 105.944 324.369C105.944 319.929 105.731 315.311 105.447 310.871C108.822 310.516 112.232 310.09 115.606 309.451C117.986 308.989 120.792 307.71 120.792 304.869C120.792 302.027 118.057 299.86 116.068 298.333ZM117.311 306.183C115.934 306.844 114.433 307.207 112.906 307.248C109.994 307.639 107.081 308.065 104.133 308.314C103.89 308.342 103.657 308.429 103.455 308.568C103.254 308.708 103.09 308.894 102.977 309.112C102.865 309.33 102.808 309.572 102.811 309.816C102.814 310.061 102.878 310.302 102.996 310.516C103.209 314.068 103.174 317.372 103.423 320.817C103.692 323.183 103.62 325.575 103.209 327.921C102.215 332.397 96.8158 326.039 95.4305 324.653C92.2337 321.385 89.6053 319.041 86.6926 315.525C86.0533 314.85 85.4849 314.53 85.2363 314.637C82.6078 315.915 76.1787 318.863 74.5803 319.716C72.2546 320.843 69.813 321.712 67.2987 322.309C62.4679 323.41 66.3752 315.56 67.2987 313.855C68.755 310.729 70.6021 307.852 72.0939 304.762C72.5912 303.661 73.1239 303.306 72.4491 302.489C69.4028 299.096 66.545 295.539 63.8887 291.833C63.0362 290.518 62.539 288.281 64.315 287.499C69.5897 286.687 74.9322 286.401 80.2635 286.647C82.0395 286.895 83.1051 287.18 83.2116 287.002C84.9242 284.006 86.81 281.112 88.8594 278.335C89.925 276.95 94.1518 270.165 97.171 271.728C99.0536 272.723 99.4798 276.737 99.7285 278.655C100.226 282.74 100.474 286.505 100.759 290.767C100.759 291.122 102.25 291.833 104.311 293.005C108.722 295.454 112.896 298.308 116.778 301.53C117.311 302.347 119.264 304.833 117.311 306.183Z" fill="#D47F02"/>
</g>
<path d="M63.2845 289.488C63.2845 289.488 62.7161 288.387 66.3392 288.068C70.6182 287.735 74.9215 287.902 79.1619 288.565L83.1757 289.062C84.632 286.398 86.0528 283.343 86.0528 283.343L83.1757 287.428C78.0597 287.015 72.9223 286.932 67.7955 287.18C64.8118 287.073 62.6096 288.352 63.2845 289.488Z" fill="#FFF6E6"/>
<path d="M86.3369 282.917C86.3369 282.917 90.2086 275.813 94.5776 277.589C98.9466 279.365 99.2662 286.008 99.6569 290.021C99.2662 286.256 99.4438 284.942 98.84 277.589C98.2361 270.237 94.8972 270.734 91.2031 275.494C89.3158 277.784 87.684 280.273 86.3369 282.917Z" fill="#FFF6E6"/>
<path d="M99.373 287.322C99.373 287.322 99.373 291.051 99.373 293.076C104.831 295.654 110.122 298.573 115.215 301.814C117.275 303.839 117.595 305.117 117.027 306.005C117.027 306.005 118.98 305.011 116.103 301.849C110.939 297.847 105.45 294.283 99.6927 291.193L99.373 287.322Z" fill="#FFF6E6"/>
<path d="M67.5462 296.273C69.8661 298.664 72.3984 300.84 75.1119 302.773C75.1119 302.773 64.8111 317.265 65.3084 321.279C65.3084 321.279 64.1717 319.645 66.9068 314.672L73.1583 302.915C73.1583 302.915 69.2867 298.51 67.5462 296.273Z" fill="#FFF6E6"/>
<g style="mix-blend-mode:multiply" opacity="0.6">
<path d="M267.88 115.014C265.396 113.075 262.759 111.341 259.994 109.828C259.335 105.197 258.313 100.625 256.939 96.1529C256.123 93.702 253.068 91.2867 250.723 92.6009C248.184 94.4327 246.075 96.7965 244.543 99.5273C243.52 101.029 242.618 102.608 241.843 104.251C241.715 104.22 241.581 104.22 241.453 104.251C237.975 104.038 234.488 104.038 231.01 104.251C228.381 104.571 225.362 104.536 224.9 107.519C225.453 112.6 227.534 117.393 230.868 121.266C229.475 123.598 228.287 126.046 227.316 128.583C226.872 129.485 226.683 130.492 226.771 131.494C226.859 132.496 227.219 133.454 227.813 134.266C228.914 135.758 233.07 135.722 235.272 135.047C240.565 133.378 242.625 133.023 244.33 132.383C247.01 134.91 249.833 137.282 252.784 139.487C256.655 141.903 258.041 142.009 259.284 141.263C261.593 139.878 262.836 130.252 262.587 126.736C265.18 126.416 271.538 125.173 271.787 121.301C271.594 120.043 271.149 118.838 270.477 117.757C269.806 116.677 268.922 115.744 267.88 115.014Z" fill="#5DC1EE"/>
</g>
<path d="M265.891 113.273C262.844 110.975 259.652 108.875 256.336 106.986C256.108 103.042 255.562 99.1215 254.702 95.2648C254.609 94.7116 254.386 94.1883 254.052 93.7377C253.717 93.2872 253.281 92.9222 252.779 92.6727C252.276 92.4232 251.722 92.2963 251.161 92.3023C250.6 92.3083 250.048 92.4471 249.551 92.7073C247.17 94.3085 245.15 96.3894 243.619 98.8168C242.638 100.181 241.782 101.631 241.062 103.15H240.671C237.359 102.955 234.038 102.955 230.726 103.15C228.204 103.47 225.362 103.434 224.9 106.169C224.931 108.063 225.695 109.871 227.032 111.213C228.737 113.38 230.193 115.156 232.04 117.216C230.4 119.917 228.952 122.73 227.707 125.634C227.138 127.126 226.037 130.643 227.707 131.886C228.612 132.246 229.583 132.41 230.557 132.367C231.531 132.325 232.484 132.076 233.354 131.637C236.768 130.431 240.081 128.958 243.264 127.233C245.253 129.648 247.775 132.135 250.688 135.012C252.073 136.326 255.199 139.239 257.082 137.818C258.964 136.397 258.609 134.053 258.644 132.312C258.644 129.08 258.644 125.741 258.289 122.473C260.74 122.224 263.227 121.905 265.677 121.443C267.418 121.123 269.443 120.164 269.443 118.104C269.443 116.044 267.489 114.41 265.891 113.273Z" fill="url(#paint2_linear_15_2722)"/>
<path style="mix-blend-mode:multiply" d="M265.891 113.274L264.612 112.35C266.459 114.268 266.85 116.222 265.997 117.678C264.825 119.738 260.918 120.164 258.573 120.342C255.448 120.591 257.401 123.326 256.158 126.203C253.778 131.815 246.958 128.831 244.756 125.457C243.335 123.29 237.652 127.695 234.1 123.859C233.598 123.186 233.259 122.406 233.111 121.579C232.963 120.753 233.01 119.904 233.248 119.099C234.349 115.938 232.573 115.547 231.01 113.274C228.523 109.722 226.89 105.139 230.832 105.033C233.995 104.942 237.161 105.013 240.316 105.246C241.986 105.246 242.589 102.227 244.969 98.4617C245.538 97.5382 247.42 94.519 247.917 93.56C246.291 95.1449 244.85 96.9084 243.619 98.8169C242.638 100.181 241.782 101.631 241.062 103.15H240.671C237.359 102.955 234.038 102.955 230.726 103.15C228.204 103.47 225.362 103.435 224.9 106.17C224.931 108.063 225.695 109.871 227.032 111.213C228.737 113.38 230.193 115.156 232.04 117.216C230.4 119.917 228.952 122.73 227.707 125.635C227.138 127.126 226.037 130.643 227.707 131.886C228.612 132.246 229.583 132.41 230.557 132.368C231.531 132.325 232.484 132.076 233.354 131.637C236.768 130.431 240.081 128.958 243.264 127.233C245.253 129.648 247.775 132.135 250.688 135.012C252.073 136.326 255.199 139.239 257.082 137.818C258.964 136.397 258.609 134.053 258.644 132.312C258.644 129.08 258.644 125.741 258.289 122.473C260.74 122.225 263.227 121.905 265.677 121.443C267.418 121.124 269.443 120.164 269.443 118.104C269.443 116.044 267.489 114.41 265.891 113.274Z" fill="url(#paint3_radial_15_2722)"/>
<g style="mix-blend-mode:multiply">
<path d="M265.891 113.273C262.844 110.975 259.652 108.875 256.336 106.986C256.108 103.042 255.562 99.1215 254.702 95.2648C254.609 94.7116 254.386 94.1883 254.052 93.7377C253.717 93.2872 253.281 92.9222 252.779 92.6727C252.276 92.4232 251.722 92.2963 251.161 92.3023C250.6 92.3083 250.048 92.4471 249.551 92.7073C247.17 94.3085 245.15 96.3894 243.619 98.8168C242.638 100.181 241.782 101.631 241.062 103.15H240.671C237.359 102.955 234.038 102.955 230.726 103.15C228.204 103.47 225.362 103.434 224.9 106.169C224.931 108.063 225.695 109.871 227.032 111.213C228.737 113.38 230.193 115.156 232.04 117.216C230.4 119.917 228.952 122.73 227.707 125.634C227.138 127.126 226.037 130.643 227.707 131.886C228.612 132.246 229.583 132.41 230.557 132.367C231.531 132.325 232.484 132.076 233.354 131.637C236.768 130.431 240.081 128.958 243.264 127.233C245.253 129.648 247.775 132.135 250.688 135.012C252.073 136.326 255.199 139.239 257.082 137.818C258.964 136.397 258.609 134.053 258.644 132.312C258.644 129.08 258.644 125.741 258.289 122.473C260.74 122.224 263.227 121.905 265.677 121.443C267.418 121.123 269.443 120.164 269.443 118.104C269.443 116.044 267.489 114.41 265.891 113.273ZM266.814 119.028C265.8 119.503 264.701 119.769 263.582 119.809C261.451 120.093 259.319 120.377 257.188 120.591C257.01 120.608 256.839 120.67 256.692 120.77C256.544 120.871 256.424 121.007 256.342 121.166C256.261 121.325 256.221 121.503 256.226 121.681C256.231 121.86 256.281 122.035 256.371 122.189C256.371 124.675 256.371 127.197 256.655 129.719C256.92 131.473 256.92 133.257 256.655 135.012C255.945 138.28 251.967 133.662 250.972 132.632C248.628 130.252 246.745 128.547 244.614 125.954C244.117 125.457 243.726 125.244 243.513 125.315C241.595 126.274 236.942 128.405 235.663 128.867C233.973 129.694 232.198 130.337 230.371 130.785C226.819 131.566 229.696 125.848 230.371 124.604C231.401 122.331 232.75 120.2 233.923 117.962C234.313 117.181 234.668 116.896 234.207 116.293C231.955 113.793 229.855 111.16 227.92 108.407C227.316 107.448 226.961 105.814 228.239 105.246C232.082 104.663 235.972 104.461 239.854 104.642C240.564 104.81 241.292 104.893 242.021 104.891C243.188 102.797 244.468 100.77 245.857 98.8168C246.603 97.7867 249.693 92.8494 251.896 93.9861C253.281 94.6965 253.601 97.5381 253.778 99.0299C254.133 102.014 254.311 104.784 254.524 107.874C254.524 108.159 255.625 108.656 257.011 109.508C260.23 111.291 263.274 113.372 266.104 115.724C266.779 116.222 268.235 118.033 266.814 119.028Z" fill="#D47F02"/>
</g>
<path d="M227.387 106.844C227.387 106.844 226.961 106.063 229.625 105.814C232.742 105.574 235.877 105.693 238.967 106.169L241.879 106.525C242.98 104.571 243.975 102.333 243.975 102.333L241.879 105.317C238.153 105.099 234.417 105.099 230.69 105.317C228.417 105.175 226.89 105.921 227.387 106.844Z" fill="#FFF6E6"/>
<path d="M244.295 102.049C244.295 102.049 247.101 96.7568 250.298 98.1421C253.495 99.5273 253.85 104.287 253.85 107.235C253.566 104.5 253.85 103.683 253.246 98.1421C252.642 92.6009 250.369 93.1693 247.669 96.6147C246.338 98.2899 245.206 100.114 244.295 102.049Z" fill="#FFF6E6"/>
<path d="M253.707 105.282C253.707 105.282 253.707 107.981 253.707 109.437C257.695 111.329 261.562 113.464 265.287 115.831C266.778 117.323 267.027 118.246 266.601 118.921C266.601 118.921 268.022 118.175 265.926 115.866C262.16 112.902 258.157 110.253 253.956 107.946L253.707 105.282Z" fill="#FFF6E6"/>
<path d="M230.513 111.782C232.186 113.557 234.03 115.163 236.018 116.577C236.018 116.577 228.488 127.233 228.914 130.075C228.914 130.075 228.097 128.902 230.086 125.244C232.075 121.585 234.562 116.577 234.562 116.577C234.562 116.577 231.756 113.416 230.513 111.782Z" fill="#FFF6E6"/>
<g style="mix-blend-mode:multiply" opacity="0.6">
<path d="M99.9062 52.5343C97.5809 50.73 95.1231 49.1033 92.5535 47.6681C91.9192 43.3507 90.9573 39.0879 89.6764 34.9164C88.9305 32.6431 86.1245 30.4053 83.8867 31.5775C81.5338 33.3125 79.563 35.513 78.0969 38.0421C77.1465 39.4447 76.3035 40.917 75.575 42.4466H75.2198C71.9786 42.2513 68.7285 42.2513 65.4873 42.4466C63.0009 42.7663 60.1948 42.7308 59.7686 45.5369C60.2929 50.2754 62.2367 54.7449 65.3452 58.3596C63.964 60.5246 62.7755 62.8067 61.7932 65.1794C61.3671 66.0226 61.1845 66.9679 61.2661 67.9091C61.3477 68.8503 61.6901 69.7502 62.2549 70.5075C63.285 71.8927 67.1567 71.8572 69.359 71.2178C74.2962 69.6905 76.2499 69.3353 77.8127 68.7314C80.3062 71.079 82.9395 73.2734 85.6982 75.3027C89.2502 77.5759 90.5999 77.647 91.7366 76.9366C93.9033 75.6579 95.04 66.6713 94.8269 63.3679C97.2422 63.1193 103.21 61.9471 103.423 58.3241C103.248 57.1747 102.847 56.0714 102.243 55.0777C101.64 54.084 100.845 53.2196 99.9062 52.5343Z" fill="#5DC1EE"/>
</g>
<path d="M97.988 50.9358C95.1936 48.7897 92.2759 46.8091 89.2501 45.0039C89.0359 41.273 88.5131 37.5663 87.6872 33.9217C87.5584 33.4311 87.3261 32.9738 87.0059 32.5805C86.6857 32.1872 86.2849 31.8671 85.8306 31.6416C85.3763 31.4162 84.879 31.2906 84.3721 31.2734C83.8652 31.2562 83.3606 31.3477 82.892 31.5418C80.6248 33.1095 78.7325 35.1595 77.3509 37.5447C76.4357 38.819 75.6391 40.1745 74.971 41.594H74.6158C71.5282 41.4163 68.4328 41.4163 65.3451 41.594C62.9653 41.8781 60.3012 41.8781 59.875 44.4356C59.904 46.1975 60.6173 47.879 61.8641 49.1242C63.4625 51.1489 64.8123 52.6762 66.5528 54.7364C65.0081 57.2478 63.6545 59.8718 62.5035 62.5863C61.9707 63.9716 60.9406 67.275 62.5035 68.4116C64.0664 69.5483 65.8068 68.8023 67.7605 68.1985C70.9364 67.0267 74.0128 65.6013 76.9601 63.9361C79.2029 66.4261 81.5741 68.7973 84.0641 71.0401C85.3784 72.2833 88.291 75.0183 90.067 73.6686C91.843 72.3188 91.4879 70.1166 91.4879 68.5182C91.4879 65.499 91.4878 62.3732 91.1681 59.354C93.4414 59.0698 95.7858 58.7857 98.0946 58.3594C99.693 58.0753 101.647 57.1873 101.647 55.2692C101.647 53.3511 99.3378 52.0014 97.988 50.9358Z" fill="url(#paint4_linear_15_2722)"/>
<path style="mix-blend-mode:multiply" d="M97.9879 50.9359L96.7802 50.0479C98.5207 51.8594 98.8759 53.5999 98.0945 55.0207C97.313 56.4415 93.3348 57.365 90.9905 57.5426C88.0778 57.7558 89.8893 60.3132 88.7527 62.9772C86.5149 68.2342 80.1568 65.4281 78.0967 62.3023C76.7469 60.2422 71.49 64.398 68.2932 60.775C67.8168 60.1585 67.4942 59.4375 67.3521 58.6715C67.21 57.9055 67.2525 57.1167 67.4762 56.3705C68.5062 53.4223 66.8723 52.8185 65.3805 50.9004C63.0717 47.7391 61.5443 43.3346 65.3805 43.1925C68.331 43.1104 71.2838 43.1934 74.225 43.4412C75.7879 43.4412 76.3562 40.5996 78.594 37.0831C79.1268 36.2306 80.8672 33.5311 81.329 32.501C79.7501 34.0129 78.3551 35.7059 77.1732 37.5449C76.258 38.8192 75.4614 40.1746 74.7933 41.5941H74.4381C71.3504 41.4165 68.2551 41.4165 65.1674 41.5941C62.7875 41.8783 60.1235 41.8783 59.6973 44.4357C59.7262 46.1976 60.4396 47.8791 61.6864 49.1244C63.2848 51.149 64.6346 52.6764 66.375 54.7365C64.8303 57.2479 63.4768 59.872 62.3258 62.5865C61.793 63.9718 60.7629 67.2751 62.3258 68.4118C63.8886 69.5484 65.6291 68.8025 67.5827 68.1986C70.7586 67.0268 73.8351 65.6014 76.7824 63.9362C79.0252 66.4262 81.3965 68.7975 83.8865 71.0402C85.2007 72.2834 88.1133 75.0185 89.8893 73.6687C91.6653 72.319 91.3101 70.1167 91.3101 68.5183C91.3101 65.4991 91.3101 62.3734 90.9905 59.3542C93.2637 59.07 95.6081 58.7858 97.9169 58.3596C99.5153 58.0754 101.469 57.1874 101.469 55.2694C101.469 53.3513 99.3377 52.0015 97.9879 50.9359Z" fill="url(#paint5_radial_15_2722)"/>
<g style="mix-blend-mode:multiply">
<path d="M97.988 50.9358C95.1936 48.7897 92.2759 46.8091 89.2501 45.0039C89.0359 41.273 88.5131 37.5663 87.6872 33.9217C87.5584 33.4311 87.3261 32.9738 87.0059 32.5805C86.6857 32.1872 86.2849 31.8671 85.8306 31.6416C85.3763 31.4162 84.879 31.2906 84.3721 31.2734C83.8652 31.2562 83.3606 31.3477 82.892 31.5418C80.6248 33.1095 78.7325 35.1595 77.3509 37.5447C76.4357 38.819 75.6391 40.1745 74.971 41.594H74.6158C71.5282 41.4163 68.4328 41.4163 65.3451 41.594C62.9653 41.8781 60.3012 41.8781 59.875 44.4356C59.904 46.1975 60.6173 47.879 61.8641 49.1242C63.4625 51.1489 64.8123 52.6762 66.5528 54.7364C65.0081 57.2478 63.6545 59.8718 62.5035 62.5863C61.9707 63.9716 60.9406 67.275 62.5035 68.4116C64.0664 69.5483 65.8068 68.8023 67.7605 68.1985C70.9364 67.0267 74.0128 65.6013 76.9601 63.9361C79.2029 66.4261 81.5741 68.7973 84.0641 71.0401C85.3784 72.2833 88.291 75.0183 90.067 73.6686C91.843 72.3188 91.4879 70.1166 91.4879 68.5182C91.4879 65.499 91.4878 62.3732 91.1681 59.354C93.4414 59.0698 95.7858 58.7857 98.0946 58.3594C99.693 58.0753 101.647 57.1873 101.647 55.2692C101.647 53.3511 99.3378 52.0014 97.988 50.9358ZM98.8405 56.2993C97.8987 56.7556 96.8678 56.9982 95.8213 57.0097C93.8322 57.2938 91.843 57.5425 89.8539 57.7201C89.6903 57.7417 89.5342 57.8023 89.3989 57.8969C89.2635 57.9914 89.1529 58.1171 89.0763 58.2633C88.9997 58.4096 88.9594 58.5721 88.9587 58.7372C88.958 58.9023 88.997 59.0651 89.0725 59.2119C89.2501 61.5563 89.0725 63.9006 89.3566 66.3159C89.5865 67.9537 89.5865 69.6155 89.3566 71.2532C88.6818 74.3079 84.9877 70.01 84.0641 69.0155C81.8619 66.8132 80.1214 65.2148 78.0968 62.7995C77.6706 62.3377 77.2798 62.1246 77.1022 62.1956C75.3262 63.0836 70.9217 65.0727 69.7496 65.7476C68.171 66.5121 66.5161 67.1074 64.8123 67.5236C61.5089 68.2695 64.1729 62.906 64.8123 61.7339C65.8068 59.6026 67.05 57.649 68.0801 55.5534C68.4353 54.8074 68.7905 54.5588 68.3288 53.9905C66.227 51.649 64.2698 49.1817 62.468 46.6023C61.8997 45.7143 61.58 44.187 62.7521 43.6542C66.3471 43.1024 69.9884 42.912 73.6213 43.0858C74.8645 43.2634 75.5749 43.441 75.6459 43.2989C76.8175 41.2579 78.1104 39.2889 79.5176 37.4026C80.228 36.4436 83.0696 31.826 85.1653 32.9271C86.444 33.5665 86.7281 36.4791 86.9057 37.6157C87.2254 40.4218 87.403 42.9793 87.6161 45.8564C87.6161 46.1406 88.6463 46.6378 89.925 47.4193C92.9455 49.0717 95.8002 51.0105 98.4498 53.209C98.8405 53.6708 100.155 55.3402 98.8405 56.2993Z" fill="#D47F02"/>
</g>
<path d="M62.0051 44.8975C62.0051 44.8975 61.6144 44.1516 64.1008 43.9384C67.0163 43.7251 69.9465 43.8323 72.8387 44.2581L75.5737 44.6133C76.5683 42.8018 77.5273 40.7061 77.5273 40.7061L75.5737 43.4767C72.0247 43.2707 68.4667 43.2707 64.9177 43.4767C63.0707 43.3701 61.5433 44.116 62.0051 44.8975Z" fill="#FFF6E6"/>
<path d="M77.8125 40.4219C77.8125 40.4219 80.441 35.4846 83.3892 36.8699C86.3373 38.2552 86.586 42.5886 86.9412 45.3237C86.6925 42.7662 86.9411 41.7717 86.4083 36.8699C85.8755 31.9681 83.7088 32.2168 81.1869 35.4491C79.8781 36.9741 78.7461 38.6423 77.8125 40.4219Z" fill="#FFF6E6"/>
<path d="M86.5859 43.441C86.5859 43.441 86.5859 45.9985 86.5859 47.3482C90.2546 49.1215 93.8131 51.1142 97.2419 53.3156C98.6272 54.6654 98.8403 55.5534 98.4496 56.1572C98.4496 56.1572 99.7994 55.4823 97.8458 53.3156C94.3205 50.5566 90.5788 48.0859 86.657 45.9274L86.5859 43.441Z" fill="#FFF6E6"/>
<path d="M64.9186 49.515C66.4905 51.1552 68.2151 52.642 70.069 53.955C70.069 53.955 62.965 63.8651 63.3913 66.5646C63.3913 66.5646 62.6098 65.4635 64.4924 62.0536L68.7193 54.0616C68.7193 54.0616 66.0908 51.0424 64.9186 49.515Z" fill="#FFF6E6"/>
<path d="M-8.50098 99.101C-3.81974 95.6812 -0.398493 90.8116 1.23153 85.2482C3.86558 76.081 4.62665 66.4773 3.46931 57.0098L3.14959 54.6299L34.2296 66.245V67.1685C34.5594 71.4847 34.1266 75.8252 32.9509 79.9912C32.5044 81.7467 31.6178 83.3594 30.3748 84.677C29.1318 85.9946 27.5734 86.9736 25.8469 87.5215L25.1721 84.7154C26.4392 84.2948 27.576 83.5538 28.4722 82.5642C29.3684 81.5746 29.9935 80.3702 30.2869 79.0677C31.2635 75.6045 31.6714 72.0056 31.4946 68.4117L6.63059 59.1054C7.50951 68.2478 6.61703 77.4739 4.00209 86.2783C2.23857 92.4279 -1.50764 97.8224 -6.65392 101.623L-8.25231 99.2076L-8.50098 99.101Z" fill="#89A83D"/>
<path d="M26.8051 85.2481C26.4428 87.0518 25.54 88.7024 24.2166 89.9803C22.8932 91.2582 21.212 92.1029 19.3967 92.4018C17.5815 92.7008 15.7183 92.4399 14.0549 91.6539C12.3916 90.8679 11.007 89.594 10.0855 88.0018C9.16393 86.4095 8.74912 84.5744 8.89618 82.7406C9.04324 80.9068 9.74525 79.1612 10.9088 77.7362C12.0723 76.3111 13.6421 75.2742 15.4095 74.7633C17.1768 74.2524 19.0578 74.2918 20.8022 74.8762C22.9713 75.4592 24.8211 76.8781 25.9462 78.8221C27.0713 80.7661 27.3802 83.0768 26.8051 85.2481Z" fill="#A5CD3A"/>
<path d="M8.37012 79.1388C9.36491 76.7102 11.2732 74.769 13.6844 73.7328C16.0957 72.6965 18.8173 72.648 21.2639 73.5977C23.7888 74.3185 25.9281 76.0053 27.2179 78.2925C28.5078 80.5796 28.8444 83.283 28.1548 85.8166C27.175 88.2574 25.2683 90.2107 22.8519 91.2492C20.4355 92.2876 17.7061 92.3267 15.261 91.3577C12.7308 90.6451 10.5856 88.9597 9.29438 86.6701C8.00313 84.3805 7.67084 81.6728 8.37012 79.1388ZM11.1052 80.0624C10.8591 80.9697 10.7955 81.9169 10.9181 82.8489C11.0408 83.781 11.3473 84.6795 11.8197 85.4923C12.2922 86.3051 12.9213 87.016 13.6705 87.5838C14.4198 88.1517 15.2743 88.5651 16.1845 88.8003C17.915 89.4703 19.8389 89.4366 21.5449 88.7064C23.2508 87.9763 24.6033 86.6076 25.3132 84.8931C25.7569 83.0853 25.4733 81.1755 24.5234 79.5746C23.5735 77.9737 22.0332 76.8096 20.2338 76.3328C18.5129 75.6193 16.5806 75.6105 14.8532 76.3081C13.1258 77.0057 11.7415 78.3539 10.9986 80.0624H11.1052Z" fill="#89A83D"/>
<path d="M22.0818 82.4065C21.8788 83.4269 21.3716 84.3619 20.6269 85.0885C19.8822 85.815 18.935 86.299 17.9099 86.4767C16.8848 86.6544 15.8299 86.5174 14.8841 86.0839C13.9383 85.6503 13.146 84.9405 12.6115 84.0479C12.077 83.1553 11.8254 82.1217 11.8897 81.0833C11.9541 80.0449 12.3314 79.0503 12.9721 78.2306C13.6127 77.4108 14.4866 76.8042 15.4787 76.4908C16.4707 76.1774 17.5344 76.1717 18.5298 76.4746C19.1565 76.6239 19.747 76.8969 20.2666 77.2778C20.7862 77.6586 21.2245 78.1395 21.5554 78.6923C21.8864 79.245 22.1034 79.8583 22.1938 80.4962C22.2842 81.1341 22.2461 81.7836 22.0818 82.4065Z" fill="#D2D926"/>
<path d="M19.7021 80.2044C19.386 80.858 18.8425 81.3739 18.1734 81.6555C17.5042 81.9372 16.7553 81.9652 16.067 81.7343C15.3787 81.5034 14.7982 81.0295 14.4343 80.4013C14.0703 79.7731 13.9479 79.0338 14.0899 78.3218C14.4059 77.6682 14.9494 77.1523 15.6186 76.8706C16.2877 76.589 17.0366 76.561 17.7249 76.7919C18.4132 77.0228 18.9937 77.4967 19.3577 78.1249C19.7216 78.7531 19.8441 79.4924 19.7021 80.2044Z" fill="#E6E01C"/>
<path d="M207.069 229.85L223.195 180.371L207.709 177.423L199.574 205.235L197.834 204.738L206.43 175.292L225.575 178.986L208.774 230.419L207.069 229.85Z" fill="#BC2B28"/>
<path d="M204.441 184.171L204.903 182.431L221.384 186.587L220.958 188.327L204.441 184.171Z" fill="#BC2B28"/>
<path d="M199.256 207.295C199.138 209.41 198.373 211.438 197.064 213.103C195.756 214.769 193.967 215.992 191.94 216.608C189.913 217.224 187.746 217.202 185.732 216.545C183.718 215.889 181.955 214.629 180.68 212.937C179.406 211.245 178.682 209.203 178.606 207.086C178.531 204.969 179.108 202.88 180.259 201.102C181.409 199.323 183.079 197.942 185.041 197.144C187.003 196.345 189.163 196.169 191.229 196.639C193.696 197.009 195.92 198.333 197.421 200.326C198.923 202.318 199.582 204.821 199.256 207.295Z" fill="#E6352E"/>
<path d="M178.689 202.571C179.523 199.968 181.344 197.797 183.762 196.522C186.179 195.247 189 194.97 191.618 195.751C194.265 196.246 196.617 197.747 198.18 199.939C199.744 202.132 200.396 204.845 200.001 207.508C199.175 210.116 197.355 212.294 194.935 213.57C192.516 214.846 189.691 215.119 187.072 214.328C184.429 213.825 182.083 212.322 180.521 210.132C178.959 207.941 178.303 205.233 178.689 202.571ZM180.465 202.997C180.208 205.198 180.811 207.413 182.148 209.18C183.485 210.947 185.452 212.13 187.64 212.481C189.774 213.118 192.072 212.909 194.056 211.897C196.04 210.885 197.559 209.148 198.296 207.046C198.561 204.811 197.946 202.559 196.58 200.769C195.214 198.979 193.206 197.791 190.979 197.456C188.84 196.821 186.539 197.035 184.554 198.054C182.569 199.073 181.054 200.818 180.323 202.926L180.465 202.997Z" fill="#BC2B28"/>
<path d="M209.129 230.419C209.011 232.534 208.246 234.561 206.937 236.227C205.629 237.893 203.84 239.116 201.813 239.732C199.786 240.347 197.619 240.325 195.605 239.669C193.591 239.012 191.828 237.753 190.553 236.061C189.279 234.369 188.555 232.326 188.479 230.209C188.404 228.093 188.981 226.004 190.132 224.225C191.283 222.447 192.952 221.065 194.914 220.267C196.876 219.469 199.036 219.293 201.102 219.763C203.569 220.132 205.793 221.456 207.294 223.449C208.796 225.442 209.455 227.945 209.129 230.419Z" fill="#E6352E"/>
<path d="M188.386 225.694C189.204 223.081 191.023 220.897 193.445 219.62C195.867 218.342 198.697 218.074 201.315 218.874C204.017 219.304 206.442 220.776 208.069 222.975C209.696 225.173 210.396 227.923 210.018 230.632C209.162 233.214 207.332 235.361 204.917 236.615C202.502 237.869 199.693 238.131 197.089 237.345C194.383 236.924 191.952 235.454 190.324 233.253C188.695 231.052 187.998 228.298 188.386 225.588V225.694ZM190.162 226.085C189.889 228.328 190.505 230.589 191.88 232.382C193.255 234.175 195.278 235.357 197.515 235.675C199.654 236.329 201.963 236.123 203.952 235.102C205.942 234.081 207.455 232.324 208.171 230.205C208.445 227.977 207.837 225.73 206.476 223.945C205.116 222.159 203.11 220.977 200.889 220.65C198.755 220.004 196.454 220.209 194.467 221.223C192.481 222.236 190.963 223.978 190.233 226.085H190.162Z" fill="#BC2B28"/>
<path d="M196.059 205.697C195.969 207.273 195.398 208.783 194.422 210.024C193.446 211.265 192.113 212.177 190.603 212.635C189.092 213.094 187.477 213.078 185.976 212.589C184.476 212.1 183.161 211.162 182.21 209.902C181.259 208.642 180.718 207.12 180.66 205.543C180.603 203.965 181.03 202.408 181.886 201.082C182.742 199.755 183.984 198.723 185.445 198.126C186.906 197.528 188.516 197.394 190.056 197.74C191.9 198.013 193.564 199.001 194.687 200.489C195.81 201.978 196.302 203.848 196.059 205.697Z" fill="#E77978"/>
<path d="M205.898 228.82C205.803 230.4 205.225 231.911 204.241 233.151C203.258 234.39 201.917 235.297 200.4 235.747C198.884 236.198 197.265 236.171 195.764 235.671C194.264 235.17 192.953 234.219 192.011 232.948C191.069 231.677 190.541 230.147 190.499 228.565C190.457 226.984 190.902 225.428 191.774 224.108C192.647 222.788 193.905 221.769 195.377 221.189C196.848 220.608 198.463 220.495 200.002 220.864C201.827 221.162 203.464 222.16 204.565 223.645C205.666 225.131 206.144 226.987 205.898 228.82Z" fill="#E77978"/>
<path d="M193.394 203.601C193.319 204.726 192.899 205.8 192.191 206.676C191.482 207.553 190.52 208.19 189.437 208.499C188.353 208.808 187.2 208.775 186.135 208.404C185.071 208.033 184.147 207.342 183.49 206.426C182.834 205.51 182.476 204.413 182.466 203.286C182.456 202.159 182.795 201.057 183.436 200.129C184.076 199.202 184.988 198.495 186.046 198.106C187.103 197.716 188.256 197.663 189.345 197.953C190.619 198.188 191.753 198.907 192.508 199.96C193.263 201.014 193.581 202.319 193.394 203.601Z" fill="#E7A8A8"/>
<path d="M203.553 226.689C203.355 227.312 203.037 227.89 202.615 228.39C202.194 228.889 201.678 229.301 201.097 229.601C200.517 229.902 199.883 230.084 199.231 230.139C198.58 230.194 197.924 230.12 197.302 229.921C196.486 229.587 195.783 229.026 195.277 228.305C194.77 227.584 194.48 226.733 194.441 225.852C194.402 224.972 194.616 224.098 195.058 223.336C195.5 222.573 196.15 221.952 196.933 221.547C197.716 221.143 198.599 220.97 199.476 221.051C200.354 221.132 201.19 221.462 201.887 222.002C202.583 222.543 203.11 223.272 203.405 224.102C203.7 224.933 203.752 225.83 203.553 226.689Z" fill="#E7A8A8"/>
<path d="M253.495 293.04L255.591 294.319L230.762 336.091L228.631 334.812L253.495 293.04Z" fill="#C91E7C"/>
<path d="M228.807 341.241C227.161 342.909 225.07 344.068 222.784 344.581C220.497 345.094 218.111 344.938 215.911 344.133C213.71 343.327 211.788 341.906 210.372 340.038C208.957 338.171 208.108 335.935 207.928 333.599C207.747 331.262 208.243 328.923 209.355 326.861C210.466 324.798 212.148 323.098 214.199 321.964C216.25 320.831 218.583 320.311 220.922 320.466C223.26 320.622 225.504 321.446 227.386 322.842C230.001 325.102 231.618 328.303 231.884 331.749C232.15 335.195 231.044 338.606 228.807 341.241Z" fill="#E32888"/>
<path d="M208.384 326.145C209.393 324.56 210.708 323.192 212.25 322.118C213.792 321.045 215.532 320.288 217.369 319.892C219.205 319.495 221.102 319.467 222.95 319.809C224.798 320.151 226.559 320.856 228.133 321.883C229.566 323.091 230.747 324.572 231.605 326.239C232.464 327.905 232.984 329.726 233.136 331.595C233.288 333.464 233.069 335.344 232.49 337.128C231.912 338.911 230.986 340.563 229.767 341.987C228.754 343.564 227.44 344.925 225.899 345.992C224.359 347.059 222.622 347.81 220.79 348.203C218.957 348.596 217.065 348.623 215.223 348.281C213.38 347.94 211.623 347.237 210.053 346.214C208.622 345.008 207.443 343.532 206.585 341.869C205.726 340.207 205.204 338.391 205.049 336.526C204.894 334.662 205.109 332.785 205.681 331.003C206.253 329.222 207.172 327.571 208.384 326.145ZM210.373 327.602C208.338 329.972 207.316 333.047 207.529 336.164C207.741 339.281 209.171 342.189 211.51 344.26C214.152 345.916 217.338 346.471 220.385 345.807C223.432 345.143 226.098 343.313 227.813 340.708C229.835 338.33 230.845 335.254 230.626 332.14C230.407 329.026 228.976 326.121 226.641 324.05C223.985 322.403 220.786 321.871 217.74 322.57C214.694 323.268 212.047 325.14 210.373 327.779V327.602Z" fill="#C91E7C"/>
<path d="M226.073 338.08C224.829 339.343 223.249 340.221 221.519 340.61C219.79 340.999 217.986 340.882 216.321 340.273C214.657 339.664 213.202 338.589 212.132 337.177C211.062 335.764 210.42 334.073 210.285 332.306C210.149 330.539 210.525 328.77 211.367 327.211C212.21 325.651 213.483 324.367 215.035 323.512C216.587 322.656 218.353 322.265 220.121 322.386C221.889 322.506 223.586 323.133 225.007 324.191C226.976 325.901 228.192 328.317 228.392 330.917C228.591 333.517 227.758 336.09 226.073 338.08Z" fill="#E56FA1"/>
<path d="M223.018 334.315C222.136 335.206 221.017 335.825 219.793 336.098C218.57 336.371 217.294 336.286 216.117 335.854C214.94 335.422 213.913 334.66 213.157 333.66C212.401 332.66 211.948 331.463 211.854 330.213C211.759 328.963 212.026 327.712 212.622 326.609C213.219 325.507 214.12 324.599 215.218 323.994C216.316 323.389 217.565 323.113 218.816 323.199C220.066 323.284 221.266 323.727 222.272 324.476C223.647 325.699 224.493 327.409 224.632 329.244C224.771 331.08 224.192 332.897 223.018 334.315Z" fill="#EB9FBF"/>
<path d="M253.991 291.726C253.991 291.726 264.115 302.808 273.776 304.904C279.14 307.319 268.377 321.812 259.852 319.574C252.393 316.555 245.218 311.759 246.106 307.817L253.991 291.726Z" fill="#E32888"/>
<path d="M244.899 307.533L252.82 291.335L253.922 291.868L252.82 291.335L253.637 289.737L254.845 291.051C254.845 291.051 255.698 291.975 257.118 293.325C258.957 295.063 260.89 296.7 262.908 298.226C266.201 300.822 269.982 302.731 274.026 303.839C274.282 303.946 274.521 304.09 274.736 304.265C277.507 306.68 275.873 310.552 273.529 313.82C270.332 318.047 264.826 322.167 259.143 320.746C255.796 319.399 252.633 317.633 249.73 315.489C246.711 313.216 244.367 310.694 244.935 307.568L244.899 307.533ZM251.187 313.5C253.961 315.5 256.981 317.136 260.173 318.366C263.903 319.467 269.018 316.093 271.824 312.257C272.768 311.041 273.468 309.654 273.884 308.172C274.132 306.964 273.884 306.431 273.529 306.183C269.193 304.999 265.145 302.944 261.629 300.144C259.127 298.244 256.754 296.179 254.525 293.964L247.421 308.385C247.208 309.522 248.558 311.617 251.329 313.607L251.187 313.5Z" fill="#C91E7C"/>
<path d="M38.1314 380.242L38.4511 380.455L37.8473 379.993C32.022 374.736 36.9948 367.242 36.9948 367.242C36.9948 367.242 31.8799 374.843 25.3087 370.154L24.9535 369.87L25.1311 370.048L24.918 369.87L25.3442 370.19C31.4892 375.482 26.4098 383.084 26.4098 383.084C26.4098 383.084 31.4536 375.66 37.8828 380.064L38.4155 380.491L38.1314 380.242Z" fill="white"/>
<path d="M57.5297 59.1765L57.8139 59.3896L57.2456 58.9278C51.3848 53.6709 56.3576 46.1761 56.3576 46.1761C56.3576 46.1761 51.2782 53.7774 44.707 49.0888L44.3518 48.8046H44.1387L44.5649 49.1243C50.7099 54.4168 45.595 62.0181 45.595 62.0181C45.595 62.0181 50.6744 54.5944 57.068 58.9633L57.6008 59.3896L57.5297 59.1765Z" fill="white"/>
<path d="M46.3062 134.266L46.6259 134.479L46.0221 134.017C40.1968 128.76 45.1696 121.266 45.1696 121.266C45.1696 121.266 40.0547 128.867 33.519 124.178L33.1283 123.894H33.3059H33.0928L33.519 124.214C39.664 129.506 34.5491 137.107 34.5491 137.107C34.5491 137.107 39.6284 129.684 46.0576 134.053L46.5904 134.443L46.3062 134.266Z" fill="white"/>
<path d="M214.209 90.1854C214.33 90.2478 214.438 90.3321 214.528 90.4341L214.209 89.9368C208.383 84.7153 213.321 77.2206 213.321 77.2206C213.321 77.2206 208.241 84.8219 201.67 80.1333L201.315 79.8491H201.492H201.279L201.706 80.1688C207.85 85.4257 202.736 93.0626 202.736 93.0626C202.736 93.0626 207.815 85.6033 214.244 90.0078L214.777 90.3986L214.209 90.1854Z" fill="white"/>
<path d="M381.793 100.309L382.113 100.522L381.509 100.06C375.684 94.8031 380.657 87.3084 380.657 87.3084C380.657 87.3084 375.542 94.9097 369.006 90.221L368.615 89.9369C368.615 89.9369 368.615 89.9369 368.615 90.1145V89.9369L369.042 90.2566C375.151 95.549 370.072 103.15 370.072 103.15C370.072 103.15 375.115 95.7266 381.545 100.096L382.077 100.522L381.793 100.309Z" fill="white"/>
<path d="M279.318 360.742L279.034 360.529C278.248 359.691 277.775 358.607 277.698 357.461C277.62 356.315 277.942 355.177 278.608 354.242C278.608 354.242 276.086 358.007 272.889 355.698H272.676H272.889C273.714 356.518 274.218 357.607 274.309 358.767C274.4 359.927 274.073 361.081 273.386 362.02C273.386 362.02 275.873 358.468 279.034 360.529L279.318 360.742Z" fill="white"/>
<path d="M65.4106 400.737L65.6947 400.95L65.1264 400.524C59.3011 395.231 64.2384 387.737 64.2384 387.737C64.2384 387.737 59.1591 395.338 52.5879 390.649L52.2326 390.365H52.0195L52.4458 390.685C58.5907 395.977 53.4759 403.579 53.4759 403.579C53.4759 403.579 58.5552 396.155 64.9843 400.524L65.5172 400.95L65.4106 400.737Z" fill="white"/>
<path d="M48.715 475.72L48.3953 475.507C47.6151 474.666 47.1472 473.583 47.0696 472.439C46.992 471.294 47.3095 470.158 47.9691 469.22C47.9691 469.22 45.4472 472.985 42.2148 470.676H42.428C43.2483 471.505 43.7511 472.596 43.8485 473.758C43.9459 474.921 43.6317 476.08 42.9608 477.034C42.9608 477.034 45.4117 473.482 48.573 475.542L48.8571 475.755C48.8571 475.755 48.7505 475.755 48.715 475.72Z" fill="white"/>
<path d="M100.936 310.587L100.652 310.339C99.8682 309.507 99.3975 308.429 99.3198 307.289C99.242 306.149 99.5621 305.017 100.225 304.087C100.225 304.087 97.7035 307.817 94.5067 305.508H94.3291H94.5422C95.3608 306.332 95.8601 307.42 95.9512 308.578C96.0423 309.736 95.7191 310.888 95.0395 311.83C95.0395 311.83 97.5614 308.278 100.687 310.339L100.936 310.552C100.936 310.552 101.007 310.623 100.936 310.587Z" fill="white"/>
<path d="M160.929 209.497L160.645 209.284C159.862 208.438 159.392 207.349 159.315 206.198C159.237 205.048 159.556 203.905 160.219 202.962C160.219 202.962 157.697 206.727 154.5 204.418H154.322H154.535C155.357 205.248 155.857 206.342 155.948 207.506C156.039 208.67 155.715 209.829 155.033 210.776C155.033 210.776 157.555 207.224 160.68 209.284L160.964 209.497H160.929Z" fill="white"/>
<path d="M278.713 65.3569L279.033 65.57L278.429 65.1083C272.568 59.8868 277.541 52.3566 277.541 52.3566C277.541 52.3566 272.426 59.9579 265.891 55.2692L265.536 54.9851H265.713C265.713 54.9851 265.536 54.9851 265.5 54.9851L265.891 55.3048C272.036 60.5972 266.956 68.1985 266.956 68.1985C266.956 68.1985 272.036 60.7748 278.429 65.1438L278.962 65.57L278.713 65.3569Z" fill="white"/>
<path d="M285.853 502.325H286.031L285.747 502.111C284.952 501.287 284.47 500.211 284.386 499.069C284.302 497.927 284.62 496.792 285.285 495.86C285.285 495.86 282.799 499.412 279.566 497.281H279.389L279.602 497.458C280.426 498.278 280.932 499.364 281.029 500.522C281.127 501.68 280.81 502.835 280.135 503.781C280.135 503.781 282.621 500.229 285.782 502.289L286.031 502.467L285.853 502.325Z" fill="white"/>
<path d="M38.4558 255.105L38.136 254.892C37.3526 254.06 36.8819 252.982 36.8041 251.842C36.7264 250.702 37.0465 249.571 37.7098 248.64C37.7098 248.64 35.1879 252.192 31.9911 250.061H31.8135H32.0266C32.8479 250.891 33.3485 251.985 33.4396 253.149C33.5306 254.313 33.2062 255.472 32.5239 256.419C32.5239 256.419 35.0458 252.867 38.1716 254.892L38.4558 255.105Z" fill="white"/>
<path d="M179.08 370.119L178.796 369.906C178.015 369.065 177.547 367.982 177.47 366.838C177.392 365.693 177.71 364.557 178.369 363.619C178.369 363.619 175.847 367.384 172.615 365.075H172.438H172.651C173.472 365.905 173.972 366.999 174.064 368.163C174.155 369.327 173.83 370.486 173.148 371.433C173.148 371.433 175.634 367.881 178.796 369.906L179.08 370.119Z" fill="white"/>
<path d="M128.961 35.7687L129.281 35.9818L128.677 35.52C122.852 30.2986 127.789 22.7683 127.789 22.7683C127.789 22.7683 122.71 30.3696 116.139 25.681L115.784 25.3968H115.961H115.748L116.139 25.7165C122.319 31.009 117.204 38.6103 117.204 38.6103C117.204 38.6103 122.284 31.2221 128.677 35.52L129.21 35.9463L128.961 35.7687Z" fill="white"/>
<path d="M19.9096 366.247L20.2293 366.496L19.6254 366.034C13.8001 360.777 18.773 353.247 18.773 353.247C18.773 353.247 13.658 360.848 7.08683 356.159L6.73167 355.911H6.51855L6.94478 356.266C13.0897 361.523 7.97483 369.124 7.97483 369.124C7.97483 369.124 13.0542 361.736 19.4478 366.105L20.0161 366.531L19.9096 366.247Z" fill="white"/>
<path d="M83.1403 104.393L82.8206 104.145C82.0371 103.313 81.5664 102.235 81.4887 101.095C81.4109 99.9553 81.7311 98.8237 82.3944 97.8933C82.3944 97.8933 79.908 101.623 76.6757 99.3141H76.498L76.6757 99.4917C77.4942 100.316 77.9935 101.404 78.0846 102.562C78.1756 103.72 77.8526 104.872 77.1729 105.814C77.1729 105.814 79.6948 102.262 82.8561 104.322L83.1048 104.536L83.1403 104.393Z" fill="white"/>
<path d="M35.97 312.505L35.6858 312.257C34.9024 311.425 34.4316 310.347 34.3539 309.207C34.2762 308.067 34.5962 306.936 35.2596 306.005C35.2596 306.005 32.7376 309.557 29.5408 307.426H29.3633H29.5764C30.3977 308.256 30.8983 309.35 30.9893 310.514C31.0804 311.678 30.7559 312.837 30.0737 313.784C30.0737 313.784 32.5956 310.232 35.7213 312.257L36.0055 312.505H35.97Z" fill="white"/>
<path d="M192.258 59.8159L191.974 59.6027C191.2 58.7589 190.736 57.6766 190.658 56.534C190.581 55.3913 190.894 54.2564 191.548 53.3157C191.548 53.3157 189.026 57.0453 185.829 54.7365H185.651H185.864C186.677 55.5642 187.172 56.6513 187.263 57.8074C187.353 58.9634 187.035 60.1146 186.362 61.0591C186.362 61.0591 188.848 57.5071 192.009 59.5672L192.258 59.7803V59.8159Z" fill="white"/>
<path d="M392.449 43.9028L392.165 43.6897C391.381 42.8579 390.911 41.7802 390.833 40.6402C390.755 39.5002 391.075 38.3685 391.738 37.4381C391.738 37.4381 389.217 40.9901 385.984 38.8589H385.807H385.984C386.815 39.6748 387.325 40.7614 387.423 41.9214C387.521 43.0815 387.199 44.2381 386.517 45.1815C386.517 45.1815 389.003 41.6295 392.165 43.6897L392.413 43.9028H392.449Z" fill="white"/>
<path d="M141.357 181.152L141.073 180.939C140.298 180.094 139.836 179.009 139.765 177.865C139.694 176.72 140.018 175.586 140.682 174.652C140.682 174.652 138.124 178.382 134.928 176.073H134.75L134.963 176.25C135.782 177.075 136.281 178.163 136.372 179.32C136.463 180.478 136.14 181.631 135.46 182.573C135.46 182.573 137.982 179.021 141.144 181.081L141.392 181.294L141.357 181.152Z" fill="white"/>
<path d="M268.662 233.296L268.981 233.544L268.377 233.047C262.517 227.826 267.489 220.295 267.489 220.295C267.489 220.295 262.375 227.897 255.839 223.208L255.484 222.924H255.271L255.661 223.244C261.806 228.536 256.727 236.137 256.727 236.137C256.727 236.137 261.771 228.714 268.2 233.083L268.733 233.544L268.662 233.296Z" fill="white"/>
<path d="M141.89 260.327L141.606 260.113C140.823 259.283 140.35 258.208 140.266 257.07C140.182 255.931 140.492 254.799 141.144 253.862C141.144 253.862 138.658 257.414 135.426 255.247H135.248H135.426C136.25 256.067 136.755 257.153 136.853 258.311C136.951 259.469 136.634 260.624 135.958 261.57C135.958 261.57 138.445 258.018 141.606 260.113H141.855L141.89 260.327Z" fill="white"/>
<path d="M148.177 526.158L148.461 526.372L147.893 525.91C142.032 520.688 147.005 513.158 147.005 513.158C147.005 513.158 141.89 520.759 135.355 516.071L134.964 515.787H135.177C135.177 515.787 134.999 515.787 134.964 515.787L135.355 516.106C141.5 521.399 136.385 529 136.385 529C136.385 529 141.464 521.576 147.893 525.945L148.426 526.372L148.177 526.158Z" fill="white"/>
<path d="M217.762 287.499L217.477 287.251C216.694 286.419 216.223 285.341 216.145 284.201C216.068 283.061 216.388 281.929 217.051 280.999C217.051 280.999 214.529 284.729 211.297 282.42H211.474C212.293 283.244 212.792 284.332 212.883 285.49C212.975 286.648 212.651 287.8 211.972 288.742C211.972 288.742 214.494 285.19 217.619 287.251L217.904 287.464L217.762 287.499Z" fill="white"/>
<path d="M238.078 514.827L237.794 514.579C237.01 513.747 236.539 512.669 236.462 511.529C236.384 510.389 236.704 509.258 237.367 508.327C237.367 508.327 234.845 512.057 231.613 509.748H231.436H231.649C232.467 510.572 232.966 511.66 233.058 512.818C233.149 513.976 232.826 515.129 232.146 516.071C232.146 516.071 234.632 512.519 237.794 514.579L238.042 514.792L238.078 514.827Z" fill="white"/>
<path d="M108.111 367.135L107.827 366.922C107.041 366.085 106.569 365.001 106.491 363.855C106.413 362.709 106.735 361.571 107.401 360.635C107.401 360.635 104.879 364.4 101.646 362.091L101.86 362.269C102.685 363.089 103.188 364.178 103.28 365.338C103.371 366.498 103.044 367.652 102.357 368.592C102.357 368.592 104.843 365.04 108.005 367.1L108.253 367.313L108.111 367.135Z" fill="white"/>
<path d="M183.52 317.585L183.236 317.336C182.453 316.504 181.982 315.427 181.904 314.287C181.826 313.147 182.146 312.015 182.81 311.085C182.81 311.085 180.288 314.637 177.055 312.505H176.878H177.055C177.886 313.321 178.396 314.408 178.494 315.568C178.592 316.728 178.27 317.885 177.588 318.828C177.588 318.828 180.075 315.276 183.236 317.336L183.485 317.549C183.485 317.549 183.556 317.585 183.52 317.585Z" fill="white"/>
<path d="M186.716 411.677L186.432 411.464C185.646 410.627 185.174 409.543 185.096 408.397C185.018 407.251 185.34 406.113 186.006 405.177C186.006 405.177 183.484 408.907 180.287 406.598H180.109H180.323C181.141 407.422 181.64 408.51 181.731 409.668C181.823 410.826 181.499 411.979 180.82 412.92C180.82 412.92 183.342 409.368 186.503 411.429L186.752 411.642L186.716 411.677Z" fill="white"/>
<path d="M242.802 378.75L242.518 378.537C241.744 377.693 241.28 376.611 241.203 375.468C241.125 374.326 241.439 373.191 242.092 372.25C242.092 372.25 239.57 376.015 236.373 373.706H236.16H236.373C237.195 374.536 237.695 375.63 237.786 376.794C237.877 377.958 237.553 379.117 236.871 380.064C236.871 380.064 239.392 376.512 242.554 378.537L242.802 378.75Z" fill="white"/>
<path d="M176.309 168.898L176.025 168.649C175.242 167.818 174.771 166.74 174.693 165.6C174.616 164.46 174.936 163.328 175.599 162.398C175.599 162.398 173.077 165.95 169.845 163.819H170.058C170.876 164.643 171.376 165.731 171.467 166.889C171.558 168.047 171.235 169.199 170.555 170.141C170.555 170.141 173.042 166.589 176.203 168.649L176.487 168.862L176.309 168.898Z" fill="white"/>
<defs>
<linearGradient id="paint0_linear_15_2722" x1="82.963" y1="330.869" x2="92.2693" y2="288.565" gradientUnits="userSpaceOnUse">
<stop offset="0.11" stop-color="#FFFB74"/>
<stop offset="0.49" stop-color="#FFFA00"/>
<stop offset="0.93" stop-color="#FFC921"/>
</linearGradient>
<radialGradient id="paint1_radial_15_2722" cx="0" cy="0" r="1" gradientUnits="userSpaceOnUse" gradientTransform="translate(94.6449 286.08) scale(45.3463 45.7953)">
<stop offset="0.41" stop-color="#FFFB62"/>
<stop offset="0.85" stop-color="#F39F46"/>
</radialGradient>
<linearGradient id="paint2_linear_15_2722" x1="241.737" y1="137.036" x2="248.557" y2="106.169" gradientUnits="userSpaceOnUse">
<stop offset="0.11" stop-color="#FFFB74"/>
<stop offset="0.49" stop-color="#FFFA00"/>
<stop offset="0.93" stop-color="#FFC921"/>
</linearGradient>
<radialGradient id="paint3_radial_15_2722" cx="0" cy="0" r="1" gradientUnits="userSpaceOnUse" gradientTransform="translate(250.702 104.674) scale(33.077 33.4045)">
<stop offset="0.41" stop-color="#FFFB62"/>
<stop offset="0.85" stop-color="#F39F46"/>
</radialGradient>
<linearGradient id="paint4_linear_15_2722" x1="75.4328" y1="73.1003" x2="81.7909" y2="44.2935" gradientUnits="userSpaceOnUse">
<stop offset="0.11" stop-color="#FFFB74"/>
<stop offset="0.49" stop-color="#FFFA00"/>
<stop offset="0.93" stop-color="#FFC921"/>
</linearGradient>
<radialGradient id="paint5_radial_15_2722" cx="0" cy="0" r="1" gradientUnits="userSpaceOnUse" gradientTransform="translate(83.4733 43.3559) scale(30.9245 31.2306)">
<stop offset="0.41" stop-color="#FFFB62"/>
<stop offset="0.85" stop-color="#F39F46"/>
</radialGradient>
</defs>
</svg>
