<svg width="519" height="529" viewBox="0 0 519 529" fill="none" xmlns="http://www.w3.org/2000/svg">
<path d="M452.383 276.31C452.261 276.356 452.152 276.429 452.063 276.524L452.667 276.062C458.421 270.876 453.519 263.452 453.519 263.452C453.519 263.452 458.599 270.982 465.064 266.329L465.419 266.045C465.419 266.045 465.419 266.045 465.632 266.045L465.241 266.365C459.132 271.586 464.211 279.116 464.211 279.116C464.211 279.116 459.167 271.764 452.809 276.097L452.312 276.524L452.383 276.31Z" fill="white"/>
<path d="M318.544 275.245L318.26 275.458L318.828 274.996C324.618 269.81 319.716 262.387 319.716 262.387C319.716 262.387 324.76 269.917 331.26 265.264L331.58 264.98C331.58 264.98 331.58 264.98 331.793 264.98L331.402 265.299C325.293 270.521 330.372 278.051 330.372 278.051C330.372 278.051 325.364 270.698 319.006 275.067L318.473 275.458L318.544 275.245Z" fill="white"/>
<path d="M489.04 192.554C489.04 192.554 488.827 192.554 488.756 192.803L489.324 192.341C495.114 187.155 490.212 179.696 490.212 179.696C490.212 179.696 495.256 187.226 501.756 182.573L502.076 182.325H502.289L501.898 182.644C495.789 187.866 500.868 195.396 500.868 195.396C500.868 195.396 495.824 188.043 489.502 192.377L488.969 192.803L489.04 192.554Z" fill="white"/>
<path d="M272.581 228.039L272.262 228.252L272.83 227.826C278.62 222.604 273.718 215.181 273.718 215.181C273.718 215.181 278.762 222.675 285.262 218.058L285.582 217.773V217.951L285.795 217.773L285.369 218.093C279.295 223.315 284.339 230.845 284.339 230.845C284.339 230.845 279.33 223.492 272.972 227.826L272.439 228.252L272.581 228.039Z" fill="white"/>
<path d="M479.52 231.129L479.84 230.88C480.603 230.045 481.06 228.975 481.138 227.847C481.215 226.718 480.908 225.596 480.266 224.664C480.266 224.664 482.753 228.216 485.914 226.121L485.701 226.298C484.885 227.117 484.387 228.198 484.296 229.35C484.205 230.502 484.527 231.649 485.204 232.585C485.204 232.585 482.717 229.033 479.592 231.093L479.343 231.307L479.52 231.129Z" fill="white"/>
<path d="M450.785 167.37L451.069 167.157C451.844 166.328 452.309 165.257 452.387 164.125C452.464 162.993 452.15 161.869 451.496 160.941C451.496 160.941 453.982 164.493 457.179 162.362C456.358 163.176 455.853 164.256 455.755 165.408C455.658 166.56 455.973 167.709 456.646 168.649C456.646 168.649 454.195 165.097 451.069 167.157L450.821 167.37H450.785Z" fill="white"/>
<path d="M357.155 255.851H356.978L357.262 255.638C358.036 254.809 358.501 253.738 358.579 252.606C358.657 251.473 358.342 250.349 357.688 249.422C357.688 249.422 360.174 252.974 363.371 250.843H363.158C362.349 251.699 361.881 252.822 361.841 253.999C361.802 255.177 362.195 256.328 362.945 257.236C362.945 257.236 360.458 253.684 357.333 255.744L357.084 255.958L357.155 255.851Z" fill="white"/>
<path d="M458.776 213.546L459.06 213.298C459.823 212.462 460.28 211.393 460.358 210.264C460.435 209.135 460.128 208.014 459.487 207.082C459.487 207.082 461.973 210.634 465.17 208.503V208.68C464.357 209.493 463.86 210.569 463.769 211.714C463.678 212.86 463.998 214.001 464.673 214.932C464.673 214.932 462.186 211.38 459.06 213.475H458.812L458.776 213.546Z" fill="white"/>
<path d="M424.252 234.432L424.536 234.219C425.311 233.39 425.776 232.319 425.854 231.187C425.931 230.055 425.616 228.93 424.962 228.003C424.962 228.003 427.449 231.555 430.646 229.424H430.432C429.619 230.236 429.123 231.312 429.031 232.458C428.94 233.604 429.261 234.745 429.935 235.676C429.935 235.676 427.484 232.124 424.358 234.184L424.11 234.397L424.252 234.432Z" fill="white"/>
<path d="M472.984 156.75L472.665 156.963L473.269 156.537C479.058 151.351 474.121 143.927 474.121 143.927C474.121 143.927 479.165 151.458 485.665 146.804L486.02 146.52H486.233L485.843 146.84C479.733 152.061 484.777 159.592 484.777 159.592C484.777 159.592 479.769 152.239 473.411 156.572L472.878 156.963C472.925 156.898 472.961 156.826 472.984 156.75Z" fill="white"/>
<path d="M350.086 322.593L350.37 322.38C351.145 321.551 351.61 320.48 351.688 319.348C351.765 318.216 351.451 317.091 350.796 316.164C350.796 316.164 353.283 319.716 356.48 317.585H356.657H356.48C355.658 318.399 355.154 319.478 355.056 320.63C354.959 321.782 355.274 322.931 355.947 323.872C355.947 323.872 353.496 320.32 350.37 322.38L350.122 322.593H350.086Z" fill="white"/>
<path d="M303.874 332.503L304.158 332.254C304.93 331.431 305.394 330.366 305.472 329.24C305.549 328.114 305.236 326.996 304.585 326.074C304.585 326.074 307.071 329.626 310.268 327.495H310.445H310.232C309.416 328.313 308.918 329.395 308.827 330.547C308.736 331.699 309.058 332.845 309.735 333.782C309.735 333.782 307.284 330.23 304.158 332.325H303.91L303.874 332.503Z" fill="white"/>
<path d="M244.378 232.479L244.662 232.266C245.426 231.429 245.88 230.357 245.951 229.226C246.022 228.096 245.706 226.975 245.053 226.05C245.053 226.05 247.575 229.602 250.736 227.47H250.523C249.71 228.283 249.213 229.359 249.122 230.505C249.031 231.65 249.352 232.791 250.026 233.722C250.026 233.722 247.575 230.17 244.449 232.266L244.165 232.479H244.378Z" fill="white"/>
<path d="M301.602 291.229L301.886 290.98C302.658 290.157 303.121 289.092 303.199 287.966C303.277 286.84 302.963 285.721 302.312 284.8C302.312 284.8 304.798 288.352 307.96 286.221H308.173H307.96C307.147 287.033 306.65 288.109 306.559 289.255C306.468 290.4 306.788 291.541 307.462 292.472C307.462 292.472 304.976 288.92 301.886 291.016L301.602 291.229C301.566 291.3 301.602 291.229 301.602 291.229Z" fill="white"/>
<path d="M262.564 268.851L262.849 268.603C263.62 267.779 264.084 266.714 264.162 265.588C264.24 264.462 263.926 263.344 263.275 262.422C263.275 262.422 265.761 265.974 268.958 263.843H268.78C267.955 264.647 267.448 265.722 267.35 266.869C267.252 268.017 267.571 269.162 268.248 270.094C268.248 270.094 265.761 266.542 262.635 268.638L262.387 268.851H262.564Z" fill="white"/>
<path d="M241.146 295.598L240.826 295.846L241.394 295.385C247.184 290.199 242.282 282.775 242.282 282.775C242.282 282.775 247.326 290.27 253.826 285.652L254.181 285.368H254.395L254.004 285.688C247.894 290.909 252.938 298.439 252.938 298.439C252.938 298.439 247.93 291.087 241.572 295.42L241.039 295.846L241.146 295.598Z" fill="white"/>
<path d="M279.722 313.145L280.006 312.896C280.778 312.073 281.241 311.008 281.319 309.882C281.397 308.756 281.083 307.637 280.432 306.716C280.432 306.716 282.918 310.268 286.115 308.101C285.29 308.905 284.782 309.98 284.685 311.128C284.587 312.275 284.905 313.42 285.582 314.353C285.582 314.353 283.132 310.8 280.006 312.896L279.757 313.109L279.722 313.145Z" fill="white"/>
<path d="M250.488 332.503H250.31L250.63 332.29C251.396 331.463 251.856 330.399 251.933 329.275C252.011 328.151 251.701 327.034 251.056 326.109C251.056 326.109 253.543 329.661 256.704 327.495H256.491C255.682 328.317 255.188 329.398 255.097 330.548C255.006 331.698 255.324 332.843 255.994 333.782C255.994 333.782 253.543 330.23 250.417 332.29L250.133 332.503H250.488Z" fill="white"/>
<path d="M274.712 341.952L274.997 341.738C275.766 340.905 276.225 339.832 276.296 338.7C276.367 337.568 276.046 336.446 275.387 335.522C275.387 335.522 277.909 339.074 281.07 336.943H281.248H281.035C280.22 337.761 279.72 338.84 279.623 339.99C279.525 341.14 279.836 342.287 280.502 343.23C280.502 343.23 278.051 339.678 274.961 341.738L274.677 341.952H274.712Z" fill="white"/>
<path d="M207.757 399.636L208.041 399.423C208.816 398.594 209.281 397.523 209.359 396.391C209.436 395.259 209.121 394.134 208.467 393.207C208.467 393.207 210.954 396.936 214.151 394.628H214.328H214.151C213.338 395.439 212.84 396.512 212.742 397.656C212.645 398.8 212.955 399.942 213.618 400.879C213.618 400.879 211.167 397.327 208.041 399.387L207.792 399.6L207.757 399.636Z" fill="white"/>
<path d="M297.268 267.466L297.552 267.253C298.321 266.419 298.78 265.346 298.851 264.214C298.922 263.082 298.602 261.96 297.943 261.037C297.943 261.037 300.429 264.589 303.626 262.458H303.413C302.601 263.269 302.102 264.342 302.004 265.486C301.907 266.63 302.217 267.772 302.88 268.709C302.88 268.709 300.465 265.157 297.339 267.217L297.055 267.43L297.268 267.466Z" fill="white"/>
<g style="mix-blend-mode:multiply" opacity="0.6">
<path d="M273.682 300.713C277.033 298.056 280.598 295.68 284.338 293.609C285.246 287.269 286.648 281.011 288.53 274.89C289.631 271.338 293.822 268.212 297.019 269.952C300.507 272.471 303.403 275.72 305.508 279.472C306.855 281.521 308.042 283.67 309.06 285.901C309.226 285.881 309.393 285.881 309.558 285.901C314.29 285.638 319.033 285.638 323.766 285.901C327.318 286.363 331.509 286.327 332.113 290.376C332.539 293.076 329.662 302.276 323.979 309.237C325.941 312.428 327.628 315.778 329.023 319.254C329.631 320.495 329.89 321.878 329.771 323.255C329.652 324.632 329.16 325.95 328.348 327.069C326.82 329.093 321.244 329.058 318.082 328.099C310.978 325.861 308.03 325.328 305.686 324.547C302.01 327.993 298.144 331.23 294.106 334.244C288.778 337.547 287.002 337.796 285.226 336.659C282.03 334.741 280.36 321.527 280.68 316.732C277.128 316.342 268.425 314.637 268.106 309.309C268.382 307.565 269.021 305.899 269.982 304.419C270.942 302.938 272.203 301.675 273.682 300.713Z" fill="#5DC1EE"/>
</g>
<path d="M276.382 298.333C280.562 295.168 284.94 292.273 289.488 289.666C289.763 284.189 290.512 278.746 291.726 273.398C291.872 272.644 292.19 271.934 292.654 271.323C293.118 270.712 293.717 270.215 294.403 269.872C295.09 269.528 295.846 269.348 296.614 269.343C297.381 269.339 298.14 269.511 298.83 269.846C302.121 272.164 304.881 275.154 306.929 278.619C308.268 280.512 309.456 282.507 310.481 284.587C310.644 284.546 310.815 284.546 310.978 284.587C315.521 284.32 320.075 284.32 324.618 284.587C328.17 284.977 332.006 284.977 332.574 288.742C332.53 291.329 331.486 293.799 329.662 295.633C327.317 298.617 325.328 301.068 322.806 303.838C325.06 307.544 327.054 311.401 328.774 315.383C329.52 317.443 331.047 322.273 328.774 323.943C327.542 324.448 326.215 324.682 324.885 324.626C323.554 324.571 322.252 324.229 321.066 323.623C316.406 321.906 311.892 319.815 307.568 317.372C304.375 321.114 300.971 324.672 297.374 328.028C295.491 329.875 291.193 333.853 288.636 331.899C286.079 329.946 286.505 326.749 286.505 324.369C286.505 319.929 286.718 315.311 287.002 310.871C283.628 310.516 280.218 310.09 276.843 309.451C274.463 308.989 271.657 307.71 271.657 304.869C271.657 302.027 274.392 299.86 276.382 298.333Z" fill="url(#paint0_linear_15_2723)"/>
<path style="mix-blend-mode:multiply" d="M276.382 298.333L278.122 297.019C277.038 297.855 276.265 299.028 275.924 300.354C275.583 301.679 275.694 303.081 276.24 304.336C277.838 307.177 283.344 307.888 286.434 307.888C290.696 308.208 288.032 311.937 289.737 315.88C293.005 323.552 302.347 319.432 305.331 314.885C307.32 311.866 315.028 317.94 319.752 312.648C320.459 311.74 320.935 310.674 321.139 309.542C321.343 308.41 321.27 307.245 320.924 306.147C319.432 301.849 321.847 301.139 324.014 298.155C327.566 293.502 329.626 287.038 324.227 286.86C319.903 286.741 315.576 286.848 311.263 287.18C308.954 287.357 308.137 283.024 304.833 277.838C304.052 276.63 301.495 272.474 300.82 271.16C303.127 273.363 305.166 275.831 306.894 278.513C308.233 280.405 309.42 282.401 310.446 284.48C310.609 284.44 310.78 284.44 310.943 284.48C315.486 284.214 320.04 284.214 324.583 284.48C328.135 284.871 331.971 284.871 332.539 288.636C332.495 291.223 331.451 293.692 329.626 295.527C327.282 298.511 325.293 300.961 322.771 303.732C325.025 307.437 327.019 311.295 328.738 315.276C329.484 317.336 331.012 322.167 328.738 323.836C327.507 324.342 326.18 324.575 324.849 324.52C323.519 324.465 322.216 324.122 321.031 323.517C316.371 321.799 311.857 319.709 307.533 317.265C304.34 321.008 300.936 324.565 297.339 327.921C295.456 329.768 291.158 333.746 288.601 331.793C286.043 329.839 286.47 326.642 286.47 324.263C286.47 319.823 286.683 315.205 286.967 310.765C283.592 310.41 280.183 309.984 276.808 309.344C274.428 308.882 271.622 307.604 271.622 304.762C271.622 301.921 274.393 299.86 276.382 298.333Z" fill="url(#paint1_radial_15_2723)"/>
<g style="mix-blend-mode:multiply">
<path d="M276.382 298.333C280.562 295.168 284.94 292.273 289.488 289.666C289.763 284.189 290.512 278.746 291.726 273.398C291.872 272.644 292.19 271.934 292.654 271.323C293.118 270.712 293.717 270.215 294.403 269.872C295.09 269.528 295.846 269.348 296.614 269.343C297.381 269.339 298.14 269.511 298.83 269.846C302.121 272.164 304.881 275.154 306.929 278.619C308.268 280.512 309.456 282.507 310.481 284.587C310.644 284.546 310.815 284.546 310.978 284.587C315.521 284.32 320.075 284.32 324.618 284.587C328.17 284.977 332.006 284.977 332.574 288.742C332.53 291.329 331.486 293.799 329.662 295.633C327.317 298.617 325.328 301.068 322.806 303.838C325.06 307.544 327.054 311.401 328.774 315.383C329.52 317.443 331.047 322.273 328.774 323.943C327.542 324.448 326.215 324.682 324.885 324.626C323.554 324.571 322.252 324.229 321.066 323.623C316.406 321.906 311.892 319.815 307.568 317.372C304.375 321.114 300.971 324.672 297.374 328.028C295.491 329.875 291.193 333.853 288.636 331.899C286.079 329.946 286.505 326.749 286.505 324.369C286.505 319.929 286.718 315.311 287.002 310.871C283.628 310.516 280.218 310.09 276.843 309.451C274.463 308.989 271.657 307.71 271.657 304.869C271.657 302.027 274.392 299.86 276.382 298.333ZM275.138 306.183C276.515 306.844 278.016 307.207 279.543 307.248C282.455 307.639 285.368 308.065 288.316 308.314C288.56 308.342 288.792 308.429 288.994 308.568C289.196 308.708 289.36 308.894 289.472 309.112C289.584 309.33 289.641 309.572 289.638 309.816C289.635 310.061 289.571 310.302 289.453 310.516C289.24 314.068 289.275 317.372 289.027 320.817C288.757 323.183 288.829 325.575 289.24 327.921C290.234 332.397 295.633 326.039 297.019 324.653C300.215 321.385 302.844 319.041 305.757 315.525C306.396 314.85 306.964 314.53 307.213 314.637C309.841 315.915 316.271 318.863 317.869 319.716C320.195 320.843 322.636 321.712 325.151 322.309C329.981 323.41 326.074 315.56 325.151 313.855C323.694 310.729 321.847 307.852 320.355 304.762C319.858 303.661 319.325 303.306 320 302.489C323.046 299.096 325.904 295.539 328.56 291.833C329.413 290.518 329.91 288.281 328.134 287.499C322.859 286.687 317.517 286.401 312.186 286.647C310.41 286.895 309.344 287.18 309.238 287.002C307.525 284.006 305.639 281.112 303.59 278.335C302.524 276.95 298.297 270.165 295.278 271.728C293.396 272.723 292.969 276.737 292.721 278.655C292.223 282.74 291.975 286.505 291.691 290.767C291.691 291.122 290.199 291.833 288.139 293.005C283.728 295.454 279.554 298.308 275.671 301.53C275.138 302.347 273.185 304.833 275.138 306.183Z" fill="#D47F02"/>
</g>
<path d="M329.165 289.488C329.165 289.488 329.733 288.387 326.11 288.068C321.831 287.735 317.528 287.902 313.287 288.565L309.274 289.062C307.817 286.398 306.396 283.343 306.396 283.343L309.274 287.428C314.39 287.015 319.527 286.932 324.654 287.18C327.637 287.073 329.84 288.352 329.165 289.488Z" fill="#FFF6E6"/>
<path d="M306.112 282.917C306.112 282.917 302.241 275.813 297.872 277.589C293.503 279.365 293.183 286.008 292.792 290.021C293.183 286.256 293.005 284.942 293.609 277.589C294.213 270.237 297.552 270.734 301.246 275.494C303.133 277.784 304.765 280.273 306.112 282.917Z" fill="#FFF6E6"/>
<path d="M293.076 287.322C293.076 287.322 293.076 291.051 293.076 293.076C287.618 295.654 282.327 298.573 277.234 301.814C275.174 303.839 274.854 305.117 275.423 306.005C275.423 306.005 273.469 305.011 276.346 301.849C281.51 297.847 286.999 294.283 292.757 291.193L293.076 287.322Z" fill="#FFF6E6"/>
<path d="M324.903 296.273C322.583 298.664 320.051 300.84 317.337 302.773C317.337 302.773 327.638 317.265 327.141 321.279C327.141 321.279 328.277 319.645 325.542 314.672L319.291 302.915C319.291 302.915 323.163 298.51 324.903 296.273Z" fill="#FFF6E6"/>
<g style="mix-blend-mode:multiply" opacity="0.6">
<path d="M124.57 115.014C127.054 113.075 129.691 111.341 132.455 109.828C133.114 105.197 134.136 100.625 135.51 96.1529C136.327 93.702 139.381 91.2867 141.726 92.6009C144.265 94.4327 146.374 96.7965 147.906 99.5273C148.929 101.029 149.832 102.608 150.606 104.251C150.734 104.22 150.868 104.22 150.996 104.251C154.474 104.038 157.962 104.038 161.439 104.251C164.068 104.571 167.087 104.536 167.549 107.519C166.996 112.6 164.916 117.393 161.581 121.266C162.974 123.598 164.162 126.046 165.133 128.583C165.578 129.485 165.766 130.492 165.678 131.494C165.591 132.496 165.23 133.454 164.636 134.266C163.535 135.758 159.379 135.722 157.177 135.047C151.884 133.378 149.824 133.023 148.119 132.383C145.439 134.91 142.616 137.282 139.666 139.487C135.794 141.903 134.409 142.009 133.165 141.263C130.857 139.878 129.613 130.252 129.862 126.736C127.269 126.416 120.911 125.173 120.662 121.301C120.855 120.043 121.3 118.838 121.972 117.757C122.644 116.677 123.527 115.744 124.57 115.014Z" fill="#5DC1EE"/>
</g>
<path d="M126.559 113.273C129.605 110.975 132.797 108.875 136.114 106.986C136.341 103.042 136.888 99.1215 137.748 95.2648C137.841 94.7116 138.063 94.1883 138.398 93.7377C138.732 93.2872 139.168 92.9222 139.671 92.6727C140.173 92.4232 140.727 92.2963 141.288 92.3023C141.849 92.3083 142.401 92.4471 142.898 92.7073C145.279 94.3085 147.3 96.3894 148.83 98.8168C149.812 100.181 150.668 101.631 151.387 103.15H151.778C155.09 102.955 158.411 102.955 161.724 103.15C164.245 103.47 167.087 103.434 167.549 106.169C167.518 108.063 166.754 109.871 165.418 111.213C163.713 113.38 162.256 115.156 160.409 117.216C162.049 119.917 163.497 122.73 164.743 125.634C165.311 127.126 166.412 130.643 164.743 131.886C163.837 132.246 162.866 132.41 161.892 132.367C160.919 132.325 159.965 132.076 159.095 131.637C155.681 130.431 152.368 128.958 149.185 127.233C147.196 129.648 144.674 132.135 141.761 135.012C140.376 136.326 137.25 139.239 135.368 137.818C133.485 136.397 133.84 134.053 133.805 132.312C133.805 129.08 133.805 125.741 134.16 122.473C131.709 122.224 129.223 121.905 126.772 121.443C125.031 121.123 123.007 120.164 123.007 118.104C123.007 116.044 124.96 114.41 126.559 113.273Z" fill="url(#paint2_linear_15_2723)"/>
<path style="mix-blend-mode:multiply" d="M126.559 113.274L127.837 112.35C125.99 114.268 125.6 116.222 126.452 117.678C127.624 119.738 131.531 120.164 133.876 120.342C137.002 120.591 135.048 123.326 136.291 126.203C138.671 131.815 145.491 128.831 147.693 125.457C149.114 123.29 154.797 127.695 158.349 123.859C158.851 123.186 159.19 122.406 159.338 121.579C159.486 120.753 159.439 119.904 159.202 119.099C158.1 115.938 159.876 115.547 161.439 113.274C163.926 109.722 165.56 105.139 161.617 105.033C158.454 104.942 155.289 105.013 152.133 105.246C150.464 105.246 149.86 102.227 147.48 98.4617C146.912 97.5382 145.029 94.519 144.532 93.56C146.158 95.1449 147.6 96.9084 148.83 98.8169C149.812 100.181 150.668 101.631 151.387 103.15H151.778C155.09 102.955 158.411 102.955 161.724 103.15C164.245 103.47 167.087 103.435 167.549 106.17C167.518 108.063 166.754 109.871 165.418 111.213C163.713 113.38 162.256 115.156 160.409 117.216C162.049 119.917 163.497 122.73 164.743 125.635C165.311 127.126 166.412 130.643 164.743 131.886C163.837 132.246 162.866 132.41 161.892 132.368C160.919 132.325 159.965 132.076 159.095 131.637C155.681 130.431 152.368 128.958 149.185 127.233C147.196 129.648 144.674 132.135 141.761 135.012C140.376 136.326 137.25 139.239 135.368 137.818C133.485 136.397 133.84 134.053 133.805 132.312C133.805 129.08 133.805 125.741 134.16 122.473C131.709 122.225 129.223 121.905 126.772 121.443C125.031 121.124 123.007 120.164 123.007 118.104C123.007 116.044 124.96 114.41 126.559 113.274Z" fill="url(#paint3_radial_15_2723)"/>
<g style="mix-blend-mode:multiply">
<path d="M126.559 113.273C129.605 110.975 132.797 108.875 136.114 106.986C136.341 103.042 136.888 99.1215 137.748 95.2648C137.841 94.7116 138.063 94.1883 138.398 93.7377C138.732 93.2872 139.168 92.9222 139.671 92.6727C140.173 92.4232 140.727 92.2963 141.288 92.3023C141.849 92.3083 142.401 92.4471 142.898 92.7073C145.279 94.3085 147.3 96.3894 148.83 98.8168C149.812 100.181 150.668 101.631 151.387 103.15H151.778C155.09 102.955 158.411 102.955 161.724 103.15C164.245 103.47 167.087 103.434 167.549 106.169C167.518 108.063 166.754 109.871 165.418 111.213C163.713 113.38 162.256 115.156 160.409 117.216C162.049 119.917 163.497 122.73 164.743 125.634C165.311 127.126 166.412 130.643 164.743 131.886C163.837 132.246 162.866 132.41 161.892 132.367C160.919 132.325 159.965 132.076 159.095 131.637C155.681 130.431 152.368 128.958 149.185 127.233C147.196 129.648 144.674 132.135 141.761 135.012C140.376 136.326 137.25 139.239 135.368 137.818C133.485 136.397 133.84 134.053 133.805 132.312C133.805 129.08 133.805 125.741 134.16 122.473C131.709 122.224 129.223 121.905 126.772 121.443C125.031 121.123 123.007 120.164 123.007 118.104C123.007 116.044 124.96 114.41 126.559 113.273ZM125.635 119.028C126.649 119.503 127.748 119.769 128.868 119.809C130.999 120.093 133.13 120.377 135.261 120.591C135.439 120.608 135.61 120.67 135.758 120.77C135.905 120.871 136.026 121.007 136.107 121.166C136.188 121.325 136.228 121.503 136.223 121.681C136.218 121.86 136.168 122.035 136.078 122.189C136.078 124.675 136.078 127.197 135.794 129.719C135.53 131.473 135.53 133.257 135.794 135.012C136.504 138.28 140.483 133.662 141.477 132.632C143.821 130.252 145.704 128.547 147.835 125.954C148.332 125.457 148.723 125.244 148.936 125.315C150.854 126.274 155.508 128.405 156.786 128.867C158.477 129.694 160.251 130.337 162.079 130.785C165.631 131.566 162.754 125.848 162.079 124.604C161.049 122.331 159.699 120.2 158.527 117.962C158.136 117.181 157.781 116.896 158.243 116.293C160.495 113.793 162.594 111.16 164.53 108.407C165.133 107.448 165.489 105.814 164.21 105.246C160.368 104.663 156.477 104.461 152.595 104.642C151.885 104.81 151.158 104.893 150.428 104.891C149.262 102.797 147.981 100.77 146.592 98.8168C145.846 97.7867 142.756 92.8494 140.554 93.9861C139.168 94.6965 138.849 97.5381 138.671 99.0299C138.316 102.014 138.138 104.784 137.925 107.874C137.925 108.159 136.824 108.656 135.439 109.508C132.22 111.291 129.175 113.372 126.346 115.724C125.671 116.222 124.214 118.033 125.635 119.028Z" fill="#D47F02"/>
</g>
<path d="M165.062 106.844C165.062 106.844 165.488 106.063 162.824 105.814C159.707 105.574 156.573 105.693 153.483 106.169L150.57 106.525C149.469 104.571 148.474 102.333 148.474 102.333L150.57 105.317C154.296 105.099 158.032 105.099 161.759 105.317C164.032 105.175 165.559 105.921 165.062 106.844Z" fill="#FFF6E6"/>
<path d="M148.154 102.049C148.154 102.049 145.348 96.7568 142.151 98.1421C138.955 99.5273 138.599 104.287 138.599 107.235C138.884 104.5 138.599 103.683 139.203 98.1421C139.807 92.6009 142.08 93.1693 144.78 96.6147C146.111 98.2899 147.243 100.114 148.154 102.049Z" fill="#FFF6E6"/>
<path d="M138.742 105.282C138.742 105.282 138.742 107.981 138.742 109.437C134.755 111.329 130.887 113.464 127.163 115.831C125.671 117.323 125.422 118.246 125.848 118.921C125.848 118.921 124.428 118.175 126.523 115.866C130.289 112.902 134.293 110.253 138.494 107.946L138.742 105.282Z" fill="#FFF6E6"/>
<path d="M161.937 111.782C160.263 113.557 158.419 115.163 156.431 116.577C156.431 116.577 163.961 127.233 163.535 130.075C163.535 130.075 164.352 128.902 162.363 125.244C160.374 121.585 157.887 116.577 157.887 116.577C157.887 116.577 160.693 113.416 161.937 111.782Z" fill="#FFF6E6"/>
<g style="mix-blend-mode:multiply" opacity="0.6">
<path d="M292.543 52.5343C294.868 50.73 297.326 49.1033 299.896 47.6681C300.53 43.3507 301.492 39.0879 302.773 34.9164C303.519 32.6431 306.325 30.4053 308.563 31.5775C310.915 33.3125 312.886 35.513 314.352 38.0421C315.303 39.4447 316.146 40.917 316.874 42.4466H317.229C320.471 42.2513 323.721 42.2513 326.962 42.4466C329.448 42.7663 332.254 42.7308 332.681 45.5369C332.156 50.2754 330.212 54.7449 327.104 58.3596C328.485 60.5246 329.674 62.8067 330.656 65.1794C331.082 66.0226 331.265 66.9679 331.183 67.9091C331.102 68.8503 330.759 69.7502 330.194 70.5075C329.164 71.8927 325.293 71.8572 323.09 71.2178C318.153 69.6905 316.199 69.3353 314.636 68.7314C312.143 71.079 309.51 73.2734 306.751 75.3027C303.199 77.5759 301.849 77.647 300.713 76.9366C298.546 75.6579 297.409 66.6713 297.622 63.3679C295.207 63.1193 289.24 61.9471 289.027 58.3241C289.202 57.1747 289.602 56.0714 290.206 55.0777C290.81 54.084 291.604 53.2196 292.543 52.5343Z" fill="#5DC1EE"/>
</g>
<path d="M294.461 50.9358C297.256 48.7897 300.173 46.8091 303.199 45.0039C303.413 41.273 303.936 37.5663 304.762 33.9217C304.891 33.4311 305.123 32.9738 305.443 32.5805C305.764 32.1872 306.164 31.8671 306.619 31.6416C307.073 31.4162 307.57 31.2906 308.077 31.2734C308.584 31.2562 309.089 31.3477 309.557 31.5418C311.824 33.1095 313.717 35.1595 315.098 37.5447C316.014 38.819 316.81 40.1745 317.478 41.594H317.833C320.921 41.4163 324.016 41.4163 327.104 41.594C329.484 41.8781 332.148 41.8781 332.574 44.4356C332.545 46.1975 331.832 47.879 330.585 49.1242C328.987 51.1489 327.637 52.6762 325.896 54.7364C327.441 57.2478 328.795 59.8718 329.946 62.5863C330.479 63.9716 331.509 67.275 329.946 68.4116C328.383 69.5483 326.642 68.8023 324.689 68.1985C321.513 67.0267 318.436 65.6013 315.489 63.9361C313.246 66.4261 310.875 68.7973 308.385 71.0401C307.071 72.2833 304.158 75.0183 302.382 73.6686C300.606 72.3188 300.961 70.1166 300.961 68.5182C300.961 65.499 300.961 62.3732 301.281 59.354C299.008 59.0698 296.663 58.7857 294.355 58.3594C292.756 58.0753 290.803 57.1873 290.803 55.2692C290.803 53.3511 293.111 52.0014 294.461 50.9358Z" fill="url(#paint4_linear_15_2723)"/>
<path style="mix-blend-mode:multiply" d="M294.461 50.9359L295.669 50.0479C293.929 51.8594 293.573 53.5999 294.355 55.0207C295.136 56.4415 299.114 57.365 301.459 57.5426C304.371 57.7558 302.56 60.3132 303.697 62.9772C305.934 68.2342 312.292 65.4281 314.353 62.3023C315.702 60.2422 320.959 64.398 324.156 60.775C324.632 60.1585 324.955 59.4375 325.097 58.6715C325.239 57.9055 325.197 57.1167 324.973 56.3705C323.943 53.4223 325.577 52.8185 327.069 50.9004C329.378 47.7391 330.905 43.3346 327.069 43.1925C324.118 43.1104 321.165 43.1934 318.224 43.4412C316.661 43.4412 316.093 40.5996 313.855 37.0831C313.322 36.2306 311.582 33.5311 311.12 32.501C312.699 34.0129 314.094 35.7059 315.276 37.5449C316.191 38.8192 316.988 40.1746 317.656 41.5941H318.011C321.099 41.4165 324.194 41.4165 327.282 41.5941C329.662 41.8783 332.326 41.8783 332.752 44.4357C332.723 46.1976 332.01 47.8791 330.763 49.1244C329.164 51.149 327.815 52.6764 326.074 54.7365C327.619 57.2479 328.972 59.872 330.123 62.5865C330.656 63.9718 331.686 67.2751 330.123 68.4118C328.561 69.5484 326.82 68.8025 324.867 68.1986C321.691 67.0268 318.614 65.6014 315.667 63.9362C313.424 66.4262 311.053 68.7975 308.563 71.0402C307.249 72.2834 304.336 75.0185 302.56 73.6687C300.784 72.319 301.139 70.1167 301.139 68.5183C301.139 65.4991 301.139 62.3734 301.459 59.3542C299.185 59.07 296.841 58.7858 294.532 58.3596C292.934 58.0754 290.98 57.1874 290.98 55.2694C290.98 53.3513 293.112 52.0015 294.461 50.9359Z" fill="url(#paint5_radial_15_2723)"/>
<g style="mix-blend-mode:multiply">
<path d="M294.461 50.9358C297.256 48.7897 300.173 46.8091 303.199 45.0039C303.413 41.273 303.936 37.5663 304.762 33.9217C304.891 33.4311 305.123 32.9738 305.443 32.5805C305.764 32.1872 306.164 31.8671 306.619 31.6416C307.073 31.4162 307.57 31.2906 308.077 31.2734C308.584 31.2562 309.089 31.3477 309.557 31.5418C311.824 33.1095 313.717 35.1595 315.098 37.5447C316.014 38.819 316.81 40.1745 317.478 41.594H317.833C320.921 41.4163 324.016 41.4163 327.104 41.594C329.484 41.8781 332.148 41.8781 332.574 44.4356C332.545 46.1975 331.832 47.879 330.585 49.1242C328.987 51.1489 327.637 52.6762 325.896 54.7364C327.441 57.2478 328.795 59.8718 329.946 62.5863C330.479 63.9716 331.509 67.275 329.946 68.4116C328.383 69.5483 326.642 68.8023 324.689 68.1985C321.513 67.0267 318.436 65.6013 315.489 63.9361C313.246 66.4261 310.875 68.7973 308.385 71.0401C307.071 72.2833 304.158 75.0183 302.382 73.6686C300.606 72.3188 300.961 70.1166 300.961 68.5182C300.961 65.499 300.961 62.3732 301.281 59.354C299.008 59.0698 296.663 58.7857 294.355 58.3594C292.756 58.0753 290.803 57.1873 290.803 55.2692C290.803 53.3511 293.111 52.0014 294.461 50.9358ZM293.609 56.2993C294.551 56.7556 295.581 56.9982 296.628 57.0097C298.617 57.2938 300.606 57.5425 302.595 57.7201C302.759 57.7417 302.915 57.8023 303.05 57.8969C303.186 57.9914 303.296 58.1171 303.373 58.2633C303.45 58.4096 303.49 58.5721 303.491 58.7372C303.491 58.9023 303.452 59.0651 303.377 59.2119C303.199 61.5563 303.377 63.9006 303.093 66.3159C302.863 67.9537 302.863 69.6155 303.093 71.2532C303.767 74.3079 307.462 70.01 308.385 69.0155C310.587 66.8132 312.328 65.2148 314.352 62.7995C314.779 62.3377 315.169 62.1246 315.347 62.1956C317.123 63.0836 321.527 65.0727 322.7 65.7476C324.278 66.5121 325.933 67.1074 327.637 67.5236C330.94 68.2695 328.276 62.906 327.637 61.7339C326.642 59.6026 325.399 57.649 324.369 55.5534C324.014 54.8074 323.659 54.5588 324.12 53.9905C326.222 51.649 328.179 49.1817 329.981 46.6023C330.55 45.7143 330.869 44.187 329.697 43.6542C326.102 43.1024 322.461 42.912 318.828 43.0858C317.585 43.2634 316.874 43.441 316.803 43.2989C315.632 41.2579 314.339 39.2889 312.932 37.4026C312.221 36.4436 309.38 31.826 307.284 32.9271C306.005 33.5665 305.721 36.4791 305.543 37.6157C305.224 40.4218 305.046 42.9793 304.833 45.8564C304.833 46.1406 303.803 46.6378 302.524 47.4193C299.504 49.0717 296.649 51.0105 293.999 53.209C293.609 53.6708 292.294 55.3402 293.609 56.2993Z" fill="#D47F02"/>
</g>
<path d="M330.444 44.8975C330.444 44.8975 330.835 44.1516 328.348 43.9384C325.433 43.7251 322.503 43.8323 319.611 44.2581L316.875 44.6133C315.881 42.8018 314.922 40.7061 314.922 40.7061L316.875 43.4767C320.425 43.2707 323.982 43.2707 327.532 43.4767C329.379 43.3701 330.906 44.116 330.444 44.8975Z" fill="#FFF6E6"/>
<path d="M314.637 40.4219C314.637 40.4219 312.008 35.4846 309.06 36.8699C306.112 38.2552 305.863 42.5886 305.508 45.3237C305.757 42.7662 305.508 41.7717 306.041 36.8699C306.574 31.9681 308.74 32.2168 311.262 35.4491C312.571 36.9741 313.703 38.6423 314.637 40.4219Z" fill="#FFF6E6"/>
<path d="M305.863 43.441C305.863 43.441 305.863 45.9985 305.863 47.3482C302.195 49.1215 298.636 51.1142 295.207 53.3156C293.822 54.6654 293.609 55.5534 294 56.1572C294 56.1572 292.65 55.4823 294.603 53.3156C298.129 50.5566 301.87 48.0859 305.792 45.9274L305.863 43.441Z" fill="#FFF6E6"/>
<path d="M327.531 49.515C325.959 51.1552 324.234 52.642 322.38 53.955C322.38 53.955 329.484 63.8651 329.058 66.5646C329.058 66.5646 329.839 65.4635 327.957 62.0536L323.73 54.0616C323.73 54.0616 326.358 51.0424 327.531 49.515Z" fill="#FFF6E6"/>
<path d="M400.95 99.101C396.269 95.6812 392.848 90.8116 391.218 85.2482C388.584 76.081 387.823 66.4773 388.98 57.0098L389.3 54.6299L358.22 66.245V67.1685C357.89 71.4847 358.323 75.8252 359.498 79.9912C359.945 81.7467 360.831 83.3594 362.074 84.677C363.317 85.9946 364.876 86.9736 366.602 87.5215L367.277 84.7154C366.01 84.2948 364.873 83.5538 363.977 82.5642C363.081 81.5746 362.456 80.3702 362.162 79.0677C361.186 75.6045 360.778 72.0056 360.955 68.4117L385.819 59.1054C384.94 68.2478 385.832 77.4739 388.447 86.2783C390.211 92.4279 393.957 97.8224 399.103 101.623L400.702 99.2076L400.95 99.101Z" fill="#89A83D"/>
<path d="M397.186 99.8824C398.397 102.488 400.531 104.551 403.176 105.675C405.82 106.799 408.787 106.902 411.503 105.966C414.22 105.03 416.492 103.12 417.883 100.605C419.273 98.0909 419.682 95.1505 419.031 92.3521C417.804 89.7932 415.682 87.772 413.067 86.6701C410.452 85.5682 407.524 85.4618 404.836 86.371C402.148 87.2802 399.885 89.142 398.476 91.6051C397.067 94.0682 396.608 96.962 397.186 99.7403V99.8824Z" fill="#A5CD3A"/>
<path d="M420.415 92.0681C419.206 89.0377 416.844 86.6106 413.848 85.3188C410.851 84.0271 407.465 83.9762 404.431 85.1772C401.285 86.0564 398.615 88.1453 397.004 90.9873C395.394 93.8293 394.973 97.1933 395.835 100.344C397.06 103.371 399.429 105.793 402.429 107.083C405.428 108.373 408.815 108.428 411.855 107.235C415 106.357 417.668 104.266 419.273 101.422C420.878 98.5787 421.289 95.2144 420.415 92.0681ZM417.716 92.9916C418.312 95.4114 417.935 97.9684 416.667 100.114C415.398 102.259 413.339 103.821 410.931 104.465C408.622 105.426 406.026 105.44 403.706 104.503C401.386 103.566 399.528 101.753 398.535 99.4562C397.938 97.0319 398.314 94.4701 399.582 92.3193C400.85 90.1684 402.909 88.5993 405.319 87.9477C407.635 87.0106 410.225 87.0175 412.536 87.9669C414.846 88.9163 416.693 90.7327 417.68 93.0271L417.716 92.9916Z" fill="#89A83D"/>
<path d="M402.051 96.7922C402.353 98.2833 403.101 99.6474 404.197 100.703C405.293 101.758 406.684 102.456 408.185 102.702C409.687 102.948 411.227 102.731 412.602 102.08C413.978 101.429 415.122 100.375 415.884 99.0585C416.646 97.7415 416.989 96.2239 416.868 94.7073C416.746 93.1908 416.166 91.7471 415.205 90.5681C414.243 89.3892 412.945 88.5308 411.484 88.1072C410.023 87.6835 408.467 87.7146 407.024 88.1963C405.236 88.6956 403.715 89.8746 402.786 91.481C401.857 93.0874 401.593 94.9937 402.051 96.7922Z" fill="#D2D926"/>
<path d="M365.644 85.2481C366.006 87.0518 366.909 88.7024 368.233 89.9803C369.556 91.2582 371.237 92.1029 373.052 92.4018C374.868 92.7008 376.731 92.4399 378.394 91.6539C380.058 90.8679 381.442 89.594 382.364 88.0018C383.285 86.4095 383.7 84.5744 383.553 82.7406C383.406 80.9068 382.704 79.1612 381.54 77.7362C380.377 76.3111 378.807 75.2742 377.04 74.7633C375.272 74.2524 373.391 74.2918 371.647 74.8762C369.478 75.4592 367.628 76.8781 366.503 78.8221C365.378 80.7661 365.069 83.0768 365.644 85.2481Z" fill="#A5CD3A"/>
<path d="M384.079 79.1388C383.084 76.7102 381.176 74.769 378.765 73.7328C376.354 72.6965 373.632 72.648 371.185 73.5977C368.66 74.3185 366.521 76.0053 365.231 78.2925C363.941 80.5796 363.605 83.283 364.294 85.8166C365.274 88.2574 367.181 90.2107 369.597 91.2492C372.014 92.2876 374.743 92.3267 377.188 91.3577C379.718 90.6451 381.864 88.9597 383.155 86.6701C384.446 84.3805 384.778 81.6728 384.079 79.1388ZM381.344 80.0624C381.59 80.9697 381.654 81.9169 381.531 82.8489C381.408 83.781 381.102 84.6795 380.629 85.4923C380.157 86.3051 379.528 87.016 378.779 87.5838C378.029 88.1517 377.175 88.5651 376.265 88.8003C374.534 89.4703 372.61 89.4366 370.904 88.7064C369.198 87.9763 367.846 86.6076 367.136 84.8931C366.692 83.0853 366.976 81.1755 367.926 79.5746C368.876 77.9737 370.416 76.8096 372.215 76.3328C373.936 75.6193 375.869 75.6105 377.596 76.3081C379.323 77.0057 380.708 78.3539 381.451 80.0624H381.344Z" fill="#89A83D"/>
<path d="M370.367 82.4065C370.57 83.4269 371.078 84.3619 371.822 85.0885C372.567 85.815 373.514 86.299 374.539 86.4767C375.564 86.6544 376.619 86.5174 377.565 86.0839C378.511 85.6503 379.303 84.9405 379.838 84.0479C380.372 83.1553 380.624 82.1217 380.559 81.0833C380.495 80.0449 380.118 79.0503 379.477 78.2306C378.837 77.4108 377.963 76.8042 376.971 76.4908C375.978 76.1774 374.915 76.1717 373.919 76.4746C373.293 76.6239 372.702 76.8969 372.183 77.2778C371.663 77.6586 371.225 78.1395 370.894 78.6923C370.563 79.245 370.346 79.8583 370.255 80.4962C370.165 81.1341 370.203 81.7836 370.367 82.4065Z" fill="#D2D926"/>
<path d="M406.208 93.4889C406.652 94.4362 407.429 95.1869 408.392 95.5982C409.354 96.0094 410.434 96.0523 411.425 95.7188C412.417 95.3853 413.252 94.6986 413.77 93.7896C414.288 92.8805 414.454 91.8127 414.235 90.7893C413.791 89.842 413.014 89.0913 412.051 88.6801C411.089 88.2688 410.009 88.2259 409.018 88.5594C408.026 88.8929 407.191 89.5796 406.673 90.4886C406.155 91.3977 405.989 92.4655 406.208 93.4889Z" fill="#E6E01C"/>
<path d="M372.747 80.2044C373.063 80.858 373.607 81.3739 374.276 81.6555C374.945 81.9372 375.694 81.9652 376.382 81.7343C377.071 81.5034 377.651 81.0295 378.015 80.4013C378.379 79.7731 378.501 79.0338 378.359 78.3218C378.043 77.6682 377.5 77.1523 376.831 76.8706C376.161 76.589 375.413 76.561 374.724 76.7919C374.036 77.0228 373.456 77.4967 373.092 78.1249C372.728 78.7531 372.605 79.4924 372.747 80.2044Z" fill="#E6E01C"/>
<path d="M185.38 229.85L169.254 180.371L184.741 177.423L192.875 205.235L194.615 204.738L186.019 175.292L166.874 178.986L183.675 230.419L185.38 229.85Z" fill="#BC2B28"/>
<path d="M188.008 184.171L187.546 182.431L171.065 186.587L171.491 188.327L188.008 184.171Z" fill="#BC2B28"/>
<path d="M193.193 207.295C193.311 209.41 194.077 211.438 195.385 213.103C196.694 214.769 198.482 215.992 200.509 216.608C202.536 217.224 204.703 217.202 206.717 216.545C208.731 215.889 210.495 214.629 211.769 212.937C213.044 211.245 213.768 209.203 213.843 207.086C213.918 204.969 213.342 202.88 212.191 201.102C211.04 199.323 209.37 197.942 207.408 197.144C205.446 196.345 203.286 196.169 201.221 196.639C198.753 197.009 196.529 198.333 195.028 200.326C193.526 202.318 192.868 204.821 193.193 207.295Z" fill="#E6352E"/>
<path d="M213.76 202.571C212.926 199.968 211.105 197.797 208.688 196.522C206.27 195.247 203.45 194.97 200.831 195.751C198.184 196.246 195.832 197.747 194.269 199.939C192.706 202.132 192.053 204.845 192.448 207.508C193.274 210.116 195.094 212.294 197.514 213.57C199.934 214.846 202.758 215.119 205.377 214.328C208.02 213.825 210.367 212.322 211.928 210.132C213.49 207.941 214.146 205.233 213.76 202.571ZM211.984 202.997C212.241 205.198 211.638 207.413 210.301 209.18C208.964 210.947 206.997 212.13 204.809 212.481C202.675 213.118 200.377 212.909 198.393 211.897C196.409 210.885 194.891 209.148 194.153 207.046C193.888 204.811 194.504 202.559 195.869 200.769C197.235 198.979 199.244 197.791 201.47 197.456C203.609 196.821 205.91 197.035 207.895 198.054C209.88 199.073 211.395 200.818 212.126 202.926L211.984 202.997Z" fill="#BC2B28"/>
<path d="M183.32 230.419C183.438 232.534 184.203 234.561 185.512 236.227C186.821 237.893 188.609 239.116 190.636 239.732C192.663 240.347 194.83 240.325 196.844 239.669C198.858 239.012 200.621 237.753 201.896 236.061C203.171 234.369 203.895 232.326 203.97 230.209C204.045 228.093 203.469 226.004 202.318 224.225C201.167 222.447 199.497 221.065 197.535 220.267C195.573 219.469 193.413 219.293 191.348 219.763C188.88 220.132 186.656 221.456 185.155 223.449C183.653 225.442 182.995 227.945 183.32 230.419Z" fill="#E6352E"/>
<path d="M204.063 225.694C203.245 223.081 201.426 220.897 199.004 219.62C196.582 218.342 193.753 218.074 191.134 218.874C188.433 219.304 186.008 220.776 184.38 222.975C182.753 225.173 182.053 227.923 182.431 230.632C183.287 233.214 185.117 235.361 187.532 236.615C189.947 237.869 192.756 238.131 195.361 237.345C198.066 236.924 200.497 235.454 202.126 233.253C203.755 231.052 204.451 228.298 204.063 225.588V225.694ZM202.287 226.085C202.561 228.328 201.944 230.589 200.569 232.382C199.194 234.175 197.171 235.357 194.934 235.675C192.796 236.329 190.486 236.123 188.497 235.102C186.507 234.081 184.994 232.324 184.278 230.205C184.004 227.977 184.612 225.73 185.973 223.945C187.334 222.159 189.339 220.977 191.56 220.65C193.694 220.004 195.996 220.209 197.982 221.223C199.969 222.236 201.486 223.978 202.216 226.085H202.287Z" fill="#BC2B28"/>
<path d="M196.391 205.697C196.48 207.273 197.051 208.783 198.027 210.024C199.003 211.265 200.336 212.177 201.846 212.635C203.357 213.094 204.972 213.078 206.473 212.589C207.974 212.1 209.288 211.162 210.239 209.902C211.19 208.642 211.731 207.12 211.789 205.543C211.847 203.965 211.419 202.408 210.563 201.082C209.707 199.755 208.465 198.723 207.004 198.126C205.543 197.528 203.934 197.394 202.394 197.74C200.549 198.013 198.886 199.001 197.763 200.489C196.64 201.978 196.147 203.848 196.391 205.697Z" fill="#E77978"/>
<path d="M186.551 228.82C186.646 230.4 187.224 231.911 188.208 233.151C189.191 234.39 190.532 235.297 192.049 235.747C193.566 236.198 195.184 236.171 196.685 235.671C198.186 235.17 199.496 234.219 200.438 232.948C201.38 231.677 201.908 230.147 201.95 228.565C201.993 226.984 201.547 225.428 200.675 224.108C199.802 222.788 198.544 221.769 197.073 221.189C195.601 220.608 193.986 220.495 192.448 220.864C190.622 221.162 188.986 222.16 187.885 223.645C186.783 225.131 186.305 226.987 186.551 228.82Z" fill="#E77978"/>
<path d="M199.055 203.601C199.13 204.726 199.55 205.8 200.258 206.676C200.967 207.553 201.929 208.19 203.013 208.499C204.097 208.808 205.25 208.775 206.314 208.404C207.378 208.033 208.302 207.342 208.959 206.426C209.616 205.51 209.973 204.413 209.983 203.286C209.993 202.159 209.654 201.057 209.014 200.129C208.373 199.202 207.461 198.495 206.404 198.106C205.346 197.716 204.194 197.663 203.104 197.953C201.83 198.188 200.696 198.907 199.941 199.96C199.186 201.014 198.868 202.319 199.055 203.601Z" fill="#E7A8A8"/>
<path d="M188.896 226.689C189.094 227.312 189.413 227.89 189.834 228.39C190.255 228.889 190.771 229.301 191.352 229.601C191.932 229.902 192.566 230.084 193.218 230.139C193.869 230.194 194.525 230.12 195.148 229.921C195.963 229.587 196.666 229.026 197.173 228.305C197.68 227.584 197.97 226.733 198.008 225.852C198.047 224.972 197.833 224.098 197.391 223.336C196.95 222.573 196.299 221.952 195.516 221.547C194.733 221.143 193.851 220.97 192.973 221.051C192.095 221.132 191.259 221.462 190.563 222.002C189.866 222.543 189.34 223.272 189.044 224.102C188.749 224.933 188.698 225.83 188.896 226.689Z" fill="#E7A8A8"/>
<path d="M501.406 449.577C501.406 449.577 494.302 423.221 493.769 409.688C493.762 409.491 493.715 409.298 493.629 409.121C493.543 408.943 493.422 408.786 493.272 408.658C492.934 408.444 492.528 408.368 492.136 408.445L464.643 415.052C464.475 415.093 464.317 415.167 464.177 415.27C464.038 415.373 463.92 415.503 463.831 415.651C463.742 415.8 463.683 415.965 463.658 416.136C463.633 416.307 463.641 416.482 463.684 416.65C463.768 416.984 463.977 417.273 464.268 417.458C464.558 417.643 464.909 417.709 465.247 417.645L491.212 411.358C492.785 424.556 495.35 437.617 498.884 450.43C498.925 450.597 499 450.755 499.103 450.892C499.207 451.03 499.337 451.146 499.487 451.232C499.636 451.319 499.801 451.374 499.972 451.394C500.143 451.415 500.317 451.401 500.483 451.353C500.785 451.227 501.03 450.995 501.174 450.701C501.318 450.407 501.35 450.071 501.264 449.755L501.406 449.577Z" fill="#EBAD20"/>
<path d="M496.682 427.164C496.606 426.826 496.408 426.527 496.127 426.324C495.846 426.121 495.5 426.028 495.155 426.063L473.843 429.402C473.67 429.427 473.504 429.488 473.356 429.579C473.208 429.671 473.08 429.792 472.98 429.935C472.88 430.078 472.811 430.24 472.776 430.411C472.741 430.582 472.741 430.758 472.777 430.929C472.83 431.273 473.016 431.581 473.296 431.788C473.575 431.994 473.925 432.081 474.269 432.03L495.581 428.478C495.661 428.508 495.749 428.508 495.829 428.478C496.117 428.381 496.361 428.185 496.517 427.925C496.673 427.664 496.732 427.357 496.682 427.057V427.164Z" fill="#EBAD20"/>
<path d="M499.843 453.662C500.808 455.661 502.333 457.337 504.233 458.484C506.133 459.632 508.325 460.202 510.544 460.124C512.762 460.047 514.91 459.326 516.725 458.049C518.541 456.772 519.946 454.995 520.768 452.933C521.591 450.872 521.796 448.615 521.359 446.439C520.921 444.263 519.86 442.262 518.304 440.678C516.749 439.095 514.766 437.998 512.598 437.522C510.43 437.046 508.171 437.212 506.095 437.998C503.19 439.248 500.901 441.599 499.728 444.536C498.556 447.473 498.598 450.756 499.843 453.662Z" fill="#F4C621"/>
<path d="M522.399 445.137C521.849 443.49 520.98 441.967 519.842 440.656C518.704 439.345 517.318 438.271 515.764 437.496C514.21 436.721 512.519 436.259 510.787 436.138C509.055 436.017 507.316 436.239 505.669 436.79C502.429 438.147 499.86 440.735 498.528 443.986C497.196 447.236 497.209 450.883 498.565 454.124C499.114 455.77 499.983 457.292 501.122 458.602C502.262 459.912 503.648 460.984 505.203 461.756C506.757 462.528 508.449 462.986 510.181 463.103C511.913 463.219 513.651 462.992 515.295 462.435C516.898 461.767 518.354 460.789 519.579 459.558C520.803 458.326 521.773 456.866 522.433 455.259C523.093 453.652 523.43 451.932 523.424 450.195C523.418 448.458 523.07 446.739 522.399 445.137ZM519.913 446.061C521.023 448.639 521.072 451.551 520.048 454.165C519.024 456.779 517.009 458.883 514.443 460.02C511.762 460.871 508.854 460.628 506.353 459.343C503.851 458.059 501.958 455.838 501.087 453.165C499.989 450.586 499.952 447.679 500.982 445.073C502.013 442.467 504.028 440.371 506.593 439.241C509.264 438.399 512.158 438.643 514.651 439.919C517.144 441.195 519.034 443.402 519.913 446.061Z" fill="#EBAD20"/>
<path d="M503.36 450.927C504.051 452.363 505.144 453.567 506.508 454.391C507.871 455.216 509.445 455.626 511.037 455.571C512.63 455.516 514.171 454.999 515.475 454.083C516.778 453.166 517.786 451.89 518.376 450.41C518.967 448.93 519.113 447.31 518.798 445.748C518.483 444.186 517.72 442.75 516.602 441.615C515.484 440.479 514.06 439.694 512.503 439.354C510.947 439.015 509.325 439.136 507.836 439.703C506.803 440.144 505.868 440.784 505.084 441.588C504.299 442.391 503.682 443.342 503.266 444.385C502.85 445.428 502.644 446.543 502.66 447.665C502.677 448.788 502.914 449.896 503.36 450.927Z" fill="#F4DB08"/>
<path d="M505.775 448.334C506.28 449.385 507.08 450.267 508.077 450.871C509.075 451.475 510.227 451.775 511.392 451.735C512.558 451.695 513.687 451.317 514.64 450.646C515.594 449.975 516.332 449.041 516.763 447.957C517.195 446.874 517.301 445.688 517.07 444.545C516.839 443.402 516.279 442.351 515.461 441.521C514.642 440.69 513.599 440.117 512.459 439.87C511.319 439.622 510.132 439.712 509.043 440.129C507.523 440.785 506.325 442.017 505.712 443.556C505.099 445.094 505.122 446.812 505.775 448.334Z" fill="#F4E400"/>
<path d="M476.04 181.969L474.726 182.111L477.603 207.97L478.917 207.828L476.04 181.969Z" fill="#C91E7C"/>
<path d="M477.247 210.918C477.682 212.091 478.444 213.115 479.443 213.869C480.442 214.622 481.636 215.072 482.884 215.166C484.132 215.261 485.38 214.995 486.481 214.4C487.582 213.806 488.489 212.908 489.095 211.813C489.701 210.718 489.98 209.473 489.898 208.224C489.817 206.976 489.379 205.777 488.636 204.77C487.893 203.763 486.877 202.99 485.709 202.544C484.54 202.097 483.267 201.996 482.042 202.251C480.272 202.787 478.781 203.993 477.885 205.611C476.99 207.229 476.761 209.133 477.247 210.918Z" fill="#E32888"/>
<path d="M490.71 208.041C490.402 206.044 489.32 204.249 487.697 203.045C486.075 201.842 484.043 201.326 482.043 201.612C480.09 202.166 478.437 203.472 477.445 205.243C476.453 207.014 476.203 209.106 476.75 211.06C477.066 213.06 478.155 214.855 479.784 216.058C481.412 217.261 483.448 217.775 485.453 217.489C487.399 216.927 489.043 215.619 490.028 213.849C491.013 212.078 491.258 209.991 490.71 208.041ZM489.395 208.325C489.862 209.931 489.681 211.656 488.891 213.13C488.101 214.604 486.764 215.71 485.168 216.211C483.509 216.413 481.836 215.958 480.508 214.942C479.18 213.926 478.303 212.431 478.064 210.776C477.599 209.175 477.781 207.454 478.571 205.986C479.362 204.518 480.698 203.419 482.291 202.926C483.947 202.713 485.62 203.16 486.949 204.17C488.279 205.18 489.157 206.673 489.395 208.325Z" fill="#C91E7C"/>
<path d="M479.45 209.995C479.499 210.7 479.7 211.387 480.038 212.009C480.376 212.631 480.844 213.172 481.41 213.597C481.975 214.022 482.626 214.321 483.317 214.473C484.008 214.624 484.724 214.625 485.416 214.476C486.108 214.327 486.759 214.031 487.326 213.608C487.894 213.185 488.364 212.645 488.704 212.025C489.044 211.404 489.247 210.718 489.299 210.012C489.351 209.307 489.251 208.598 489.005 207.934C488.955 207.228 488.755 206.541 488.417 205.92C488.079 205.298 487.611 204.756 487.045 204.331C486.479 203.906 485.829 203.608 485.138 203.456C484.446 203.305 483.731 203.303 483.039 203.453C482.347 203.602 481.696 203.898 481.128 204.321C480.561 204.744 480.091 205.284 479.751 205.904C479.411 206.525 479.208 207.211 479.156 207.917C479.104 208.622 479.204 209.331 479.45 209.995Z" fill="#E56FA1"/>
<path d="M481.759 208.822C481.982 209.472 482.39 210.042 482.931 210.465C483.472 210.887 484.124 211.144 484.808 211.204C485.492 211.263 486.179 211.124 486.785 210.801C487.392 210.478 487.891 209.987 488.224 209.386C488.557 208.785 488.708 208.101 488.66 207.416C488.612 206.731 488.366 206.075 487.953 205.526C487.539 204.978 486.976 204.561 486.33 204.327C485.685 204.092 484.985 204.05 484.316 204.205C483.845 204.34 483.405 204.566 483.021 204.871C482.637 205.177 482.318 205.554 482.08 205.983C481.842 206.412 481.692 206.884 481.637 207.371C481.582 207.858 481.623 208.351 481.759 208.822Z" fill="#EB9FBF"/>
<path d="M476.111 181.152C472.154 182.865 467.831 183.561 463.537 183.177C460.375 183.177 462.436 192.625 467.089 193.407C471.387 193.584 475.933 192.838 476.359 190.743L476.111 181.152Z" fill="#E32888"/>
<path d="M477.033 190.956L476.749 181.294V180.335L475.897 180.726L474.263 181.33C472.986 181.783 471.681 182.151 470.356 182.431C468.182 182.964 465.924 183.061 463.713 182.715C463.573 182.681 463.427 182.681 463.287 182.715C461.405 183.284 461.333 185.521 461.76 187.617C461.958 189.121 462.576 190.539 463.543 191.708C464.511 192.877 465.789 193.749 467.23 194.224C469.205 194.322 471.185 194.179 473.126 193.797C475.08 193.371 476.678 192.625 477.211 191.027L477.033 190.956ZM472.629 192.448C470.828 192.801 468.991 192.933 467.159 192.838C465.099 192.519 463.358 189.784 462.861 187.262C462.689 186.454 462.689 185.619 462.861 184.811C462.861 184.172 463.252 183.958 463.465 183.923C465.827 184.322 468.246 184.225 470.569 183.639C472.221 183.274 473.846 182.799 475.435 182.218L475.684 190.814C475.684 191.418 474.405 192.128 472.593 192.483L472.629 192.448Z" fill="#C91E7C"/>
<path d="M408.592 350.654L407.277 350.796L410.154 376.654L411.469 376.512L408.592 350.654Z" fill="#C91E7C"/>
<path d="M409.942 379.603C410.378 380.777 411.142 381.801 412.144 382.553C413.145 383.305 414.341 383.753 415.59 383.845C416.839 383.937 418.088 383.668 419.189 383.07C420.289 382.472 421.195 381.571 421.797 380.473C422.4 379.375 422.675 378.127 422.589 376.878C422.503 375.629 422.06 374.43 421.312 373.426C420.565 372.421 419.544 371.652 418.372 371.211C417.201 370.769 415.926 370.674 414.702 370.936C412.938 371.479 411.455 372.688 410.567 374.305C409.678 375.923 409.454 377.823 409.942 379.603Z" fill="#E32888"/>
<path d="M423.262 376.726C422.955 374.729 421.873 372.933 420.25 371.73C418.628 370.526 416.596 370.011 414.596 370.296C413.614 370.563 412.696 371.022 411.894 371.646C411.092 372.271 410.422 373.048 409.923 373.934C409.424 374.82 409.106 375.796 408.987 376.806C408.868 377.815 408.952 378.839 409.232 379.816C409.548 381.816 410.637 383.611 412.266 384.814C413.894 386.017 415.93 386.531 417.934 386.245C419.87 385.667 421.503 384.355 422.485 382.59C423.467 380.825 423.721 378.746 423.191 376.797L423.262 376.726ZM421.948 377.01C422.415 378.616 422.234 380.341 421.444 381.815C420.654 383.289 419.317 384.395 417.721 384.895C416.062 385.098 414.389 384.643 413.061 383.627C411.733 382.611 410.856 381.115 410.617 379.461C410.152 377.859 410.334 376.139 411.124 374.671C411.915 373.202 413.251 372.103 414.844 371.611C416.502 371.388 418.18 371.831 419.511 372.843C420.843 373.855 421.719 375.353 421.948 377.01Z" fill="#C91E7C"/>
<path d="M412.003 378.679C412.197 380.059 412.93 381.306 414.043 382.145C415.155 382.984 416.555 383.347 417.935 383.155C419.091 383.078 420.197 382.65 421.103 381.927C422.01 381.204 422.673 380.221 423.005 379.11C423.336 377.999 423.32 376.813 422.959 375.712C422.597 374.61 421.907 373.646 420.982 372.947C420.056 372.249 418.94 371.851 417.781 371.805C416.623 371.76 415.478 372.07 414.501 372.694C413.524 373.318 412.761 374.225 412.314 375.295C411.868 376.365 411.759 377.546 412.003 378.679Z" fill="#E56FA1"/>
<path d="M414.311 377.507C414.535 378.156 414.942 378.727 415.484 379.15C416.025 379.572 416.677 379.829 417.361 379.889C418.045 379.948 418.732 379.808 419.338 379.486C419.944 379.163 420.444 378.672 420.777 378.071C421.11 377.47 421.261 376.786 421.213 376.101C421.165 375.416 420.919 374.759 420.506 374.211C420.092 373.663 419.528 373.246 418.883 373.012C418.238 372.777 417.538 372.735 416.869 372.89C416.384 373.002 415.928 373.215 415.531 373.514C415.134 373.814 414.804 374.194 414.562 374.629C414.321 375.064 414.174 375.546 414.131 376.041C414.088 376.537 414.149 377.037 414.311 377.507Z" fill="#EB9FBF"/>
<path d="M408.663 349.908C404.701 351.602 400.383 352.297 396.089 351.933C392.928 351.933 394.988 361.345 399.641 362.162C403.939 362.34 408.486 361.594 408.912 359.498L408.663 349.908Z" fill="#E32888"/>
<path d="M409.587 359.64L409.302 349.979V349.02L408.45 349.411L406.816 350.015C405.539 350.468 404.234 350.836 402.909 351.116C400.735 351.648 398.478 351.745 396.267 351.4H395.698C393.78 352.004 393.745 354.241 394.171 356.337C394.369 357.841 394.987 359.259 395.955 360.428C396.922 361.597 398.2 362.469 399.641 362.944C401.616 363.042 403.597 362.899 405.537 362.518C407.491 362.056 409.089 361.345 409.622 359.747L409.587 359.64ZM405.182 361.132C403.393 361.485 401.568 361.616 399.748 361.523C397.687 361.203 395.911 358.468 395.414 355.946C395.242 355.138 395.242 354.303 395.414 353.495C395.414 352.856 395.805 352.643 396.018 352.607C398.381 352.993 400.797 352.896 403.122 352.323C404.774 351.958 406.399 351.484 407.988 350.903L408.201 359.498C408.201 360.102 406.958 360.813 405.147 361.168L405.182 361.132Z" fill="#C91E7C"/>
<path d="M138.954 293.04L136.859 294.319L161.687 336.091L163.818 334.812L138.954 293.04Z" fill="#C91E7C"/>
<path d="M163.642 341.241C165.288 342.909 167.379 344.068 169.666 344.581C171.952 345.094 174.338 344.938 176.539 344.133C178.739 343.327 180.662 341.906 182.077 340.038C183.492 338.171 184.341 335.935 184.521 333.599C184.702 331.262 184.207 328.923 183.095 326.861C181.983 324.798 180.301 323.098 178.25 321.964C176.2 320.831 173.866 320.311 171.528 320.466C169.19 320.622 166.945 321.446 165.063 322.842C162.448 325.102 160.832 328.303 160.565 331.749C160.299 335.195 161.405 338.606 163.642 341.241Z" fill="#E32888"/>
<path d="M184.065 326.145C183.056 324.56 181.742 323.192 180.199 322.118C178.657 321.045 176.917 320.288 175.081 319.892C173.244 319.495 171.347 319.467 169.499 319.809C167.651 320.151 165.89 320.856 164.316 321.883C162.883 323.091 161.703 324.572 160.844 326.239C159.985 327.905 159.465 329.726 159.313 331.595C159.161 333.464 159.381 335.344 159.959 337.128C160.537 338.911 161.463 340.563 162.682 341.987C163.695 343.564 165.009 344.925 166.55 345.992C168.091 347.059 169.827 347.81 171.66 348.203C173.492 348.596 175.384 348.623 177.227 348.281C179.069 347.94 180.826 347.237 182.396 346.214C183.827 345.008 185.006 343.532 185.865 341.869C186.723 340.207 187.245 338.391 187.4 336.526C187.555 334.662 187.341 332.785 186.768 331.003C186.196 329.222 185.278 327.571 184.065 326.145ZM182.076 327.602C184.112 329.972 185.133 333.047 184.921 336.164C184.708 339.281 183.278 342.189 180.94 344.26C178.297 345.916 175.111 346.471 172.064 345.807C169.017 345.143 166.351 343.313 164.636 340.708C162.614 338.33 161.604 335.254 161.823 332.14C162.042 329.026 163.473 326.121 165.808 324.05C168.464 322.403 171.663 321.871 174.709 322.57C177.755 323.268 180.403 325.14 182.076 327.779V327.602Z" fill="#C91E7C"/>
<path d="M166.376 338.08C167.62 339.343 169.201 340.221 170.93 340.61C172.659 340.999 174.463 340.882 176.128 340.273C177.793 339.664 179.247 338.589 180.317 337.177C181.388 335.764 182.029 334.073 182.164 332.306C182.3 330.539 181.924 328.77 181.082 327.211C180.24 325.651 178.966 324.367 177.414 323.512C175.862 322.656 174.096 322.265 172.328 322.386C170.56 322.506 168.864 323.133 167.442 324.191C165.473 325.901 164.257 328.317 164.057 330.917C163.858 333.517 164.691 336.09 166.376 338.08Z" fill="#E56FA1"/>
<path d="M169.431 334.315C170.313 335.206 171.432 335.825 172.656 336.098C173.879 336.371 175.156 336.286 176.332 335.854C177.509 335.422 178.537 334.66 179.293 333.66C180.049 332.66 180.501 331.463 180.596 330.213C180.69 328.963 180.424 327.712 179.827 326.609C179.231 325.507 178.33 324.599 177.231 323.994C176.133 323.389 174.884 323.113 173.634 323.199C172.383 323.284 171.183 323.727 170.177 324.476C168.803 325.699 167.957 327.409 167.817 329.244C167.678 331.08 168.257 332.897 169.431 334.315Z" fill="#EB9FBF"/>
<path d="M138.458 291.726C138.458 291.726 128.335 302.808 118.673 304.904C113.31 307.319 124.072 321.812 132.597 319.574C140.056 316.555 147.231 311.759 146.343 307.817L138.458 291.726Z" fill="#E32888"/>
<path d="M147.55 307.533L139.629 291.335L138.528 291.868L139.629 291.335L138.812 289.737L137.604 291.051C137.604 291.051 136.752 291.975 135.331 293.325C133.492 295.063 131.559 296.7 129.541 298.226C126.248 300.822 122.467 302.731 118.423 303.839C118.167 303.946 117.928 304.09 117.713 304.265C114.942 306.68 116.576 310.552 118.921 313.82C122.117 318.047 127.623 322.167 133.306 320.746C136.654 319.399 139.817 317.633 142.719 315.489C145.738 313.216 148.083 310.694 147.514 307.568L147.55 307.533ZM141.263 313.5C138.488 315.5 135.468 317.136 132.276 318.366C128.547 319.467 123.432 316.093 120.626 312.257C119.681 311.041 118.981 309.654 118.565 308.172C118.317 306.964 118.565 306.431 118.921 306.183C123.256 304.999 127.304 302.944 130.82 300.144C133.322 298.244 135.696 296.179 137.924 293.964L145.028 308.385C145.241 309.522 143.891 311.617 141.121 313.607L141.263 313.5Z" fill="#C91E7C"/>
<path d="M443.362 252.903L443.042 253.116L443.646 252.654C449.471 247.397 444.498 239.902 444.498 239.902C444.498 239.902 449.613 247.504 456.184 242.815L456.54 242.531C456.54 242.531 456.54 242.531 456.327 242.531H456.575L456.184 242.851C450.004 248.143 455.119 255.744 455.119 255.744C455.119 255.744 450.04 248.321 443.61 252.69L443.113 253.116L443.362 252.903Z" fill="white"/>
<path d="M354.318 380.242L353.998 380.455L354.602 379.993C360.427 374.736 355.454 367.242 355.454 367.242C355.454 367.242 360.569 374.843 367.141 370.154L367.496 369.87L367.318 370.048L367.531 369.87L367.105 370.19C360.96 375.482 366.039 383.084 366.039 383.084C366.039 383.084 360.996 375.66 354.566 380.064L354.034 380.491L354.318 380.242Z" fill="white"/>
<path d="M415.91 428.336L415.59 428.585L416.194 428.123C422.019 422.866 417.082 415.371 417.082 415.371C417.082 415.371 422.161 422.973 428.732 418.284L429.088 418H429.301L428.875 418.32C422.73 423.612 427.844 431.213 427.844 431.213C427.844 431.213 422.765 423.79 416.371 428.159L415.803 428.585L415.91 428.336Z" fill="white"/>
<path d="M477.07 121.834L476.75 122.082L477.354 121.621C483.179 116.364 478.242 108.834 478.242 108.834C478.242 108.834 483.321 116.47 489.893 111.746L490.248 111.498H490.461L490.035 111.817C483.89 117.074 489.005 124.675 489.005 124.675C489.005 124.675 483.925 117.252 477.532 121.656L476.999 122.082L477.07 121.834Z" fill="white"/>
<path d="M334.919 59.1765L334.635 59.3896L335.204 58.9278C341.064 53.6709 336.092 46.1761 336.092 46.1761C336.092 46.1761 341.171 53.7774 347.742 49.0888L348.097 48.8046H348.311L347.884 49.1243C341.739 54.4168 346.854 62.0181 346.854 62.0181C346.854 62.0181 341.775 54.5944 335.381 58.9633L334.848 59.3896L334.919 59.1765Z" fill="white"/>
<path d="M346.143 134.266L345.823 134.479L346.427 134.017C352.252 128.76 347.28 121.266 347.28 121.266C347.28 121.266 352.395 128.867 358.93 124.178L359.321 123.894H359.143H359.356L358.93 124.214C352.785 129.506 357.9 137.107 357.9 137.107C357.9 137.107 352.821 129.684 346.392 134.053L345.859 134.443L346.143 134.266Z" fill="white"/>
<path d="M178.241 90.1854C178.12 90.2478 178.011 90.3321 177.921 90.4341L178.241 89.9368C184.066 84.7153 179.129 77.2206 179.129 77.2206C179.129 77.2206 184.208 84.8219 190.779 80.1333L191.134 79.8491H190.957H191.17L190.744 80.1688C184.599 85.4257 189.714 93.0626 189.714 93.0626C189.714 93.0626 184.634 85.6033 178.205 90.0078L177.672 90.3986L178.241 90.1854Z" fill="white"/>
<path d="M10.656 100.309L10.3364 100.522L10.9402 100.06C16.7655 94.8031 11.7927 87.3084 11.7927 87.3084C11.7927 87.3084 16.9076 94.9097 23.4433 90.221L23.834 89.9369C23.834 89.9369 23.834 89.9369 23.834 90.1145V89.9369L23.4077 90.2566C17.2983 95.549 22.3776 103.15 22.3776 103.15C22.3776 103.15 17.3338 95.7266 10.9047 100.096L10.3719 100.522L10.656 100.309Z" fill="white"/>
<path d="M448.233 346.889C448.118 346.947 448.011 347.019 447.913 347.102L448.517 346.64C454.342 341.383 449.369 333.888 449.369 333.888C449.369 333.888 454.52 341.454 461.056 336.801L461.411 336.517H461.233H461.446L461.02 336.837C454.875 342.094 459.99 349.695 459.99 349.695C459.99 349.695 454.911 342.271 448.481 346.676L447.984 347.102L448.233 346.889Z" fill="white"/>
<path d="M503.461 262.103L503.781 261.889C504.567 261.052 505.039 259.968 505.117 258.822C505.195 257.676 504.873 256.538 504.207 255.602C504.207 255.602 506.729 259.367 509.926 257.059V257.236C509.102 258.056 508.596 259.142 508.498 260.3C508.401 261.458 508.718 262.613 509.393 263.559C509.393 263.559 506.907 260.007 503.745 262.067L503.497 262.28L503.461 262.103Z" fill="white"/>
<path d="M113.131 360.742L113.415 360.529C114.202 359.691 114.674 358.607 114.751 357.461C114.829 356.315 114.508 355.177 113.842 354.242C113.842 354.242 116.364 358.007 119.56 355.698H119.773H119.56C118.735 356.518 118.231 357.607 118.14 358.767C118.049 359.927 118.376 361.081 119.063 362.02C119.063 362.02 116.577 358.468 113.415 360.529L113.131 360.742Z" fill="white"/>
<path d="M433.948 133.555L434.268 133.342C435.017 132.504 435.46 131.436 435.524 130.314C435.589 129.192 435.271 128.08 434.623 127.162C434.623 127.162 437.109 130.891 440.342 128.618H440.129C439.305 129.438 438.799 130.523 438.701 131.682C438.604 132.84 438.921 133.995 439.596 134.941C439.596 134.941 437.145 131.389 433.984 133.484L433.7 133.662L433.948 133.555Z" fill="white"/>
<path d="M514.543 191.311L514.863 191.062C515.638 190.217 516.099 189.132 516.17 187.988C516.241 186.844 515.918 185.71 515.254 184.775C515.254 184.775 517.775 188.541 521.008 186.232C520.177 187.048 519.667 188.134 519.569 189.294C519.471 190.454 519.793 191.611 520.475 192.554C520.475 192.554 517.989 189.002 514.827 191.062L514.579 191.276C514.579 191.276 514.508 191.311 514.543 191.311Z" fill="white"/>
<path d="M449.613 189.464L449.932 189.251C450.706 188.407 451.17 187.325 451.248 186.182C451.325 185.039 451.012 183.904 450.358 182.964C450.358 182.964 452.845 186.693 456.077 184.385V184.562C455.247 185.378 454.736 186.465 454.639 187.625C454.541 188.785 454.862 189.941 455.544 190.885C455.544 190.885 453.058 187.333 449.897 189.393L449.648 189.606L449.613 189.464Z" fill="white"/>
<path d="M414.768 210.669L415.052 210.421C415.836 209.589 416.306 208.511 416.384 207.371C416.462 206.231 416.142 205.1 415.479 204.169C415.479 204.169 418 207.899 421.197 205.59L420.984 205.768C420.164 206.581 419.657 207.657 419.553 208.807C419.449 209.958 419.755 211.108 420.416 212.055C420.416 212.055 417.965 208.503 414.804 210.563L414.519 210.776L414.768 210.669Z" fill="white"/>
<path d="M327.039 400.737L326.755 400.95L327.323 400.524C333.148 395.231 328.211 387.737 328.211 387.737C328.211 387.737 333.29 395.338 339.861 390.649L340.217 390.365H340.43L340.003 390.685C333.858 395.977 338.973 403.579 338.973 403.579C338.973 403.579 333.894 396.155 327.465 400.524L326.932 400.95L327.039 400.737Z" fill="white"/>
<path d="M463.039 79.3163L462.72 79.5294L463.324 79.0677C469.184 73.8462 464.176 66.3515 464.176 66.3515C464.176 66.3515 469.291 73.9528 475.862 69.2641L476.217 68.98H476.04H476.253L475.862 69.2641C469.682 74.5566 474.797 82.1934 474.797 82.1934C474.797 82.1934 469.717 74.7342 463.324 79.1387L462.791 79.5294L463.039 79.3163Z" fill="white"/>
<path d="M343.734 475.72L344.054 475.507C344.834 474.666 345.302 473.583 345.38 472.439C345.457 471.294 345.14 470.158 344.48 469.22C344.48 469.22 347.002 472.985 350.234 470.676H350.021C349.201 471.505 348.698 472.596 348.601 473.758C348.503 474.921 348.818 476.08 349.488 477.034C349.488 477.034 347.038 473.482 343.876 475.542L343.592 475.755C343.592 475.755 343.699 475.755 343.734 475.72Z" fill="white"/>
<path d="M471.565 419.314L471.849 419.101C472.632 418.269 473.103 417.191 473.181 416.051C473.258 414.911 472.938 413.78 472.275 412.849C472.275 412.849 474.797 416.401 478.029 414.27H477.816C477.009 415.102 476.521 416.192 476.437 417.348C476.352 418.504 476.677 419.652 477.354 420.593C477.354 420.593 474.832 417.041 471.671 419.101L471.423 419.314C471.423 419.314 471.529 419.314 471.565 419.314Z" fill="white"/>
<path d="M291.513 310.587L291.798 310.339C292.581 309.507 293.052 308.429 293.129 307.289C293.207 306.149 292.887 305.017 292.224 304.087C292.224 304.087 294.746 307.817 297.943 305.508H298.12H297.907C297.088 306.332 296.589 307.42 296.498 308.578C296.407 309.736 296.73 310.888 297.41 311.83C297.41 311.83 294.888 308.278 291.762 310.339L291.513 310.552C291.513 310.552 291.442 310.623 291.513 310.587Z" fill="white"/>
<path d="M231.52 209.497L231.804 209.284C232.587 208.438 233.057 207.349 233.134 206.198C233.212 205.048 232.893 203.905 232.231 202.962C232.231 202.962 234.753 206.727 237.949 204.418H238.127H237.914C237.093 205.248 236.592 206.342 236.501 207.506C236.41 208.67 236.734 209.829 237.417 210.776C237.417 210.776 234.895 207.224 231.769 209.284L231.485 209.497H231.52Z" fill="white"/>
<path d="M113.736 65.3569L113.416 65.57L114.02 65.1083C119.881 59.8868 114.908 52.3566 114.908 52.3566C114.908 52.3566 120.023 59.9579 126.558 55.2692L126.914 54.9851H126.736C126.736 54.9851 126.914 54.9851 126.949 54.9851L126.558 55.3048C120.414 60.5972 125.493 68.1985 125.493 68.1985C125.493 68.1985 120.414 60.7748 114.02 65.1438L113.487 65.57L113.736 65.3569Z" fill="white"/>
<path d="M446.03 356.87H445.853L446.137 356.621C446.932 355.797 447.413 354.721 447.498 353.579C447.582 352.437 447.264 351.302 446.599 350.37C446.599 350.37 449.085 353.922 452.318 351.791H452.495H452.282C451.458 352.61 450.952 353.696 450.855 354.854C450.757 356.012 451.074 357.167 451.749 358.113C451.749 358.113 449.263 354.561 446.102 356.621L445.853 356.799L446.03 356.87Z" fill="white"/>
<path d="M106.596 502.325H106.418L106.702 502.111C107.497 501.287 107.979 500.211 108.063 499.069C108.148 497.927 107.83 496.792 107.164 495.86C107.164 495.86 109.651 499.412 112.883 497.281H113.061L112.847 497.458C112.024 498.278 111.518 499.364 111.42 500.522C111.322 501.68 111.64 502.835 112.315 503.781C112.315 503.781 109.828 500.229 106.667 502.289L106.418 502.467L106.596 502.325Z" fill="white"/>
<path d="M353.993 255.105L354.313 254.892C355.097 254.06 355.567 252.982 355.645 251.842C355.723 250.702 355.403 249.571 354.739 248.64C354.739 248.64 357.261 252.192 360.458 250.061H360.636H360.423C359.601 250.891 359.101 251.985 359.01 253.149C358.919 254.313 359.243 255.472 359.925 256.419C359.925 256.419 357.403 252.867 354.278 254.892L353.993 255.105Z" fill="white"/>
<path d="M213.369 370.119L213.654 369.906C214.434 369.065 214.902 367.982 214.979 366.838C215.057 365.693 214.739 364.557 214.08 363.619C214.08 363.619 216.602 367.384 219.834 365.075H220.012H219.799C218.977 365.905 218.477 366.999 218.386 368.163C218.295 369.327 218.619 370.486 219.301 371.433C219.301 371.433 216.815 367.881 213.654 369.906L213.369 370.119Z" fill="white"/>
<path d="M426.88 392.923L427.164 392.71C427.948 391.878 428.418 390.8 428.496 389.66C428.574 388.52 428.254 387.388 427.59 386.458C427.59 386.458 430.077 390.01 433.345 387.843H433.132C432.308 388.663 431.802 389.749 431.704 390.907C431.607 392.065 431.924 393.22 432.599 394.166C432.599 394.166 430.148 390.614 426.987 392.674L426.702 392.887L426.88 392.923Z" fill="white"/>
<path d="M263.488 35.7687L263.168 35.9818L263.772 35.52C269.597 30.2986 264.66 22.7683 264.66 22.7683C264.66 22.7683 269.739 30.3696 276.31 25.681L276.666 25.3968H276.488H276.701L276.31 25.7165C270.13 31.009 275.245 38.6103 275.245 38.6103C275.245 38.6103 270.165 31.2221 263.772 35.52L263.239 35.9463L263.488 35.7687Z" fill="white"/>
<path d="M372.54 366.247L372.22 366.496L372.824 366.034C378.649 360.777 373.676 353.247 373.676 353.247C373.676 353.247 378.791 360.848 385.362 356.159L385.718 355.911H385.931L385.504 356.266C379.359 361.523 384.474 369.124 384.474 369.124C384.474 369.124 379.395 361.736 373.001 366.105L372.433 366.531L372.54 366.247Z" fill="white"/>
<path d="M309.309 104.393L309.629 104.145C310.412 103.313 310.883 102.235 310.961 101.095C311.038 99.9553 310.718 98.8237 310.055 97.8933C310.055 97.8933 312.541 101.623 315.774 99.3141H315.951L315.774 99.4917C314.955 100.316 314.456 101.404 314.365 102.562C314.274 103.72 314.597 104.872 315.276 105.814C315.276 105.814 312.754 102.262 309.593 104.322L309.344 104.536L309.309 104.393Z" fill="white"/>
<path d="M356.479 312.505L356.763 312.257C357.547 311.425 358.018 310.347 358.095 309.207C358.173 308.067 357.853 306.936 357.19 306.005C357.19 306.005 359.712 309.557 362.908 307.426H363.086H362.873C362.052 308.256 361.551 309.35 361.46 310.514C361.369 311.678 361.693 312.837 362.376 313.784C362.376 313.784 359.854 310.232 356.728 312.257L356.444 312.505H356.479Z" fill="white"/>
<path d="M200.191 59.8159L200.475 59.6027C201.25 58.7589 201.714 57.6766 201.791 56.534C201.868 55.3913 201.555 54.2564 200.902 53.3157C200.902 53.3157 203.423 57.0453 206.62 54.7365H206.798H206.585C205.773 55.5642 205.278 56.6513 205.187 57.8074C205.096 58.9634 205.415 60.1146 206.087 61.0591C206.087 61.0591 203.601 57.5071 200.44 59.5672L200.191 59.7803V59.8159Z" fill="white"/>
<path d="M512.767 459.629L513.016 459.416C513.801 458.58 514.276 457.499 514.36 456.354C514.444 455.21 514.132 454.071 513.478 453.129C513.478 453.129 515.964 456.894 519.196 454.586L518.983 454.763C518.157 455.589 517.649 456.68 517.552 457.845C517.454 459.009 517.773 460.17 518.45 461.121C518.45 461.121 515.999 457.569 512.838 459.629L512.554 459.842L512.767 459.629Z" fill="white"/>
<path d="M0.000349045 43.9028L0.284516 43.6897C1.06799 42.8579 1.53868 41.7802 1.61641 40.6402C1.69414 39.5002 1.37406 38.3685 0.710739 37.4381C0.710739 37.4381 3.2327 40.9901 6.46502 38.8589H6.64258H6.46502C5.63462 39.6748 5.12422 40.7614 5.02646 41.9214C4.92871 43.0815 5.25004 44.2381 5.93219 45.1815C5.93219 45.1815 3.4458 41.6295 0.284516 43.6897L0.0358496 43.9028H0.000349045Z" fill="white"/>
<path d="M251.092 181.152L251.377 180.939C252.152 180.094 252.613 179.009 252.684 177.865C252.755 176.72 252.432 175.586 251.767 174.652C251.767 174.652 254.325 178.382 257.522 176.073H257.699L257.486 176.25C256.668 177.075 256.168 178.163 256.077 179.32C255.986 180.478 256.309 181.631 256.989 182.573C256.989 182.573 254.467 179.021 251.306 181.081L251.057 181.294L251.092 181.152Z" fill="white"/>
<path d="M447.203 464.744L447.487 464.531C448.271 463.699 448.742 462.622 448.819 461.482C448.897 460.342 448.577 459.21 447.914 458.28C447.914 458.28 450.436 462.009 453.668 459.7H453.455C452.648 460.532 452.16 461.622 452.075 462.778C451.991 463.934 452.316 465.083 452.993 466.023C452.993 466.023 450.471 462.471 447.31 464.496L447.026 464.709L447.203 464.744Z" fill="white"/>
<path d="M123.788 233.296L123.468 233.544L124.072 233.047C129.933 227.826 124.96 220.295 124.96 220.295C124.96 220.295 130.075 227.897 136.61 223.208L136.966 222.924H137.179L136.788 223.244C130.643 228.536 135.722 236.137 135.722 236.137C135.722 236.137 130.679 228.714 124.249 233.083L123.717 233.544L123.788 233.296Z" fill="white"/>
<path d="M250.559 260.327L250.843 260.113C251.626 259.283 252.099 258.208 252.183 257.07C252.267 255.931 251.957 254.799 251.305 253.862C251.305 253.862 253.791 257.414 257.024 255.247H257.201H257.024C256.2 256.067 255.694 257.153 255.596 258.311C255.499 259.469 255.816 260.624 256.491 261.57C256.491 261.57 254.004 258.018 250.843 260.113H250.594L250.559 260.327Z" fill="white"/>
<path d="M244.272 526.158L243.988 526.372L244.556 525.91C250.417 520.688 245.444 513.158 245.444 513.158C245.444 513.158 250.559 520.759 257.095 516.071L257.485 515.787H257.272C257.272 515.787 257.45 515.787 257.485 515.787L257.095 516.106C250.95 521.399 256.065 529 256.065 529C256.065 529 250.985 521.576 244.556 525.945L244.023 526.372L244.272 526.158Z" fill="white"/>
<path d="M174.688 287.499L174.972 287.251C175.755 286.419 176.226 285.341 176.304 284.201C176.381 283.061 176.061 281.929 175.398 280.999C175.398 280.999 177.92 284.729 181.152 282.42H180.975C180.156 283.244 179.657 284.332 179.566 285.49C179.475 286.648 179.798 287.8 180.477 288.742C180.477 288.742 177.955 285.19 174.83 287.251L174.546 287.464L174.688 287.499Z" fill="white"/>
<path d="M154.371 514.827L154.656 514.579C155.439 513.747 155.91 512.669 155.988 511.529C156.065 510.389 155.745 509.258 155.082 508.327C155.082 508.327 157.604 512.057 160.836 509.748H161.014H160.801C159.982 510.572 159.483 511.66 159.392 512.818C159.301 513.976 159.624 515.129 160.303 516.071C160.303 516.071 157.817 512.519 154.656 514.579L154.407 514.792L154.371 514.827Z" fill="white"/>
<path d="M284.338 367.135L284.622 366.922C285.408 366.085 285.881 365.001 285.958 363.855C286.036 362.709 285.715 361.571 285.049 360.635C285.049 360.635 287.57 364.4 290.803 362.091L290.59 362.269C289.765 363.089 289.261 364.178 289.169 365.338C289.078 366.498 289.406 367.652 290.092 368.592C290.092 368.592 287.606 365.04 284.445 367.1L284.196 367.313L284.338 367.135Z" fill="white"/>
<path d="M485.671 366.496L485.92 366.283C486.711 365.449 487.19 364.368 487.274 363.222C487.358 362.075 487.043 360.935 486.381 359.996C486.381 359.996 488.868 363.547 492.136 361.452L491.923 361.629C491.104 362.453 490.605 363.541 490.514 364.699C490.423 365.857 490.746 367.01 491.425 367.952C491.425 367.952 488.939 364.4 485.742 366.46L485.529 366.673L485.671 366.496Z" fill="white"/>
<path d="M208.929 317.585L209.213 317.336C209.997 316.504 210.467 315.427 210.545 314.287C210.623 313.147 210.303 312.015 209.639 311.085C209.639 311.085 212.161 314.637 215.394 312.505H215.571H215.394C214.563 313.321 214.053 314.408 213.955 315.568C213.857 316.728 214.179 317.885 214.861 318.828C214.861 318.828 212.375 315.276 209.213 317.336L208.965 317.549C208.965 317.549 208.894 317.585 208.929 317.585Z" fill="white"/>
<path d="M205.733 411.677L206.017 411.464C206.804 410.627 207.276 409.543 207.353 408.397C207.431 407.251 207.11 406.113 206.444 405.177C206.444 405.177 208.965 408.907 212.162 406.598H212.34H212.127C211.308 407.422 210.809 408.51 210.718 409.668C210.627 410.826 210.95 411.979 211.629 412.92C211.629 412.92 209.108 409.368 205.946 411.429L205.698 411.642L205.733 411.677Z" fill="white"/>
<path d="M149.647 378.75L149.931 378.537C150.705 377.693 151.169 376.611 151.247 375.468C151.324 374.326 151.01 373.191 150.357 372.25C150.357 372.25 152.879 376.015 156.076 373.706H156.289H156.076C155.255 374.536 154.754 375.63 154.663 376.794C154.572 377.958 154.896 379.117 155.579 380.064C155.579 380.064 153.057 376.512 149.895 378.537L149.647 378.75Z" fill="white"/>
<path d="M216.14 168.898L216.424 168.649C217.207 167.818 217.678 166.74 217.756 165.6C217.834 164.46 217.514 163.328 216.85 162.398C216.85 162.398 219.372 165.95 222.604 163.819H222.391C221.573 164.643 221.073 165.731 220.982 166.889C220.891 168.047 221.214 169.199 221.894 170.141C221.894 170.141 219.408 166.589 216.246 168.649L215.962 168.862L216.14 168.898Z" fill="white"/>
<defs>
<linearGradient id="paint0_linear_15_2723" x1="309.486" y1="330.869" x2="300.18" y2="288.565" gradientUnits="userSpaceOnUse">
<stop offset="0.11" stop-color="#FFFB74"/>
<stop offset="0.49" stop-color="#FFFA00"/>
<stop offset="0.93" stop-color="#FFC921"/>
</linearGradient>
<radialGradient id="paint1_radial_15_2723" cx="0" cy="0" r="1" gradientUnits="userSpaceOnUse" gradientTransform="translate(297.804 286.08) rotate(180) scale(45.3463 45.7953)">
<stop offset="0.41" stop-color="#FFFB62"/>
<stop offset="0.85" stop-color="#F39F46"/>
</radialGradient>
<linearGradient id="paint2_linear_15_2723" x1="150.712" y1="137.036" x2="143.892" y2="106.169" gradientUnits="userSpaceOnUse">
<stop offset="0.11" stop-color="#FFFB74"/>
<stop offset="0.49" stop-color="#FFFA00"/>
<stop offset="0.93" stop-color="#FFC921"/>
</linearGradient>
<radialGradient id="paint3_radial_15_2723" cx="0" cy="0" r="1" gradientUnits="userSpaceOnUse" gradientTransform="translate(141.747 104.674) rotate(180) scale(33.077 33.4045)">
<stop offset="0.41" stop-color="#FFFB62"/>
<stop offset="0.85" stop-color="#F39F46"/>
</radialGradient>
<linearGradient id="paint4_linear_15_2723" x1="317.016" y1="73.1003" x2="310.658" y2="44.2935" gradientUnits="userSpaceOnUse">
<stop offset="0.11" stop-color="#FFFB74"/>
<stop offset="0.49" stop-color="#FFFA00"/>
<stop offset="0.93" stop-color="#FFC921"/>
</linearGradient>
<radialGradient id="paint5_radial_15_2723" cx="0" cy="0" r="1" gradientUnits="userSpaceOnUse" gradientTransform="translate(308.976 43.3559) rotate(180) scale(30.9245 31.2306)">
<stop offset="0.41" stop-color="#FFFB62"/>
<stop offset="0.85" stop-color="#F39F46"/>
</radialGradient>
</defs>
</svg>
