<svg width="343" height="927" viewBox="0 0 343 927" fill="none" xmlns="http://www.w3.org/2000/svg">
<path d="M52.7161 525.554C52.7161 525.554 52.6359 525.356 52.3788 525.384L53.0205 525.737C60.0036 529.15 65.0706 521.802 65.0706 521.802C65.0706 521.802 59.9913 529.309 66.7481 533.58L67.0987 533.783L67.1789 533.981L66.7357 533.739C59.5994 530.043 54.5334 537.582 54.5334 537.582C54.5334 537.582 59.4482 530.142 53.0544 525.915L52.459 525.582L52.7161 525.554Z" fill="white"/>
<path d="M13.3939 531.247L13.7446 531.449C14.8058 531.842 15.9685 531.863 17.0435 531.51C18.1184 531.157 19.0421 530.451 19.6642 529.506C19.6642 529.506 17.3087 533.146 20.4397 535.286L20.195 535.156C19.1299 534.708 17.9401 534.653 16.8386 535.002C15.7371 535.351 14.7956 536.081 14.1828 537.06C14.1828 537.06 16.5384 533.42 13.4536 531.299L13.1626 531.149L13.3939 531.247Z" fill="white"/>
<path d="M-1.77531 582.069L-1.47092 582.252C-0.413854 582.671 0.756052 582.71 1.83843 582.361C2.9208 582.012 3.8483 581.298 4.4621 580.341C4.4621 580.341 2.10652 583.981 5.2705 586.108L5.15023 585.812C4.09154 585.364 2.9079 585.309 1.81196 585.656C0.716018 586.002 -0.220401 586.728 -0.829074 587.703C-0.829074 587.703 1.52651 584.063 -1.55828 581.942L-1.84931 581.792L-1.77531 582.069Z" fill="white"/>
<path d="M102.085 559.14L102.389 559.324C103.449 559.729 104.616 559.757 105.694 559.403C106.772 559.049 107.696 558.335 108.309 557.38C108.309 557.38 105.953 561.02 109.13 563.18L109.197 563.345L109.117 563.147C108.052 562.699 106.862 562.645 105.761 562.994C104.659 563.343 103.718 564.072 103.105 565.052C103.105 565.052 105.474 561.445 102.389 559.324L102.085 559.14Z" fill="white"/>
<path d="M61.6573 480.634L61.9617 480.817C63.0215 481.223 64.1887 481.251 65.2668 480.897C66.345 480.543 67.2683 479.828 67.8813 478.874C67.8813 478.874 65.5258 482.514 68.7031 484.674C67.6401 484.219 66.45 484.158 65.3459 484.501C64.2418 484.844 63.2959 485.568 62.6776 486.545C62.6776 486.545 65.0465 482.938 61.9617 480.817L61.6707 480.667L61.6573 480.634Z" fill="white"/>
<path d="M44.3642 565.595L44.7015 565.765C45.7589 566.098 46.8976 566.065 47.9341 565.672C48.9706 565.279 49.8446 564.548 50.4155 563.598C50.4155 563.598 48.06 567.238 51.2044 569.412C50.1441 568.999 48.9726 568.97 47.8936 569.331C46.8145 569.692 45.8962 570.42 45.2981 571.388C45.2981 571.388 47.667 567.781 44.5493 565.673L44.2583 565.523L44.3642 565.595Z" fill="white"/>
<path d="M21.8803 505.412L22.2175 505.581C23.2787 505.974 24.4415 505.995 25.5164 505.642C26.5913 505.289 27.5151 504.583 28.1372 503.638C28.1372 503.638 25.7816 507.278 28.959 509.438L28.7944 509.505C27.7357 509.057 26.5521 509.001 25.4562 509.348C24.3602 509.695 23.4238 510.421 22.8151 511.396C22.8151 511.396 25.1707 507.756 22.053 505.648L21.9594 505.418L21.8803 505.412Z" fill="white"/>
<path d="M79.8496 497.207L79.5319 496.991L80.154 497.391C87.1371 500.804 92.1578 493.436 92.1578 493.436C92.1578 493.436 87.0785 500.943 93.8353 505.215L94.2322 505.437L94.3124 505.634L93.8692 505.392C86.7328 501.696 81.6535 509.203 81.6535 509.203C81.6535 509.203 86.5817 501.796 80.1745 497.536L79.612 497.189C79.6897 497.208 79.7699 497.214 79.8496 497.207Z" fill="white"/>
<path d="M-5.93382 698.997L-6.2711 698.828L-5.62945 699.18C1.35372 702.594 6.42069 695.246 6.42069 695.246C6.42069 695.246 1.34136 702.752 8.09815 707.024L8.42207 707.161L7.9326 706.899C0.809609 703.236 -4.23682 710.729 -4.23682 710.729C-4.23682 710.729 0.658432 703.336 -5.74872 699.075L-6.31119 698.729L-5.93382 698.997Z" fill="white"/>
<path d="M24.4929 721.721L24.8301 721.89C25.8836 722.295 27.0446 722.325 28.1171 721.973C29.1896 721.621 30.1079 720.91 30.7169 719.96C30.7169 719.96 28.3613 723.6 31.5716 725.747L31.6384 725.911L31.5582 725.714C30.4912 725.28 29.3063 725.233 28.2084 725.581C27.1104 725.929 26.1687 726.65 25.546 727.618C25.546 727.618 27.9149 724.011 24.8301 721.89L24.5391 721.74L24.4929 721.721Z" fill="white"/>
<path d="M24.8863 747.707L24.9398 747.839C25.9996 748.244 27.1668 748.273 28.2449 747.919C29.3231 747.565 30.2464 746.85 30.8594 745.895C30.8594 745.895 28.5039 749.535 31.6812 751.695L31.748 751.86L31.6812 751.695C30.6182 751.241 29.4281 751.179 28.324 751.522C27.2199 751.865 26.274 752.59 25.6557 753.567C25.6557 753.567 28.0246 749.96 24.9398 747.839L24.6488 747.689L24.8863 747.707Z" fill="white"/>
<path d="M33.6845 678.08L34.0218 678.25C35.0816 678.655 36.2488 678.684 37.327 678.33C38.4051 677.976 39.3284 677.261 39.9415 676.306C39.9415 676.306 37.5859 679.946 40.7632 682.106L40.8301 682.271L40.7632 682.106C39.7057 681.659 38.5241 681.601 37.4275 681.941C36.3308 682.281 35.3897 682.998 34.7706 683.965C34.7706 683.965 37.1395 680.357 34.0547 678.236L33.7308 678.1L33.6845 678.08Z" fill="white"/>
<path d="M6.71003 772.148L7.04731 772.318C8.10077 772.723 9.2618 772.752 10.3343 772.4C11.4068 772.049 12.3251 771.338 12.9341 770.387C12.9341 770.387 10.5785 774.027 13.7559 776.187L13.6757 775.99C12.6202 775.528 11.4336 775.462 10.3332 775.803C9.23279 776.144 8.29201 776.87 7.683 777.848C7.683 777.848 10.0386 774.208 6.93424 772.133L6.64322 771.983L6.71003 772.148Z" fill="white"/>
<g style="mix-blend-mode:multiply" opacity="0.6">
<path d="M-12.5651 158.689C-9.83406 160.26 -7.23499 162.051 -4.79346 164.043C-0.254413 162.912 4.3663 162.138 9.02627 161.729C11.6044 161.564 14.9916 163.485 14.6559 166.152C13.9141 169.194 12.5176 172.037 10.5637 174.484C9.55754 175.996 8.43357 177.427 7.20228 178.763C7.27984 178.87 7.33029 178.994 7.34929 179.125C8.85542 182.266 10.1675 185.498 11.2782 188.8C11.9709 191.356 13.1397 194.14 10.549 195.69C5.63409 197.09 0.410267 196.965 -4.43237 195.333C-6.06921 197.501 -7.89038 199.523 -9.87552 201.377C-10.5445 202.128 -11.4064 202.681 -12.3677 202.977C-13.3289 203.273 -14.3528 203.299 -15.3283 203.054C-17.1248 202.595 -18.6554 198.732 -18.8586 196.437C-19.303 190.906 -19.749 188.863 -19.7981 187.043C-23.1479 185.51 -26.4074 183.787 -29.5607 181.883C-33.2553 179.204 -33.8752 177.961 -33.6518 176.529C-33.2369 173.868 -24.786 169.095 -21.4343 168.002C-22.1136 165.479 -23.3539 159.121 -19.8602 157.434C-18.6226 157.139 -17.338 157.098 -16.0841 157.314C-14.8303 157.53 -13.6332 157.997 -12.5651 158.689Z" fill="#5DC1EE"/>
</g>
<path d="M-10.2038 159.877C-6.92762 161.835 -3.78111 164.002 -0.78381 166.364C2.95684 165.091 6.79441 164.123 10.6913 163.468C11.2389 163.346 11.8076 163.356 12.3508 163.496C12.894 163.636 13.3962 163.903 13.8164 164.275C14.2367 164.646 14.5629 165.112 14.7683 165.634C14.9738 166.156 15.0527 166.72 14.9986 167.278C14.4109 170.087 13.243 172.742 11.5697 175.073C10.6752 176.496 9.65341 177.834 8.51687 179.073L8.66387 179.435C10.091 182.43 11.3404 185.507 12.4057 188.649C13.0583 191.106 14.1603 193.726 11.8 195.183C10.0338 195.867 8.07116 195.839 6.32488 195.106C3.6759 194.341 1.48247 193.66 -1.12123 192.724C-3.00701 195.259 -5.06853 197.659 -7.29059 199.906C-8.459 200.994 -11.3029 203.337 -13.0828 202.258C-13.7572 201.555 -14.2748 200.716 -14.6014 199.798C-14.9279 198.88 -15.056 197.903 -14.9773 196.932C-15.1437 193.315 -15.0258 189.691 -14.6248 186.093C-17.6111 185.158 -20.8636 183.757 -24.6252 182.141C-26.3641 181.352 -30.2387 179.552 -29.6306 177.273C-29.0224 174.994 -26.7167 174.441 -25.1175 173.754C-22.1226 172.537 -19.0291 171.281 -15.8677 170.381C-16.5594 168.017 -17.1987 165.593 -17.6929 163.148C-18.0516 161.415 -17.9247 159.178 -16.0159 158.403C-14.1071 157.628 -11.8582 158.824 -10.2038 159.877Z" fill="url(#paint0_linear_25_5318)"/>
<path style="mix-blend-mode:multiply" d="M-10.2044 159.877L-8.86769 160.714C-11.3398 159.724 -13.2968 160.097 -14.3254 161.435C-15.7932 163.296 -14.7181 167.077 -14.0007 169.316C-13.0551 172.305 -16.3241 171.524 -18.5221 173.759C-22.8266 178.075 -17.4963 183.271 -13.5413 184.042C-10.9992 184.543 -12.9419 191.466 -8.05123 193.314C-7.23917 193.526 -6.38876 193.546 -5.56756 193.373C-4.74636 193.199 -3.97698 192.836 -3.32052 192.313C-0.805782 190.103 0.224419 191.602 2.91868 192.195C7.14516 193.162 12.0053 192.952 10.6207 189.259C9.51507 186.294 8.25822 183.388 6.8551 180.552C6.22701 179.005 8.7972 177.31 11.3903 173.688C12.0322 172.814 14.1213 169.934 14.8228 169.113C13.966 171.215 12.8745 173.215 11.5691 175.073C10.6745 176.495 9.65272 177.834 8.51618 179.072L8.66318 179.434C10.0903 182.43 11.3397 185.507 12.405 188.649C13.0576 191.106 14.1596 193.726 11.7993 195.183C10.0331 195.866 8.07047 195.839 6.32419 195.106C3.67521 194.341 1.48178 193.66 -1.12192 192.724C-3.0077 195.259 -5.06922 197.659 -7.29128 199.906C-8.4597 200.994 -11.3035 203.337 -13.0835 202.258C-13.7579 201.555 -14.2755 200.716 -14.6021 199.798C-14.9286 198.88 -15.0567 197.903 -14.9779 196.932C-15.1444 193.315 -15.0265 189.691 -14.6255 186.093C-17.6118 185.158 -20.8643 183.757 -24.6259 182.141C-26.3647 181.352 -30.2394 179.552 -29.6313 177.273C-29.0231 174.994 -26.7174 174.441 -25.1182 173.753C-22.1233 172.537 -19.0298 171.281 -15.8684 170.381C-16.5601 168.016 -17.1994 165.592 -17.6936 163.148C-18.0523 161.415 -17.9254 159.178 -16.0166 158.403C-14.1078 157.628 -11.8589 158.824 -10.2044 159.877Z" fill="url(#paint1_radial_25_5318)"/>
<g style="mix-blend-mode:multiply">
<path d="M-10.2038 159.877C-6.92762 161.835 -3.78111 164.002 -0.78381 166.364C2.95684 165.091 6.79441 164.123 10.6913 163.468C11.2389 163.346 11.8076 163.356 12.3508 163.496C12.894 163.636 13.3962 163.903 13.8164 164.275C14.2367 164.646 14.5629 165.112 14.7683 165.634C14.9738 166.156 15.0527 166.72 14.9986 167.278C14.4109 170.087 13.243 172.742 11.5697 175.073C10.6752 176.496 9.65341 177.834 8.51687 179.073L8.66387 179.435C10.091 182.43 11.3404 185.507 12.4057 188.649C13.0583 191.106 14.1603 193.726 11.8 195.183C10.0338 195.867 8.07116 195.839 6.32488 195.106C3.6759 194.341 1.48247 193.66 -1.12123 192.724C-3.00701 195.259 -5.06853 197.659 -7.29059 199.906C-8.459 200.994 -11.3029 203.337 -13.0828 202.258C-13.7572 201.555 -14.2748 200.716 -14.6014 199.798C-14.9279 198.88 -15.056 197.903 -14.9773 196.932C-15.1437 193.315 -15.0258 189.691 -14.6248 186.093C-17.6111 185.158 -20.8636 183.757 -24.6252 182.141C-26.3641 181.352 -30.2387 179.552 -29.6306 177.273C-29.0224 174.994 -26.7167 174.441 -25.1175 173.754C-22.1226 172.537 -19.0291 171.281 -15.8677 170.381C-16.5594 168.017 -17.1987 165.593 -17.6929 163.148C-18.0516 161.415 -17.9247 159.178 -16.0159 158.403C-14.1071 157.628 -11.8582 158.824 -10.2038 159.877ZM-15.8827 161.186C-15.9419 162.304 -15.7745 163.423 -15.3906 164.475C-14.8521 166.557 -14.3135 168.638 -13.7092 170.693C-13.6582 170.864 -13.6512 171.046 -13.6888 171.22C-13.7264 171.395 -13.8074 171.558 -13.9243 171.693C-14.0412 171.828 -14.1903 171.932 -14.3578 171.995C-14.5253 172.057 -14.7058 172.077 -14.8828 172.051C-17.1865 172.987 -19.5231 173.935 -21.9666 174.621C-23.6915 175.036 -25.3444 175.707 -26.8703 176.612C-29.6307 178.5 -23.8557 180.448 -22.5271 180.982C-19.4401 182.259 -17.1521 183.362 -13.9479 184.361C-13.3 184.635 -12.9556 184.916 -12.9412 185.141C-13.1082 187.279 -13.3321 192.392 -13.2789 193.75C-13.4094 195.628 -13.3376 197.513 -13.0649 199.375C-12.4525 202.96 -8.23642 198.143 -7.33847 197.05C-5.61976 195.24 -4.15296 193.188 -2.52062 191.26C-1.94359 190.604 -1.81395 190.168 -1.08074 190.369C2.08276 191.515 5.31242 192.469 8.5907 193.227C9.70646 193.426 11.354 193.14 11.3994 191.742C10.4941 187.962 9.21776 184.281 7.589 180.753C7.16667 180.158 6.81575 179.516 6.54345 178.839C8.04413 176.97 9.44103 175.021 10.7278 172.999C11.4016 171.921 14.8135 167.2 12.9318 165.587C11.7524 164.571 8.99932 165.344 7.55027 165.74C4.65217 166.534 2.01835 167.412 -0.925027 168.377C-1.18831 168.484 -2.06332 167.651 -3.37435 166.688C-6.23712 164.376 -9.31076 162.338 -12.5547 160.602C-13.2694 160.163 -15.4957 159.496 -15.8827 161.186Z" fill="#D47F02"/>
</g>
<path d="M10.2391 193.133C10.2391 193.133 11.1235 193.234 10.3516 190.672C9.40127 187.694 8.11155 184.834 6.50784 182.15L5.08294 179.585C6.47873 177.83 8.17786 176.067 8.17786 176.067L6.20187 179.131C7.80561 182.502 9.21118 185.963 10.4114 189.498C11.3983 191.55 11.2819 193.246 10.2391 193.133Z" fill="#FFF6E6"/>
<path d="M8.32029 175.664C8.32029 175.664 12.1682 171.072 9.68195 168.632C7.19573 166.191 2.65212 167.653 -0.0794311 168.762C2.56157 167.996 3.21159 167.425 8.57277 165.9C13.934 164.375 14.2627 166.695 12.086 170.492C11.0346 172.356 9.77098 174.091 8.32029 175.664Z" fill="#FFF6E6"/>
<path d="M1.78516 168.159C1.78516 168.159 -0.71603 169.174 -2.06535 169.722C-5.31779 166.739 -8.75111 163.959 -12.3458 161.399C-14.2893 160.578 -15.2385 160.695 -15.7034 161.344C-15.7034 161.344 -15.5468 159.747 -12.6192 160.82C-8.4556 163.194 -4.49469 165.906 -0.776669 168.931L1.78516 168.159Z" fill="#FFF6E6"/>
<path d="M4.48847 192.094C2.21426 191.211 0.0323555 190.107 -2.02578 188.797C-2.02578 188.797 -9.06576 199.783 -11.8589 200.457C-11.8589 200.457 -10.4655 200.773 -7.82415 197.554C-5.18276 194.334 -1.47787 190.146 -1.47787 190.146C-1.47787 190.146 2.50687 191.557 4.48847 192.094Z" fill="#FFF6E6"/>
<g style="mix-blend-mode:multiply" opacity="0.6">
<path d="M108.521 290.815C111.067 292.29 113.499 293.956 115.796 295.796C120.034 294.76 124.346 294.047 128.693 293.664C131.08 293.5 134.209 295.258 133.965 297.773C133.242 300.605 131.945 303.259 130.153 305.569C129.211 306.977 128.164 308.312 127.021 309.563L127.155 309.892C128.555 312.822 129.778 315.833 130.816 318.909C131.456 321.333 132.544 323.92 130.105 325.371C125.517 326.668 120.645 326.548 116.126 325.028C114.64 327.122 112.973 329.082 111.144 330.885C110.523 331.597 109.716 332.122 108.813 332.4C107.91 332.679 106.948 332.7 106.033 332.462C104.362 332.028 102.939 328.428 102.703 326.147C102.26 320.998 101.854 319.054 101.826 317.379C98.7125 315.952 95.6886 314.337 92.7706 312.545C89.328 310.109 88.7543 308.885 88.9849 307.565C89.3545 305.076 97.2531 300.642 100.394 299.597C99.7156 297.265 98.5565 291.295 101.833 289.735C102.964 289.465 104.137 289.421 105.285 289.606C106.433 289.792 107.532 290.202 108.521 290.815Z" fill="#5DC1EE"/>
</g>
<path d="M110.723 291.99C113.763 293.772 116.696 295.73 119.507 297.854C123.044 296.649 126.675 295.739 130.363 295.133C130.866 295.067 131.377 295.111 131.862 295.259C132.347 295.408 132.794 295.659 133.174 295.995C133.554 296.331 133.857 296.745 134.064 297.208C134.27 297.671 134.376 298.173 134.372 298.68C133.772 301.371 132.585 303.895 130.895 306.073C130.058 307.4 129.102 308.648 128.038 309.801L128.172 310.13C129.498 312.924 130.663 315.792 131.66 318.72C132.292 321.032 133.294 323.5 131.085 324.857C129.442 325.493 127.616 325.465 125.993 324.778C123.515 324.059 121.592 323.383 119.029 322.545C117.283 324.921 115.361 327.163 113.279 329.251C112.196 330.265 109.523 332.463 107.882 331.442C106.241 330.422 106.277 328.529 106.101 326.491C105.992 323.108 106.156 319.721 106.59 316.364C103.439 315.223 100.35 313.918 97.3347 312.455C95.6884 311.705 92.0585 310.035 92.6409 307.882C93.2233 305.728 95.3974 305.229 96.8784 304.627C99.6757 303.492 102.572 302.316 105.489 301.476C104.898 299.263 104.279 296.984 103.805 294.684C103.467 293.096 103.555 290.952 105.332 290.23C107.109 289.509 109.228 291.14 110.723 291.99Z" fill="url(#paint2_linear_25_5318)"/>
<path style="mix-blend-mode:multiply" d="M110.723 291.991L112.001 292.776C109.667 291.844 107.921 292.17 106.899 293.429C105.876 294.687 106.517 298.721 107.235 300.96C108.133 303.738 105.082 303.022 103.041 305.078C99.0127 309.129 104.005 313.964 107.676 314.697C110.092 315.172 108.22 321.607 112.779 323.205C113.53 323.415 114.319 323.442 115.082 323.286C115.845 323.129 116.56 322.793 117.168 322.305C119.512 320.242 120.686 321.528 123.024 322.189C126.822 323.139 131.477 322.897 130.166 319.289C129.132 316.524 127.944 313.82 126.608 311.188C126.02 309.74 128.439 308.144 130.855 304.748C131.444 303.933 133.291 301.305 134.071 300.49C133.265 302.522 132.221 304.451 130.962 306.238C130.125 307.565 129.169 308.813 128.105 309.966L128.239 310.296C129.565 313.09 130.73 315.957 131.727 318.885C132.359 321.197 133.361 323.665 131.152 325.022C129.509 325.658 127.682 325.63 126.06 324.943C123.582 324.224 121.659 323.548 119.096 322.711C117.35 325.087 115.428 327.328 113.346 329.416C112.263 330.431 109.59 332.628 107.949 331.608C106.308 330.587 106.344 328.694 106.168 326.657C106.059 323.273 106.222 319.886 106.656 316.529C103.506 315.388 100.416 314.083 97.4017 312.62C95.7553 311.87 92.1254 310.2 92.7079 308.047C93.2903 305.894 95.4643 305.394 96.9453 304.793C99.7427 303.657 102.639 302.481 105.556 301.641C104.964 299.428 104.346 297.149 103.872 294.849C103.534 293.262 103.622 291.117 105.399 290.396C107.176 289.674 109.228 291.141 110.723 291.991Z" fill="url(#paint3_radial_25_5318)"/>
<g style="mix-blend-mode:multiply">
<path d="M110.723 291.99C113.763 293.772 116.696 295.73 119.507 297.854C123.044 296.649 126.675 295.739 130.363 295.133C130.866 295.067 131.377 295.111 131.862 295.259C132.347 295.408 132.794 295.659 133.174 295.995C133.554 296.331 133.857 296.745 134.064 297.208C134.27 297.671 134.376 298.173 134.372 298.68C133.772 301.371 132.585 303.895 130.895 306.073C130.058 307.4 129.102 308.648 128.038 309.801L128.172 310.13C129.498 312.924 130.663 315.792 131.66 318.72C132.292 321.032 133.294 323.5 131.085 324.857C129.442 325.493 127.616 325.465 125.993 324.778C123.515 324.059 121.592 323.383 119.029 322.545C117.283 324.921 115.361 327.163 113.279 329.251C112.196 330.265 109.523 332.463 107.882 331.442C106.241 330.422 106.277 328.529 106.101 326.491C105.992 323.108 106.156 319.721 106.59 316.364C103.439 315.223 100.35 313.918 97.3347 312.455C95.6884 311.705 92.0585 310.035 92.6409 307.882C93.2233 305.728 95.3974 305.229 96.8784 304.627C99.6757 303.492 102.572 302.316 105.489 301.476C104.898 299.263 104.279 296.984 103.805 294.684C103.467 293.096 103.555 290.952 105.332 290.23C107.109 289.509 109.228 291.14 110.723 291.99ZM105.433 293.218C105.365 294.262 105.528 295.309 105.911 296.283C106.396 298.232 106.914 300.169 107.498 302.079C107.539 302.239 107.542 302.406 107.505 302.567C107.469 302.728 107.394 302.878 107.287 303.004C107.18 303.13 107.045 303.228 106.892 303.291C106.74 303.354 106.574 303.379 106.41 303.364C104.171 304.082 102.065 305.128 99.7206 305.774C98.1167 306.177 96.577 306.802 95.1461 307.631C92.5697 309.406 97.9417 311.211 99.2106 311.693C102.08 312.905 104.215 313.916 107.215 314.883C107.803 315.104 108.148 315.386 108.149 315.577C107.994 317.557 107.808 322.386 107.624 323.726C107.51 325.476 107.581 327.234 107.836 328.969C108.388 332.31 112.355 327.824 113.2 326.791C114.801 325.067 116.143 323.18 117.697 321.438C118.255 320.828 118.351 320.405 119.052 320.619C122.012 321.686 125.034 322.571 128.102 323.27C129.139 323.462 130.674 323.184 130.727 321.897C129.885 318.359 128.692 314.914 127.164 311.613C126.532 310.528 126.1 309.937 126.205 309.817C127.655 307.964 128.993 306.025 130.211 304.012C130.833 302.993 134.042 298.623 132.233 297.095C131.16 296.151 128.354 296.983 127.234 297.247C124.514 298.006 122.078 298.804 119.332 299.689C119.068 299.796 118.22 299.028 117.015 298.138C114.348 295.961 111.477 294.045 108.443 292.417C107.869 292.229 105.827 291.639 105.433 293.218Z" fill="#D47F02"/>
</g>
<path d="M129.856 323.057C129.856 323.057 130.694 323.138 129.956 320.754C129.057 317.973 127.855 315.298 126.372 312.779L125.014 310.378C126.318 308.775 127.899 307.098 127.899 307.098L126.067 309.951C127.593 313.161 128.932 316.458 130.076 319.824C130.87 321.495 130.754 323.191 129.856 323.057Z" fill="#FFF6E6"/>
<path d="M124.708 298.235C124.708 298.235 130.271 298.813 130.097 302.066C129.923 305.319 126.001 307.179 123.601 308.537C125.877 307.345 126.892 307.201 131.233 304.863C135.574 302.525 134.529 300.611 130.585 299.491C128.679 298.852 126.708 298.431 124.708 298.235Z" fill="#FFF6E6"/>
<path d="M121.957 299.734C121.957 299.734 119.587 300.697 118.337 301.204C115.314 298.472 112.129 295.925 108.799 293.576C107.027 292.801 106.124 292.937 105.712 293.527C105.712 293.527 105.829 292.022 108.572 293.017C112.454 295.245 116.151 297.782 119.627 300.604L121.957 299.734Z" fill="#FFF6E6"/>
<path d="M124.482 322.096C122.371 321.256 120.345 320.218 118.431 318.994C118.431 318.994 111.921 329.305 109.26 329.925C109.26 329.925 110.574 330.235 113.025 327.208L118.84 320.285C118.84 320.285 122.626 321.584 124.482 322.096Z" fill="#FFF6E6"/>
<path d="M106.162 408.776C107.569 403.152 110.794 398.15 115.335 394.547C122.838 388.658 131.449 384.339 140.657 381.849L142.982 381.25L120.527 356.824L119.671 357.171C115.548 358.49 111.69 360.524 108.272 363.18C106.813 364.254 105.653 365.683 104.9 367.33C104.146 368.977 103.826 370.79 103.968 372.595L106.821 372.165C106.734 370.833 106.993 369.501 107.573 368.298C108.153 367.095 109.033 366.063 110.13 365.301C112.971 363.093 116.152 361.361 119.549 360.173L137.526 379.709C128.724 382.334 120.512 386.632 113.338 392.368C108.304 396.315 104.715 401.816 103.13 408.014L105.969 408.586L106.162 408.776Z" fill="#89A83D"/>
<path d="M104.021 405.582C102.063 407.685 100.954 410.439 100.908 413.311C100.861 416.184 101.882 418.972 103.771 421.137C105.661 423.301 108.285 424.688 111.138 425.031C113.991 425.373 116.869 424.645 119.217 422.989C121.126 420.89 122.201 418.164 122.238 415.326C122.275 412.489 121.272 409.736 119.418 407.587C117.564 405.438 114.988 404.043 112.176 403.664C109.363 403.284 106.509 403.948 104.153 405.529L104.021 405.582Z" fill="#A5CD3A"/>
<path d="M120.001 424.165C122.354 421.904 123.714 418.802 123.784 415.54C123.853 412.278 122.626 409.122 120.372 406.763C118.374 404.178 115.434 402.49 112.195 402.067C108.955 401.644 105.68 402.52 103.085 404.505C100.742 406.778 99.3896 409.884 99.3226 413.149C99.2556 416.413 100.479 419.572 102.728 421.94C104.725 424.523 107.666 426.208 110.904 426.625C114.143 427.043 117.415 426.158 120.001 424.165ZM118.13 422.011C116.112 423.474 113.601 424.087 111.136 423.718C108.672 423.35 106.45 422.03 104.947 420.042C103.187 418.263 102.198 415.864 102.193 413.362C102.189 410.859 103.17 408.456 104.924 406.672C106.945 405.206 109.46 404.591 111.93 404.956C114.4 405.322 116.629 406.64 118.139 408.628C119.879 410.42 120.847 412.823 120.836 415.321C120.826 417.819 119.838 420.213 118.084 421.992L118.13 422.011Z" fill="#89A83D"/>
<path d="M108.715 408.928C107.447 409.768 106.465 410.975 105.899 412.387C105.333 413.8 105.211 415.351 105.548 416.834C105.885 418.318 106.665 419.664 107.786 420.693C108.906 421.723 110.313 422.387 111.82 422.597C113.327 422.808 114.862 422.554 116.221 421.871C117.581 421.188 118.7 420.108 119.431 418.773C120.161 417.439 120.468 415.913 120.311 414.4C120.154 412.887 119.54 411.457 118.55 410.301C117.415 408.833 115.751 407.867 113.913 407.61C112.075 407.354 110.209 407.827 108.715 408.928Z" fill="#D2D926"/>
<path d="M105.714 370.852C104.179 371.866 102.989 373.324 102.303 375.031C101.617 376.738 101.467 378.613 101.873 380.407C102.279 382.202 103.221 383.83 104.575 385.075C105.929 386.321 107.631 387.124 109.453 387.379C111.275 387.634 113.131 387.328 114.775 386.502C116.418 385.675 117.772 384.368 118.654 382.754C119.537 381.14 119.907 379.295 119.715 377.466C119.524 375.636 118.78 373.908 117.582 372.511C116.226 370.721 114.215 369.541 111.991 369.23C109.766 368.919 107.509 369.502 105.714 370.852Z" fill="#A5CD3A"/>
<path d="M118.309 385.634C120.185 383.799 121.266 381.3 121.319 378.676C121.372 376.052 120.393 373.512 118.592 371.603C116.974 369.535 114.607 368.187 112.002 367.853C109.398 367.518 106.767 368.223 104.679 369.815C102.786 371.641 101.693 374.143 101.64 376.773C101.587 379.402 102.578 381.946 104.396 383.847C106.008 385.923 108.376 387.276 110.984 387.611C113.591 387.946 116.225 387.235 118.309 385.634ZM116.425 383.447C115.677 384.017 114.823 384.432 113.913 384.669C113.003 384.906 112.056 384.96 111.125 384.828C110.194 384.696 109.299 384.381 108.491 383.9C107.683 383.42 106.978 382.784 106.418 382.029C105.146 380.677 104.453 378.882 104.488 377.027C104.523 375.172 105.282 373.403 106.603 372.101C108.111 371.009 109.988 370.554 111.828 370.832C113.669 371.109 115.327 372.098 116.446 373.586C117.754 374.912 118.489 376.699 118.493 378.562C118.496 380.425 117.768 382.215 116.465 383.546L116.425 383.447Z" fill="#89A83D"/>
<path d="M110.123 374.16C109.254 374.732 108.578 375.553 108.185 376.517C107.793 377.48 107.7 378.54 107.922 379.556C108.143 380.573 108.666 381.499 109.424 382.212C110.181 382.925 111.137 383.392 112.165 383.552C113.193 383.711 114.246 383.555 115.184 383.105C116.121 382.655 116.901 381.931 117.42 381.029C117.938 380.127 118.171 379.089 118.088 378.052C118.006 377.015 117.611 376.027 116.955 375.219C116.581 374.695 116.106 374.25 115.558 373.912C115.01 373.574 114.399 373.349 113.762 373.25C113.126 373.151 112.476 373.181 111.851 373.337C111.226 373.493 110.638 373.773 110.123 374.16Z" fill="#D2D926"/>
<path d="M113.339 411.536C112.629 412.304 112.226 413.307 112.207 414.353C112.188 415.399 112.554 416.416 113.236 417.209C113.918 418.003 114.868 418.518 115.906 418.656C116.943 418.794 117.995 418.546 118.861 417.958C119.571 417.19 119.974 416.187 119.993 415.141C120.012 414.095 119.646 413.078 118.964 412.285C118.282 411.492 117.331 410.977 116.294 410.839C115.257 410.701 114.205 410.949 113.339 411.536Z" fill="#E6E01C"/>
<path d="M113.059 375.536C112.572 376.075 112.298 376.773 112.289 377.499C112.28 378.224 112.536 378.929 113.009 379.48C113.482 380.031 114.139 380.39 114.858 380.491C115.577 380.592 116.308 380.427 116.914 380.028C117.401 379.489 117.675 378.791 117.684 378.065C117.693 377.339 117.437 376.635 116.964 376.084C116.491 375.533 115.834 375.174 115.115 375.073C114.396 374.972 113.665 375.137 113.059 375.536Z" fill="#E6E01C"/>
<path d="M102.069 606.48L115.202 579.908L122.701 584.876L114.934 599.454L115.821 599.937L124.051 584.519L114.824 578.413L101.13 606.056L102.069 606.48Z" fill="#BC2B28"/>
<path d="M121.317 588.926L121.847 588.059L113.464 583.182L112.935 584.049L121.317 588.926Z" fill="#BC2B28"/>
<path d="M114.22 600.433C113.601 601.707 113.504 603.172 113.95 604.516C114.396 605.86 115.348 606.977 116.605 607.63C117.757 608.46 119.189 608.806 120.593 608.594C121.997 608.382 123.263 607.629 124.119 606.496C124.719 605.232 124.809 603.785 124.37 602.457C123.93 601.129 122.995 600.021 121.76 599.364C120.617 598.51 119.182 598.142 117.769 598.343C116.356 598.543 115.08 599.294 114.22 600.433Z" fill="#E6352E"/>
<path d="M124.562 606.738C125.237 605.34 125.333 603.733 124.83 602.265C124.327 600.797 123.266 599.587 121.877 598.896C120.613 597.984 119.041 597.61 117.502 597.854C115.963 598.098 114.584 598.941 113.665 600.199C112.958 601.59 112.827 603.203 113.302 604.69C113.776 606.176 114.817 607.416 116.199 608.14C117.476 609.035 119.052 609.395 120.59 609.143C122.128 608.891 123.507 608.047 124.431 606.791L124.562 606.738ZM123.663 606.222C122.886 607.242 121.737 607.914 120.467 608.093C119.197 608.271 117.908 607.941 116.88 607.174C115.733 606.597 114.858 605.593 114.444 604.378C114.029 603.162 114.108 601.833 114.663 600.675C115.455 599.666 116.607 599.003 117.877 598.823C119.147 598.643 120.437 598.96 121.478 599.709C122.623 600.292 123.493 601.301 123.902 602.519C124.31 603.737 124.224 605.066 123.663 606.222Z" fill="#BC2B28"/>
<path d="M101.03 605.904C100.396 607.174 100.287 608.643 100.727 609.992C101.168 611.342 102.122 612.463 103.383 613.115C104.532 613.954 105.966 614.305 107.373 614.093C108.78 613.881 110.046 613.121 110.897 611.98C111.524 610.701 111.624 609.227 111.176 607.875C110.727 606.523 109.765 605.401 108.497 604.751C107.349 603.928 105.924 603.588 104.528 603.803C103.132 604.019 101.877 604.773 101.03 605.904Z" fill="#E6352E"/>
<path d="M111.353 612.255C112.047 610.859 112.163 609.245 111.677 607.764C111.19 606.283 110.14 605.053 108.753 604.34C107.49 603.428 105.917 603.054 104.378 603.298C102.84 603.542 101.46 604.385 100.541 605.643C99.8436 607.035 99.7183 608.646 100.192 610.13C100.665 611.613 101.7 612.853 103.076 613.584C104.352 614.478 105.926 614.84 107.464 614.594C109.003 614.349 110.386 613.515 111.321 612.268L111.353 612.255ZM110.473 611.692C109.692 612.716 108.539 613.392 107.264 613.573C105.988 613.753 104.693 613.425 103.658 612.658C102.515 612.085 101.643 611.086 101.231 609.877C100.819 608.667 100.899 607.343 101.454 606.192C102.236 605.174 103.383 604.501 104.653 604.314C105.923 604.128 107.215 604.443 108.256 605.194C109.397 605.777 110.266 606.782 110.679 607.994C111.093 609.207 111.019 610.533 110.473 611.692Z" fill="#BC2B28"/>
<path d="M116.183 601.017C115.713 601.992 115.618 603.107 115.918 604.148C116.218 605.188 116.89 606.082 117.807 606.658C118.724 607.234 119.821 607.453 120.889 607.271C121.956 607.09 122.92 606.521 123.595 605.675C124.065 604.699 124.159 603.584 123.859 602.544C123.56 601.503 122.887 600.609 121.97 600.033C121.053 599.457 119.956 599.239 118.889 599.42C117.821 599.602 116.858 600.17 116.183 601.017Z" fill="#E77978"/>
<path d="M102.973 606.534C102.667 607.02 102.46 607.562 102.364 608.129C102.267 608.696 102.284 609.276 102.412 609.836C102.539 610.397 102.776 610.926 103.109 611.395C103.442 611.864 103.863 612.262 104.35 612.568C104.837 612.874 105.379 613.081 105.945 613.177C106.512 613.274 107.092 613.257 107.653 613.13C108.213 613.002 108.743 612.765 109.211 612.432C109.68 612.1 110.079 611.678 110.385 611.191C111.002 610.208 111.204 609.02 110.946 607.889C110.688 606.757 109.991 605.774 109.008 605.156C108.025 604.539 106.837 604.337 105.705 604.595C104.573 604.853 103.591 605.551 102.973 606.534Z" fill="#E77978"/>
<path d="M118.077 601.244C117.75 601.921 117.701 602.698 117.94 603.411C118.179 604.123 118.688 604.714 119.357 605.056C119.965 605.5 120.724 605.685 121.468 605.57C122.211 605.455 122.879 605.049 123.324 604.442C123.551 603.776 123.546 603.053 123.312 602.39C123.077 601.727 122.625 601.163 122.029 600.789C121.434 600.414 120.73 600.251 120.03 600.327C119.331 600.402 118.678 600.711 118.176 601.204L118.077 601.244Z" fill="#E7A8A8"/>
<path d="M104.794 606.676C104.467 607.353 104.418 608.131 104.657 608.843C104.896 609.556 105.405 610.146 106.074 610.489C106.362 610.741 106.703 610.927 107.071 611.034C107.439 611.141 107.826 611.166 108.205 611.107C108.584 611.049 108.945 610.908 109.264 610.695C109.583 610.482 109.851 610.202 110.05 609.874C110.249 609.546 110.374 609.179 110.416 608.798C110.458 608.417 110.416 608.031 110.293 607.668C110.171 607.305 109.97 606.973 109.705 606.695C109.44 606.418 109.118 606.202 108.761 606.062C108.15 605.627 107.394 605.448 106.653 605.563C105.912 605.677 105.245 606.077 104.794 606.676Z" fill="#E7A8A8"/>
<path d="M238.377 563.857C247.944 563.484 257.525 563.875 267.03 565.027C267.17 565.028 267.309 565.002 267.439 564.949C267.569 564.896 267.687 564.818 267.786 564.72C267.889 564.633 267.971 564.524 268.028 564.402C268.084 564.28 268.113 564.147 268.113 564.012L267.969 544.021C267.969 543.9 267.944 543.781 267.896 543.67C267.849 543.56 267.779 543.46 267.691 543.377C267.604 543.294 267.501 543.23 267.388 543.189C267.275 543.147 267.154 543.129 267.034 543.135C266.789 543.133 266.553 543.228 266.379 543.4C266.204 543.571 266.104 543.805 266.102 544.05L266.108 562.948C256.814 561.909 247.454 561.583 238.11 561.972C237.988 561.967 237.866 561.988 237.753 562.034C237.64 562.079 237.538 562.149 237.454 562.238C237.37 562.326 237.306 562.432 237.266 562.547C237.227 562.663 237.212 562.785 237.224 562.907C237.264 563.139 237.386 563.35 237.566 563.501C237.747 563.652 237.976 563.735 238.211 563.733L238.377 563.857Z" fill="#EBAD20"/>
<path d="M254.539 564.195C254.783 564.204 255.021 564.12 255.205 563.96C255.39 563.8 255.506 563.575 255.53 563.332L256.678 548.221C256.687 547.972 256.602 547.728 256.44 547.538C256.278 547.348 256.05 547.226 255.802 547.197C255.68 547.188 255.558 547.203 255.442 547.241C255.326 547.28 255.218 547.341 255.126 547.421C255.034 547.501 254.959 547.599 254.904 547.709C254.85 547.818 254.818 547.938 254.811 548.06L253.676 563.203L253.743 563.368C253.777 563.578 253.881 563.771 254.037 563.915C254.193 564.06 254.392 564.149 254.604 564.168L254.539 564.195Z" fill="#EBAD20"/>
<path d="M235.836 562.129C234.722 562.213 233.636 562.517 232.641 563.023C231.645 563.529 230.76 564.227 230.035 565.077C229.311 565.927 228.763 566.912 228.422 567.976C228.08 569.039 227.953 570.159 228.047 571.272C228.476 573.472 229.728 575.426 231.547 576.735C233.367 578.045 235.617 578.611 237.839 578.32C240.062 578.028 242.089 576.9 243.509 575.166C244.929 573.432 245.635 571.221 245.482 568.985C245.099 566.803 243.872 564.859 242.067 563.576C240.261 562.293 238.022 561.773 235.836 562.129Z" fill="#F4C621"/>
<path d="M238.04 578.983C240.506 578.758 242.782 577.564 244.367 575.662C245.953 573.76 246.719 571.307 246.496 568.841C246.077 566.403 244.708 564.231 242.69 562.801C240.672 561.371 238.17 560.8 235.731 561.212C234.511 561.319 233.324 561.666 232.238 562.234C231.153 562.802 230.191 563.579 229.408 564.521C228.624 565.463 228.036 566.55 227.675 567.721C227.315 568.892 227.19 570.122 227.308 571.342C227.727 573.779 229.096 575.951 231.114 577.381C233.132 578.811 235.634 579.382 238.073 578.97L238.04 578.983ZM237.819 577.118C235.866 577.477 233.851 577.047 232.215 575.921C230.579 574.796 229.457 573.067 229.094 571.115C228.945 569.14 229.579 567.186 230.86 565.675C232.141 564.165 233.966 563.22 235.939 563.045C237.89 562.695 239.901 563.13 241.535 564.254C243.168 565.378 244.292 567.1 244.663 569.048C244.823 571.025 244.192 572.984 242.909 574.497C241.626 576.01 239.796 576.952 237.819 577.118Z" fill="#EBAD20"/>
<path d="M237.143 564.972C236.35 565.039 235.578 565.263 234.872 565.63C234.165 565.997 233.539 566.5 233.028 567.11C232.517 567.721 232.131 568.426 231.893 569.185C231.656 569.945 231.571 570.744 231.643 571.537C231.87 573.209 232.751 574.723 234.094 575.745C235.436 576.767 237.13 577.214 238.802 576.987C240.474 576.761 241.988 575.879 243.01 574.537C244.032 573.194 244.479 571.501 244.252 569.829C244.111 569.04 243.813 568.287 243.378 567.614C242.942 566.942 242.377 566.362 241.715 565.91C241.054 565.458 240.309 565.142 239.524 564.981C238.738 564.82 237.929 564.817 237.143 564.972Z" fill="#F4DB08"/>
<path d="M238.573 567.266C237.773 567.443 237.042 567.848 236.468 568.433C235.893 569.018 235.502 569.757 235.34 570.56C235.178 571.363 235.254 572.196 235.557 572.957C235.86 573.719 236.377 574.376 237.047 574.848C237.717 575.32 238.509 575.588 239.328 575.618C240.147 575.648 240.957 575.44 241.659 575.018C242.362 574.596 242.927 573.98 243.285 573.243C243.643 572.506 243.78 571.681 243.678 570.868C243.581 570.295 243.371 569.748 243.062 569.257C242.752 568.765 242.349 568.34 241.874 568.006C241.4 567.671 240.864 567.433 240.298 567.306C239.731 567.18 239.145 567.166 238.573 567.266Z" fill="#F4E400"/>
<path d="M57.6334 509.526L57.0073 508.362L34.131 520.756L34.7572 521.921L57.6334 509.526Z" fill="#C91E7C"/>
<path d="M31.265 521.537C30.3412 522.38 29.6791 523.472 29.3573 524.681C29.0355 525.89 29.0675 527.166 29.4495 528.358C29.8316 529.549 30.5476 530.606 31.5126 531.402C32.4775 532.199 33.6508 532.702 34.8931 532.851C36.1353 533 37.3944 532.79 38.5206 532.245C39.6468 531.7 40.5928 530.843 41.2464 529.776C41.8999 528.709 42.2335 527.477 42.2074 526.226C42.1813 524.975 41.7966 523.758 41.0992 522.719C39.9365 521.28 38.2585 520.352 36.4221 520.131C34.5856 519.91 32.7355 520.415 31.265 521.537Z" fill="#E32888"/>
<path d="M38.996 532.927C40.7306 531.892 41.9866 530.213 42.4914 528.257C42.9961 526.301 42.7089 524.224 41.692 522.478C40.4436 520.878 38.6119 519.837 36.5979 519.585C34.584 519.332 32.5519 519.887 30.9467 521.13C29.2126 522.174 27.9591 523.859 27.4571 525.821C26.9552 527.782 27.245 529.862 28.264 531.611C29.5169 533.203 31.3483 534.235 33.3588 534.481C35.3693 534.728 37.3957 534.169 38.996 532.927ZM38.2382 531.817C36.9258 532.853 35.2594 533.335 33.5963 533.157C31.9332 532.98 30.4059 532.157 29.3419 530.867C28.5295 529.406 28.3219 527.684 28.7635 526.072C29.2052 524.459 30.2609 523.084 31.7044 522.24C33.0129 521.206 34.6752 520.728 36.3332 520.908C37.9911 521.088 39.5119 521.912 40.5678 523.203C41.3881 524.657 41.6036 526.376 41.1677 527.987C40.7318 529.599 39.6796 530.974 38.2382 531.817Z" fill="#C91E7C"/>
<path d="M32.9496 523.229C32.3142 523.541 31.753 523.985 31.3043 524.532C30.8556 525.079 30.5297 525.717 30.3487 526.401C30.1678 527.085 30.136 527.8 30.2556 528.497C30.3751 529.195 30.6432 529.858 31.0417 530.443C31.4401 531.028 31.9596 531.52 32.5649 531.887C33.1703 532.253 33.8473 532.485 34.5502 532.567C35.2531 532.649 35.9653 532.579 36.6387 532.362C37.3121 532.144 37.9309 531.785 38.4532 531.307C39.0887 530.996 39.6498 530.551 40.0985 530.004C40.5473 529.457 40.8732 528.82 41.0541 528.136C41.235 527.452 41.2668 526.737 41.1472 526.039C41.0277 525.342 40.7596 524.678 40.3612 524.093C39.9627 523.509 39.4433 523.016 38.8379 522.65C38.2326 522.283 37.5555 522.051 36.8527 521.969C36.1498 521.887 35.4375 521.958 34.7641 522.175C34.0907 522.392 33.4719 522.752 32.9496 523.229Z" fill="#E56FA1"/>
<path d="M34.9043 524.928C34.3869 525.379 34.0114 525.971 33.8235 526.632C33.6355 527.292 33.643 527.993 33.8451 528.649C34.0472 529.306 34.4353 529.889 34.9622 530.33C35.4892 530.77 36.1325 531.048 36.8143 531.13C37.4961 531.213 38.1871 531.095 38.8037 530.793C39.4203 530.491 39.936 530.016 40.2885 529.427C40.6409 528.837 40.8149 528.158 40.7894 527.472C40.7639 526.786 40.54 526.122 40.1448 525.56C39.8424 525.174 39.467 524.852 39.0399 524.611C38.6127 524.37 38.1424 524.216 37.6556 524.157C37.1689 524.099 36.6754 524.136 36.2033 524.269C35.7311 524.401 35.2897 524.625 34.9043 524.928Z" fill="#EB9FBF"/>
<path d="M58.4162 509.284C55.3407 506.262 53.0696 502.519 51.8096 498.396C50.6202 495.467 42.6412 500.93 43.6678 505.536C45.1203 509.584 47.5219 513.516 49.624 513.123L58.4162 509.284Z" fill="#E32888"/>
<path d="M49.6799 513.828L58.5246 509.93L59.4132 509.569L58.7305 508.926L57.5563 507.64C56.6559 506.628 55.824 505.557 55.066 504.434C53.7541 502.621 52.8152 500.565 52.3037 498.387C52.2831 498.244 52.2281 498.108 52.1434 497.992C50.9085 496.461 48.8085 497.237 47.0271 498.421C45.7077 499.17 44.6265 500.276 43.9077 501.612C43.1889 502.949 42.8618 504.461 42.9638 505.974C43.6158 507.842 44.4934 509.623 45.5771 511.277C46.707 512.927 47.9995 514.127 49.6809 514.02L49.6799 513.828ZM46.6406 510.309C45.6355 508.774 44.8228 507.121 44.2206 505.387C43.7417 503.358 45.621 500.717 47.7705 499.307C48.4545 498.844 49.2281 498.53 50.0413 498.385C50.6337 498.145 50.9782 498.426 51.0913 498.611C51.61 500.949 52.6099 503.154 54.0273 505.086C54.9868 506.479 56.0382 507.807 57.1745 509.06L49.3037 512.524C48.7443 512.751 47.605 511.834 46.5943 510.289L46.6406 510.309Z" fill="#C91E7C"/>
<path d="M113.737 487.856L113.386 487.653L114.041 488.039C121.104 491.459 126.223 484.051 126.223 484.051C126.223 484.051 121.059 491.63 127.908 495.941L128.272 496.177L128.352 496.374L127.895 496.1C120.713 492.384 115.594 499.983 115.594 499.983C115.594 499.983 120.562 492.484 114.075 488.217L113.48 487.884L113.737 487.856Z" fill="white"/>
<path d="M118.31 332.576L118.006 332.393L118.648 332.746C125.723 336.198 130.796 328.771 130.796 328.771C130.796 328.771 125.665 336.337 132.481 340.662L132.878 340.884L132.958 341.081L132.502 340.807C125.286 337.104 120.168 344.703 120.168 344.703C120.168 344.703 125.135 337.204 118.681 332.924L118.086 332.591L118.31 332.576Z" fill="white"/>
<path d="M52.9601 371.226L52.6424 371.01L53.2974 371.395C60.3598 374.815 65.4329 367.388 65.4329 367.388C65.4329 367.388 60.3145 374.987 67.1176 379.278L67.5278 379.533L67.461 379.369L67.5412 379.566L67.0846 379.291C59.8691 375.589 54.7507 383.188 54.7507 383.188C54.7507 383.188 59.7179 375.689 53.2511 371.376L52.6887 371.029L52.9601 371.226Z" fill="white"/>
<path d="M30.6322 199.075C30.5288 198.987 30.4099 198.918 30.2815 198.873L30.8625 198.982C37.892 202.414 42.9785 195.02 42.9785 195.02C42.9785 195.02 37.8467 202.586 44.6631 206.911L45.0601 207.133L44.9932 206.968L45.0734 207.166L44.6169 206.891C37.4342 203.175 32.2829 210.788 32.2829 210.788C32.2829 210.788 37.2831 203.275 30.7834 198.975L30.2209 198.629L30.6322 199.075Z" fill="white"/>
<path d="M-6.29559 565.082L-5.97786 565.298C-4.90611 565.711 -3.72427 565.741 -2.63316 565.382C-1.54204 565.023 -0.608942 564.297 0.00762995 563.327C0.00762995 563.327 -2.53205 567.081 0.809847 569.174L0.645311 569.241C-0.424095 568.786 -1.62038 568.725 -2.73009 569.071C-3.83979 569.416 -4.79069 570.144 -5.41316 571.126C-5.41316 571.126 -3.0576 567.486 -6.15576 565.332L-6.44676 565.182L-6.29559 565.082Z" fill="white"/>
<path d="M86.6531 452.313L86.9708 452.529C88.0294 452.907 89.1851 452.916 90.2494 452.554C91.3136 452.191 92.2236 451.479 92.8309 450.533C92.8309 450.533 90.3108 454.239 93.6331 456.379L93.5529 456.182C92.4835 455.727 91.2872 455.666 90.1775 456.012C89.0678 456.357 88.1169 457.085 87.4944 458.067C87.4944 458.067 89.8634 454.459 86.7323 452.319L86.4608 452.122L86.6531 452.313Z" fill="white"/>
<path d="M63.4635 548.715L63.8141 548.918C64.8885 549.318 66.0677 549.337 67.1546 548.973C68.2415 548.608 69.1705 547.882 69.7863 546.915C69.7863 546.915 67.2466 550.668 70.6019 552.794C69.5335 552.332 68.3347 552.267 67.2231 552.613C66.1115 552.959 65.1608 553.692 64.5434 554.679C64.5434 554.679 66.8989 551.039 63.8008 548.885L63.5098 548.735C63.5098 548.735 63.4501 548.682 63.4635 548.715Z" fill="white"/>
<path d="M40.7464 487.861L41.0641 488.077C42.1373 488.477 43.3146 488.499 44.4025 488.141C45.4903 487.783 46.4239 487.065 47.0496 486.106C47.0496 486.106 44.5295 489.813 47.8848 491.939L47.7202 492.006C46.6518 491.544 45.4531 491.48 44.3415 491.825C43.2299 492.171 42.2791 492.904 41.6617 493.891C41.6617 493.891 44.0173 490.251 40.9191 488.097L40.6281 487.947L40.7464 487.861Z" fill="white"/>
<path d="M7.98926 463.554L8.32653 463.724C9.39193 464.137 10.5676 464.168 11.6531 463.811C12.7385 463.454 13.6666 462.732 14.2791 461.767C14.2791 461.767 11.7724 465.507 15.1142 467.6L14.8695 467.469C13.8076 467.015 12.6195 466.951 11.5146 467.287C10.4098 467.624 9.45925 468.339 8.83058 469.308C8.83058 469.308 11.1995 465.701 8.10136 463.547L7.79698 463.364L7.98926 463.554Z" fill="white"/>
<path d="M147.852 458.86L147.535 458.644L148.19 459.03C155.233 462.496 160.292 455.036 160.292 455.036C160.292 455.036 155.174 462.635 161.99 466.959L162.387 467.181L162.32 467.017L162.401 467.214L161.99 466.959C154.761 463.224 149.61 470.836 149.61 470.836C149.61 470.836 154.61 463.323 148.124 459.057L147.561 458.71L147.852 458.86Z" fill="white"/>
<path d="M29.3683 129.969L29.0506 129.753L29.7056 130.139C36.7484 133.604 41.8545 126.164 41.8545 126.164C41.8545 126.164 36.736 133.763 43.5391 138.054L43.936 138.276L43.8692 138.112C43.8692 138.112 43.936 138.276 43.9494 138.309L43.5062 138.067C36.2907 134.365 31.1589 141.931 31.1589 141.931C31.1589 141.931 36.1261 134.432 29.6727 130.152L29.0773 129.819L29.3683 129.969Z" fill="white"/>
<path d="M113.123 257.586L112.805 257.37L113.46 257.756C120.49 261.189 125.609 253.781 125.609 253.781C125.609 253.781 120.478 261.347 127.294 265.671L127.691 265.894L127.624 265.729L127.704 265.926L127.261 265.685C120.032 261.949 114.914 269.548 114.914 269.548C114.914 269.548 119.848 262.063 113.46 257.756L112.865 257.422L113.123 257.586Z" fill="white"/>
<path d="M202.473 498.019L202.123 497.816L202.778 498.202C209.84 501.621 214.946 494.181 214.946 494.181C214.946 494.181 209.795 501.793 216.644 506.104L217.008 506.339L217.253 506.47L216.796 506.195C209.581 502.493 204.429 510.105 204.429 510.105C204.429 510.105 209.43 502.593 202.93 498.293L202.335 497.96L202.473 498.019Z" fill="white"/>
<path d="M66.7802 325.859L67.1308 326.062C68.1962 326.475 69.3719 326.506 70.4574 326.149C71.5428 325.792 72.4709 325.069 73.0834 324.105C73.0834 324.105 70.5633 327.812 73.9185 329.938L73.9853 330.102L73.754 330.005C72.6825 329.556 71.4866 329.503 70.3794 329.854C69.2723 330.206 68.3259 330.939 67.7089 331.923C67.7089 331.923 70.0511 328.25 66.9529 326.096L66.6619 325.946L66.7802 325.859Z" fill="white"/>
<path d="M85.5765 661.801L85.8603 661.839C86.9328 662.245 88.1124 662.271 89.2018 661.913C90.2913 661.554 91.2246 660.832 91.8458 659.868C91.8458 659.868 89.5036 663.541 92.6943 665.734L92.6141 665.537C91.4979 665.101 90.2607 665.089 89.1362 665.503C88.0118 665.917 87.078 666.729 86.5114 667.785C86.5114 667.785 88.867 664.145 85.7688 661.991L85.4778 661.841L85.5765 661.801Z" fill="white"/>
<path d="M24.7786 688.06L25.083 688.243C26.1547 688.656 27.3366 688.686 28.4277 688.327C29.5188 687.968 30.4519 687.242 31.0685 686.273C31.0685 686.273 28.5288 690.026 31.8841 692.152L31.8039 691.954C30.7324 691.506 29.5365 691.453 28.4294 691.804C27.3222 692.155 26.3758 692.888 25.7588 693.872C25.7588 693.872 28.1143 690.232 25.0162 688.078L24.7118 687.895L24.7786 688.06Z" fill="white"/>
<path d="M123.177 713.237L123.11 713.073L123.428 713.289C124.501 713.688 125.678 713.711 126.766 713.353C127.854 712.995 128.788 712.277 129.413 711.318C129.413 711.318 126.907 715.058 130.216 717.165L130.283 717.329L130.202 717.132C129.133 716.677 127.937 716.616 126.827 716.962C125.717 717.307 124.766 718.035 124.144 719.017C124.144 719.017 126.513 715.41 123.415 713.256L123.11 713.073L123.177 713.237Z" fill="white"/>
<path d="M67.0289 207.987L67.3333 208.17C68.4064 208.57 69.5838 208.593 70.6716 208.235C71.7594 207.877 72.693 207.159 73.3187 206.2C73.3187 206.2 70.812 209.94 74.1539 212.033L74.2207 212.198L74.1405 212C73.0681 211.559 71.8746 211.509 70.7693 211.86C69.664 212.211 68.7174 212.939 68.0954 213.918C68.0954 213.918 70.451 210.278 67.3528 208.124L67.0618 207.974L67.0289 207.987Z" fill="white"/>
<path d="M6.45469 16.5177L6.75907 16.7008C7.82446 17.1138 9.00011 17.1444 10.0856 16.7876C11.1711 16.4307 12.0992 15.7084 12.7116 14.7437C12.7116 14.7437 10.3694 18.4168 13.5601 20.6098L13.627 20.7743L13.5601 20.6098C12.4918 20.1474 11.293 20.0833 10.1814 20.4291C9.06983 20.775 8.11906 21.5079 7.50165 22.4948C7.50165 22.4948 9.85723 18.8548 6.75907 16.7008L6.46805 16.5506L6.45469 16.5177Z" fill="white"/>
<path d="M112.199 764.467C112.088 764.39 111.971 764.322 111.849 764.264L112.279 764.664C119.355 768.117 124.428 760.69 124.428 760.69C124.428 760.69 119.343 768.275 126.159 772.6L126.51 772.802C126.51 772.802 126.51 772.802 126.59 773L126.114 772.771C118.931 769.056 113.8 776.622 113.8 776.622C113.8 776.622 118.858 768.97 112.279 764.664L111.684 764.331L112.199 764.467Z" fill="white"/>
<path d="M52.6454 662.368L52.7441 662.328C53.8159 662.741 54.9977 662.771 56.0888 662.412C57.1799 662.053 58.1131 661.327 58.7296 660.358C58.7296 660.358 56.3874 664.03 59.5781 666.224C58.5087 665.769 57.3124 665.708 56.2027 666.054C55.093 666.399 54.1421 667.127 53.5196 668.109C53.5196 668.109 55.8752 664.469 52.777 662.315L52.4727 662.131L52.6454 662.368Z" fill="white"/>
<path d="M287.88 728.552L287.576 728.369L288.217 728.722C295.26 732.188 300.353 724.714 300.353 724.714C300.353 724.714 295.215 732.359 302.051 736.638L302.448 736.86L302.381 736.695L302.461 736.893L302.018 736.651C294.802 732.949 289.671 740.515 289.671 740.515C289.671 740.515 294.651 733.048 288.171 728.702L287.576 728.369L287.88 728.552Z" fill="white"/>
<path d="M4.85861 775.237L5.19588 775.407C6.26645 775.82 7.44642 775.853 8.5384 775.5C9.63037 775.148 10.5681 774.431 11.1947 773.47C11.1947 773.47 8.6417 777.19 11.997 779.316L12.0638 779.481L11.9702 779.25C10.8862 778.744 9.65422 778.651 8.5066 778.99C7.35898 779.329 6.37495 780.076 5.74002 781.09C5.74002 781.09 8.09558 777.45 4.99742 775.296L4.70642 775.146C4.70642 775.146 4.84524 775.204 4.85861 775.237Z" fill="white"/>
<path d="M86.2549 575.575L86.4605 575.798C87.5152 576.163 88.662 576.163 89.7166 575.797C90.7711 575.431 91.672 574.722 92.2742 573.782C92.2742 573.782 89.9187 577.422 93.1094 579.615C92.0326 579.167 90.8326 579.112 89.7191 579.459C88.6056 579.806 87.6495 580.533 87.018 581.514C87.018 581.514 89.3736 577.873 86.3217 575.739L86.0173 575.556C86.0173 575.556 86.2219 575.588 86.2549 575.575Z" fill="white"/>
<defs>
<linearGradient id="paint0_linear_25_5318" x1="-23.1334" y1="191.196" x2="2.89977" y2="173.264" gradientUnits="userSpaceOnUse">
<stop offset="0.11" stop-color="#FFFB74"/>
<stop offset="0.49" stop-color="#FFFA00"/>
<stop offset="0.93" stop-color="#FFC921"/>
</linearGradient>
<radialGradient id="paint1_radial_25_5318" cx="0" cy="0" r="1" gradientUnits="userSpaceOnUse" gradientTransform="translate(3.47757 170.714) rotate(-112.1) scale(33.077 33.4045)">
<stop offset="0.41" stop-color="#FFFB62"/>
<stop offset="0.85" stop-color="#F39F46"/>
</radialGradient>
<linearGradient id="paint2_linear_25_5318" x1="98.6733" y1="321.227" x2="122.971" y2="304.498" gradientUnits="userSpaceOnUse">
<stop offset="0.11" stop-color="#FFFB74"/>
<stop offset="0.49" stop-color="#FFFA00"/>
<stop offset="0.93" stop-color="#FFC921"/>
</linearGradient>
<radialGradient id="paint3_radial_25_5318" cx="0" cy="0" r="1" gradientUnits="userSpaceOnUse" gradientTransform="translate(123.207 302.587) rotate(-112.1) scale(30.9245 31.2306)">
<stop offset="0.41" stop-color="#FFFB62"/>
<stop offset="0.85" stop-color="#F39F46"/>
</radialGradient>
</defs>
</svg>
