<svg width="343" height="927" viewBox="0 0 343 927" fill="none" xmlns="http://www.w3.org/2000/svg">
<path d="M52.7171 525.553C52.7171 525.553 52.6369 525.356 52.3798 525.384L53.0214 525.736C60.0046 529.15 65.0716 521.802 65.0716 521.802C65.0716 521.802 59.9922 529.308 66.749 533.58L67.0997 533.783L67.1799 533.98L66.7367 533.738C59.6003 530.042 54.5344 537.582 54.5344 537.582C54.5344 537.582 59.4491 530.142 53.0553 525.914L52.46 525.581L52.7171 525.553Z" fill="white"/>
<path d="M13.3949 531.247L13.7456 531.449C14.8068 531.841 15.9695 531.863 17.0444 531.51C18.1193 531.157 19.0431 530.45 19.6652 529.505C19.6652 529.505 17.3096 533.146 20.4407 535.286L20.196 535.155C19.1309 534.707 17.9411 534.653 16.8396 535.002C15.738 535.351 14.7966 536.081 14.1838 537.06C14.1838 537.06 16.5393 533.42 13.4545 531.299L13.1635 531.149L13.3949 531.247Z" fill="white"/>
<path d="M-1.77434 582.068L-1.46995 582.252C-0.412878 582.671 0.757028 582.709 1.8394 582.361C2.92178 582.012 3.84928 581.298 4.46307 580.341C4.46307 580.341 2.10749 583.981 5.27148 586.108L5.15121 585.812C4.09251 585.364 2.90887 585.309 1.81293 585.655C0.716994 586.002 -0.219424 586.728 -0.828097 587.703C-0.828097 587.703 1.52749 584.063 -1.55731 581.942L-1.84833 581.792L-1.77434 582.068Z" fill="white"/>
<path d="M102.086 559.14L102.39 559.323C103.45 559.729 104.617 559.757 105.695 559.403C106.773 559.049 107.697 558.335 108.31 557.38C108.31 557.38 105.954 561.02 109.131 563.18L109.198 563.344L109.118 563.147C108.053 562.699 106.863 562.644 105.762 562.993C104.66 563.342 103.719 564.072 103.106 565.052C103.106 565.052 105.475 561.444 102.39 559.323L102.086 559.14Z" fill="white"/>
<path d="M61.6583 480.634L61.9627 480.817C63.0225 481.223 64.1897 481.251 65.2678 480.897C66.346 480.543 67.2693 479.828 67.8823 478.873C67.8823 478.873 65.5268 482.513 68.7041 484.674C67.6411 484.219 66.451 484.158 65.3469 484.501C64.2428 484.844 63.2968 485.568 62.6785 486.545C62.6785 486.545 65.0475 482.938 61.9627 480.817L61.6717 480.667L61.6583 480.634Z" fill="white"/>
<path d="M44.3652 565.595L44.7025 565.765C45.7599 566.098 46.8985 566.065 47.935 565.672C48.9715 565.279 49.8456 564.548 50.4165 563.598C50.4165 563.598 48.0609 567.238 51.2054 569.411C50.1451 568.998 48.9736 568.97 47.8946 569.331C46.8155 569.692 45.8971 570.42 45.2991 571.388C45.2991 571.388 47.668 567.781 44.5503 565.673L44.2593 565.523L44.3652 565.595Z" fill="white"/>
<path d="M21.8812 505.412L22.2185 505.581C23.2797 505.974 24.4425 505.995 25.5174 505.642C26.5923 505.289 27.5161 504.583 28.1382 503.638C28.1382 503.638 25.7826 507.278 28.96 509.438L28.7954 509.505C27.7367 509.057 26.5531 509.001 25.4571 509.348C24.3612 509.695 23.4248 510.421 22.8161 511.396C22.8161 511.396 25.1717 507.756 22.054 505.648L21.9604 505.418L21.8812 505.412Z" fill="white"/>
<path d="M79.8506 497.207L79.5328 496.991L80.1549 497.39C87.1381 500.803 92.1588 493.436 92.1588 493.436C92.1588 493.436 87.0795 500.942 93.8363 505.214L94.2332 505.436L94.3134 505.634L93.8702 505.392C86.7338 501.696 81.6545 509.202 81.6545 509.202C81.6545 509.202 86.5826 501.796 80.1755 497.535L79.613 497.188C79.6907 497.207 79.7709 497.214 79.8506 497.207Z" fill="white"/>
<path d="M-5.93284 698.997L-6.27012 698.827L-5.62847 699.18C1.3547 702.594 6.42166 695.246 6.42166 695.246C6.42166 695.246 1.34234 702.752 8.09913 707.024L8.42305 707.161L7.93358 706.899C0.810586 703.236 -4.23585 710.729 -4.23585 710.729C-4.23585 710.729 0.659408 703.336 -5.74774 699.075L-6.31021 698.729L-5.93284 698.997Z" fill="white"/>
<path d="M24.4938 721.72L24.8311 721.89C25.8846 722.295 27.0456 722.324 28.1181 721.973C29.1906 721.621 30.1089 720.91 30.7179 719.959C30.7179 719.959 28.3623 723.6 31.5725 725.746L31.6394 725.911L31.5592 725.713C30.4922 725.28 29.3073 725.233 28.2093 725.581C27.1114 725.928 26.1697 726.649 25.547 727.618C25.547 727.618 27.9159 724.011 24.8311 721.89L24.5401 721.74L24.4938 721.72Z" fill="white"/>
<path d="M24.8873 747.707L24.9408 747.838C26.0006 748.244 27.1678 748.272 28.2459 747.918C29.3241 747.564 30.2474 746.85 30.8604 745.895C30.8604 745.895 28.5049 749.535 31.6822 751.695L31.749 751.859L31.6822 751.695C30.6192 751.24 29.4291 751.179 28.325 751.522C27.2209 751.865 26.2749 752.59 25.6566 753.567C25.6566 753.567 28.0256 749.959 24.9408 747.838L24.6498 747.688L24.8873 747.707Z" fill="white"/>
<path d="M33.6855 678.08L34.0228 678.249C35.0826 678.655 36.2498 678.683 37.3279 678.329C38.4061 677.975 39.3294 677.261 39.9425 676.306C39.9425 676.306 37.5869 679.946 40.7642 682.106L40.831 682.271L40.7642 682.106C39.7066 681.659 38.5251 681.6 37.4284 681.94C36.3318 682.28 35.3907 682.997 34.7716 683.964C34.7716 683.964 37.1405 680.357 34.0557 678.236L33.7318 678.099L33.6855 678.08Z" fill="white"/>
<path d="M6.71003 772.147L7.04731 772.317C8.10077 772.722 9.2618 772.752 10.3343 772.4C11.4068 772.048 12.3251 771.337 12.9341 770.387C12.9341 770.387 10.5785 774.027 13.7559 776.187L13.6757 775.99C12.6202 775.528 11.4336 775.461 10.3332 775.803C9.23279 776.144 8.29201 776.87 7.683 777.848C7.683 777.848 10.0386 774.208 6.93424 772.133L6.64322 771.983L6.71003 772.147Z" fill="white"/>
<g style="mix-blend-mode:multiply" opacity="0.6">
<path d="M-12.5641 158.688C-9.83309 160.26 -7.23402 162.051 -4.79248 164.043C-0.253436 162.912 4.36728 162.138 9.02724 161.729C11.6054 161.563 14.9926 163.485 14.6569 166.152C13.9151 169.194 12.5186 172.037 10.5647 174.484C9.55851 175.996 8.43455 177.427 7.20326 178.762C7.28082 178.869 7.33126 178.994 7.35026 179.124C8.8564 182.266 10.1685 185.498 11.2792 188.8C11.9719 191.356 13.1407 194.14 10.55 195.69C5.63507 197.089 0.411243 196.965 -4.43139 195.333C-6.06824 197.501 -7.8894 199.523 -9.87455 201.377C-10.5435 202.128 -11.4054 202.681 -12.3667 202.977C-13.328 203.273 -14.3519 203.299 -15.3273 203.054C-17.1238 202.595 -18.6544 198.731 -18.8577 196.437C-19.3021 190.905 -19.7481 188.863 -19.7971 187.043C-23.1469 185.51 -26.4064 183.787 -29.5597 181.883C-33.2543 179.204 -33.8742 177.961 -33.6508 176.528C-33.2359 173.868 -24.785 169.095 -21.4333 168.002C-22.1127 165.479 -23.3529 159.121 -19.8592 157.434C-18.6216 157.139 -17.337 157.098 -16.0832 157.314C-14.8293 157.529 -13.6322 157.997 -12.5641 158.688Z" fill="#5DC1EE"/>
</g>
<path d="M-10.2028 159.876C-6.92665 161.834 -3.78014 164.001 -0.782833 166.364C2.95782 165.091 6.79539 164.122 10.6923 163.468C11.2399 163.346 11.8086 163.355 12.3518 163.496C12.895 163.636 13.3972 163.903 13.8174 164.274C14.2376 164.646 14.5638 165.112 14.7693 165.634C14.9748 166.156 15.0537 166.719 14.9996 167.278C14.4119 170.086 13.244 172.741 11.5707 175.072C10.6762 176.495 9.65439 177.834 8.51785 179.072L8.66485 179.434C10.092 182.43 11.3414 185.507 12.4067 188.649C13.0593 191.106 14.1613 193.725 11.8009 195.182C10.0347 195.866 8.07214 195.838 6.32585 195.105C3.67687 194.341 1.48345 193.66 -1.12026 192.723C-3.00603 195.259 -5.06755 197.659 -7.28962 199.906C-8.45803 200.993 -11.3019 203.337 -13.0818 202.258C-13.7563 201.554 -14.2738 200.716 -14.6004 199.798C-14.9269 198.88 -15.0551 197.903 -14.9763 196.931C-15.1427 193.315 -15.0249 189.69 -14.6238 186.092C-17.6101 185.158 -20.8627 183.757 -24.6242 182.141C-26.3631 181.352 -30.2377 179.551 -29.6296 177.272C-29.0215 174.994 -26.7157 174.441 -25.1165 173.753C-22.1216 172.537 -19.0281 171.281 -15.8667 170.38C-16.5584 168.016 -17.1977 165.592 -17.692 163.148C-18.0506 161.415 -17.9237 159.178 -16.0149 158.403C-14.1061 157.628 -11.8573 158.823 -10.2028 159.876Z" fill="url(#paint0_linear_23_2189)"/>
<path style="mix-blend-mode:multiply" d="M-10.2035 159.877L-8.86671 160.714C-11.3388 159.724 -13.2958 160.097 -14.3244 161.435C-15.7922 163.296 -14.7172 167.077 -13.9997 169.315C-13.0541 172.305 -16.3231 171.524 -18.5212 173.758C-22.8256 178.075 -17.4953 183.271 -13.5403 184.042C-10.9982 184.543 -12.9409 191.466 -8.05026 193.314C-7.23819 193.526 -6.38778 193.546 -5.56658 193.372C-4.74538 193.199 -3.976 192.836 -3.31955 192.313C-0.804805 190.103 0.225395 191.602 2.91965 192.194C7.14614 193.162 12.0063 192.952 10.6217 189.259C9.51605 186.294 8.25919 183.388 6.85608 180.552C6.22798 179.005 8.79818 177.31 11.3913 173.688C12.0331 172.814 14.1222 169.934 14.8237 169.112C13.967 171.215 12.8755 173.214 11.57 175.072C10.6755 176.495 9.6537 177.834 8.51716 179.072L8.66416 179.434C10.0913 182.43 11.3407 185.507 12.406 188.649C13.0586 191.106 14.1606 193.725 11.8003 195.182C10.034 195.866 8.07145 195.839 6.32516 195.105C3.67618 194.341 1.48276 193.66 -1.12095 192.723C-3.00672 195.259 -5.06824 197.659 -7.29031 199.906C-8.45872 200.993 -11.3026 203.337 -13.0825 202.258C-13.7569 201.554 -14.2745 200.716 -14.6011 199.798C-14.9276 198.88 -15.0558 197.903 -14.977 196.931C-15.1434 193.315 -15.0255 189.691 -14.6245 186.092C-17.6108 185.158 -20.8634 183.757 -24.6249 182.141C-26.3638 181.352 -30.2384 179.551 -29.6303 177.273C-29.0221 174.994 -26.7164 174.441 -25.1172 173.753C-22.1223 172.537 -19.0288 171.281 -15.8674 170.381C-16.5591 168.016 -17.1984 165.592 -17.6926 163.148C-18.0513 161.415 -17.9244 159.178 -16.0156 158.403C-14.1068 157.628 -11.858 158.823 -10.2035 159.877Z" fill="url(#paint1_radial_23_2189)"/>
<g style="mix-blend-mode:multiply">
<path d="M-10.2028 159.876C-6.92665 161.834 -3.78014 164.001 -0.782833 166.364C2.95782 165.091 6.79539 164.122 10.6923 163.468C11.2399 163.346 11.8086 163.355 12.3518 163.496C12.895 163.636 13.3972 163.903 13.8174 164.274C14.2376 164.646 14.5638 165.112 14.7693 165.634C14.9748 166.156 15.0537 166.719 14.9996 167.278C14.4119 170.086 13.244 172.741 11.5707 175.072C10.6762 176.495 9.65439 177.834 8.51785 179.072L8.66485 179.434C10.092 182.43 11.3414 185.507 12.4067 188.649C13.0593 191.106 14.1613 193.725 11.8009 195.182C10.0347 195.866 8.07214 195.838 6.32585 195.105C3.67687 194.341 1.48345 193.66 -1.12026 192.723C-3.00603 195.259 -5.06755 197.659 -7.28962 199.906C-8.45803 200.993 -11.3019 203.337 -13.0818 202.258C-13.7563 201.554 -14.2738 200.716 -14.6004 199.798C-14.9269 198.88 -15.0551 197.903 -14.9763 196.931C-15.1427 193.315 -15.0249 189.69 -14.6238 186.092C-17.6101 185.158 -20.8627 183.757 -24.6242 182.141C-26.3631 181.352 -30.2377 179.551 -29.6296 177.272C-29.0215 174.994 -26.7157 174.441 -25.1165 173.753C-22.1216 172.537 -19.0281 171.281 -15.8667 170.38C-16.5584 168.016 -17.1977 165.592 -17.692 163.148C-18.0506 161.415 -17.9237 159.178 -16.0149 158.403C-14.1061 157.628 -11.8573 158.823 -10.2028 159.876ZM-15.8817 161.186C-15.9409 162.304 -15.7735 163.423 -15.3896 164.475C-14.8511 166.556 -14.3126 168.638 -13.7082 170.692C-13.6573 170.864 -13.6502 171.045 -13.6878 171.22C-13.7254 171.395 -13.8064 171.557 -13.9233 171.693C-14.0402 171.828 -14.1893 171.932 -14.3568 171.994C-14.5243 172.057 -14.7048 172.076 -14.8818 172.051C-17.1855 172.986 -19.5221 173.935 -21.9657 174.621C-23.6905 175.036 -25.3434 175.707 -26.8693 176.612C-29.6298 178.499 -23.8547 180.448 -22.5261 180.982C-19.4392 182.259 -17.1512 183.361 -13.9469 184.361C-13.2991 184.634 -12.9546 184.916 -12.9402 185.14C-13.1072 187.278 -13.3312 192.391 -13.2779 193.75C-13.4084 195.627 -13.3367 197.513 -13.0639 199.375C-12.4515 202.96 -8.23544 198.143 -7.33749 197.05C-5.61878 195.24 -4.15199 193.188 -2.51964 191.26C-1.94262 190.604 -1.81297 190.168 -1.07977 190.368C2.08373 191.514 5.31339 192.469 8.59168 193.227C9.70744 193.425 11.3549 193.14 11.4004 191.741C10.4951 187.962 9.21874 184.281 7.58998 180.752C7.16765 180.158 6.81672 179.515 6.54443 178.838C8.04511 176.97 9.442 175.02 10.7288 172.999C11.4026 171.92 14.8145 167.199 12.9328 165.587C11.7534 164.57 9.00029 165.343 7.55124 165.74C4.65315 166.533 2.01932 167.411 -0.92405 168.376C-1.18733 168.483 -2.06234 167.65 -3.37337 166.687C-6.23615 164.376 -9.30978 162.338 -12.5538 160.601C-13.2684 160.163 -15.4947 159.495 -15.8817 161.186Z" fill="#D47F02"/>
</g>
<path d="M10.2401 193.133C10.2401 193.133 11.1245 193.234 10.3526 190.672C9.40225 187.693 8.11252 184.834 6.50882 182.15L5.08391 179.585C6.4797 177.83 8.17884 176.067 8.17884 176.067L6.20285 179.131C7.80659 182.502 9.21215 185.963 10.4124 189.498C11.3993 191.55 11.2828 193.246 10.2401 193.133Z" fill="#FFF6E6"/>
<path d="M8.32127 175.663C8.32127 175.663 12.1692 171.072 9.68293 168.631C7.1967 166.191 2.6531 167.652 -0.0784545 168.761C2.56254 167.996 3.21256 167.425 8.57375 165.9C13.9349 164.375 14.2636 166.695 12.087 170.492C11.0356 172.355 9.77196 174.091 8.32127 175.663Z" fill="#FFF6E6"/>
<path d="M1.78613 168.158C1.78613 168.158 -0.715054 169.174 -2.06437 169.722C-5.31681 166.739 -8.75014 163.959 -12.3448 161.399C-14.2883 160.578 -15.2375 160.695 -15.7024 161.344C-15.7024 161.344 -15.5458 159.747 -12.6182 160.82C-8.45462 163.193 -4.49371 165.906 -0.775692 168.93L1.78613 168.158Z" fill="#FFF6E6"/>
<path d="M4.48945 192.094C2.21524 191.211 0.033332 190.107 -2.0248 188.797C-2.0248 188.797 -9.06479 199.783 -11.858 200.457C-11.858 200.457 -10.4646 200.773 -7.82318 197.554C-5.18178 194.334 -1.47689 190.146 -1.47689 190.146C-1.47689 190.146 2.50785 191.557 4.48945 192.094Z" fill="#FFF6E6"/>
<g style="mix-blend-mode:multiply" opacity="0.6">
<path d="M108.522 290.814C111.068 292.29 113.5 293.955 115.797 295.796C120.035 294.759 124.347 294.047 128.694 293.664C131.081 293.5 134.21 295.258 133.966 297.772C133.243 300.605 131.946 303.259 130.154 305.569C129.212 306.977 128.165 308.312 127.022 309.563L127.156 309.892C128.556 312.821 129.779 315.832 130.817 318.909C131.457 321.333 132.545 323.92 130.106 325.37C125.518 326.667 120.646 326.548 116.127 325.028C114.641 327.122 112.974 329.082 111.145 330.884C110.524 331.596 109.717 332.121 108.814 332.4C107.911 332.678 106.949 332.7 106.034 332.461C104.363 332.028 102.94 328.427 102.704 326.146C102.261 320.997 101.855 319.054 101.827 317.378C98.7135 315.951 95.6896 314.337 92.7716 312.544C89.3289 310.109 88.7553 308.885 88.9859 307.564C89.3555 305.076 97.2541 300.642 100.395 299.596C99.7166 297.265 98.5575 291.295 101.834 289.734C102.965 289.464 104.138 289.421 105.286 289.606C106.434 289.791 107.533 290.202 108.522 290.814Z" fill="#5DC1EE"/>
</g>
<path d="M110.724 291.99C113.764 293.772 116.697 295.73 119.508 297.854C123.045 296.649 126.676 295.739 130.364 295.133C130.867 295.067 131.378 295.111 131.863 295.259C132.348 295.408 132.795 295.659 133.175 295.995C133.555 296.331 133.858 296.745 134.065 297.208C134.271 297.671 134.377 298.173 134.373 298.68C133.773 301.371 132.586 303.895 130.896 306.073C130.059 307.4 129.103 308.648 128.039 309.801L128.173 310.13C129.499 312.924 130.664 315.792 131.661 318.72C132.293 321.032 133.295 323.5 131.086 324.857C129.443 325.493 127.616 325.465 125.994 324.778C123.516 324.059 121.593 323.383 119.03 322.545C117.284 324.921 115.362 327.163 113.28 329.251C112.197 330.265 109.524 332.463 107.883 331.442C106.242 330.422 106.278 328.529 106.102 326.491C105.993 323.108 106.157 319.721 106.591 316.364C103.44 315.223 100.351 313.918 97.3357 312.455C95.6894 311.705 92.0595 310.035 92.6419 307.882C93.2243 305.728 95.3984 305.229 96.8793 304.627C99.6767 303.492 102.573 302.316 105.49 301.476C104.898 299.263 104.28 296.984 103.806 294.684C103.468 293.096 103.556 290.952 105.333 290.23C107.11 289.509 109.229 291.14 110.724 291.99Z" fill="url(#paint2_linear_23_2189)"/>
<path style="mix-blend-mode:multiply" d="M110.724 291.99L112.002 292.775C109.668 291.844 107.922 292.17 106.9 293.428C105.877 294.687 106.518 298.72 107.236 300.959C108.134 303.738 105.083 303.022 103.042 305.077C99.0136 309.128 104.006 313.964 107.677 314.696C110.093 315.172 108.221 321.606 112.78 323.205C113.531 323.414 114.32 323.442 115.083 323.285C115.846 323.129 116.561 322.793 117.169 322.305C119.513 320.241 120.687 321.528 123.025 322.189C126.823 323.138 131.478 322.896 130.167 319.289C129.133 316.524 127.945 313.819 126.609 311.187C126.021 309.739 128.44 308.144 130.856 304.747C131.445 303.933 133.292 301.305 134.072 300.489C133.266 302.521 132.222 304.451 130.963 306.238C130.126 307.565 129.17 308.813 128.106 309.966L128.24 310.295C129.566 313.089 130.731 315.957 131.728 318.885C132.36 321.197 133.362 323.665 131.153 325.022C129.51 325.658 127.683 325.63 126.061 324.943C123.583 324.224 121.66 323.548 119.097 322.71C117.351 325.086 115.429 327.328 113.347 329.415C112.264 330.43 109.591 332.627 107.95 331.607C106.309 330.587 106.345 328.693 106.169 326.656C106.06 323.273 106.223 319.886 106.657 316.529C103.507 315.388 100.417 314.083 97.4026 312.619C95.7563 311.869 92.1264 310.2 92.7088 308.047C93.2912 305.893 95.4653 305.394 96.9463 304.792C99.7436 303.656 102.64 302.48 105.557 301.641C104.965 299.428 104.347 297.149 103.873 294.849C103.535 293.261 103.623 291.117 105.4 290.395C107.177 289.674 109.229 291.141 110.724 291.99Z" fill="url(#paint3_radial_23_2189)"/>
<g style="mix-blend-mode:multiply">
<path d="M110.724 291.99C113.764 293.772 116.697 295.73 119.508 297.854C123.045 296.649 126.676 295.739 130.364 295.133C130.867 295.067 131.378 295.111 131.863 295.259C132.348 295.408 132.795 295.659 133.175 295.995C133.555 296.331 133.858 296.745 134.065 297.208C134.271 297.671 134.377 298.173 134.373 298.68C133.773 301.371 132.586 303.895 130.896 306.073C130.059 307.4 129.103 308.648 128.039 309.801L128.173 310.13C129.499 312.924 130.664 315.792 131.661 318.72C132.293 321.032 133.295 323.5 131.086 324.857C129.443 325.493 127.616 325.465 125.994 324.778C123.516 324.059 121.593 323.383 119.03 322.545C117.284 324.921 115.362 327.163 113.28 329.251C112.197 330.265 109.524 332.463 107.883 331.442C106.242 330.422 106.278 328.529 106.102 326.491C105.993 323.108 106.157 319.721 106.591 316.364C103.44 315.223 100.351 313.918 97.3357 312.455C95.6894 311.705 92.0595 310.035 92.6419 307.882C93.2243 305.728 95.3984 305.229 96.8793 304.627C99.6767 303.492 102.573 302.316 105.49 301.476C104.898 299.263 104.28 296.984 103.806 294.684C103.468 293.096 103.556 290.952 105.333 290.23C107.11 289.509 109.229 291.14 110.724 291.99ZM105.434 293.218C105.366 294.262 105.529 295.309 105.912 296.283C106.397 298.232 106.915 300.169 107.499 302.079C107.54 302.239 107.543 302.406 107.506 302.567C107.47 302.728 107.395 302.878 107.288 303.004C107.181 303.13 107.046 303.228 106.893 303.291C106.741 303.354 106.575 303.379 106.411 303.364C104.172 304.082 102.066 305.128 99.7216 305.774C98.1177 306.177 96.578 306.802 95.1471 307.631C92.5707 309.406 97.9427 311.211 99.2116 311.693C102.081 312.905 104.216 313.916 107.216 314.883C107.804 315.104 108.149 315.386 108.15 315.577C107.995 317.557 107.809 322.386 107.625 323.726C107.51 325.476 107.582 327.234 107.837 328.969C108.389 332.31 112.356 327.824 113.201 326.791C114.802 325.067 116.144 323.18 117.698 321.438C118.256 320.828 118.352 320.405 119.053 320.619C122.013 321.686 125.035 322.571 128.103 323.27C129.14 323.462 130.675 323.184 130.728 321.897C129.886 318.359 128.693 314.914 127.165 311.613C126.533 310.528 126.101 309.937 126.206 309.817C127.656 307.964 128.994 306.025 130.212 304.012C130.834 302.993 134.043 298.623 132.234 297.095C131.161 296.151 128.355 296.983 127.235 297.247C124.515 298.006 122.079 298.804 119.333 299.689C119.069 299.796 118.221 299.028 117.016 298.138C114.349 295.961 111.478 294.045 108.444 292.417C107.87 292.229 105.828 291.639 105.434 293.218Z" fill="#D47F02"/>
</g>
<path d="M129.857 323.057C129.857 323.057 130.695 323.138 129.957 320.754C129.058 317.973 127.856 315.298 126.373 312.779L125.015 310.378C126.319 308.775 127.9 307.098 127.9 307.098L126.068 309.951C127.594 313.161 128.933 316.458 130.077 319.824C130.871 321.495 130.755 323.191 129.857 323.057Z" fill="#FFF6E6"/>
<path d="M124.709 298.235C124.709 298.235 130.272 298.813 130.098 302.065C129.924 305.318 126.002 307.179 123.602 308.537C125.878 307.344 126.893 307.201 131.234 304.863C135.575 302.525 134.529 300.611 130.586 299.49C128.68 298.852 126.709 298.43 124.709 298.235Z" fill="#FFF6E6"/>
<path d="M121.958 299.734C121.958 299.734 119.588 300.696 118.338 301.204C115.315 298.472 112.13 295.925 108.8 293.576C107.028 292.801 106.125 292.937 105.713 293.526C105.713 293.526 105.83 292.022 108.573 293.017C112.455 295.245 116.152 297.782 119.628 300.604L121.958 299.734Z" fill="#FFF6E6"/>
<path d="M124.483 322.096C122.372 321.256 120.346 320.218 118.432 318.994C118.432 318.994 111.922 329.304 109.261 329.925C109.261 329.925 110.575 330.235 113.026 327.208L118.841 320.285C118.841 320.285 122.627 321.584 124.483 322.096Z" fill="#FFF6E6"/>
<path d="M106.163 408.776C107.57 403.152 110.795 398.15 115.336 394.547C122.839 388.657 131.45 384.339 140.658 381.849L142.983 381.25L120.528 356.823L119.672 357.171C115.549 358.489 111.691 360.523 108.273 363.18C106.814 364.254 105.654 365.682 104.901 367.33C104.147 368.977 103.827 370.789 103.969 372.595L106.822 372.165C106.735 370.832 106.994 369.5 107.574 368.298C108.154 367.095 109.034 366.063 110.131 365.301C112.972 363.093 116.153 361.361 119.55 360.173L137.527 379.709C128.725 382.334 120.513 386.632 113.339 392.367C108.305 396.315 104.716 401.815 103.131 408.013L105.97 408.586L106.163 408.776Z" fill="#89A83D"/>
<path d="M104.022 405.582C102.064 407.685 100.955 410.438 100.909 413.311C100.862 416.184 101.883 418.972 103.772 421.136C105.662 423.301 108.286 424.688 111.139 425.03C113.992 425.372 116.87 424.645 119.218 422.989C121.127 420.889 122.202 418.163 122.239 415.326C122.276 412.488 121.273 409.735 119.419 407.587C117.565 405.438 114.989 404.042 112.177 403.663C109.364 403.284 106.51 403.948 104.154 405.529L104.022 405.582Z" fill="#A5CD3A"/>
<path d="M120.002 424.165C122.355 421.904 123.715 418.802 123.785 415.54C123.854 412.278 122.627 409.122 120.373 406.763C118.375 404.178 115.435 402.49 112.196 402.067C108.956 401.644 105.681 402.52 103.086 404.505C100.743 406.778 99.3905 409.884 99.3236 413.149C99.2566 416.413 100.48 419.572 102.729 421.94C104.726 424.523 107.667 426.208 110.905 426.625C114.144 427.042 117.416 426.158 120.002 424.165ZM118.131 422.011C116.113 423.474 113.602 424.087 111.137 423.718C108.673 423.35 106.451 422.03 104.948 420.042C103.188 418.263 102.199 415.864 102.194 413.361C102.19 410.859 103.171 408.456 104.925 406.672C106.946 405.206 109.461 404.591 111.931 404.956C114.401 405.322 116.63 406.64 118.14 408.628C119.88 410.42 120.848 412.823 120.837 415.321C120.827 417.819 119.839 420.213 118.085 421.991L118.131 422.011Z" fill="#89A83D"/>
<path d="M108.716 408.928C107.448 409.768 106.466 410.975 105.9 412.387C105.334 413.799 105.212 415.351 105.549 416.834C105.886 418.318 106.666 419.664 107.787 420.693C108.907 421.722 110.314 422.387 111.821 422.597C113.328 422.807 114.863 422.554 116.222 421.871C117.582 421.188 118.701 420.107 119.432 418.773C120.162 417.438 120.469 415.913 120.312 414.4C120.155 412.886 119.541 411.457 118.551 410.301C117.416 408.833 115.752 407.867 113.914 407.61C112.076 407.354 110.21 407.826 108.716 408.928Z" fill="#D2D926"/>
<path d="M105.715 370.852C104.18 371.866 102.99 373.323 102.304 375.03C101.618 376.737 101.468 378.613 101.874 380.407C102.28 382.201 103.222 383.83 104.576 385.075C105.93 386.32 107.632 387.124 109.454 387.379C111.276 387.634 113.132 387.327 114.776 386.501C116.419 385.675 117.773 384.368 118.655 382.754C119.538 381.14 119.908 379.295 119.716 377.465C119.525 375.636 118.781 373.908 117.583 372.511C116.227 370.721 114.216 369.541 111.991 369.23C109.767 368.919 107.51 369.502 105.715 370.852Z" fill="#A5CD3A"/>
<path d="M118.31 385.634C120.186 383.798 121.267 381.3 121.32 378.676C121.373 376.052 120.394 373.512 118.593 371.603C116.975 369.534 114.608 368.187 112.003 367.852C109.399 367.518 106.768 368.223 104.68 369.815C102.787 371.641 101.694 374.143 101.641 376.772C101.588 379.402 102.579 381.945 104.397 383.846C106.009 385.923 108.377 387.276 110.985 387.611C113.592 387.946 116.226 387.235 118.31 385.634ZM116.426 383.447C115.677 384.017 114.824 384.432 113.914 384.669C113.004 384.906 112.057 384.96 111.126 384.828C110.195 384.696 109.3 384.381 108.492 383.9C107.684 383.42 106.979 382.783 106.419 382.029C105.147 380.677 104.454 378.882 104.489 377.027C104.524 375.171 105.283 373.403 106.604 372.101C108.112 371.009 109.989 370.554 111.829 370.831C113.67 371.109 115.328 372.098 116.447 373.586C117.755 374.912 118.49 376.699 118.494 378.562C118.497 380.425 117.769 382.215 116.466 383.546L116.426 383.447Z" fill="#89A83D"/>
<path d="M110.124 374.16C109.255 374.731 108.579 375.553 108.186 376.516C107.793 377.48 107.701 378.54 107.923 379.556C108.144 380.573 108.667 381.499 109.425 382.212C110.182 382.925 111.138 383.392 112.166 383.551C113.194 383.711 114.247 383.555 115.185 383.105C116.122 382.655 116.902 381.931 117.42 381.029C117.939 380.127 118.172 379.089 118.089 378.052C118.007 377.015 117.612 376.027 116.956 375.219C116.582 374.694 116.107 374.25 115.559 373.912C115.011 373.574 114.4 373.348 113.763 373.25C113.127 373.151 112.477 373.181 111.852 373.337C111.227 373.493 110.639 373.773 110.124 374.16Z" fill="#D2D926"/>
<path d="M113.34 411.536C112.63 412.304 112.227 413.307 112.207 414.353C112.188 415.399 112.555 416.416 113.237 417.209C113.919 418.003 114.869 418.517 115.907 418.655C116.944 418.794 117.996 418.545 118.862 417.958C119.572 417.19 119.975 416.187 119.994 415.141C120.013 414.095 119.647 413.078 118.965 412.285C118.283 411.491 117.332 410.977 116.295 410.839C115.258 410.7 114.206 410.949 113.34 411.536Z" fill="#E6E01C"/>
<path d="M113.06 375.536C112.573 376.075 112.299 376.772 112.29 377.498C112.281 378.224 112.537 378.929 113.01 379.479C113.483 380.03 114.14 380.39 114.859 380.491C115.578 380.592 116.309 380.427 116.915 380.027C117.402 379.489 117.676 378.791 117.685 378.065C117.694 377.339 117.438 376.635 116.965 376.084C116.492 375.533 115.835 375.173 115.116 375.073C114.397 374.972 113.666 375.136 113.06 375.536Z" fill="#E6E01C"/>
<path d="M102.07 606.479L115.203 579.908L122.702 584.875L114.935 599.453L115.822 599.937L124.052 584.519L114.825 578.413L101.131 606.055L102.07 606.479Z" fill="#BC2B28"/>
<path d="M121.318 588.926L121.848 588.059L113.465 583.182L112.936 584.049L121.318 588.926Z" fill="#BC2B28"/>
<path d="M114.221 600.433C113.603 601.707 113.506 603.172 113.952 604.516C114.398 605.86 115.35 606.977 116.607 607.63C117.759 608.46 119.191 608.806 120.595 608.594C121.999 608.382 123.265 607.629 124.121 606.495C124.721 605.232 124.811 603.785 124.371 602.457C123.932 601.128 122.997 600.021 121.762 599.364C120.619 598.51 119.184 598.142 117.771 598.342C116.358 598.543 115.082 599.294 114.221 600.433Z" fill="#E6352E"/>
<path d="M124.563 606.738C125.238 605.34 125.334 603.733 124.831 602.265C124.328 600.797 123.267 599.587 121.878 598.896C120.614 597.984 119.042 597.609 117.503 597.854C115.964 598.098 114.585 598.941 113.666 600.199C112.959 601.59 112.828 603.203 113.303 604.69C113.777 606.176 114.818 607.416 116.2 608.14C117.477 609.035 119.053 609.395 120.591 609.143C122.129 608.891 123.508 608.047 124.432 606.791L124.563 606.738ZM123.664 606.221C122.887 607.242 121.738 607.914 120.468 608.093C119.198 608.271 117.909 607.941 116.881 607.174C115.734 606.597 114.859 605.593 114.445 604.377C114.03 603.162 114.109 601.833 114.664 600.675C115.456 599.666 116.608 599.002 117.878 598.822C119.148 598.643 120.438 598.96 121.479 599.709C122.624 600.292 123.494 601.301 123.903 602.519C124.311 603.737 124.225 605.066 123.664 606.221Z" fill="#BC2B28"/>
<path d="M101.031 605.904C100.397 607.174 100.288 608.642 100.728 609.992C101.169 611.341 102.123 612.463 103.384 613.114C104.533 613.953 105.967 614.305 107.374 614.093C108.781 613.88 110.047 613.121 110.898 611.98C111.525 610.701 111.625 609.227 111.177 607.874C110.728 606.522 109.766 605.4 108.498 604.75C107.35 603.927 105.925 603.587 104.529 603.803C103.133 604.019 101.878 604.773 101.031 605.904Z" fill="#E6352E"/>
<path d="M111.354 612.255C112.048 610.858 112.164 609.245 111.678 607.764C111.191 606.283 110.141 605.053 108.754 604.34C107.491 603.428 105.918 603.053 104.379 603.297C102.841 603.542 101.461 604.385 100.542 605.643C99.8446 607.035 99.7192 608.645 100.193 610.129C100.666 611.613 101.701 612.853 103.077 613.584C104.353 614.478 105.927 614.84 107.465 614.594C109.004 614.349 110.387 613.514 111.322 612.268L111.354 612.255ZM110.474 611.692C109.693 612.716 108.54 613.392 107.265 613.572C105.989 613.753 104.694 613.424 103.659 612.658C102.516 612.085 101.644 611.086 101.232 609.876C100.82 608.667 100.9 607.343 101.455 606.192C102.237 605.174 103.384 604.501 104.654 604.314C105.924 604.128 107.216 604.443 108.257 605.193C109.398 605.777 110.267 606.781 110.68 607.994C111.094 609.207 111.02 610.533 110.474 611.692Z" fill="#BC2B28"/>
<path d="M116.184 601.017C115.714 601.992 115.619 603.107 115.919 604.147C116.219 605.188 116.891 606.082 117.808 606.658C118.725 607.234 119.822 607.452 120.89 607.271C121.957 607.089 122.921 606.521 123.596 605.674C124.066 604.699 124.16 603.584 123.86 602.543C123.561 601.503 122.888 600.609 121.971 600.033C121.054 599.457 119.957 599.238 118.89 599.42C117.822 599.601 116.859 600.17 116.184 601.017Z" fill="#E77978"/>
<path d="M102.974 606.533C102.668 607.02 102.461 607.562 102.365 608.129C102.268 608.695 102.285 609.276 102.413 609.836C102.54 610.396 102.777 610.926 103.11 611.395C103.443 611.864 103.864 612.262 104.351 612.568C104.838 612.874 105.38 613.081 105.946 613.177C106.513 613.273 107.093 613.257 107.654 613.129C108.214 613.002 108.744 612.765 109.212 612.432C109.681 612.099 110.08 611.678 110.386 611.191C111.003 610.208 111.205 609.02 110.947 607.888C110.689 606.757 109.991 605.774 109.009 605.156C108.026 604.539 106.838 604.337 105.706 604.595C104.574 604.853 103.592 605.55 102.974 606.533Z" fill="#E77978"/>
<path d="M118.077 601.244C117.75 601.92 117.701 602.698 117.94 603.411C118.179 604.123 118.688 604.714 119.357 605.056C119.965 605.5 120.724 605.685 121.468 605.57C122.211 605.454 122.879 605.049 123.324 604.442C123.551 603.776 123.546 603.053 123.312 602.39C123.077 601.727 122.625 601.163 122.029 600.788C121.434 600.414 120.73 600.251 120.03 600.327C119.331 600.402 118.678 600.711 118.176 601.204L118.077 601.244Z" fill="#E7A8A8"/>
<path d="M104.795 606.676C104.468 607.353 104.419 608.13 104.658 608.843C104.897 609.555 105.406 610.146 106.074 610.488C106.363 610.741 106.704 610.927 107.072 611.034C107.44 611.14 107.827 611.165 108.206 611.107C108.585 611.048 108.946 610.908 109.265 610.694C109.584 610.481 109.852 610.201 110.051 609.873C110.25 609.546 110.375 609.178 110.417 608.797C110.459 608.416 110.417 608.031 110.294 607.667C110.171 607.304 109.971 606.972 109.706 606.695C109.441 606.417 109.119 606.201 108.762 606.062C108.151 605.627 107.395 605.448 106.654 605.562C105.913 605.677 105.246 606.077 104.795 606.676Z" fill="#E7A8A8"/>
<path d="M238.378 563.857C247.945 563.484 257.526 563.875 267.031 565.027C267.171 565.028 267.31 565.001 267.44 564.948C267.569 564.896 267.688 564.818 267.787 564.719C267.89 564.632 267.972 564.524 268.029 564.402C268.085 564.28 268.114 564.146 268.114 564.012L267.97 544.02C267.97 543.9 267.945 543.781 267.897 543.67C267.85 543.559 267.78 543.46 267.692 543.377C267.605 543.294 267.502 543.23 267.389 543.188C267.276 543.147 267.155 543.128 267.035 543.135C266.79 543.132 266.554 543.228 266.38 543.399C266.205 543.571 266.105 543.805 266.103 544.05L266.109 562.947C256.815 561.908 247.455 561.582 238.111 561.972C237.989 561.967 237.867 561.988 237.754 562.033C237.641 562.079 237.539 562.149 237.455 562.237C237.371 562.326 237.307 562.432 237.267 562.547C237.228 562.662 237.213 562.785 237.225 562.907C237.265 563.139 237.386 563.35 237.567 563.501C237.748 563.652 237.977 563.734 238.212 563.733L238.378 563.857Z" fill="#EBAD20"/>
<path d="M254.54 564.194C254.784 564.204 255.022 564.12 255.206 563.96C255.391 563.799 255.507 563.575 255.531 563.332L256.679 548.221C256.688 547.971 256.603 547.728 256.441 547.538C256.279 547.348 256.051 547.226 255.803 547.197C255.681 547.187 255.559 547.202 255.443 547.241C255.327 547.279 255.219 547.34 255.127 547.421C255.035 547.501 254.96 547.599 254.905 547.708C254.851 547.818 254.819 547.937 254.812 548.059L253.677 563.203L253.744 563.368C253.778 563.578 253.882 563.77 254.038 563.915C254.194 564.06 254.393 564.149 254.605 564.168L254.54 564.194Z" fill="#EBAD20"/>
<path d="M235.836 562.129C234.722 562.213 233.636 562.516 232.641 563.022C231.645 563.528 230.76 564.227 230.035 565.077C229.311 565.927 228.763 566.912 228.422 567.975C228.08 569.039 227.953 570.159 228.047 571.272C228.476 573.472 229.728 575.426 231.547 576.735C233.367 578.044 235.617 578.611 237.839 578.319C240.062 578.028 242.089 576.9 243.509 575.166C244.929 573.431 245.635 571.221 245.482 568.984C245.099 566.802 243.872 564.859 242.067 563.576C240.261 562.292 238.022 561.772 235.836 562.129Z" fill="#F4C621"/>
<path d="M238.041 578.983C240.507 578.758 242.783 577.563 244.368 575.662C245.954 573.76 246.72 571.306 246.497 568.84C246.078 566.403 244.709 564.231 242.691 562.801C240.673 561.371 238.171 560.799 235.732 561.212C234.512 561.318 233.325 561.665 232.239 562.233C231.154 562.801 230.192 563.578 229.409 564.52C228.625 565.462 228.037 566.55 227.676 567.721C227.316 568.891 227.191 570.122 227.309 571.341C227.728 573.779 229.097 575.951 231.115 577.381C233.133 578.811 235.635 579.382 238.074 578.969L238.041 578.983ZM237.82 577.117C235.867 577.477 233.852 577.046 232.216 575.921C230.58 574.795 229.458 573.067 229.095 571.114C228.946 569.139 229.58 567.185 230.861 565.675C232.142 564.164 233.967 563.219 235.94 563.045C237.891 562.695 239.902 563.129 241.536 564.253C243.169 565.377 244.293 567.1 244.664 569.048C244.823 571.025 244.192 572.984 242.91 574.497C241.627 576.009 239.797 576.951 237.82 577.117Z" fill="#EBAD20"/>
<path d="M237.144 564.971C236.351 565.039 235.579 565.263 234.873 565.63C234.166 565.997 233.54 566.5 233.029 567.11C232.518 567.72 232.132 568.425 231.894 569.185C231.657 569.945 231.572 570.744 231.644 571.536C231.871 573.209 232.752 574.722 234.095 575.744C235.437 576.767 237.131 577.214 238.803 576.987C240.475 576.76 241.988 575.879 243.011 574.536C244.033 573.194 244.48 571.5 244.253 569.828C244.112 569.04 243.814 568.287 243.379 567.614C242.943 566.941 242.378 566.362 241.716 565.91C241.055 565.458 240.31 565.142 239.525 564.981C238.739 564.82 237.93 564.816 237.144 564.971Z" fill="#F4DB08"/>
<path d="M238.574 567.266C237.774 567.443 237.043 567.848 236.468 568.432C235.894 569.017 235.503 569.756 235.341 570.559C235.179 571.363 235.254 572.196 235.558 572.957C235.861 573.718 236.378 574.375 237.048 574.848C237.718 575.32 238.51 575.588 239.329 575.618C240.148 575.648 240.958 575.44 241.66 575.018C242.363 574.596 242.928 573.979 243.286 573.242C243.644 572.505 243.781 571.68 243.679 570.867C243.582 570.295 243.372 569.747 243.063 569.256C242.753 568.765 242.35 568.34 241.875 568.005C241.401 567.671 240.865 567.433 240.299 567.306C239.732 567.179 239.146 567.166 238.574 567.266Z" fill="#F4E400"/>
<path d="M57.6334 509.526L57.0073 508.362L34.131 520.756L34.7572 521.921L57.6334 509.526Z" fill="#C91E7C"/>
<path d="M31.266 521.536C30.3422 522.38 29.6801 523.472 29.3583 524.681C29.0364 525.89 29.0685 527.166 29.4505 528.357C29.8326 529.549 30.5486 530.606 31.5135 531.402C32.4785 532.199 33.6518 532.701 34.894 532.851C36.1363 533 37.3953 532.79 38.5215 532.244C39.6478 531.699 40.5938 530.842 41.2473 529.775C41.9009 528.708 42.2344 527.476 42.2083 526.225C42.1822 524.974 41.7976 523.757 41.1002 522.718C39.9374 521.28 38.2595 520.352 36.4231 520.131C34.5866 519.91 32.7365 520.414 31.266 521.536Z" fill="#E32888"/>
<path d="M38.9969 532.927C40.7316 531.891 41.9876 530.213 42.4924 528.257C42.9971 526.3 42.7099 524.224 41.693 522.478C40.4446 520.878 38.6129 519.837 36.5989 519.584C34.585 519.332 32.5529 519.887 30.9477 521.129C29.2135 522.174 27.9601 523.859 27.4581 525.82C26.9561 527.782 27.246 529.862 28.265 531.611C29.5179 533.203 31.3493 534.234 33.3597 534.481C35.3702 534.727 37.3966 534.169 38.9969 532.927ZM38.2392 531.816C36.9268 532.853 35.2603 533.334 33.5973 533.157C31.9342 532.979 30.4069 532.157 29.3429 530.867C28.5305 529.405 28.3229 527.684 28.7645 526.072C29.2061 524.459 30.2618 523.084 31.7054 522.24C33.0139 521.206 34.6762 520.728 36.3342 520.908C37.9921 521.088 39.5129 521.912 40.5688 523.203C41.3891 524.657 41.6045 526.375 41.1687 527.987C40.7328 529.599 39.6806 530.974 38.2392 531.816Z" fill="#C91E7C"/>
<path d="M32.9506 523.229C32.3151 523.541 31.754 523.985 31.3053 524.532C30.8565 525.079 30.5307 525.716 30.3497 526.4C30.1688 527.085 30.137 527.8 30.2566 528.497C30.3761 529.194 30.6442 529.858 31.0426 530.443C31.4411 531.028 31.9606 531.52 32.5659 531.886C33.1712 532.253 33.8483 532.485 34.5512 532.567C35.254 532.649 35.9663 532.579 36.6397 532.361C37.3131 532.144 37.9319 531.784 38.4542 531.307C39.0897 530.996 39.6508 530.551 40.0995 530.004C40.5482 529.457 40.8741 528.82 41.0551 528.136C41.236 527.452 41.2678 526.737 41.1482 526.039C41.0287 525.342 40.7606 524.678 40.3622 524.093C39.9637 523.508 39.4442 523.016 38.8389 522.65C38.2335 522.283 37.5565 522.051 36.8536 521.969C36.1508 521.887 35.4385 521.957 34.7651 522.175C34.0917 522.392 33.4729 522.752 32.9506 523.229Z" fill="#E56FA1"/>
<path d="M34.9053 524.927C34.3878 525.379 34.0124 525.971 33.8244 526.631C33.6365 527.292 33.644 527.992 33.8461 528.649C34.0482 529.305 34.4362 529.889 34.9632 530.329C35.4902 530.769 36.1335 531.048 36.8153 531.13C37.4971 531.212 38.1881 531.095 38.8047 530.793C39.4213 530.49 39.937 530.016 40.2894 529.426C40.6418 528.837 40.8158 528.158 40.7903 527.472C40.7648 526.785 40.5409 526.121 40.1458 525.56C39.8434 525.174 39.468 524.851 39.0408 524.61C38.6137 524.37 38.1433 524.216 37.6566 524.157C37.1699 524.098 36.6763 524.136 36.2042 524.268C35.7321 524.4 35.2907 524.624 34.9053 524.927Z" fill="#EB9FBF"/>
<path d="M58.4172 509.284C55.3416 506.262 53.0706 502.519 51.8106 498.396C50.6212 495.467 42.6422 500.93 43.6688 505.535C45.1212 509.584 47.5229 513.516 49.625 513.123L58.4172 509.284Z" fill="#E32888"/>
<path d="M49.6809 513.828L58.5256 509.93L59.4142 509.569L58.7314 508.926L57.5572 507.639C56.6569 506.627 55.825 505.556 55.067 504.433C53.7551 502.62 52.8162 500.565 52.3047 498.386C52.2841 498.243 52.2291 498.108 52.1444 497.991C50.9095 496.461 48.8094 497.237 47.0281 498.42C45.7087 499.17 44.6275 500.276 43.9087 501.612C43.1899 502.948 42.8627 504.46 42.9648 505.974C43.6168 507.841 44.4944 509.622 45.5781 511.277C46.708 512.927 48.0005 514.127 49.6819 514.019L49.6809 513.828ZM46.6416 510.308C45.6365 508.773 44.8238 507.12 44.2216 505.387C43.7427 503.358 45.6219 500.716 47.7715 499.307C48.4555 498.844 49.2291 498.53 50.0423 498.385C50.6347 498.144 50.9791 498.426 51.0922 498.61C51.611 500.949 52.6109 503.154 54.0282 505.085C54.9878 506.479 56.0392 507.806 57.1755 509.059L49.3047 512.524C48.7452 512.751 47.606 511.834 46.5953 510.289L46.6416 510.308Z" fill="#C91E7C"/>
<path d="M113.738 487.856L113.387 487.653L114.042 488.039C121.105 491.458 126.224 484.051 126.224 484.051C126.224 484.051 121.059 491.63 127.909 495.941L128.273 496.177L128.353 496.374L127.896 496.1C120.714 492.384 115.595 499.983 115.595 499.983C115.595 499.983 120.563 492.484 114.076 488.217L113.481 487.884L113.738 487.856Z" fill="white"/>
<path d="M118.311 332.576L118.007 332.393L118.649 332.745C125.724 336.198 130.797 328.771 130.797 328.771C130.797 328.771 125.666 336.337 132.482 340.661L132.879 340.883L132.959 341.081L132.503 340.806C125.287 337.104 120.169 344.703 120.169 344.703C120.169 344.703 125.136 337.203 118.682 332.923L118.087 332.59L118.311 332.576Z" fill="white"/>
<path d="M52.9611 371.226L52.6434 371.01L53.2984 371.395C60.3607 374.815 65.4339 367.388 65.4339 367.388C65.4339 367.388 60.3155 374.987 67.1185 379.278L67.5288 379.533L67.462 379.369L67.5422 379.566L67.0856 379.291C59.8701 375.589 54.7516 383.188 54.7516 383.188C54.7516 383.188 59.7189 375.689 53.2521 371.376L52.6896 371.029L52.9611 371.226Z" fill="white"/>
<path d="M30.6331 199.075C30.5298 198.986 30.4109 198.918 30.2825 198.872L30.8635 198.981C37.893 202.414 42.9795 195.02 42.9795 195.02C42.9795 195.02 37.8477 202.586 44.6641 206.91L45.061 207.133L44.9942 206.968L45.0744 207.166L44.6179 206.891C37.4352 203.175 32.2839 210.787 32.2839 210.787C32.2839 210.787 37.284 203.275 30.7843 198.975L30.2219 198.629L30.6331 199.075Z" fill="white"/>
<path d="M-6.29559 565.081L-5.97786 565.297C-4.90611 565.711 -3.72427 565.74 -2.63316 565.381C-1.54204 565.022 -0.608942 564.296 0.00762995 563.327C0.00762995 563.327 -2.53205 567.08 0.809847 569.173L0.645311 569.24C-0.424095 568.785 -1.62038 568.725 -2.73009 569.07C-3.83979 569.416 -4.79069 570.144 -5.41316 571.125C-5.41316 571.125 -3.0576 567.485 -6.15576 565.331L-6.44676 565.181L-6.29559 565.081Z" fill="white"/>
<path d="M86.6541 452.313L86.9718 452.529C88.0304 452.907 89.1861 452.916 90.2503 452.554C91.3146 452.191 92.2246 451.479 92.8318 450.532C92.8318 450.532 90.3117 454.239 93.6341 456.379L93.5539 456.181C92.4845 455.726 91.2882 455.666 90.1785 456.011C89.0688 456.357 88.1179 457.085 87.4954 458.067C87.4954 458.067 89.8643 454.459 86.7333 452.319L86.4618 452.122L86.6541 452.313Z" fill="white"/>
<path d="M63.4645 548.715L63.8151 548.918C64.8895 549.318 66.0686 549.337 67.1556 548.972C68.2425 548.608 69.1714 547.881 69.7872 546.914C69.7872 546.914 67.2476 550.667 70.6028 552.794C69.5345 552.331 68.3357 552.267 67.2241 552.613C66.1125 552.959 65.1618 553.692 64.5443 554.679C64.5443 554.679 66.8999 551.039 63.8018 548.885L63.5108 548.735C63.5108 548.735 63.4511 548.682 63.4645 548.715Z" fill="white"/>
<path d="M40.7464 487.86L41.0641 488.076C42.1373 488.476 43.3146 488.499 44.4025 488.141C45.4903 487.783 46.4239 487.065 47.0496 486.106C47.0496 486.106 44.5295 489.813 47.8848 491.939L47.7202 492.006C46.6518 491.543 45.4531 491.479 44.3415 491.825C43.2299 492.171 42.2791 492.904 41.6617 493.891C41.6617 493.891 44.0173 490.251 40.9191 488.097L40.6281 487.947L40.7464 487.86Z" fill="white"/>
<path d="M7.99024 463.554L8.32751 463.724C9.39291 464.137 10.5686 464.167 11.654 463.811C12.7395 463.454 13.6676 462.731 14.2801 461.767C14.2801 461.767 11.7733 465.507 15.1152 467.6L14.8705 467.469C13.8086 467.015 12.6204 466.951 11.5156 467.287C10.4108 467.624 9.46023 468.339 8.83156 469.308C8.83156 469.308 11.2005 465.701 8.10233 463.547L7.79796 463.364L7.99024 463.554Z" fill="white"/>
<path d="M147.853 458.86L147.536 458.644L148.191 459.03C155.233 462.495 160.293 455.035 160.293 455.035C160.293 455.035 155.175 462.634 161.991 466.959L162.388 467.181L162.321 467.016L162.402 467.214L161.991 466.959C154.762 463.223 149.611 470.836 149.611 470.836C149.611 470.836 154.611 463.323 148.125 459.056L147.562 458.71L147.853 458.86Z" fill="white"/>
<path d="M29.3693 129.969L29.0516 129.753L29.7066 130.138C36.7494 133.604 41.8555 126.163 41.8555 126.163C41.8555 126.163 36.737 133.762 43.5401 138.054L43.937 138.276L43.8702 138.112C43.8702 138.112 43.937 138.276 43.9504 138.309L43.5072 138.067C36.2916 134.365 31.1598 141.931 31.1598 141.931C31.1598 141.931 36.1271 134.432 29.6737 130.152L29.0783 129.818L29.3693 129.969Z" fill="white"/>
<path d="M113.124 257.586L112.806 257.37L113.461 257.756C120.491 261.188 125.61 253.781 125.61 253.781C125.61 253.781 120.479 261.347 127.295 265.671L127.692 265.893L127.625 265.729L127.705 265.926L127.262 265.684C120.033 261.949 114.915 269.548 114.915 269.548C114.915 269.548 119.849 262.062 113.461 257.756L112.866 257.422L113.124 257.586Z" fill="white"/>
<path d="M202.474 498.019L202.124 497.816L202.779 498.202C209.841 501.621 214.947 494.181 214.947 494.181C214.947 494.181 209.796 501.793 216.645 506.104L217.009 506.339L217.254 506.47L216.797 506.195C209.582 502.493 204.43 510.105 204.43 510.105C204.43 510.105 209.431 502.593 202.931 498.293L202.336 497.96L202.474 498.019Z" fill="white"/>
<path d="M66.7812 325.859L67.1318 326.062C68.1972 326.475 69.3729 326.505 70.4583 326.148C71.5438 325.792 72.4719 325.069 73.0844 324.105C73.0844 324.105 70.5642 327.811 73.9195 329.938L73.9863 330.102L73.7549 330.004C72.6834 329.556 71.4876 329.503 70.3804 329.854C69.2733 330.205 68.3268 330.938 67.7098 331.922C67.7098 331.922 70.052 328.25 66.9539 326.096L66.6629 325.945L66.7812 325.859Z" fill="white"/>
<path d="M85.5775 661.8L85.8613 661.838C86.9338 662.245 88.1133 662.271 89.2028 661.913C90.2922 661.554 91.2256 660.832 91.8468 659.868C91.8468 659.868 89.5046 663.541 92.6953 665.734L92.6151 665.537C91.4989 665.101 90.2617 665.088 89.1372 665.503C88.0127 665.917 87.079 666.729 86.5124 667.785C86.5124 667.785 88.8679 664.145 85.7698 661.991L85.4788 661.84L85.5775 661.8Z" fill="white"/>
<path d="M24.7806 688.06L25.0849 688.243C26.1567 688.656 27.3385 688.686 28.4296 688.326C29.5208 687.967 30.4539 687.241 31.0704 686.272C31.0704 686.272 28.5308 690.025 31.886 692.152L31.8058 691.954C30.7343 691.506 29.5384 691.452 28.4313 691.804C27.3242 692.155 26.3777 692.888 25.7607 693.872C25.7607 693.872 28.1163 690.232 25.0181 688.078L24.7138 687.895L24.7806 688.06Z" fill="white"/>
<path d="M123.178 713.237L123.111 713.073L123.429 713.289C124.502 713.688 125.679 713.711 126.767 713.353C127.855 712.995 128.789 712.277 129.414 711.318C129.414 711.318 126.908 715.058 130.217 717.165L130.283 717.329L130.203 717.132C129.134 716.677 127.938 716.616 126.828 716.962C125.718 717.307 124.767 718.035 124.145 719.017C124.145 719.017 126.514 715.41 123.416 713.256L123.111 713.073L123.178 713.237Z" fill="white"/>
<path d="M67.0299 207.987L67.3342 208.17C68.4074 208.57 69.5847 208.593 70.6726 208.235C71.7604 207.877 72.6939 207.159 73.3197 206.2C73.3197 206.2 70.813 209.94 74.1549 212.033L74.2217 212.198L74.1415 212C73.0691 211.559 71.8756 211.509 70.7702 211.86C69.6649 212.211 68.7183 212.939 68.0964 213.918C68.0964 213.918 70.452 210.278 67.3538 208.124L67.0628 207.974L67.0299 207.987Z" fill="white"/>
<path d="M6.45567 16.5175L6.76004 16.7006C7.82544 17.1136 9.00109 17.1442 10.0866 16.7874C11.172 16.4305 12.1001 15.7082 12.7126 14.7435C12.7126 14.7435 10.3704 18.4166 13.5611 20.6096L13.6279 20.7741L13.5611 20.6096C12.4928 20.1471 11.294 20.083 10.1824 20.4289C9.07081 20.7748 8.12003 21.5077 7.50263 22.4946C7.50263 22.4946 9.8582 18.8545 6.76004 16.7006L6.46903 16.5504L6.45567 16.5175Z" fill="white"/>
<path d="M112.2 764.467C112.089 764.39 111.972 764.322 111.85 764.264L112.28 764.664C119.356 768.116 124.429 760.689 124.429 760.689C124.429 760.689 119.344 768.275 126.16 772.599L126.511 772.802C126.511 772.802 126.511 772.802 126.591 772.999L126.115 772.771C118.932 769.055 113.8 776.621 113.8 776.621C113.8 776.621 118.859 768.97 112.28 764.664L111.685 764.331L112.2 764.467Z" fill="white"/>
<path d="M52.6464 662.368L52.7451 662.327C53.8168 662.741 54.9987 662.771 56.0898 662.411C57.1809 662.052 58.114 661.326 58.7306 660.357C58.7306 660.357 56.3884 664.03 59.5791 666.223C58.5097 665.768 57.3134 665.708 56.2037 666.053C55.094 666.398 54.1431 667.127 53.5206 668.108C53.5206 668.108 55.8762 664.468 52.778 662.314L52.4737 662.131L52.6464 662.368Z" fill="white"/>
<path d="M287.881 728.552L287.577 728.369L288.218 728.722C295.261 732.187 300.354 724.714 300.354 724.714C300.354 724.714 295.216 732.359 302.052 736.637L302.449 736.859L302.382 736.695L302.462 736.892L302.019 736.651C294.803 732.948 289.672 740.514 289.672 740.514C289.672 740.514 294.652 733.048 288.172 728.702L287.577 728.369L287.881 728.552Z" fill="white"/>
<path d="M4.85958 775.237L5.19686 775.407C6.26742 775.82 7.4474 775.853 8.53937 775.5C9.63135 775.148 10.5691 774.431 11.1957 773.469C11.1957 773.469 8.64268 777.19 11.9979 779.316L12.0648 779.48L11.9712 779.25C10.8871 778.743 9.6552 778.651 8.50757 778.99C7.35995 779.328 6.37593 780.075 5.741 781.09C5.741 781.09 8.09656 777.45 4.9984 775.296L4.7074 775.146C4.7074 775.146 4.84622 775.204 4.85958 775.237Z" fill="white"/>
<path d="M86.2549 575.574L86.4605 575.797C87.5152 576.163 88.662 576.162 89.7166 575.797C90.7711 575.431 91.672 574.721 92.2742 573.782C92.2742 573.782 89.9187 577.422 93.1094 579.615C92.0326 579.167 90.8326 579.111 89.7191 579.458C88.6056 579.805 87.6495 580.533 87.018 581.513C87.018 581.513 89.3736 577.873 86.3217 575.739L86.0173 575.556C86.0173 575.556 86.2219 575.588 86.2549 575.574Z" fill="white"/>
<defs>
<linearGradient id="paint0_linear_23_2189" x1="-23.1325" y1="191.196" x2="2.90075" y2="173.264" gradientUnits="userSpaceOnUse">
<stop offset="0.11" stop-color="#FFFB74"/>
<stop offset="0.49" stop-color="#FFFA00"/>
<stop offset="0.93" stop-color="#FFC921"/>
</linearGradient>
<radialGradient id="paint1_radial_23_2189" cx="0" cy="0" r="1" gradientUnits="userSpaceOnUse" gradientTransform="translate(3.47854 170.714) rotate(-112.1) scale(33.077 33.4045)">
<stop offset="0.41" stop-color="#FFFB62"/>
<stop offset="0.85" stop-color="#F39F46"/>
</radialGradient>
<linearGradient id="paint2_linear_23_2189" x1="98.6743" y1="321.227" x2="122.972" y2="304.498" gradientUnits="userSpaceOnUse">
<stop offset="0.11" stop-color="#FFFB74"/>
<stop offset="0.49" stop-color="#FFFA00"/>
<stop offset="0.93" stop-color="#FFC921"/>
</linearGradient>
<radialGradient id="paint3_radial_23_2189" cx="0" cy="0" r="1" gradientUnits="userSpaceOnUse" gradientTransform="translate(123.208 302.587) rotate(-112.1) scale(30.9245 31.2306)">
<stop offset="0.41" stop-color="#FFFB62"/>
<stop offset="0.85" stop-color="#F39F46"/>
</radialGradient>
</defs>
</svg>
